<svg xmlns="http://www.w3.org/2000/svg" width="293" height="141" viewBox="0 0 293 141">
    <g fill="none" fill-rule="evenodd">
        <path fill="#FDBE10" d="M.122 140.099H285.98V6.834H.122z"/>
        <path fill="#000" d="M7.021 133.265h285.858V0H7.021z"/>
        <path fill="#FFBF00" d="M51.28 48.736c8.587-6.035 20.425-3.946 26.46 4.69 6.035 8.587 3.946 20.425-4.689 26.46L51.28 48.736z"/>
        <path fill="#58268E" d="M99.559 84.528c-8.588 6.035-20.426 3.946-26.461-4.689-6.034-8.588-3.945-20.426 4.69-26.46l21.77 31.15z"/>
        <path fill="#82C51B" d="M57.5 90.749c-6.035-8.588-3.946-20.426 4.688-26.461 8.589-6.035 20.426-3.946 26.461 4.689L57.5 90.749z"/>
        <path fill="#01703C" d="M93.292 42.516c6.035 8.588 3.946 20.426-4.688 26.46-8.589 6.036-20.427 3.947-26.461-4.688l31.149-21.772z"/>
        <path fill="#FFF" d="M75.605 62.524a2.461 2.461 0 1 1 0 4.922 2.461 2.461 0 0 1 0-4.922M143.985 56.814c-2.692 0-5.199 1.393-6.685 3.482-.928-2.09-2.97-3.528-5.384-3.528V79.84h5.895V68.466c0-3.853 1.625-5.803 5.2-5.803h2.646v-5.85h-1.672zM172.951 74.919c-3.247 0-5.896-2.968-5.896-6.64 0-3.57 2.65-6.498 5.896-6.498 3.252 0 5.896 2.834 5.896 6.499 0 3.76-2.644 6.639-5.896 6.639m.837-18.567h-.234c-2.6 0-5.524 1.066-7.426 3.297-1.066-1.673-2.878-2.79-5.015-2.79v28.972h5.942v-8.123c1.767 1.718 4.133 2.689 6.733 2.689 6.036-.045 10.957-5.244 10.957-12.067 0-6.778-4.92-11.978-10.957-11.978M121.656 70.09V50.966h-5.803v19.078c0 6.222 3.53 10.26 10.213 9.565v-5.293c-2.925.14-4.41-1.067-4.41-4.224"/>
        <path fill="#FFF" d="M115.854 68.466h5.85V50.965h-5.85z"/>
        <path fill="#FFF" d="M115.853 68.466v-5.849c3.204 0 5.85 2.599 5.85 5.849h-5.85zM127.552 62.617h-5.85c0-3.203 2.6-5.85 5.85-5.85v5.85zM110.004 62.617c6.406 0 11.652-5.2 11.652-11.652h-5.802a5.867 5.867 0 0 1-5.803 5.803l-.047 5.849z"/>
        <path fill="#FFF" d="M110.004 62.617h17.548v-5.849h-17.548zM149.975 79.839h5.896V56.86h-5.896zM219.86 70.289h.306c.62.08 1.005.427 1.005.853 0 .346-.266.659-1.159.659h-2.126c.307-.932 1.04-1.512 1.973-1.512zm.658 3.178c1.313 0 2.592-.78 2.592-2.285 0-1.006-.66-1.9-1.586-2.365a3.526 3.526 0 0 0-1.433-.307h-.232c-2.245 0-4.064 1.899-4.064 4.177 0 2.286 1.82 4.144 4.064 4.144 1.12 0 2.052-.346 2.744-.966l-1.392-1.352c-.346.386-.853.54-1.352.54-.967 0-1.746-.62-1.973-1.586h2.632zM227.6 70.289h.308c.619.08 1.005.427 1.005.853 0 .346-.266.659-1.16.659h-2.124c.306-.932 1.039-1.512 1.972-1.512zm.66 3.178c1.313 0 2.592-.78 2.592-2.285 0-1.006-.66-1.9-1.585-2.365a3.53 3.53 0 0 0-1.433-.307h-.233c-2.245 0-4.063 1.899-4.063 4.177 0 2.286 1.818 4.144 4.063 4.144 1.119 0 2.052-.346 2.745-.966l-1.392-1.352c-.347.386-.853.54-1.353.54-.966 0-1.745-.62-1.972-1.586h2.63zM215.213 68.703c-.93 0-1.781.465-2.323 1.2a2.06 2.06 0 0 0-1.858-1.2v7.974h2.052v-3.909c0-1.317.542-2.013 1.78-2.013h.89v-2.013l-.541-.039zM235.689 74.932c-1.12 0-2.052-1.006-2.052-2.245 0-1.273.893-2.279 2.052-2.279 1.126 0 2.052.967 2.052 2.28 0 1.278-.927 2.244-2.053 2.244m.314-6.382c-.893 0-1.746.346-2.326.926v-2.785h-2.05v9.987c.738 0 1.357-.387 1.744-.966.654.772 1.66 1.12 2.552 1.12h.08c2.091 0 3.79-1.78 3.79-4.145-.04-2.359-1.698-4.137-3.79-4.137M244.436 74.9a2.246 2.246 0 0 1 0-4.49 2.246 2.246 0 0 1 0 4.49m.12-6.39c-2.325-.08-4.218 1.78-4.258 4.064-.08 2.325 1.78 4.217 4.065 4.257 2.319.08 4.218-1.779 4.257-4.064.04-2.325-1.779-4.217-4.065-4.257M207.548 73.271V66.73h-2.013V73.31c0 2.167 1.2 3.522 3.523 3.29v-1.858c-1.007.04-1.51-.348-1.51-1.47"/>
        <path fill="#FFF" d="M205.535 72.729h2.013V66.69h-2.013z"/>
        <path fill="#FFF" d="M205.535 72.73v-2.014a2 2 0 0 1 2.013 2.013h-2.013zM209.56 70.716h-2.012a2 2 0 0 1 2.012-2.013v2.013zM203.523 70.716c2.206 0 4.025-1.819 4.025-4.026h-2.012c0 1.084-.892 1.974-2.013 2.013v2.013z"/>
        <path fill="#FFF" d="M203.522 70.716h6.038v-2.013h-6.038z"/>
        <path fill="#FDBE10" d="M202.555 72.652a4.246 4.246 0 0 1-4.26 4.258 4.246 4.246 0 0 1-4.257-4.258 4.246 4.246 0 0 1 4.258-4.258c2.323 0 4.259 1.897 4.259 4.258"/>
        <path fill="#FFF" d="M197.254 73.813c-.313 0-.62-.273-.62-.813 0-.54.267-.926.62-.926.307 0 .5.307.5.846 0 .586-.193.893-.5.893m.732-1.819c-.112-.153-.312-.233-.58-.233a.876.876 0 0 0-.771.506v-1.592h-.814v.353h.347v3.091h.274l.153-.459c.153.266.386.46.732.46a.907.907 0 0 0 .619-.267c.234-.233.347-.58.347-.933 0-.386-.073-.693-.307-.926M199.148 74.471c0 .04-.038.116-.038.155.192-.039.308-.155.463-.58l-.774-1.936h-.309v-.31h1.2v.31h-.387l.542 1.432.542-1.432h-.31v-.31h.968v.31h-.31l-.775 1.897c-.309.696-.58.89-.929.89-.31 0-.464-.155-.464-.387 0-.155.117-.31.31-.31.154-.039.27.116.27.271"/>
        <path fill="#999" d="M201.78 56.587v7.51h-.89v-3.484h-4.104v3.484h-.929v-7.51h.93v3.135h4.102v-3.135zM209.326 63.32c-1.546 0-2.825-1.312-2.825-3.018 0-1.699 1.28-3.018 2.825-3.018 1.592 0 2.831 1.279 2.831 3.018 0 1.706-1.279 3.018-2.83 3.018m0-6.929c-2.053 0-3.712 1.746-3.712 3.911 0 2.205 1.66 3.911 3.711 3.911 2.052 0 3.718-1.739 3.718-3.911 0-2.245-1.626-3.911-3.718-3.911M219.006 57.439v6.619h-.93v-6.62h-2.36v-.89h5.65v.89zM230.31 56.587v.89h-4.451v2.284h4.025v.891h-4.025v2.593h4.45v.891h-5.38v-7.51zM238.942 64.097h-4.8v-7.51h.93v6.62h3.87zM244.865 64.213c-1.742 0-2.865-1.006-2.865-2.516h.968c0 1.006.774 1.626 1.897 1.626 1.277 0 1.896-.542 1.896-1.394 0-.619-.27-1.045-1.935-1.355-1.665-.309-2.633-.813-2.633-2.09 0-1.278 1.046-2.129 2.633-2.129 1.626 0 2.671.89 2.671 2.322h-.929c0-.89-.58-1.471-1.703-1.471-1.162 0-1.704.504-1.704 1.2 0 .658.35.968 1.897 1.239 1.664.31 2.671.774 2.671 2.207-.039 1.587-1.2 2.361-2.864 2.361"/>
    </g>
</svg>
