<svg xmlns="http://www.w3.org/2000/svg" width="293" height="141" viewBox="0 0 293 141">
    <g fill="none" fill-rule="evenodd">
        <path fill="#582E8C" d="M.207 140.099h285.857V6.834H.207z"/>
        <path fill="#000" d="M7.106 133.265h285.857V0H7.106z"/>
        <path fill="#FFBF00" d="M35.905 48.156c8.588-6.035 20.426-3.946 26.461 4.69 6.035 8.587 3.946 20.425-4.689 26.46l-21.772-31.15z"/>
        <path fill="#58268E" d="M84.185 83.948c-8.588 6.035-20.426 3.946-26.461-4.689-6.035-8.588-3.945-20.426 4.689-26.46l21.772 31.15z"/>
        <path fill="#82C51B" d="M42.172 90.215c-6.035-8.588-3.945-20.426 4.689-26.46 8.588-6.036 20.426-3.947 26.46 4.688l-31.15 21.772z"/>
        <path fill="#01703C" d="M77.964 41.935c6.035 8.588 3.946 20.426-4.688 26.461-8.588 6.035-20.426 3.946-26.461-4.689l31.149-21.772z"/>
        <path fill="#FFF" d="M60.23 61.99a2.461 2.461 0 1 1 0 4.922 2.461 2.461 0 0 1 0-4.922M128.982 56.466c-2.738 0-5.245 1.393-6.823 3.528-.929-2.09-3.065-3.575-5.479-3.575V79.863h5.99v-11.56c0-3.945 1.624-5.895 5.291-5.895h2.693v-5.942h-1.672zM106.282 69.928V50.477h-5.942v19.404c0 6.36 3.621 10.446 10.398 9.703V74.2c-2.97.186-4.456-1.02-4.456-4.27"/>
        <path fill="#FFF" d="M100.34 68.303h5.942V50.477h-5.942z"/>
        <path fill="#FFF" d="M100.34 68.303v-5.941a5.924 5.924 0 0 1 5.942 5.941h-5.942zM112.225 62.361h-5.942a5.923 5.923 0 0 1 5.942-5.942v5.942zM94.397 62.361c6.546 0 11.838-5.292 11.885-11.838h-5.942a5.964 5.964 0 0 1-5.895 5.896l-.047 5.942z"/>
        <path fill="#FFF" d="M94.397 62.362h17.827v-5.989H94.397zM194.3 69.928V50.477h-5.942v19.404c0 6.36 3.62 10.446 10.399 9.703V74.2c-2.972.186-4.457-1.02-4.457-4.27"/>
        <path fill="#FFF" d="M188.357 68.303h5.942V50.477h-5.942z"/>
        <path fill="#FFF" d="M188.357 68.303v-5.941a5.924 5.924 0 0 1 5.942 5.941h-5.942zM200.288 62.361h-5.94a5.923 5.923 0 0 1 5.94-5.942v5.942zM182.462 62.361c6.546 0 11.838-5.292 11.885-11.838h-5.943a5.965 5.965 0 0 1-5.895 5.896l-.047 5.942z"/>
        <path fill="#FFF" d="M182.462 62.362h17.826v-5.989h-17.826zM154.469 80.838c0 1.578-.231 3.017-.742 4.317-.511 1.3-1.207 2.414-2.136 3.296-.93.929-1.996 1.625-3.25 2.136-1.253.51-2.692.743-4.27.743-1.253 0-2.507-.186-3.622-.604-1.16-.371-2.181-.975-3.063-1.671a10.027 10.027 0 0 1-2.23-2.6c-.602-1.021-1.02-2.09-1.206-3.296h6.22c.187.882.65 1.532 1.347 1.95.697.418 1.579.65 2.6.65.835 0 1.486-.14 2.089-.372.557-.278 1.022-.603 1.346-1.067.325-.418.604-.93.743-1.44a6.26 6.26 0 0 0 .233-1.624v-2.74a7.354 7.354 0 0 1-2.414 1.394 8.901 8.901 0 0 1-2.972.51c-1.44 0-2.738-.232-3.9-.743-1.16-.51-2.181-1.207-3.017-2.09-.835-.881-1.485-1.948-1.95-3.248-.464-1.254-.696-2.646-.696-4.225V56.42h5.989v13.694c0 .325.046.743.139 1.254a4.23 4.23 0 0 0 .604 1.532c.324.51.742.928 1.3 1.253.556.372 1.345.51 2.32.51 1.347 0 2.46-.417 3.297-1.3.835-.881 1.253-1.95 1.253-3.295V56.373h5.988v24.465zM179.537 72.528a6.81 6.81 0 0 1-.789 3.203 7.337 7.337 0 0 1-2.136 2.507c-.882.696-1.996 1.254-3.249 1.625a14.238 14.238 0 0 1-4.085.603c-1.486 0-2.879-.185-4.132-.557-1.254-.371-2.414-.928-3.342-1.625a8.839 8.839 0 0 1-2.368-2.553 9.245 9.245 0 0 1-1.207-3.389h6.081c.233.511.511.929.882 1.254a5.89 5.89 0 0 0 1.254.835c.464.232.93.372 1.44.465.51.092.974.139 1.438.139 1.207 0 2.23-.186 3.018-.511.79-.325 1.207-.882 1.207-1.578 0-.325-.047-.604-.186-.882-.139-.232-.37-.464-.743-.65a6.866 6.866 0 0 0-1.485-.511c-.65-.185-1.486-.325-2.507-.464-1.068-.139-2.182-.371-3.296-.604-1.16-.278-2.182-.649-3.157-1.16a7.35 7.35 0 0 1-2.413-2.043c-.604-.835-.929-1.903-.929-3.203 0-.928.185-1.81.603-2.739.418-.928 1.022-1.717 1.857-2.414.836-.696 1.857-1.253 3.11-1.717 1.254-.418 2.74-.65 4.41-.65 1.347 0 2.554.185 3.714.51 1.161.372 2.182.836 3.065 1.486.882.65 1.624 1.393 2.181 2.321.557.928.975 1.903 1.115 3.017h-6.22c-.187-.557-.605-1.021-1.255-1.392-.649-.372-1.53-.557-2.646-.557-1.392 0-2.414.185-3.017.603-.604.418-.929.836-.929 1.254 0 .603.418 1.067 1.207 1.299.836.279 1.95.511 3.39.79 1.438.232 2.784.51 4.038.835 1.207.325 2.274.743 3.156 1.254a5.871 5.871 0 0 1 2.09 2.042c.557.836.835 1.857.835 3.157M235.402 70.289h.307c.62.08 1.005.427 1.005.853 0 .346-.266.659-1.159.659h-2.126c.307-.932 1.04-1.512 1.973-1.512zm.66 3.178c1.312 0 2.591-.78 2.591-2.285 0-1.006-.659-1.9-1.586-2.365a3.525 3.525 0 0 0-1.432-.307h-.233c-2.245 0-4.064 1.899-4.064 4.177 0 2.286 1.82 4.144 4.064 4.144 1.12 0 2.052-.346 2.745-.966l-1.392-1.352c-.347.386-.854.54-1.353.54-.966 0-1.746-.62-1.973-1.586h2.632zM243.144 70.289h.307c.619.08 1.012.427 1.012.853 0 .346-.273.659-1.166.659h-2.125c.307-.932 1.046-1.512 1.972-1.512zm.66 3.178c1.313 0 2.59-.78 2.59-2.285 0-1.006-.658-1.9-1.584-2.365a3.53 3.53 0 0 0-1.433-.307h-.233c-2.245 0-4.063 1.899-4.063 4.177 0 2.286 1.818 4.144 4.063 4.144 1.119 0 2.052-.346 2.752-.966l-1.4-1.352c-.346.386-.845.54-1.352.54-.966 0-1.738-.62-1.972-1.586h2.632zM230.756 68.703c-.93 0-1.78.465-2.322 1.2a2.06 2.06 0 0 0-1.86-1.2v7.974h2.053v-3.909c0-1.317.542-2.013 1.78-2.013h.89v-2.013l-.541-.039zM251.231 74.932c-1.119 0-2.052-1.006-2.052-2.245 0-1.273.893-2.279 2.052-2.279 1.126 0 2.053.967 2.053 2.28 0 1.278-.927 2.244-2.053 2.244m.313-6.382c-.892 0-1.745.346-2.325.926v-2.785h-2.05v9.987c.738 0 1.357-.387 1.744-.966.66.772 1.666 1.12 2.551 1.12h.08c2.092 0 3.791-1.78 3.791-4.145-.04-2.359-1.699-4.137-3.79-4.137M259.98 74.9a2.25 2.25 0 0 1-2.245-2.246 2.25 2.25 0 0 1 2.244-2.245 2.252 2.252 0 0 1 2.252 2.245 2.252 2.252 0 0 1-2.252 2.245m.12-6.389c-2.325-.08-4.218 1.78-4.257 4.064-.08 2.325 1.78 4.217 4.064 4.257 2.325.08 4.217-1.779 4.257-4.064.04-2.325-1.779-4.217-4.064-4.257M223.092 73.271V66.73h-2.013V73.31c0 2.167 1.2 3.522 3.523 3.29v-1.858c-1.007.04-1.51-.348-1.51-1.47"/>
        <path fill="#FFF" d="M221.079 72.729h2.013V66.69h-2.013z"/>
        <path fill="#FFF" d="M221.08 72.73v-2.014a2 2 0 0 1 2.012 2.013h-2.013zM225.105 70.716h-2.013a2 2 0 0 1 2.012-2.013v2.013zM219.065 70.716c2.207 0 4.026-1.819 4.026-4.026h-2.012c0 1.084-.89 1.974-2.014 2.013v2.013z"/>
        <path fill="#FFF" d="M219.065 70.716h6.039v-2.013h-6.039z"/>
        <path fill="#582E8C" d="M218.098 72.652a4.245 4.245 0 0 1-4.258 4.258 4.246 4.246 0 0 1-4.258-4.258 4.246 4.246 0 0 1 4.258-4.258c2.322 0 4.258 1.897 4.258 4.258"/>
        <path fill="#FFF" d="M212.797 73.813c-.313 0-.62-.273-.62-.813 0-.54.267-.926.62-.926.307 0 .5.307.5.846 0 .586-.193.893-.5.893m.732-1.819c-.112-.153-.305-.233-.58-.233a.878.878 0 0 0-.771.506v-1.592h-.814v.353h.347v3.091h.274l.153-.459c.153.266.386.46.732.46a.911.911 0 0 0 .62-.267c.233-.233.353-.58.353-.933 0-.386-.08-.693-.314-.926M214.691 74.471c0 .04-.039.116-.039.155.194-.039.31-.155.465-.58l-.775-1.936h-.309v-.31h1.2v.31h-.387l.542 1.432.542-1.432h-.31v-.31h.967v.31h-.309l-.774 1.897c-.31.696-.58.89-.929.89-.31 0-.465-.155-.465-.387 0-.155.116-.31.31-.31.155-.039.271.116.271.271"/>
        <path fill="#999" d="M217.324 56.587v7.51h-.89v-3.484h-4.104v3.484h-.929v-7.51h.93v3.135h4.102v-3.135zM224.87 63.32c-1.547 0-2.826-1.312-2.826-3.018 0-1.699 1.28-3.018 2.825-3.018 1.592 0 2.831 1.279 2.831 3.018 0 1.706-1.279 3.018-2.83 3.018m0-6.929c-2.047 0-3.712 1.746-3.712 3.911 0 2.205 1.665 3.911 3.711 3.911 2.052 0 3.718-1.739 3.718-3.911 0-2.245-1.626-3.911-3.718-3.911M234.55 57.439v6.619h-.93v-6.62h-2.36v-.89h5.65v.89zM245.853 56.587v.89h-4.452v2.284h4.026v.891h-4.025v2.593h4.452v.891h-5.382v-7.51zM254.485 64.097h-4.8v-7.51h.93v6.62h3.87zM260.408 64.213c-1.742 0-2.864-1.006-2.864-2.516h.968c0 1.006.774 1.626 1.896 1.626 1.277 0 1.897-.542 1.897-1.394 0-.619-.27-1.045-1.935-1.355-1.665-.309-2.633-.813-2.633-2.09 0-1.278 1.045-2.129 2.633-2.129 1.625 0 2.671.89 2.671 2.322h-.93c0-.89-.58-1.471-1.703-1.471-1.16 0-1.703.504-1.703 1.2 0 .658.35.968 1.896 1.239 1.665.31 2.672.774 2.672 2.207-.039 1.587-1.2 2.361-2.865 2.361"/>
    </g>
</svg>
