<svg width="27" height="33" viewBox="0 0 27 33" xmlns="http://www.w3.org/2000/svg" xmlns:xlink="http://www.w3.org/1999/xlink"><title>48D1F0DC-2061-4172-B894-BE4D0FBE0CBB</title><defs><path id="a" d="M.006.023V33h26.99V.023H13.5z"/><path id="c" d="M0 .027V6h5V.027H0z"/></defs><g fill="none" fill-rule="evenodd"><mask id="b" fill="#fff"><use xlink:href="#a"/></mask><path d="M7.082 20.26h-.017v-2.087a1.982 1.982 0 0 0-1.97-1.988H3.758c-1.086 0-1.97.892-1.97 1.988v2.087H1.77C.795 20.26 0 21.06 0 22.046v9.167C0 32.198.795 33 1.771 33h5.31c.977 0 1.772-.802 1.772-1.787v-9.167c0-.985-.795-1.786-1.771-1.786zm-4.056-2.087c0-.407.329-.739.732-.739h1.337c.403 0 .732.332.732.74v2.086h-2.8v-2.087zm4.588 13.04a.542.542 0 0 1-.532.537h-5.31a.542.542 0 0 1-.533-.537v-9.167c0-.296.238-.537.532-.537h5.31c.29 0 .533.246.533.537v9.167zM21.96 3.293v.803h4.416c.342 0 .62.28.62.624a.622.622 0 0 1-.62.625H21.34a.622.622 0 0 1-.62-.625V2.67c0-.345.278-.625.62-.625h5.035c.342 0 .62.28.62.625a.622.622 0 0 1-.62.625H21.96zm4.042 15.497a.63.63 0 0 1 .162.474l-1.075 13.162a.622.622 0 0 1-.618.574h-6.397a.622.622 0 0 1-.62-.625c0-.345.278-.625.62-.625h5.827l.973-11.912h-6.8a.622.622 0 0 1-.62-.625c0-.345.278-.625.62-.625h7.472c.174 0 .339.073.456.202zm-7.284-1.907V1.658A1.63 1.63 0 0 1 20.339.023h6.037c.342 0 .62.28.62.625a.622.622 0 0 1-.62.625h-6.037a.385.385 0 0 0-.382.385v15.225a.622.622 0 0 1-.62.624.622.622 0 0 1-.62-.624zm3.242-9.516v.801h4.416c.342 0 .62.28.62.625a.622.622 0 0 1-.62.625H21.34a.622.622 0 0 1-.62-.625V6.742c0-.345.278-.625.62-.625h5.035c.342 0 .62.28.62.625a.622.622 0 0 1-.62.625H21.96zm-7.417 2.822H13.51V7.405c0-.912-.52-1.704-1.277-2.09v-2.17a.622.622 0 0 0-.62-.625h-.642V.665.648a.622.622 0 0 0-.62-.625H4.527c-.596 0-1.081.49-1.081 1.091v1.275c0 .345.277.625.619.625.342 0 .62-.28.62-.625V1.273h5.047V2.52h-.643c-.342 0-.619.28-.619.624v2.172a2.344 2.344 0 0 0-1.277 2.09v2.783H6.16a1.78 1.78 0 0 0-1.77 1.787v2.093c0 .345.277.624.618.624.343 0 .62-.28.62-.624v-2.093c0-.296.239-.537.532-.537h8.383c.293 0 .532.241.532.537v19.237a.535.535 0 0 1-.532.537h-4.267c-.342 0-.619.28-.619.625s.277.625.62.625h4.266a1.78 1.78 0 0 0 1.77-1.787V11.976a1.78 1.78 0 0 0-1.77-1.787zM9.709 5.066h1.285V3.77H9.709v1.296zm2.562 5.123h-3.84V7.405c0-.6.485-1.089 1.08-1.089h1.68c.596 0 1.08.489 1.08 1.09v2.783zm14.724.625a.622.622 0 0 1-.62.625H21.96v5.444a.622.622 0 0 1-.62.624.622.622 0 0 1-.619-.624v-6.069c0-.345.278-.624.62-.624h5.035c.342 0 .62.28.62.624z" stroke="#FFF" stroke-width=".3" fill="#0C893D" mask="url(#b)"/><rect fill="#00E95C" mask="url(#b)" x="1" y="22" width="6" height="10" rx="1"/><rect fill="#00E95C" mask="url(#b)" x="8.4" y="7.5" width="4.1" height="3" rx="1"/><rect fill="#00E95C" mask="url(#b)" x="9.134" y="12" width="6.27" height="20" rx="1"/><path d="M19.03 19.7h6.172l-1.03 10.8c-.053.55-.546.996-1.099.996H19l.03-11.796z" fill="#00E95C" mask="url(#b)"/><g mask="url(#b)"><g transform="translate(1.65 2.2)"><mask id="d" fill="#fff"><use xlink:href="#c"/></mask><path d="M2.55 4.3c-.551 0-1-.493-1-1.098 0-.567.823-1.727.917-1.857A.103.103 0 0 1 2.55 1.3c.032 0 .063.016.084.045.093.13.916 1.29.916 1.857 0 .605-.449 1.098-1 1.098z" fill="#00E95C" mask="url(#d)"/><path d="M2.47 5C1.66 5 1 4.348 1 3.545c0-.75 1.21-2.286 1.348-2.46a.157.157 0 0 1 .245 0c.138.174 1.348 1.71 1.348 2.46C3.94 4.348 3.28 5 2.47 5zm0-3.565c-.409.538-1.157 1.62-1.157 2.11 0 .632.52 1.145 1.157 1.145.639 0 1.158-.513 1.158-1.145 0-.49-.748-1.572-1.158-2.11z" stroke="#0C893D" stroke-width=".25" fill="#0C893D" mask="url(#d)"/></g><path d="M4.017 6.28a.156.156 0 0 1-.157-.155c0-.085.07-.155.157-.155a.529.529 0 0 0 .531-.525c0-.086.07-.155.156-.155.087 0 .157.07.157.155a.84.84 0 0 1-.844.835z" stroke="#0C893D" stroke-width=".13" fill="#0C893D"/></g></g></svg>