<svg width="35" height="31" viewBox="0 0 35 31" xmlns="http://www.w3.org/2000/svg"><title>F075630F-67D1-492B-B4DC-137BD54CE6C0</title><g fill="none" fill-rule="evenodd"><path d="M11.274 3.907a2.082 2.082 0 0 1 0 2.926 2.08 2.08 0 0 0 0 2.926M23.791 3.907a2.082 2.082 0 0 1 0 2.926 2.08 2.08 0 0 0 0 2.926M17.532.462a2.082 2.082 0 0 1 0 2.927 2.08 2.08 0 0 0 0 2.926" stroke="#0C893D" stroke-linecap="round" stroke-linejoin="round"/><path d="M3 26.307C3 18.406 9.044 12 16.5 12S30 18.406 30 26.307a54.677 54.677 0 0 1-27 0zM17.5 10.793c.48 0 .953.037 1.414.107a1.51 1.51 0 0 0 .086-.486c0-.836-.672-1.514-1.5-1.514s-1.5.678-1.5 1.514c0 .171.034.333.086.486.461-.07.933-.107 1.414-.107z" fill="#00E95C"/><path d="M3.276 25.833c0-7.926 6.368-14.352 14.224-14.352s14.224 6.426 14.224 14.352a60.423 60.423 0 0 1-28.448 0z" stroke="#0C893D" stroke-linecap="round"/><path d="M17.5 11.481c.73 0 1.446.056 2.146.163.078-.233.13-.477.13-.737A2.286 2.286 0 0 0 17.5 8.611a2.286 2.286 0 0 0-2.276 2.296c0 .26.052.504.13.737.7-.107 1.417-.163 2.146-.163zM14.852 14.072a11.948 11.948 0 0 1 2.648-.294M6.12 23.537c.606-3.349 2.575-6.428 5.497-8.175M31.565 23.69c.105.7.16 1.415.16 2.143a60.423 60.423 0 0 1-28.45 0c0-.728.055-1.443.159-2.142C1.892 24.53 1 25.405 1 26.12c0 2.06 7.387 4.305 16.5 4.305S34 28.18 34 26.12c0-.715-.892-1.59-2.435-2.43z" stroke="#0C893D" stroke-linecap="round"/></g></svg>