<?xml version="1.0" encoding="UTF-8"?>
<svg width="284px" height="181px" viewBox="0 0 284 181" version="1.1" xmlns="http://www.w3.org/2000/svg" xmlns:xlink="http://www.w3.org/1999/xlink">
    <!-- Generator: sketchtool 52.3 (67297) - http://www.bohemiancoding.com/sketch -->
    <title>D72D975D-790E-4FEE-B5B7-CCE7F8BA4474</title>
    <desc>Created with sketchtool.</desc>
    <defs>
        <polygon id="path-1" points="0 44.172 204.127 44.172 204.127 -7.10542736e-15 0 -7.10542736e-15"></polygon>
    </defs>
    <g id="Page-1" stroke="none" stroke-width="1" fill="none" fill-rule="evenodd">
        <g id="Msite_-Carousel" transform="translate(-624.000000, -53.000000)">
            <g id="Group-6" transform="translate(624.000000, 53.000000)">
                <polygon id="Fill-58" fill="#582E8C" points="0.983 180.427 276.432 180.427 276.432 6.834 0.983 6.834"></polygon>
                <polygon id="Fill-60" fill="#000000" points="7.881 173.593 283.331 173.593 283.331 -1.42108547e-14 7.881 -1.42108547e-14"></polygon>
                <path d="M40.3330156,86.5979156 L41.3935625,86.5979156 C41.4931719,87.5119781 42.3603594,88.1154938 43.5673906,88.1154938 C44.7099687,88.1154938 45.542,87.5119781 45.542,86.6799469 C45.542,85.9651031 45.0439531,85.52565 43.9072344,85.2326813 L42.82325,84.9514313 C41.2646562,84.5529938 40.57325,83.8674469 40.57325,82.7190094 C40.57325,81.3127594 41.8037187,80.3283844 43.5615312,80.3283844 C45.2431719,80.3283844 46.4619219,81.3244781 46.5087969,82.7424469 L45.4541094,82.7424469 C45.3603594,81.8342438 44.6279375,81.2776031 43.526375,81.2776031 C42.4306719,81.2776031 41.6689531,81.8459625 41.6689531,82.6721344 C41.6689531,83.3108063 42.1377031,83.6916656 43.2861406,83.9904938 L44.1709062,84.2248688 C45.9228594,84.6643219 46.6318437,85.33815 46.6318437,86.5510406 C46.6318437,88.0979156 45.4130937,89.0647125 43.4677812,89.0647125 C41.6748125,89.0647125 40.432625,88.0920563 40.3330156,86.5979156 Z M50.6630937,82.7248688 C52.2158281,82.7248688 53.2705156,83.9670563 53.2705156,85.8772125 C53.2705156,87.7873688 52.2216875,89.0295563 50.6865312,89.0295563 C49.8134844,89.0295563 49.1103594,88.6018219 48.7470781,87.9338531 L48.7236406,87.9338531 L48.7236406,90.9572906 L47.7041094,90.9572906 L47.7041094,82.8303375 L48.6709062,82.8303375 L48.6709062,83.8615875 L48.6943437,83.8615875 C49.0693437,83.1760406 49.7783281,82.7248688 50.6630937,82.7248688 Z M50.463875,88.1330719 C51.5478594,88.1330719 52.2275469,87.260025 52.2275469,85.8772125 C52.2275469,84.5002594 51.5478594,83.6213531 50.463875,83.6213531 C49.4209062,83.6213531 48.7177812,84.5236969 48.7177812,85.8772125 C48.7177812,87.2365875 49.4209062,88.1330719 50.463875,88.1330719 Z M56.3056719,88.1623688 C57.2666094,88.1623688 58.0048906,87.4885406 58.0048906,86.6096344 L58.0048906,86.1115875 L56.3759844,86.2111969 C55.5556719,86.2639313 55.0869219,86.6272125 55.0869219,87.2014313 C55.0869219,87.7815094 55.57325,88.1623688 56.3056719,88.1623688 Z M56.0771562,89.0295563 C54.8642656,89.0295563 54.0498125,88.2971344 54.0498125,87.2014313 C54.0498125,86.1584625 54.8525469,85.5022125 56.2587969,85.4201813 L58.0048906,85.3205719 L58.0048906,84.8108063 C58.0048906,84.0666656 57.5127031,83.6213531 56.6689531,83.6213531 C55.8837969,83.6213531 55.3916094,83.9904938 55.2627031,84.58815 L54.2783281,84.58815 C54.3486406,83.5334625 55.2509844,82.7248688 56.6923906,82.7248688 C58.1220781,82.7248688 59.0244219,83.4983063 59.0244219,84.7111969 L59.0244219,88.9240875 L58.057625,88.9240875 L58.057625,87.8752594 L58.0341875,87.8752594 C57.6709062,88.572525 56.8974687,89.0295563 56.0771562,89.0295563 Z M65.3818437,84.8283844 L64.38575,84.8283844 C64.2392656,84.166275 63.7236406,83.6213531 62.8271562,83.6213531 C61.7724687,83.6213531 61.057625,84.4944 61.057625,85.8772125 C61.057625,87.2951813 61.7841875,88.1330719 62.838875,88.1330719 C63.6709062,88.1330719 64.2158281,87.6936188 64.3916094,86.9611969 L65.3935625,86.9611969 C65.2353594,88.1740875 64.2158281,89.0295563 62.8330156,89.0295563 C61.1455156,89.0295563 60.0205156,87.8401031 60.0205156,85.8772125 C60.0205156,83.9553375 61.1396562,82.7248688 62.8212969,82.7248688 C64.3447344,82.7248688 65.2529375,83.7326813 65.3818437,84.8283844 Z M66.3837969,88.9240875 L66.3837969,82.8303375 L67.4033281,82.8303375 L67.4033281,88.9240875 L66.3837969,88.9240875 Z M66.8935625,81.8049469 C66.5478594,81.8049469 66.26075,81.5178375 66.26075,81.1721344 C66.26075,80.8205719 66.5478594,80.5393219 66.8935625,80.5393219 C67.245125,80.5393219 67.5322344,80.8205719 67.5322344,81.1721344 C67.5322344,81.5178375 67.245125,81.8049469 66.8935625,81.8049469 Z M71.3056719,89.0295563 C69.6181719,89.0295563 68.4814531,87.8166656 68.4814531,85.8772125 C68.4814531,83.9319 69.6181719,82.7248688 71.3056719,82.7248688 C72.9873125,82.7248688 74.1240312,83.9319 74.1240312,85.8772125 C74.1240312,87.8166656 72.9873125,89.0295563 71.3056719,89.0295563 Z M71.3056719,88.1330719 C72.3837969,88.1330719 73.0869219,87.3127594 73.0869219,85.8772125 C73.0869219,84.4416656 72.3837969,83.6213531 71.3056719,83.6213531 C70.2275469,83.6213531 69.5185625,84.4416656 69.5185625,85.8772125 C69.5185625,87.3127594 70.2275469,88.1330719 71.3056719,88.1330719 Z M80.1533281,82.8303375 L80.1533281,88.9240875 L79.1865312,88.9240875 L79.1865312,87.9338531 L79.1630937,87.9338531 C78.7998125,88.6369781 78.167,89.0295563 77.2295,89.0295563 C75.8994219,89.0295563 75.120125,88.1682281 75.120125,86.7854156 L75.120125,82.8303375 L76.1396562,82.8303375 L76.1396562,86.603775 C76.1396562,87.5940094 76.6025469,88.1272125 77.5459062,88.1272125 C78.5361406,88.1272125 79.1337969,87.447525 79.1337969,86.4104156 L79.1337969,82.8303375 L80.1533281,82.8303375 Z M81.3662187,84.5119781 C81.3662187,83.4690094 82.2978594,82.7248688 83.6396562,82.7248688 C84.8994219,82.7248688 85.8252031,83.4748688 85.8720781,84.5061188 L84.8994219,84.5061188 C84.8291094,83.9201813 84.3545,83.5569 83.6045,83.5569 C82.8603594,83.5569 82.3681719,83.9260406 82.3681719,84.4592438 C82.3681719,84.8811188 82.6904375,85.1623688 83.3818437,85.33815 L84.3252031,85.5666656 C85.5556719,85.8772125 86.0009844,86.322525 86.0009844,87.2190094 C86.0009844,88.2795563 84.9990312,89.0295563 83.5752031,89.0295563 C82.2392656,89.0295563 81.307625,88.3029938 81.2021562,87.2248688 L82.2216875,87.2248688 C82.3330156,87.8576813 82.8134844,88.197525 83.6396562,88.197525 C84.4658281,88.197525 84.9755937,87.8459625 84.9755937,87.2951813 C84.9755937,86.8615875 84.7236406,86.6272125 84.0380937,86.4455719 L82.9658281,86.1701813 C81.8935625,85.8947906 81.3662187,85.3440094 81.3662187,84.5119781 Z M94.5205156,82.8303375 L94.5205156,88.9240875 L93.5537187,88.9240875 L93.5537187,87.9338531 L93.5302812,87.9338531 C93.167,88.6369781 92.5341875,89.0295563 91.5966875,89.0295563 C90.2666094,89.0295563 89.4873125,88.1682281 89.4873125,86.7854156 L89.4873125,82.8303375 L90.5068437,82.8303375 L90.5068437,86.603775 C90.5068437,87.5940094 90.9697344,88.1272125 91.9130937,88.1272125 C92.9033281,88.1272125 93.5009844,87.447525 93.5009844,86.4104156 L93.5009844,82.8303375 L94.5205156,82.8303375 Z M98.7978594,82.7248688 C100.350594,82.7248688 101.405281,83.9670563 101.405281,85.8772125 C101.405281,87.7873688 100.356453,89.0295563 98.8212969,89.0295563 C97.94825,89.0295563 97.245125,88.6018219 96.8818437,87.9338531 L96.8584062,87.9338531 L96.8584062,90.9572906 L95.838875,90.9572906 L95.838875,82.8303375 L96.8056719,82.8303375 L96.8056719,83.8615875 L96.8291094,83.8615875 C97.2041094,83.1760406 97.9130937,82.7248688 98.7978594,82.7248688 Z M98.5986406,88.1330719 C99.682625,88.1330719 100.362312,87.260025 100.362312,85.8772125 C100.362312,84.5002594 99.682625,83.6213531 98.5986406,83.6213531 C97.5556719,83.6213531 96.8525469,84.5236969 96.8525469,85.8772125 C96.8525469,87.2365875 97.5556719,88.1330719 98.5986406,88.1330719 Z M102.325203,84.5119781 C102.325203,83.4690094 103.256844,82.7248688 104.598641,82.7248688 C105.858406,82.7248688 106.784187,83.4748688 106.831062,84.5061188 L105.858406,84.5061188 C105.788094,83.9201813 105.313484,83.5569 104.563484,83.5569 C103.819344,83.5569 103.327156,83.9260406 103.327156,84.4592438 C103.327156,84.8811188 103.649422,85.1623688 104.340828,85.33815 L105.284187,85.5666656 C106.514656,85.8772125 106.959969,86.322525 106.959969,87.2190094 C106.959969,88.2795563 105.958016,89.0295563 104.534187,89.0295563 C103.19825,89.0295563 102.266609,88.3029938 102.161141,87.2248688 L103.180672,87.2248688 C103.292,87.8576813 103.772469,88.197525 104.598641,88.197525 C105.424812,88.197525 105.934578,87.8459625 105.934578,87.2951813 C105.934578,86.8615875 105.682625,86.6272125 104.997078,86.4455719 L103.924812,86.1701813 C102.852547,85.8947906 102.325203,85.3440094 102.325203,84.5119781 Z M113.077156,84.8283844 L112.081062,84.8283844 C111.934578,84.166275 111.418953,83.6213531 110.522469,83.6213531 C109.467781,83.6213531 108.752937,84.4944 108.752937,85.8772125 C108.752937,87.2951813 109.4795,88.1330719 110.534187,88.1330719 C111.366219,88.1330719 111.911141,87.6936188 112.086922,86.9611969 L113.088875,86.9611969 C112.930672,88.1740875 111.911141,89.0295563 110.528328,89.0295563 C108.840828,89.0295563 107.715828,87.8401031 107.715828,85.8772125 C107.715828,83.9553375 108.834969,82.7248688 110.516609,82.7248688 C112.040047,82.7248688 112.94825,83.7326813 113.077156,84.8283844 Z M116.036141,88.1623688 C116.997078,88.1623688 117.735359,87.4885406 117.735359,86.6096344 L117.735359,86.1115875 L116.106453,86.2111969 C115.286141,86.2639313 114.817391,86.6272125 114.817391,87.2014313 C114.817391,87.7815094 115.303719,88.1623688 116.036141,88.1623688 Z M115.807625,89.0295563 C114.594734,89.0295563 113.780281,88.2971344 113.780281,87.2014313 C113.780281,86.1584625 114.583016,85.5022125 115.989266,85.4201813 L117.735359,85.3205719 L117.735359,84.8108063 C117.735359,84.0666656 117.243172,83.6213531 116.399422,83.6213531 C115.614266,83.6213531 115.122078,83.9904938 114.993172,84.58815 L114.008797,84.58815 C114.079109,83.5334625 114.981453,82.7248688 116.422859,82.7248688 C117.852547,82.7248688 118.754891,83.4983063 118.754891,84.7111969 L118.754891,88.9240875 L117.788094,88.9240875 L117.788094,87.8752594 L117.764656,87.8752594 C117.401375,88.572525 116.627937,89.0295563 115.807625,89.0295563 Z M120.102547,88.9240875 L120.102547,80.4690094 L121.122078,80.4690094 L121.122078,88.9240875 L120.102547,88.9240875 Z M124.942391,83.6096344 C123.987312,83.6096344 123.319344,84.3420563 123.254891,85.3557281 L126.565437,85.3557281 C126.542,84.3361969 125.903328,83.6096344 124.942391,83.6096344 Z M126.542,87.1779938 L127.543953,87.1779938 C127.368172,88.2444 126.336922,89.0295563 125.006844,89.0295563 C123.26075,89.0295563 122.200203,87.8166656 122.200203,85.90065 C122.200203,84.0080719 123.278328,82.7248688 124.959969,82.7248688 C126.606453,82.7248688 127.620125,83.9201813 127.620125,85.7658844 L127.620125,86.1526031 L123.249031,86.1526031 L123.249031,86.2111969 C123.249031,87.3772125 123.934578,88.1447906 125.030281,88.1447906 C125.803719,88.1447906 126.372078,87.7522125 126.542,87.1779938 Z M131.106453,88.9240875 L131.106453,82.8303375 L132.067391,82.8303375 L132.067391,83.8264313 L132.090828,83.8264313 C132.290047,83.1526031 132.852547,82.7248688 133.567391,82.7248688 C133.743172,82.7248688 133.895516,82.7541656 133.977547,82.7658844 L133.977547,83.7561188 C133.895516,83.7268219 133.678719,83.697525 133.432625,83.697525 C132.641609,83.697525 132.125984,84.2658844 132.125984,85.1272125 L132.125984,88.9240875 L131.106453,88.9240875 Z M137.036141,89.0295563 C135.348641,89.0295563 134.211922,87.8166656 134.211922,85.8772125 C134.211922,83.9319 135.348641,82.7248688 137.036141,82.7248688 C138.717781,82.7248688 139.8545,83.9319 139.8545,85.8772125 C139.8545,87.8166656 138.717781,89.0295563 137.036141,89.0295563 Z M137.036141,88.1330719 C138.114266,88.1330719 138.817391,87.3127594 138.817391,85.8772125 C138.817391,84.4416656 138.114266,83.6213531 137.036141,83.6213531 C135.958016,83.6213531 135.249031,84.4416656 135.249031,85.8772125 C135.249031,87.3127594 135.958016,88.1330719 137.036141,88.1330719 Z M143.405281,89.0295563 C141.717781,89.0295563 140.581062,87.8166656 140.581062,85.8772125 C140.581062,83.9319 141.717781,82.7248688 143.405281,82.7248688 C145.086922,82.7248688 146.223641,83.9319 146.223641,85.8772125 C146.223641,87.8166656 145.086922,89.0295563 143.405281,89.0295563 Z M143.405281,88.1330719 C144.483406,88.1330719 145.186531,87.3127594 145.186531,85.8772125 C145.186531,84.4416656 144.483406,83.6213531 143.405281,83.6213531 C142.327156,83.6213531 141.618172,84.4416656 141.618172,85.8772125 C141.618172,87.3127594 142.327156,88.1330719 143.405281,88.1330719 Z M147.249031,88.9240875 L147.249031,82.8303375 L148.209969,82.8303375 L148.209969,83.8029938 L148.233406,83.8029938 C148.520516,83.1584625 149.141609,82.7248688 149.961922,82.7248688 C150.793953,82.7248688 151.409187,83.1467438 151.672859,83.885025 L151.696297,83.885025 C152.036141,83.1584625 152.750984,82.7248688 153.606453,82.7248688 C154.813484,82.7248688 155.592781,83.510025 155.592781,84.7170563 L155.592781,88.9240875 L154.57325,88.9240875 L154.57325,84.9514313 C154.57325,84.1194 154.110359,83.6272125 153.307625,83.6272125 C152.499031,83.6272125 151.930672,84.2248688 151.930672,85.0510406 L151.930672,88.9240875 L150.911141,88.9240875 L150.911141,84.8401031 C150.911141,84.1076813 150.418953,83.6272125 149.663094,83.6272125 C148.8545,83.6272125 148.268562,84.260025 148.268562,85.103775 L148.268562,88.9240875 L147.249031,88.9240875 Z M156.782234,84.5119781 C156.782234,83.4690094 157.713875,82.7248688 159.055672,82.7248688 C160.315437,82.7248688 161.241219,83.4748688 161.288094,84.5061188 L160.315437,84.5061188 C160.245125,83.9201813 159.770516,83.5569 159.020516,83.5569 C158.276375,83.5569 157.784187,83.9260406 157.784187,84.4592438 C157.784187,84.8811188 158.106453,85.1623688 158.797859,85.33815 L159.741219,85.5666656 C160.971687,85.8772125 161.417,86.322525 161.417,87.2190094 C161.417,88.2795563 160.415047,89.0295563 158.991219,89.0295563 C157.655281,89.0295563 156.723641,88.3029938 156.618172,87.2248688 L157.637703,87.2248688 C157.749031,87.8576813 158.2295,88.197525 159.055672,88.197525 C159.881844,88.197525 160.391609,87.8459625 160.391609,87.2951813 C160.391609,86.8615875 160.139656,86.6272125 159.454109,86.4455719 L158.381844,86.1701813 C157.309578,85.8947906 156.782234,85.3440094 156.782234,84.5119781 Z" id="Spacious-upscale-roo" fill="#FFFFFF"></path>
                <path d="M45.870125,110.970869 L45.870125,111.920087 L40.7373125,111.920087 L40.7373125,103.465009 L41.792,103.465009 L41.792,110.970869 L45.870125,110.970869 Z M48.8818437,111.158369 C49.8427812,111.158369 50.5810625,110.484541 50.5810625,109.605634 L50.5810625,109.107587 L48.9521562,109.207197 C48.1318437,109.259931 47.6630937,109.623212 47.6630937,110.197431 C47.6630937,110.777509 48.1494219,111.158369 48.8818437,111.158369 Z M48.6533281,112.025556 C47.4404375,112.025556 46.6259844,111.293134 46.6259844,110.197431 C46.6259844,109.154462 47.4287187,108.498212 48.8349687,108.416181 L50.5810625,108.316572 L50.5810625,107.806806 C50.5810625,107.062666 50.088875,106.617353 49.245125,106.617353 C48.4599687,106.617353 47.9677812,106.986494 47.838875,107.58415 L46.8545,107.58415 C46.9248125,106.529462 47.8271562,105.720869 49.2685625,105.720869 C50.69825,105.720869 51.6005937,106.494306 51.6005937,107.707197 L51.6005937,111.920087 L50.6337969,111.920087 L50.6337969,110.871259 L50.6103594,110.871259 C50.2470781,111.568525 49.4736406,112.025556 48.6533281,112.025556 Z M57.8935625,105.826337 L55.6552812,111.920087 L54.6123125,111.920087 L52.3681719,105.826337 L53.4404375,105.826337 L55.1220781,110.836103 L55.1455156,110.836103 L56.8330156,105.826337 L57.8935625,105.826337 Z M58.7431719,111.920087 L58.7431719,105.826337 L59.7627031,105.826337 L59.7627031,111.920087 L58.7431719,111.920087 Z M59.2529375,104.800947 C58.9072344,104.800947 58.620125,104.513837 58.620125,104.168134 C58.620125,103.816572 58.9072344,103.535322 59.2529375,103.535322 C59.6045,103.535322 59.8916094,103.816572 59.8916094,104.168134 C59.8916094,104.513837 59.6045,104.800947 59.2529375,104.800947 Z M61.0341875,107.507978 C61.0341875,106.465009 61.9658281,105.720869 63.307625,105.720869 C64.5673906,105.720869 65.4931719,106.470869 65.5400469,107.502119 L64.5673906,107.502119 C64.4970781,106.916181 64.0224687,106.5529 63.2724687,106.5529 C62.5283281,106.5529 62.0361406,106.922041 62.0361406,107.455244 C62.0361406,107.877119 62.3584062,108.158369 63.0498125,108.33415 L63.9931719,108.562666 C65.2236406,108.873212 65.6689531,109.318525 65.6689531,110.215009 C65.6689531,111.275556 64.667,112.025556 63.2431719,112.025556 C61.9072344,112.025556 60.9755937,111.298994 60.870125,110.220869 L61.8896562,110.220869 C62.0009844,110.853681 62.4814531,111.193525 63.307625,111.193525 C64.1337969,111.193525 64.6435625,110.841962 64.6435625,110.291181 C64.6435625,109.857587 64.3916094,109.623212 63.7060625,109.441572 L62.6337969,109.166181 C61.5615312,108.890791 61.0341875,108.340009 61.0341875,107.507978 Z M66.776375,111.920087 L66.776375,103.465009 L67.7959062,103.465009 L67.7959062,106.798994 L67.8193437,106.798994 C68.1591875,106.119306 68.8271562,105.720869 69.7529375,105.720869 C71.088875,105.720869 71.8974687,106.623212 71.8974687,107.982587 L71.8974687,111.920087 L70.8779375,111.920087 L70.8779375,108.170087 C70.8779375,107.203291 70.3916094,106.623212 69.4365312,106.623212 C68.4228594,106.623212 67.7959062,107.314619 67.7959062,108.369306 L67.7959062,111.920087 L66.776375,111.920087 Z M78.682625,112.025556 C77.792,112.025556 77.0947344,111.591962 76.7021562,110.888837 L76.6787187,110.888837 L76.6787187,111.920087 L75.7060625,111.920087 L75.7060625,103.465009 L76.7255937,103.465009 L76.7255937,106.845869 L76.7490312,106.845869 C77.1298906,106.148603 77.838875,105.720869 78.7002031,105.720869 C80.2353594,105.720869 81.2724687,106.963056 81.2724687,108.873212 C81.2724687,110.789228 80.2412187,112.025556 78.682625,112.025556 Z M78.4834062,106.617353 C77.4521562,106.617353 76.7197344,107.519697 76.7197344,108.873212 C76.7197344,110.232587 77.4521562,111.129072 78.4834062,111.129072 C79.5615312,111.129072 80.2295,110.267744 80.2295,108.873212 C80.2295,107.4904 79.5615312,106.617353 78.4834062,106.617353 Z M87.307625,105.826337 L87.307625,111.920087 L86.3408281,111.920087 L86.3408281,110.929853 L86.3173906,110.929853 C85.9541094,111.632978 85.3212969,112.025556 84.3837969,112.025556 C83.0537187,112.025556 82.2744219,111.164228 82.2744219,109.781416 L82.2744219,105.826337 L83.2939531,105.826337 L83.2939531,109.599775 C83.2939531,110.590009 83.7568437,111.123212 84.7002031,111.123212 C85.6904375,111.123212 86.2880937,110.443525 86.2880937,109.406416 L86.2880937,105.826337 L87.307625,105.826337 Z M88.9541094,111.920087 L88.9541094,106.664228 L88.1045,106.664228 L88.1045,105.826337 L88.9541094,105.826337 L88.9541094,105.14665 C88.9541094,103.974775 89.4990312,103.418134 90.6240312,103.418134 C90.8525469,103.418134 91.0986406,103.441572 91.245125,103.465009 L91.245125,104.291181 C91.1220781,104.273603 90.9521562,104.256025 90.7822344,104.256025 C90.2314531,104.256025 89.9677812,104.548994 89.9677812,105.152509 L89.9677812,105.826337 L91.2158281,105.826337 L91.2158281,106.664228 L89.9736406,106.664228 L89.9736406,111.920087 L88.9541094,111.920087 Z M92.5986406,111.920087 L92.5986406,106.664228 L91.7490312,106.664228 L91.7490312,105.826337 L92.5986406,105.826337 L92.5986406,105.14665 C92.5986406,103.974775 93.1435625,103.418134 94.2685625,103.418134 C94.4970781,103.418134 94.7431719,103.441572 94.8896562,103.465009 L94.8896562,104.291181 C94.7666094,104.273603 94.5966875,104.256025 94.4267656,104.256025 C93.8759844,104.256025 93.6123125,104.548994 93.6123125,105.152509 L93.6123125,105.826337 L94.8603594,105.826337 L94.8603594,106.664228 L93.6181719,106.664228 L93.6181719,111.920087 L92.5986406,111.920087 Z M98.0654375,106.605634 C97.1103594,106.605634 96.4423906,107.338056 96.3779375,108.351728 L99.6884844,108.351728 C99.6650469,107.332197 99.026375,106.605634 98.0654375,106.605634 Z M99.6650469,110.173994 L100.667,110.173994 C100.491219,111.2404 99.4599687,112.025556 98.1298906,112.025556 C96.3837969,112.025556 95.32325,110.812666 95.32325,108.89665 C95.32325,107.004072 96.401375,105.720869 98.0830156,105.720869 C99.7295,105.720869 100.743172,106.916181 100.743172,108.761884 L100.743172,109.148603 L96.3720781,109.148603 L96.3720781,109.207197 C96.3720781,110.373212 97.057625,111.140791 98.1533281,111.140791 C98.9267656,111.140791 99.495125,110.748212 99.6650469,110.173994 Z M102.096687,104.355634 L103.116219,104.355634 L103.116219,105.826337 L104.299812,105.826337 L104.299812,106.664228 L103.116219,106.664228 L103.116219,110.285322 C103.116219,110.841962 103.350594,111.093916 103.872078,111.093916 C103.989266,111.093916 104.223641,111.076337 104.293953,111.064619 L104.293953,111.920087 C104.170906,111.949384 103.889656,111.966962 103.649422,111.966962 C102.530281,111.966962 102.096687,111.509931 102.096687,110.338056 L102.096687,106.664228 L101.188484,106.664228 L101.188484,105.826337 L102.096687,105.826337 L102.096687,104.355634 Z M110.874031,112.025556 C109.983406,112.025556 109.286141,111.591962 108.893562,110.888837 L108.870125,110.888837 L108.870125,111.920087 L107.897469,111.920087 L107.897469,103.465009 L108.917,103.465009 L108.917,106.845869 L108.940437,106.845869 C109.321297,106.148603 110.030281,105.720869 110.891609,105.720869 C112.426766,105.720869 113.463875,106.963056 113.463875,108.873212 C113.463875,110.789228 112.432625,112.025556 110.874031,112.025556 Z M110.674812,106.617353 C109.643562,106.617353 108.911141,107.519697 108.911141,108.873212 C108.911141,110.232587 109.643562,111.129072 110.674812,111.129072 C111.752937,111.129072 112.420906,110.267744 112.420906,108.873212 C112.420906,107.4904 111.752937,106.617353 110.674812,106.617353 Z M114.495125,111.920087 L114.495125,105.826337 L115.456062,105.826337 L115.456062,106.822431 L115.4795,106.822431 C115.678719,106.148603 116.241219,105.720869 116.956062,105.720869 C117.131844,105.720869 117.284187,105.750166 117.366219,105.761884 L117.366219,106.752119 C117.284187,106.722822 117.067391,106.693525 116.821297,106.693525 C116.030281,106.693525 115.514656,107.261884 115.514656,108.123212 L115.514656,111.920087 L114.495125,111.920087 Z M120.342781,106.605634 C119.387703,106.605634 118.719734,107.338056 118.655281,108.351728 L121.965828,108.351728 C121.942391,107.332197 121.303719,106.605634 120.342781,106.605634 Z M121.942391,110.173994 L122.944344,110.173994 C122.768562,111.2404 121.737312,112.025556 120.407234,112.025556 C118.661141,112.025556 117.600594,110.812666 117.600594,108.89665 C117.600594,107.004072 118.678719,105.720869 120.360359,105.720869 C122.006844,105.720869 123.020516,106.916181 123.020516,108.761884 L123.020516,109.148603 L118.649422,109.148603 L118.649422,109.207197 C118.649422,110.373212 119.334969,111.140791 120.430672,111.140791 C121.204109,111.140791 121.772469,110.748212 121.942391,110.173994 Z M126.055672,111.158369 C127.016609,111.158369 127.754891,110.484541 127.754891,109.605634 L127.754891,109.107587 L126.125984,109.207197 C125.305672,109.259931 124.836922,109.623212 124.836922,110.197431 C124.836922,110.777509 125.32325,111.158369 126.055672,111.158369 Z M125.827156,112.025556 C124.614266,112.025556 123.799812,111.293134 123.799812,110.197431 C123.799812,109.154462 124.602547,108.498212 126.008797,108.416181 L127.754891,108.316572 L127.754891,107.806806 C127.754891,107.062666 127.262703,106.617353 126.418953,106.617353 C125.633797,106.617353 125.141609,106.986494 125.012703,107.58415 L124.028328,107.58415 C124.098641,106.529462 125.000984,105.720869 126.442391,105.720869 C127.872078,105.720869 128.774422,106.494306 128.774422,107.707197 L128.774422,111.920087 L127.807625,111.920087 L127.807625,110.871259 L127.784187,110.871259 C127.420906,111.568525 126.647469,112.025556 125.827156,112.025556 Z M131.141609,108.533369 L133.836922,105.826337 L135.07325,105.826337 L132.430672,108.457197 L135.155281,111.920087 L133.971687,111.920087 L131.709969,109.08415 L131.141609,109.623212 L131.141609,111.920087 L130.122078,111.920087 L130.122078,103.465009 L131.141609,103.465009 L131.141609,108.533369 Z M136.221687,111.920087 L136.221687,106.664228 L135.372078,106.664228 L135.372078,105.826337 L136.221687,105.826337 L136.221687,105.14665 C136.221687,103.974775 136.766609,103.418134 137.891609,103.418134 C138.120125,103.418134 138.366219,103.441572 138.512703,103.465009 L138.512703,104.291181 C138.389656,104.273603 138.219734,104.256025 138.049812,104.256025 C137.499031,104.256025 137.235359,104.548994 137.235359,105.152509 L137.235359,105.826337 L138.483406,105.826337 L138.483406,106.664228 L137.241219,106.664228 L137.241219,111.920087 L136.221687,111.920087 Z M141.196297,111.158369 C142.157234,111.158369 142.895516,110.484541 142.895516,109.605634 L142.895516,109.107587 L141.266609,109.207197 C140.446297,109.259931 139.977547,109.623212 139.977547,110.197431 C139.977547,110.777509 140.463875,111.158369 141.196297,111.158369 Z M140.967781,112.025556 C139.754891,112.025556 138.940437,111.293134 138.940437,110.197431 C138.940437,109.154462 139.743172,108.498212 141.149422,108.416181 L142.895516,108.316572 L142.895516,107.806806 C142.895516,107.062666 142.403328,106.617353 141.559578,106.617353 C140.774422,106.617353 140.282234,106.986494 140.153328,107.58415 L139.168953,107.58415 C139.239266,106.529462 140.141609,105.720869 141.583016,105.720869 C143.012703,105.720869 143.915047,106.494306 143.915047,107.707197 L143.915047,111.920087 L142.94825,111.920087 L142.94825,110.871259 L142.924812,110.871259 C142.561531,111.568525 141.788094,112.025556 140.967781,112.025556 Z M145.1045,107.507978 C145.1045,106.465009 146.036141,105.720869 147.377937,105.720869 C148.637703,105.720869 149.563484,106.470869 149.610359,107.502119 L148.637703,107.502119 C148.567391,106.916181 148.092781,106.5529 147.342781,106.5529 C146.598641,106.5529 146.106453,106.922041 146.106453,107.455244 C146.106453,107.877119 146.428719,108.158369 147.120125,108.33415 L148.063484,108.562666 C149.293953,108.873212 149.739266,109.318525 149.739266,110.215009 C149.739266,111.275556 148.737312,112.025556 147.313484,112.025556 C145.977547,112.025556 145.045906,111.298994 144.940437,110.220869 L145.959969,110.220869 C146.071297,110.853681 146.551766,111.193525 147.377937,111.193525 C148.204109,111.193525 148.713875,110.841962 148.713875,110.291181 C148.713875,109.857587 148.461922,109.623212 147.776375,109.441572 L146.704109,109.166181 C145.631844,108.890791 145.1045,108.340009 145.1045,107.507978 Z M151.122078,104.355634 L152.141609,104.355634 L152.141609,105.826337 L153.325203,105.826337 L153.325203,106.664228 L152.141609,106.664228 L152.141609,110.285322 C152.141609,110.841962 152.375984,111.093916 152.897469,111.093916 C153.014656,111.093916 153.249031,111.076337 153.319344,111.064619 L153.319344,111.920087 C153.196297,111.949384 152.915047,111.966962 152.674812,111.966962 C151.555672,111.966962 151.122078,111.509931 151.122078,110.338056 L151.122078,106.664228 L150.213875,106.664228 L150.213875,105.826337 L151.122078,105.826337 L151.122078,104.355634 Z" id="Lavish-buffet-breakf" fill="#FFFFFF"></path>
                <path d="M41.792,134.916088 L40.7373125,134.916088 L40.7373125,126.461009 L41.792,126.461009 L41.792,134.916088 Z M43.2744219,134.916088 L43.2744219,128.822338 L44.2353594,128.822338 L44.2353594,129.794994 L44.2587969,129.794994 C44.5986406,129.138744 45.2490312,128.716869 46.1923906,128.716869 C47.5283281,128.716869 48.3017656,129.578197 48.3017656,130.961009 L48.3017656,134.916088 L47.2822344,134.916088 L47.2822344,131.14265 C47.2822344,130.158275 46.8193437,129.619213 45.8818437,129.619213 C44.9209062,129.619213 44.2939531,130.2989 44.2939531,131.33015 L44.2939531,134.916088 L43.2744219,134.916088 Z M53.4287187,131.962963 L49.5849687,131.962963 L49.5849687,131.013744 L53.4287187,131.013744 L53.4287187,131.962963 Z M54.7939531,134.916088 L54.7939531,126.461009 L55.8134844,126.461009 L55.8134844,129.794994 L55.8369219,129.794994 C56.1767656,129.115306 56.8447344,128.716869 57.7705156,128.716869 C59.1064531,128.716869 59.9150469,129.619213 59.9150469,130.978588 L59.9150469,134.916088 L58.8955156,134.916088 L58.8955156,131.166088 C58.8955156,130.199291 58.4091875,129.619213 57.4541094,129.619213 C56.4404375,129.619213 55.8134844,130.310619 55.8134844,131.365306 L55.8134844,134.916088 L54.7939531,134.916088 Z M63.7353594,135.021556 C62.0478594,135.021556 60.9111406,133.808666 60.9111406,131.869213 C60.9111406,129.9239 62.0478594,128.716869 63.7353594,128.716869 C65.417,128.716869 66.5537187,129.9239 66.5537187,131.869213 C66.5537187,133.808666 65.417,135.021556 63.7353594,135.021556 Z M63.7353594,134.125072 C64.8134844,134.125072 65.5166094,133.304759 65.5166094,131.869213 C65.5166094,130.433666 64.8134844,129.613353 63.7353594,129.613353 C62.6572344,129.613353 61.94825,130.433666 61.94825,131.869213 C61.94825,133.304759 62.6572344,134.125072 63.7353594,134.125072 Z M72.5830156,128.822338 L72.5830156,134.916088 L71.6162187,134.916088 L71.6162187,133.925853 L71.5927812,133.925853 C71.2295,134.628978 70.5966875,135.021556 69.6591875,135.021556 C68.3291094,135.021556 67.5498125,134.160228 67.5498125,132.777416 L67.5498125,128.822338 L68.5693437,128.822338 L68.5693437,132.595775 C68.5693437,133.586009 69.0322344,134.119213 69.9755937,134.119213 C70.9658281,134.119213 71.5634844,133.439525 71.5634844,132.402416 L71.5634844,128.822338 L72.5830156,128.822338 Z M73.7959062,130.503978 C73.7959062,129.461009 74.7275469,128.716869 76.0693437,128.716869 C77.3291094,128.716869 78.2548906,129.466869 78.3017656,130.498119 L77.3291094,130.498119 C77.2587969,129.912181 76.7841875,129.5489 76.0341875,129.5489 C75.2900469,129.5489 74.7978594,129.918041 74.7978594,130.451244 C74.7978594,130.873119 75.120125,131.154369 75.8115312,131.33015 L76.7548906,131.558666 C77.9853594,131.869213 78.4306719,132.314525 78.4306719,133.211009 C78.4306719,134.271556 77.4287187,135.021556 76.0048906,135.021556 C74.6689531,135.021556 73.7373125,134.294994 73.6318437,133.216869 L74.651375,133.216869 C74.7627031,133.849681 75.2431719,134.189525 76.0693437,134.189525 C76.8955156,134.189525 77.4052812,133.837963 77.4052812,133.287181 C77.4052812,132.853588 77.1533281,132.619213 76.4677812,132.437572 L75.3955156,132.162181 C74.32325,131.886791 73.7959062,131.336009 73.7959062,130.503978 Z M81.9287187,129.601634 C80.9736406,129.601634 80.3056719,130.334056 80.2412187,131.347728 L83.5517656,131.347728 C83.5283281,130.328197 82.8896562,129.601634 81.9287187,129.601634 Z M83.5283281,133.169994 L84.5302812,133.169994 C84.3545,134.2364 83.32325,135.021556 81.9931719,135.021556 C80.2470781,135.021556 79.1865312,133.808666 79.1865312,131.89265 C79.1865312,130.000072 80.2646562,128.716869 81.9462969,128.716869 C83.5927812,128.716869 84.6064531,129.912181 84.6064531,131.757884 L84.6064531,132.144603 L80.2353594,132.144603 L80.2353594,132.203197 C80.2353594,133.369213 80.9209062,134.136791 82.0166094,134.136791 C82.7900469,134.136791 83.3584062,133.744213 83.5283281,133.169994 Z M88.4209062,134.916088 L88.4209062,129.660228 L87.5712969,129.660228 L87.5712969,128.822338 L88.4209062,128.822338 L88.4209062,128.14265 C88.4209062,126.970775 88.9658281,126.414134 90.0908281,126.414134 C90.3193437,126.414134 90.5654375,126.437572 90.7119219,126.461009 L90.7119219,127.287181 C90.588875,127.269603 90.4189531,127.252025 90.2490312,127.252025 C89.69825,127.252025 89.4345781,127.544994 89.4345781,128.148509 L89.4345781,128.822338 L90.682625,128.822338 L90.682625,129.660228 L89.4404375,129.660228 L89.4404375,134.916088 L88.4209062,134.916088 Z M96.7412187,128.822338 L96.7412187,134.916088 L95.7744219,134.916088 L95.7744219,133.925853 L95.7509844,133.925853 C95.3877031,134.628978 94.7548906,135.021556 93.8173906,135.021556 C92.4873125,135.021556 91.7080156,134.160228 91.7080156,132.777416 L91.7080156,128.822338 L92.7275469,128.822338 L92.7275469,132.595775 C92.7275469,133.586009 93.1904375,134.119213 94.1337969,134.119213 C95.1240312,134.119213 95.7216875,133.439525 95.7216875,132.402416 L95.7216875,128.822338 L96.7412187,128.822338 Z M98.1123125,134.916088 L98.1123125,126.461009 L99.1318437,126.461009 L99.1318437,134.916088 L98.1123125,134.916088 Z M100.561531,134.916088 L100.561531,126.461009 L101.581062,126.461009 L101.581062,134.916088 L100.561531,134.916088 Z M106.790047,131.962963 L102.946297,131.962963 L102.946297,131.013744 L106.790047,131.013744 L106.790047,131.962963 Z M107.997078,130.503978 C107.997078,129.461009 108.928719,128.716869 110.270516,128.716869 C111.530281,128.716869 112.456062,129.466869 112.502937,130.498119 L111.530281,130.498119 C111.459969,129.912181 110.985359,129.5489 110.235359,129.5489 C109.491219,129.5489 108.999031,129.918041 108.999031,130.451244 C108.999031,130.873119 109.321297,131.154369 110.012703,131.33015 L110.956062,131.558666 C112.186531,131.869213 112.631844,132.314525 112.631844,133.211009 C112.631844,134.271556 111.629891,135.021556 110.206062,135.021556 C108.870125,135.021556 107.938484,134.294994 107.833016,133.216869 L108.852547,133.216869 C108.963875,133.849681 109.444344,134.189525 110.270516,134.189525 C111.096687,134.189525 111.606453,133.837963 111.606453,133.287181 C111.606453,132.853588 111.3545,132.619213 110.668953,132.437572 L109.596687,132.162181 C108.524422,131.886791 107.997078,131.336009 107.997078,130.503978 Z M116.129891,129.601634 C115.174812,129.601634 114.506844,130.334056 114.442391,131.347728 L117.752937,131.347728 C117.7295,130.328197 117.090828,129.601634 116.129891,129.601634 Z M117.7295,133.169994 L118.731453,133.169994 C118.555672,134.2364 117.524422,135.021556 116.194344,135.021556 C114.44825,135.021556 113.387703,133.808666 113.387703,131.89265 C113.387703,130.000072 114.465828,128.716869 116.147469,128.716869 C117.793953,128.716869 118.807625,129.912181 118.807625,131.757884 L118.807625,132.144603 L114.436531,132.144603 L114.436531,132.203197 C114.436531,133.369213 115.122078,134.136791 116.217781,134.136791 C116.991219,134.136791 117.559578,133.744213 117.7295,133.169994 Z M119.833016,134.916088 L119.833016,128.822338 L120.793953,128.822338 L120.793953,129.818431 L120.817391,129.818431 C121.016609,129.144603 121.579109,128.716869 122.293953,128.716869 C122.469734,128.716869 122.622078,128.746166 122.704109,128.757884 L122.704109,129.748119 C122.622078,129.718822 122.405281,129.689525 122.159187,129.689525 C121.368172,129.689525 120.852547,130.257884 120.852547,131.119213 L120.852547,134.916088 L119.833016,134.916088 Z M128.528328,128.822338 L126.290047,134.916088 L125.247078,134.916088 L123.002937,128.822338 L124.075203,128.822338 L125.756844,133.832103 L125.780281,133.832103 L127.467781,128.822338 L128.528328,128.822338 Z M129.377937,134.916088 L129.377937,128.822338 L130.397469,128.822338 L130.397469,134.916088 L129.377937,134.916088 Z M129.887703,127.796947 C129.542,127.796947 129.254891,127.509838 129.254891,127.164134 C129.254891,126.812572 129.542,126.531322 129.887703,126.531322 C130.239266,126.531322 130.526375,126.812572 130.526375,127.164134 C130.526375,127.509838 130.239266,127.796947 129.887703,127.796947 Z M136.836922,130.820384 L135.840828,130.820384 C135.694344,130.158275 135.178719,129.613353 134.282234,129.613353 C133.227547,129.613353 132.512703,130.4864 132.512703,131.869213 C132.512703,133.287181 133.239266,134.125072 134.293953,134.125072 C135.125984,134.125072 135.670906,133.685619 135.846687,132.953197 L136.848641,132.953197 C136.690437,134.166088 135.670906,135.021556 134.288094,135.021556 C132.600594,135.021556 131.475594,133.832103 131.475594,131.869213 C131.475594,129.947338 132.594734,128.716869 134.276375,128.716869 C135.799812,128.716869 136.708016,129.724681 136.836922,130.820384 Z M140.2295,129.601634 C139.274422,129.601634 138.606453,130.334056 138.542,131.347728 L141.852547,131.347728 C141.829109,130.328197 141.190437,129.601634 140.2295,129.601634 Z M141.829109,133.169994 L142.831062,133.169994 C142.655281,134.2364 141.624031,135.021556 140.293953,135.021556 C138.547859,135.021556 137.487312,133.808666 137.487312,131.89265 C137.487312,130.000072 138.565437,128.716869 140.247078,128.716869 C141.893562,128.716869 142.907234,129.912181 142.907234,131.757884 L142.907234,132.144603 L138.536141,132.144603 L138.536141,132.203197 C138.536141,133.369213 139.221687,134.136791 140.317391,134.136791 C141.090828,134.136791 141.659187,133.744213 141.829109,133.169994 Z M146.393562,134.916088 L146.393562,128.822338 L147.3545,128.822338 L147.3545,129.818431 L147.377937,129.818431 C147.577156,129.144603 148.139656,128.716869 148.8545,128.716869 C149.030281,128.716869 149.182625,128.746166 149.264656,128.757884 L149.264656,129.748119 C149.182625,129.718822 148.965828,129.689525 148.719734,129.689525 C147.928719,129.689525 147.413094,130.257884 147.413094,131.119213 L147.413094,134.916088 L146.393562,134.916088 Z M152.241219,129.601634 C151.286141,129.601634 150.618172,130.334056 150.553719,131.347728 L153.864266,131.347728 C153.840828,130.328197 153.202156,129.601634 152.241219,129.601634 Z M153.840828,133.169994 L154.842781,133.169994 C154.667,134.2364 153.63575,135.021556 152.305672,135.021556 C150.559578,135.021556 149.499031,133.808666 149.499031,131.89265 C149.499031,130.000072 150.577156,128.716869 152.258797,128.716869 C153.905281,128.716869 154.918953,129.912181 154.918953,131.757884 L154.918953,132.144603 L150.547859,132.144603 L150.547859,132.203197 C150.547859,133.369213 151.233406,134.136791 152.329109,134.136791 C153.102547,134.136791 153.670906,133.744213 153.840828,133.169994 Z M155.838875,130.503978 C155.838875,129.461009 156.770516,128.716869 158.112312,128.716869 C159.372078,128.716869 160.297859,129.466869 160.344734,130.498119 L159.372078,130.498119 C159.301766,129.912181 158.827156,129.5489 158.077156,129.5489 C157.333016,129.5489 156.840828,129.918041 156.840828,130.451244 C156.840828,130.873119 157.163094,131.154369 157.8545,131.33015 L158.797859,131.558666 C160.028328,131.869213 160.473641,132.314525 160.473641,133.211009 C160.473641,134.271556 159.471687,135.021556 158.047859,135.021556 C156.711922,135.021556 155.780281,134.294994 155.674812,133.216869 L156.694344,133.216869 C156.805672,133.849681 157.286141,134.189525 158.112312,134.189525 C158.938484,134.189525 159.44825,133.837963 159.44825,133.287181 C159.44825,132.853588 159.196297,132.619213 158.51075,132.437572 L157.438484,132.162181 C156.366219,131.886791 155.838875,131.336009 155.838875,130.503978 Z M161.856453,127.351634 L162.875984,127.351634 L162.875984,128.822338 L164.059578,128.822338 L164.059578,129.660228 L162.875984,129.660228 L162.875984,133.281322 C162.875984,133.837963 163.110359,134.089916 163.631844,134.089916 C163.749031,134.089916 163.983406,134.072338 164.053719,134.060619 L164.053719,134.916088 C163.930672,134.945384 163.649422,134.962963 163.409187,134.962963 C162.290047,134.962963 161.856453,134.505931 161.856453,133.334056 L161.856453,129.660228 L160.94825,129.660228 L160.94825,128.822338 L161.856453,128.822338 L161.856453,127.351634 Z M167.036141,134.154369 C167.997078,134.154369 168.735359,133.480541 168.735359,132.601634 L168.735359,132.103588 L167.106453,132.203197 C166.286141,132.255931 165.817391,132.619213 165.817391,133.193431 C165.817391,133.773509 166.303719,134.154369 167.036141,134.154369 Z M166.807625,135.021556 C165.594734,135.021556 164.780281,134.289134 164.780281,133.193431 C164.780281,132.150463 165.583016,131.494213 166.989266,131.412181 L168.735359,131.312572 L168.735359,130.802806 C168.735359,130.058666 168.243172,129.613353 167.399422,129.613353 C166.614266,129.613353 166.122078,129.982494 165.993172,130.58015 L165.008797,130.58015 C165.079109,129.525463 165.981453,128.716869 167.422859,128.716869 C168.852547,128.716869 169.754891,129.490306 169.754891,130.703197 L169.754891,134.916088 L168.788094,134.916088 L168.788094,133.867259 L168.764656,133.867259 C168.401375,134.564525 167.627937,135.021556 166.807625,135.021556 Z M176.053719,128.822338 L176.053719,134.916088 L175.086922,134.916088 L175.086922,133.925853 L175.063484,133.925853 C174.700203,134.628978 174.067391,135.021556 173.129891,135.021556 C171.799812,135.021556 171.020516,134.160228 171.020516,132.777416 L171.020516,128.822338 L172.040047,128.822338 L172.040047,132.595775 C172.040047,133.586009 172.502937,134.119213 173.446297,134.119213 C174.436531,134.119213 175.034187,133.439525 175.034187,132.402416 L175.034187,128.822338 L176.053719,128.822338 Z M177.372078,134.916088 L177.372078,128.822338 L178.333016,128.822338 L178.333016,129.818431 L178.356453,129.818431 C178.555672,129.144603 179.118172,128.716869 179.833016,128.716869 C180.008797,128.716869 180.161141,128.746166 180.243172,128.757884 L180.243172,129.748119 C180.161141,129.718822 179.944344,129.689525 179.69825,129.689525 C178.907234,129.689525 178.391609,130.257884 178.391609,131.119213 L178.391609,134.916088 L177.372078,134.916088 Z M182.961922,134.154369 C183.922859,134.154369 184.661141,133.480541 184.661141,132.601634 L184.661141,132.103588 L183.032234,132.203197 C182.211922,132.255931 181.743172,132.619213 181.743172,133.193431 C181.743172,133.773509 182.2295,134.154369 182.961922,134.154369 Z M182.733406,135.021556 C181.520516,135.021556 180.706062,134.289134 180.706062,133.193431 C180.706062,132.150463 181.508797,131.494213 182.915047,131.412181 L184.661141,131.312572 L184.661141,130.802806 C184.661141,130.058666 184.168953,129.613353 183.325203,129.613353 C182.540047,129.613353 182.047859,129.982494 181.918953,130.58015 L180.934578,130.58015 C181.004891,129.525463 181.907234,128.716869 183.348641,128.716869 C184.778328,128.716869 185.680672,129.490306 185.680672,130.703197 L185.680672,134.916088 L184.713875,134.916088 L184.713875,133.867259 L184.690437,133.867259 C184.327156,134.564525 183.553719,135.021556 182.733406,135.021556 Z M186.975594,134.916088 L186.975594,128.822338 L187.936531,128.822338 L187.936531,129.794994 L187.959969,129.794994 C188.299812,129.138744 188.950203,128.716869 189.893562,128.716869 C191.2295,128.716869 192.002937,129.578197 192.002937,130.961009 L192.002937,134.916088 L190.983406,134.916088 L190.983406,131.14265 C190.983406,130.158275 190.520516,129.619213 189.583016,129.619213 C188.622078,129.619213 187.995125,130.2989 187.995125,131.33015 L187.995125,134.916088 L186.975594,134.916088 Z M193.625984,127.351634 L194.645516,127.351634 L194.645516,128.822338 L195.829109,128.822338 L195.829109,129.660228 L194.645516,129.660228 L194.645516,133.281322 C194.645516,133.837963 194.879891,134.089916 195.401375,134.089916 C195.518562,134.089916 195.752937,134.072338 195.82325,134.060619 L195.82325,134.916088 C195.700203,134.945384 195.418953,134.962963 195.178719,134.962963 C194.059578,134.962963 193.625984,134.505931 193.625984,133.334056 L193.625984,129.660228 L192.717781,129.660228 L192.717781,128.822338 L193.625984,128.822338 L193.625984,127.351634 Z" id="In-house-full-servic" fill="#FFFFFF"></path>
                <path d="M40.7373125,148.457009 L43.7548906,148.457009 C45.3427812,148.457009 46.4619219,149.570291 46.4619219,151.1699 C46.4619219,152.775369 45.3310625,153.894509 43.7431719,153.894509 L41.792,153.894509 L41.792,156.912088 L40.7373125,156.912088 L40.7373125,148.457009 Z M41.792,149.394509 L41.792,152.957009 L43.4795,152.957009 C44.6865312,152.957009 45.3779375,152.2949 45.3779375,151.1699 C45.3779375,150.050759 44.6923906,149.394509 43.4795,149.394509 L41.792,149.394509 Z M47.51075,156.912088 L47.51075,150.818338 L48.4716875,150.818338 L48.4716875,151.814431 L48.495125,151.814431 C48.6943437,151.140603 49.2568437,150.712869 49.9716875,150.712869 C50.1474687,150.712869 50.2998125,150.742166 50.3818437,150.753884 L50.3818437,151.744119 C50.2998125,151.714822 50.0830156,151.685525 49.8369219,151.685525 C49.0459062,151.685525 48.5302812,152.253884 48.5302812,153.115213 L48.5302812,156.912088 L47.51075,156.912088 Z M51.26075,156.912088 L51.26075,150.818338 L52.2802812,150.818338 L52.2802812,156.912088 L51.26075,156.912088 Z M51.7705156,149.792947 C51.4248125,149.792947 51.1377031,149.505838 51.1377031,149.160134 C51.1377031,148.808572 51.4248125,148.527322 51.7705156,148.527322 C52.1220781,148.527322 52.4091875,148.808572 52.4091875,149.160134 C52.4091875,149.505838 52.1220781,149.792947 51.7705156,149.792947 Z M53.6572344,156.912088 L53.6572344,150.818338 L54.6181719,150.818338 L54.6181719,151.790994 L54.6416094,151.790994 C54.9287187,151.146463 55.5498125,150.712869 56.370125,150.712869 C57.2021562,150.712869 57.8173906,151.134744 58.0810625,151.873025 L58.1045,151.873025 C58.4443437,151.146463 59.1591875,150.712869 60.0146562,150.712869 C61.2216875,150.712869 62.0009844,151.498025 62.0009844,152.705056 L62.0009844,156.912088 L60.9814531,156.912088 L60.9814531,152.939431 C60.9814531,152.1074 60.5185625,151.615213 59.7158281,151.615213 C58.9072344,151.615213 58.338875,152.212869 58.338875,153.039041 L58.338875,156.912088 L57.3193437,156.912088 L57.3193437,152.828103 C57.3193437,152.095681 56.8271562,151.615213 56.0712969,151.615213 C55.2627031,151.615213 54.6767656,152.248025 54.6767656,153.091775 L54.6767656,156.912088 L53.6572344,156.912088 Z M65.7392656,151.597634 C64.7841875,151.597634 64.1162187,152.330056 64.0517656,153.343728 L67.3623125,153.343728 C67.338875,152.324197 66.7002031,151.597634 65.7392656,151.597634 Z M67.338875,155.165994 L68.3408281,155.165994 C68.1650469,156.2324 67.1337969,157.017556 65.8037187,157.017556 C64.057625,157.017556 62.9970781,155.804666 62.9970781,153.88865 C62.9970781,151.996072 64.0752031,150.712869 65.7568437,150.712869 C67.4033281,150.712869 68.417,151.908181 68.417,153.753884 L68.417,154.140603 L64.0459062,154.140603 L64.0459062,154.199197 C64.0459062,155.365213 64.7314531,156.132791 65.8271562,156.132791 C66.6005937,156.132791 67.1689531,155.740213 67.338875,155.165994 Z M71.9560625,156.912088 L71.9560625,148.457009 L72.9755937,148.457009 L72.9755937,156.912088 L71.9560625,156.912088 Z M76.8779375,157.017556 C75.1904375,157.017556 74.0537187,155.804666 74.0537187,153.865213 C74.0537187,151.9199 75.1904375,150.712869 76.8779375,150.712869 C78.5595781,150.712869 79.6962969,151.9199 79.6962969,153.865213 C79.6962969,155.804666 78.5595781,157.017556 76.8779375,157.017556 Z M76.8779375,156.121072 C77.9560625,156.121072 78.6591875,155.300759 78.6591875,153.865213 C78.6591875,152.429666 77.9560625,151.609353 76.8779375,151.609353 C75.7998125,151.609353 75.0908281,152.429666 75.0908281,153.865213 C75.0908281,155.300759 75.7998125,156.121072 76.8779375,156.121072 Z M85.7841875,152.816384 L84.7880937,152.816384 C84.6416094,152.154275 84.1259844,151.609353 83.2295,151.609353 C82.1748125,151.609353 81.4599687,152.4824 81.4599687,153.865213 C81.4599687,155.283181 82.1865312,156.121072 83.2412187,156.121072 C84.07325,156.121072 84.6181719,155.681619 84.7939531,154.949197 L85.7959062,154.949197 C85.6377031,156.162088 84.6181719,157.017556 83.2353594,157.017556 C81.5478594,157.017556 80.4228594,155.828103 80.4228594,153.865213 C80.4228594,151.943338 81.542,150.712869 83.2236406,150.712869 C84.7470781,150.712869 85.6552812,151.720681 85.7841875,152.816384 Z M88.7431719,156.150369 C89.7041094,156.150369 90.4423906,155.476541 90.4423906,154.597634 L90.4423906,154.099588 L88.8134844,154.199197 C87.9931719,154.251931 87.5244219,154.615213 87.5244219,155.189431 C87.5244219,155.769509 88.01075,156.150369 88.7431719,156.150369 Z M88.5146562,157.017556 C87.3017656,157.017556 86.4873125,156.285134 86.4873125,155.189431 C86.4873125,154.146463 87.2900469,153.490213 88.6962969,153.408181 L90.4423906,153.308572 L90.4423906,152.798806 C90.4423906,152.054666 89.9502031,151.609353 89.1064531,151.609353 C88.3212969,151.609353 87.8291094,151.978494 87.7002031,152.57615 L86.7158281,152.57615 C86.7861406,151.521463 87.6884844,150.712869 89.1298906,150.712869 C90.5595781,150.712869 91.4619219,151.486306 91.4619219,152.699197 L91.4619219,156.912088 L90.495125,156.912088 L90.495125,155.863259 L90.4716875,155.863259 C90.1084062,156.560525 89.3349687,157.017556 88.5146562,157.017556 Z M93.0849687,149.347634 L94.1045,149.347634 L94.1045,150.818338 L95.2880937,150.818338 L95.2880937,151.656228 L94.1045,151.656228 L94.1045,155.277322 C94.1045,155.833963 94.338875,156.085916 94.8603594,156.085916 C94.9775469,156.085916 95.2119219,156.068338 95.2822344,156.056619 L95.2822344,156.912088 C95.1591875,156.941384 94.8779375,156.958963 94.6377031,156.958963 C93.5185625,156.958963 93.0849687,156.501931 93.0849687,155.330056 L93.0849687,151.656228 L92.1767656,151.656228 L92.1767656,150.818338 L93.0849687,150.818338 L93.0849687,149.347634 Z M96.4248125,156.912088 L96.4248125,150.818338 L97.4443437,150.818338 L97.4443437,156.912088 L96.4248125,156.912088 Z M96.9345781,149.792947 C96.588875,149.792947 96.3017656,149.505838 96.3017656,149.160134 C96.3017656,148.808572 96.588875,148.527322 96.9345781,148.527322 C97.2861406,148.527322 97.57325,148.808572 97.57325,149.160134 C97.57325,149.505838 97.2861406,149.792947 96.9345781,149.792947 Z M101.346687,157.017556 C99.6591875,157.017556 98.5224687,155.804666 98.5224687,153.865213 C98.5224687,151.9199 99.6591875,150.712869 101.346687,150.712869 C103.028328,150.712869 104.165047,151.9199 104.165047,153.865213 C104.165047,155.804666 103.028328,157.017556 101.346687,157.017556 Z M101.346687,156.121072 C102.424812,156.121072 103.127937,155.300759 103.127937,153.865213 C103.127937,152.429666 102.424812,151.609353 101.346687,151.609353 C100.268562,151.609353 99.5595781,152.429666 99.5595781,153.865213 C99.5595781,155.300759 100.268562,156.121072 101.346687,156.121072 Z M105.190437,156.912088 L105.190437,150.818338 L106.151375,150.818338 L106.151375,151.790994 L106.174812,151.790994 C106.514656,151.134744 107.165047,150.712869 108.108406,150.712869 C109.444344,150.712869 110.217781,151.574197 110.217781,152.957009 L110.217781,156.912088 L109.19825,156.912088 L109.19825,153.13865 C109.19825,152.154275 108.735359,151.615213 107.797859,151.615213 C106.836922,151.615213 106.209969,152.2949 106.209969,153.32615 L106.209969,156.912088 L105.190437,156.912088 Z" id="Prime-location" fill="#FFFFFF"></path>
                <path d="M29.9189,86.9739 C29.9189,87.7749 29.2699,88.4239 28.4689,88.4239 C27.6679,88.4239 27.0189,87.7749 27.0189,86.9739 C27.0189,86.1729 27.6679,85.5239 28.4689,85.5239 C29.2699,85.5239 29.9189,86.1729 29.9189,86.9739" id="Fill-102" fill="#FFFFFF"></path>
                <path d="M29.9189,108.99 C29.9189,109.791 29.2699,110.44 28.4689,110.44 C27.6679,110.44 27.0189,109.791 27.0189,108.99 C27.0189,108.189 27.6679,107.54 28.4689,107.54 C29.2699,107.54 29.9189,108.189 29.9189,108.99" id="Fill-104" fill="#FFFFFF"></path>
                <path d="M29.9189,131.0062 C29.9189,131.8072 29.2699,132.4562 28.4689,132.4562 C27.6679,132.4562 27.0189,131.8072 27.0189,131.0062 C27.0189,130.2052 27.6679,129.5562 28.4689,129.5562 C29.2699,129.5562 29.9189,130.2052 29.9189,131.0062" id="Fill-106" fill="#FFFFFF"></path>
                <path d="M29.9189,153.0223 C29.9189,153.8233 29.2699,154.4723 28.4689,154.4723 C27.6679,154.4723 27.0189,153.8233 27.0189,153.0223 C27.0189,152.2213 27.6679,151.5723 28.4689,151.5723 C29.2699,151.5723 29.9189,152.2213 29.9189,153.0223" id="Fill-108" fill="#FFFFFF"></path>
                <g id="Group-49" transform="translate(27.000000, 17.000000)">
                    <path d="M0.0002,5.563 C7.6802,0.166 18.2672,2.034 23.6632,9.756 C29.0612,17.436 27.1922,28.023 19.4712,33.42 L0.0002,5.563 Z" id="Fill-1" fill="#FFBF00"></path>
                    <path d="M43.176,37.571 C35.495,42.968 24.909,41.1 19.512,33.378 C14.115,25.698 15.984,15.112 23.705,9.715 L43.176,37.571 Z" id="Fill-3" fill="#58268E"></path>
                    <path d="M5.6047,43.1758 C0.2077,35.4958 2.0757,24.9088 9.7977,19.5118 C17.4777,14.1148 28.0647,15.9838 33.4607,23.7048 L5.6047,43.1758 Z" id="Fill-5" fill="#82C51B"></path>
                    <path d="M37.6125,-7.10542736e-15 C43.0095,7.68 41.1415,18.267 33.4195,23.664 C25.7395,29.061 15.1525,27.192 9.7565,19.47 L37.6125,-7.10542736e-15 Z" id="Fill-7" fill="#01703C"></path>
                    <path d="M21.7541,17.9345 C22.9691,17.9345 23.9541,18.9195 23.9541,20.1345 C23.9541,21.3505 22.9691,22.3355 21.7541,22.3355 C20.5381,22.3355 19.5541,21.3505 19.5541,20.1345 C19.5541,18.9195 20.5381,17.9345 21.7541,17.9345" id="Fill-9" fill="#FFFFFF"></path>
                    <path d="M83.2375,12.9941 C80.7885,12.9941 78.5465,14.2401 77.1345,16.1491 C76.3045,14.2811 74.3945,12.9521 72.2365,12.9521 L72.2365,18.3491 L72.2365,33.9181 L77.5915,33.9181 L77.5915,23.5801 C77.5915,20.0521 79.0455,18.3081 82.3245,18.3081 L84.7325,18.3081 L84.7325,12.9941 L83.2375,12.9941 Z" id="Fill-11" fill="#FFFFFF"></path>
                    <path d="M62.9367,25.0337 L62.9367,18.2667 L62.9367,17.7267 L62.9367,17.6857 L62.9367,13.0357 L62.9367,12.9937 L62.9367,7.6387 L57.6237,7.6387 L57.6237,12.9937 L57.6237,18.2667 L57.6237,24.9917 C57.6237,30.6797 60.8617,34.3327 66.9217,33.6687 L66.9217,28.8527 C64.2647,29.0187 62.9367,27.9397 62.9367,25.0337" id="Fill-13" fill="#FFFFFF"></path>
                    <mask id="mask-2" fill="white">
                        <use xlink:href="#path-1"></use>
                    </mask>
                    <g id="Clip-16"></g>
                    <polygon id="Fill-15" fill="#FFFFFF" mask="url(#mask-2)" points="57.623 23.581 62.936 23.581 62.936 7.639 57.623 7.639"></polygon>
                    <path d="M57.6232,23.5805 L57.6232,18.2665 C60.5702,18.2665 62.9362,20.6325 62.9362,23.5805 L57.6232,23.5805 Z" id="Fill-17" fill="#FFFFFF" mask="url(#mask-2)"></path>
                    <path d="M68.2512,18.2666 L62.9372,18.2666 C62.9372,15.3186 65.3032,12.9526 68.2512,12.9526 L68.2512,18.2666 Z" id="Fill-18" fill="#FFFFFF" mask="url(#mask-2)"></path>
                    <path d="M52.3088,18.2666 C58.1628,18.2666 62.8958,13.5336 62.9368,7.6806 L57.6228,7.6806 C57.5808,10.5866 55.2558,12.9116 52.3508,12.9526 L52.3088,18.2666 Z" id="Fill-19" fill="#FFFFFF" mask="url(#mask-2)"></path>
                    <polygon id="Fill-20" fill="#FFFFFF" mask="url(#mask-2)" points="52.309 18.266 68.251 18.266 68.251 12.911 52.309 12.911"></polygon>
                    <path d="M141.6496,25.0337 L141.6496,18.2667 L141.6496,17.7267 L141.6496,17.6857 L141.6496,13.0357 L141.6496,12.9937 L141.6496,7.6387 L136.3356,7.6387 L136.3356,12.9937 L136.3356,18.2667 L136.3356,24.9917 C136.3356,30.6797 139.5736,34.3327 145.6346,33.6687 L145.6346,28.8527 C142.9776,29.0187 141.6496,27.9397 141.6496,25.0337" id="Fill-21" fill="#FFFFFF" mask="url(#mask-2)"></path>
                    <polygon id="Fill-22" fill="#FFFFFF" mask="url(#mask-2)" points="136.335 23.581 141.649 23.581 141.649 7.639 136.335 7.639"></polygon>
                    <path d="M136.3351,23.5805 L136.3351,18.2665 C139.2831,18.2665 141.6491,20.6325 141.6491,23.5805 L136.3351,23.5805 Z" id="Fill-23" fill="#FFFFFF" mask="url(#mask-2)"></path>
                    <path d="M147.0051,18.2666 L141.6911,18.2666 C141.6911,15.3186 144.0571,12.9526 147.0051,12.9526 L147.0051,18.2666 Z" id="Fill-24" fill="#FFFFFF" mask="url(#mask-2)"></path>
                    <path d="M131.0627,18.2666 C136.9167,18.2666 141.6497,13.5336 141.6907,7.6806 L136.3767,7.6806 C136.3347,10.5866 134.0107,12.9116 131.1047,12.9526 L131.0627,18.2666 Z" id="Fill-25" fill="#FFFFFF" mask="url(#mask-2)"></path>
                    <polygon id="Fill-26" fill="#FFFFFF" mask="url(#mask-2)" points="131.063 18.266 147.005 18.266 147.005 12.911 131.063 12.911"></polygon>
                    <path d="M106.0295,34.7895 C106.0295,36.2015 105.8215,37.4875 105.3655,38.6505 C104.9085,39.8125 104.2855,40.8095 103.4555,41.5985 C102.6255,42.4285 101.6705,43.0505 100.5495,43.5075 C99.4285,43.9645 98.1415,44.1725 96.7295,44.1725 C95.6095,44.1725 94.4885,44.0055 93.4915,43.6325 C92.4545,43.3005 91.5405,42.7605 90.7525,42.1375 C89.9635,41.4735 89.2995,40.7265 88.7585,39.8125 C88.2195,38.8995 87.8455,37.9445 87.6795,36.8655 L93.2425,36.8655 C93.4085,37.6545 93.8245,38.2355 94.4465,38.6085 C95.0695,38.9825 95.8585,39.1905 96.7715,39.1905 C97.5185,39.1905 98.0995,39.0655 98.6395,38.8585 C99.1375,38.6085 99.5525,38.3185 99.8435,37.9035 C100.1335,37.5295 100.3835,37.0725 100.5085,36.6165 C100.6325,36.1595 100.7155,35.6615 100.7155,35.1635 L100.7155,32.7135 C100.0925,33.2535 99.3865,33.6685 98.5565,33.9595 C97.7265,34.2495 96.8545,34.4155 95.8995,34.4155 C94.6125,34.4155 93.4505,34.2085 92.4125,33.7515 C91.3745,33.2955 90.4615,32.6725 89.7145,31.8835 C88.9675,31.0945 88.3855,30.1395 87.9695,28.9775 C87.5545,27.8565 87.3475,26.6115 87.3475,25.1995 L87.3475,12.9525 L92.7035,12.9525 L92.7035,25.1995 C92.7035,25.4905 92.7445,25.8635 92.8275,26.3205 C92.9105,26.7775 93.0765,27.2335 93.3675,27.6905 C93.6585,28.1475 94.0315,28.5205 94.5295,28.8115 C95.0275,29.1435 95.7335,29.2685 96.6055,29.2685 C97.8095,29.2685 98.8055,28.8945 99.5525,28.1055 C100.3005,27.3165 100.6745,26.3625 100.6745,25.1585 L100.6745,12.9115 L106.0295,12.9115 L106.0295,34.7895 Z" id="Fill-27" fill="#FFFFFF" mask="url(#mask-2)"></path>
                    <path d="M128.4474,27.3584 C128.4474,28.3964 128.1984,29.3514 127.7414,30.2234 C127.2854,31.0944 126.6624,31.8424 125.8324,32.4644 C125.0434,33.0874 124.0474,33.5854 122.9264,33.9174 C121.8044,34.2504 120.6004,34.4574 119.2724,34.4574 C117.9444,34.4574 116.6984,34.2914 115.5784,33.9594 C114.4574,33.6274 113.4194,33.1294 112.5894,32.5064 C111.7174,31.8834 111.0104,31.0944 110.4714,30.2234 C109.9314,29.3094 109.5574,28.3134 109.3914,27.1924 L114.8304,27.1924 C115.0384,27.6494 115.2874,28.0224 115.6194,28.3134 C115.9514,28.6044 116.3254,28.8534 116.7404,29.0604 C117.1554,29.2684 117.5704,29.3924 118.0274,29.4754 C118.4834,29.5584 118.8984,29.6004 119.3144,29.6004 C120.3934,29.6004 121.3064,29.4344 122.0124,29.1434 C122.7184,28.8534 123.0924,28.3544 123.0924,27.7324 C123.0924,27.4414 123.0514,27.1924 122.9264,26.9434 C122.8014,26.7354 122.5934,26.5284 122.2614,26.3624 C121.9294,26.1964 121.4724,26.0304 120.9334,25.9054 C120.3514,25.7394 119.6044,25.6144 118.6914,25.4904 C117.7364,25.3654 116.7404,25.1584 115.7444,24.9504 C114.7064,24.7014 113.7934,24.3694 112.9214,23.9124 C112.0494,23.4564 111.3434,22.8334 110.7614,22.0864 C110.2224,21.3384 109.9314,20.3834 109.9314,19.2214 C109.9314,18.3914 110.0974,17.6024 110.4714,16.7724 C110.8444,15.9414 111.3854,15.2364 112.1324,14.6134 C112.8794,13.9904 113.7934,13.4924 114.9134,13.0774 C116.0344,12.7034 117.3634,12.4964 118.8574,12.4964 C120.0614,12.4964 121.1404,12.6624 122.1784,12.9524 C123.2174,13.2854 124.1304,13.7004 124.9194,14.2814 C125.7074,14.8624 126.3724,15.5264 126.8704,16.3574 C127.3684,17.1874 127.7414,18.0594 127.8664,19.0554 L122.3024,19.0554 C122.1364,18.5574 121.7634,18.1424 121.1824,17.8104 C120.6004,17.4774 119.8124,17.3114 118.8154,17.3114 C117.5704,17.3114 116.6574,17.4774 116.1174,17.8514 C115.5784,18.2254 115.2874,18.5984 115.2874,18.9724 C115.2874,19.5124 115.6614,19.9274 116.3664,20.1344 C117.1134,20.3834 118.1104,20.5914 119.3974,20.8404 C120.6834,21.0484 121.8874,21.2974 123.0094,21.5874 C124.0884,21.8784 125.0434,22.2524 125.8324,22.7084 C126.6214,23.1654 127.2434,23.7884 127.7004,24.5354 C128.1984,25.2824 128.4474,26.1964 128.4474,27.3584" id="Fill-28" fill="#FFFFFF" mask="url(#mask-2)"></path>
                    <path d="M178.4064,25.3559 L178.5434,25.3559 L178.6144,25.3559 L178.6794,25.3559 C179.2344,25.4279 179.5804,25.7369 179.5804,26.1179 C179.5804,26.4289 179.3424,26.7079 178.5434,26.7079 L176.6424,26.7079 C176.9174,25.8739 177.5724,25.3559 178.4064,25.3559 Z M178.9964,28.1979 C180.1704,28.1979 181.3134,27.5009 181.3134,26.1539 C181.3134,25.2549 180.7234,24.4559 179.8954,24.0389 C179.5144,23.8659 179.0614,23.7649 178.6144,23.7649 L178.4064,23.7649 C176.3984,23.7649 174.7714,25.4629 174.7714,27.5009 C174.7714,29.5439 176.3984,31.2069 178.4064,31.2069 C179.4074,31.2069 180.2414,30.8969 180.8604,30.3429 L179.6154,29.1329 C179.3054,29.4789 178.8524,29.6159 178.4064,29.6159 C177.5424,29.6159 176.8444,29.0619 176.6424,28.1979 L178.9964,28.1979 Z" id="Fill-29" fill="#FFFFFF" mask="url(#mask-2)"></path>
                    <path d="M185.3293,25.3559 L185.4663,25.3559 L185.5383,25.3559 L185.6033,25.3559 C186.1573,25.4279 186.5093,25.7369 186.5093,26.1179 C186.5093,26.4289 186.2653,26.7079 185.4663,26.7079 L183.5653,26.7079 C183.8403,25.8739 184.5013,25.3559 185.3293,25.3559 Z M185.9193,28.1979 C187.0933,28.1979 188.2363,27.5009 188.2363,26.1539 C188.2363,25.2549 187.6463,24.4559 186.8183,24.0389 C186.4373,23.8659 185.9843,23.7649 185.5383,23.7649 L185.3293,23.7649 C183.3213,23.7649 181.6953,25.4629 181.6953,27.5009 C181.6953,29.5439 183.3213,31.2069 185.3293,31.2069 C186.3303,31.2069 187.1643,30.8969 187.7903,30.3429 L186.5393,29.1329 C186.2283,29.4789 185.7823,29.6159 185.3293,29.6159 C184.4653,29.6159 183.7743,29.0619 183.5653,28.1979 L185.9193,28.1979 Z" id="Fill-30" fill="#FFFFFF" mask="url(#mask-2)"></path>
                    <path d="M174.2512,23.938 C173.4212,23.938 172.6592,24.354 172.1752,25.011 C171.8972,24.388 171.2392,23.938 170.5132,23.938 L170.5132,25.773 L170.5132,31.069 L172.3482,31.069 L172.3482,27.573 C172.3482,26.396 172.8322,25.773 173.9392,25.773 L174.7362,25.773 L174.7362,23.973 L174.2512,23.938 Z" id="Fill-31" fill="#FFFFFF" mask="url(#mask-2)"></path>
                    <path d="M192.5627,29.5085 C191.5617,29.5085 190.7277,28.6085 190.7277,27.5005 C190.7277,26.3625 191.5257,25.4635 192.5627,25.4635 C193.5697,25.4635 194.3977,26.3275 194.3977,27.5005 C194.3977,28.6445 193.5697,29.5085 192.5627,29.5085 M192.8417,23.8005 C192.0437,23.8005 191.2817,24.1105 190.7627,24.6295 L190.7627,22.1385 L188.9277,22.1385 L188.9277,31.0695 C189.5887,31.0695 190.1437,30.7245 190.4897,30.2055 C191.0797,30.8965 191.9787,31.2065 192.7707,31.2065 L192.8417,31.2065 C194.7127,31.2065 196.2327,29.6155 196.2327,27.5005 C196.1967,25.3915 194.7127,23.8005 192.8417,23.8005" id="Fill-32" fill="#FFFFFF" mask="url(#mask-2)"></path>
                    <path d="M200.3849,29.4787 C199.2829,29.4787 198.3769,28.5787 198.3769,27.4707 C198.3769,26.3627 199.2829,25.4627 200.3849,25.4627 C201.4929,25.4627 202.3989,26.3627 202.3989,27.4707 C202.3989,28.5787 201.4929,29.4787 200.3849,29.4787 M200.4919,23.7647 C198.4129,23.6937 196.7209,25.3557 196.6859,27.3997 C196.6139,29.4787 198.2759,31.1707 200.3199,31.2067 C202.3989,31.2777 204.0909,29.6157 204.1269,27.5727 C204.1619,25.4927 202.5359,23.8007 200.4919,23.7647" id="Fill-33" fill="#FFFFFF" mask="url(#mask-2)"></path>
                    <path d="M167.3976,28.0229 L167.3976,25.7379 L167.3976,25.5649 L167.3976,23.9729 L167.3976,22.1729 L165.5966,22.1729 L165.5966,23.9729 L165.5966,25.7729 L165.5966,28.0579 C165.5966,29.9959 166.6696,31.2079 168.7476,30.9999 L168.7476,29.3379 C167.8466,29.3729 167.3976,29.0269 167.3976,28.0229" id="Fill-34" fill="#FFFFFF" mask="url(#mask-2)"></path>
                    <polygon id="Fill-35" fill="#FFFFFF" mask="url(#mask-2)" points="165.597 27.538 167.398 27.538 167.398 22.138 165.597 22.138"></polygon>
                    <path d="M165.5969,27.5383 L165.5969,25.7383 C166.6009,25.7383 167.3979,26.5343 167.3979,27.5383 L165.5969,27.5383 Z" id="Fill-36" fill="#FFFFFF" mask="url(#mask-2)"></path>
                    <path d="M169.1974,25.7383 L167.3974,25.7383 C167.3974,24.7343 168.1934,23.9383 169.1974,23.9383 L169.1974,25.7383 Z" id="Fill-37" fill="#FFFFFF" mask="url(#mask-2)"></path>
                    <path d="M163.7971,25.7383 C165.7711,25.7383 167.3981,24.1113 167.3981,22.1383 L165.5971,22.1383 C165.5971,23.1073 164.8011,23.9033 163.7971,23.9383 L163.7971,25.7383 Z" id="Fill-38" fill="#FFFFFF" mask="url(#mask-2)"></path>
                    <polygon id="Fill-39" fill="#FFFFFF" mask="url(#mask-2)" points="163.797 25.738 169.197 25.738 169.197 23.938 163.797 23.938"></polygon>
                    <path d="M162.9318,27.469 C162.9318,29.581 161.2358,31.277 159.1228,31.277 C157.0118,31.277 155.3158,29.581 155.3158,27.469 C155.3158,25.357 157.0118,23.661 159.1228,23.661 C161.2008,23.661 162.9318,25.357 162.9318,27.469" id="Fill-40" fill="#582E8C" mask="url(#mask-2)"></path>
                    <path d="M158.1906,28.5075 C157.9116,28.5075 157.6366,28.2635 157.6366,27.7805 C157.6366,27.2985 157.8756,26.9525 158.1906,26.9525 C158.4646,26.9525 158.6376,27.2265 158.6376,27.7095 C158.6376,28.2335 158.4646,28.5075 158.1906,28.5075 M158.8456,26.8815 C158.7456,26.7445 158.5726,26.6725 158.3286,26.6725 C158.0476,26.6725 157.7736,26.8455 157.6366,27.1255 L157.6366,25.7015 L156.9106,25.7015 L156.9106,26.0175 L157.2196,26.0175 L157.2196,28.7815 L157.4636,28.7815 L157.6006,28.3705 C157.7386,28.6085 157.9466,28.7815 158.2556,28.7815 C158.4646,28.7815 158.6736,28.6805 158.8106,28.5435 C159.0186,28.3345 159.1266,28.0255 159.1266,27.7095 C159.1266,27.3635 159.0546,27.0895 158.8456,26.8815" id="Fill-41" fill="#FFFFFF" mask="url(#mask-2)"></path>
                    <path d="M159.8849,29.0962 C159.8849,29.1312 159.8509,29.2002 159.8509,29.2342 C160.0239,29.2002 160.1269,29.0962 160.2659,28.7152 L159.5729,26.9842 L159.2969,26.9842 L159.2969,26.7072 L160.3689,26.7072 L160.3689,26.9842 L160.0239,26.9842 L160.5079,28.2652 L160.9929,26.9842 L160.7159,26.9842 L160.7159,26.7072 L161.5809,26.7072 L161.5809,26.9842 L161.3049,26.9842 L160.6129,28.6802 C160.3349,29.3042 160.0929,29.4772 159.7809,29.4772 C159.5039,29.4772 159.3649,29.3382 159.3649,29.1312 C159.3649,28.9922 159.4699,28.8542 159.6429,28.8542 C159.7809,28.8192 159.8849,28.9582 159.8849,29.0962" id="Fill-42" fill="#FFFFFF" mask="url(#mask-2)"></path>
                    <polygon id="Fill-43" fill="#999999" mask="url(#mask-2)" points="162.2394 13.1028 162.2394 19.8188 161.4424 19.8188 161.4424 16.7028 157.7734 16.7028 157.7734 19.8188 156.9424 19.8188 156.9424 13.1028 157.7734 13.1028 157.7734 15.9068 161.4424 15.9068 161.4424 13.1028"></polygon>
                    <path d="M168.9865,19.1238 C167.6045,19.1238 166.4605,17.9498 166.4605,16.4248 C166.4605,14.9058 167.6045,13.7258 168.9865,13.7258 C170.4105,13.7258 171.5185,14.8698 171.5185,16.4248 C171.5185,17.9498 170.3755,19.1238 168.9865,19.1238 M168.9865,12.9278 C167.1575,12.9278 165.6685,14.4888 165.6685,16.4248 C165.6685,18.3968 167.1575,19.9228 168.9865,19.9228 C170.8215,19.9228 172.3115,18.3668 172.3115,16.4248 C172.3115,14.4168 170.8575,12.9278 168.9865,12.9278" id="Fill-44" fill="#999999" mask="url(#mask-2)"></path>
                    <polygon id="Fill-45" fill="#999999" mask="url(#mask-2)" points="177.6437 13.8642 177.6437 19.7842 176.8137 19.7842 176.8137 13.8642 174.7017 13.8642 174.7017 13.0682 179.7557 13.0682 179.7557 13.8642"></polygon>
                    <polygon id="Fill-46" fill="#999999" mask="url(#mask-2)" points="187.7521 13.1028 187.7521 13.8988 183.7721 13.8988 183.7721 15.9418 187.3721 15.9418 187.3721 16.7378 183.7721 16.7378 183.7721 19.0568 187.7521 19.0568 187.7521 19.8528 182.9401 19.8528 182.9401 13.1368"></polygon>
                    <polygon id="Fill-47" fill="#999999" mask="url(#mask-2)" points="195.4728 19.8186 191.1798 19.8186 191.1798 13.1026 192.0108 13.1026 192.0108 19.0226 195.4728 19.0226"></polygon>
                    <path d="M200.7687,19.9223 C199.2107,19.9223 198.2067,19.0223 198.2067,17.6723 L199.0727,17.6723 C199.0727,18.5723 199.7647,19.1263 200.7687,19.1263 C201.9117,19.1263 202.4647,18.6413 202.4647,17.8803 C202.4647,17.3263 202.2227,16.9453 200.7347,16.6683 C199.2457,16.3913 198.3797,15.9413 198.3797,14.7983 C198.3797,13.6563 199.3147,12.8953 200.7347,12.8953 C202.1887,12.8953 203.1227,13.6913 203.1227,14.9723 L202.2917,14.9723 C202.2917,14.1753 201.7727,13.6563 200.7687,13.6563 C199.7307,13.6563 199.2457,14.1063 199.2457,14.7293 C199.2457,15.3183 199.5577,15.5953 200.9417,15.8373 C202.4307,16.1143 203.3307,16.5293 203.3307,17.8103 C203.2957,19.2303 202.2577,19.9223 200.7687,19.9223" id="Fill-48" fill="#999999" mask="url(#mask-2)"></path>
                </g>
            </g>
        </g>
    </g>
</svg>