<?xml version="1.0" encoding="UTF-8"?>
<svg width="280px" height="181px" viewBox="0 0 280 181" version="1.1" xmlns="http://www.w3.org/2000/svg" xmlns:xlink="http://www.w3.org/1999/xlink">
    <!-- Generator: sketchtool 52.3 (67297) - http://www.bohemiancoding.com/sketch -->
    <title>A91908BB-B1C3-4730-B106-B47B02350809</title>
    <desc>Created with sketchtool.</desc>
    <defs>
        <polygon id="path-1" points="0 0.408563775 27.3979303 0.408563775 27.3979303 32.0771 0 32.0771"></polygon>
        <polygon id="path-3" points="0.580663775 0.602506331 32.2492 0.602506331 32.2492 28 0.580663775 28"></polygon>
        <polygon id="path-5" points="0 44.172 210.685 44.172 210.685 -7.10542736e-15 0 -7.10542736e-15"></polygon>
    </defs>
    <g id="Page-1" stroke="none" stroke-width="1" fill="none" fill-rule="evenodd">
        <g id="Msite_-Carousel" transform="translate(-336.000000, -53.000000)">
            <g id="Group-5" transform="translate(336.000000, 53.000000)">
                <polygon id="Fill-1" fill="#81C241" points="0.991 180.427 272.991 180.427 272.991 6.834 0.991 6.834"></polygon>
                <polygon id="Fill-2" fill="#000000" points="7.889 173.592 279.889 173.592 279.889 -1.42108547e-14 7.889 -1.42108547e-14"></polygon>
                <path d="M44.1288812,89.0647125 C41.79685,89.0647125 40.3202875,87.3713531 40.3202875,84.6936188 C40.3202875,82.0393219 41.8144281,80.3283844 44.1288812,80.3283844 C45.968725,80.3283844 47.3691156,81.447525 47.6386469,83.135025 L46.5722406,83.135025 C46.3027094,82.0276031 45.3359125,81.3010406 44.1288812,81.3010406 C42.4765375,81.3010406 41.4042719,82.6369781 41.4042719,84.6936188 C41.4042719,86.7678375 42.4648187,88.0920563 44.1347406,88.0920563 C45.3769281,88.0920563 46.2675531,87.4944 46.5722406,86.46315 L47.6386469,86.46315 C47.2519281,88.1330719 45.9980219,89.0647125 44.1288812,89.0647125 Z M51.2480219,89.0295563 C49.5605219,89.0295563 48.4238031,87.8166656 48.4238031,85.8772125 C48.4238031,83.9319 49.5605219,82.7248688 51.2480219,82.7248688 C52.9296625,82.7248688 54.0663812,83.9319 54.0663812,85.8772125 C54.0663812,87.8166656 52.9296625,89.0295563 51.2480219,89.0295563 Z M51.2480219,88.1330719 C52.3261469,88.1330719 53.0292719,87.3127594 53.0292719,85.8772125 C53.0292719,84.4416656 52.3261469,83.6213531 51.2480219,83.6213531 C50.1698969,83.6213531 49.4609125,84.4416656 49.4609125,85.8772125 C49.4609125,87.3127594 50.1698969,88.1330719 51.2480219,88.1330719 Z M55.0917719,88.9240875 L55.0917719,82.8303375 L56.0527094,82.8303375 L56.0527094,83.8029938 L56.0761469,83.8029938 C56.3632562,83.1584625 56.98435,82.7248688 57.8046625,82.7248688 C58.6366937,82.7248688 59.2519281,83.1467438 59.5156,83.885025 L59.5390375,83.885025 C59.8788812,83.1584625 60.593725,82.7248688 61.4491937,82.7248688 C62.656225,82.7248688 63.4355219,83.510025 63.4355219,84.7170563 L63.4355219,88.9240875 L62.4159906,88.9240875 L62.4159906,84.9514313 C62.4159906,84.1194 61.9531,83.6272125 61.1503656,83.6272125 C60.3417719,83.6272125 59.7734125,84.2248688 59.7734125,85.0510406 L59.7734125,88.9240875 L58.7538812,88.9240875 L58.7538812,84.8401031 C58.7538812,84.1076813 58.2616937,83.6272125 57.5058344,83.6272125 C56.6972406,83.6272125 56.1113031,84.260025 56.1113031,85.103775 L56.1113031,88.9240875 L55.0917719,88.9240875 Z M65.0585687,88.9240875 L65.0585687,83.6682281 L64.2089594,83.6682281 L64.2089594,82.8303375 L65.0585687,82.8303375 L65.0585687,82.15065 C65.0585687,80.978775 65.6034906,80.4221344 66.7284906,80.4221344 C66.9570062,80.4221344 67.2031,80.4455719 67.3495844,80.4690094 L67.3495844,81.2951813 C67.2265375,81.2776031 67.0566156,81.260025 66.8866937,81.260025 C66.3359125,81.260025 66.0722406,81.5529938 66.0722406,82.1565094 L66.0722406,82.8303375 L67.3202875,82.8303375 L67.3202875,83.6682281 L66.0781,83.6682281 L66.0781,88.9240875 L65.0585687,88.9240875 Z M70.6073969,89.0295563 C68.9198969,89.0295563 67.7831781,87.8166656 67.7831781,85.8772125 C67.7831781,83.9319 68.9198969,82.7248688 70.6073969,82.7248688 C72.2890375,82.7248688 73.4257562,83.9319 73.4257562,85.8772125 C73.4257562,87.8166656 72.2890375,89.0295563 70.6073969,89.0295563 Z M70.6073969,88.1330719 C71.6855219,88.1330719 72.3886469,87.3127594 72.3886469,85.8772125 C72.3886469,84.4416656 71.6855219,83.6213531 70.6073969,83.6213531 C69.5292719,83.6213531 68.8202875,84.4416656 68.8202875,85.8772125 C68.8202875,87.3127594 69.5292719,88.1330719 70.6073969,88.1330719 Z M74.4511469,88.9240875 L74.4511469,82.8303375 L75.4120844,82.8303375 L75.4120844,83.8264313 L75.4355219,83.8264313 C75.6347406,83.1526031 76.1972406,82.7248688 76.9120844,82.7248688 C77.0878656,82.7248688 77.2402094,82.7541656 77.3222406,82.7658844 L77.3222406,83.7561188 C77.2402094,83.7268219 77.0234125,83.697525 76.7773187,83.697525 C75.9863031,83.697525 75.4706781,84.2658844 75.4706781,85.1272125 L75.4706781,88.9240875 L74.4511469,88.9240875 Z M78.4765375,81.3596344 L79.4960687,81.3596344 L79.4960687,82.8303375 L80.6796625,82.8303375 L80.6796625,83.6682281 L79.4960687,83.6682281 L79.4960687,87.2893219 C79.4960687,87.8459625 79.7304437,88.0979156 80.2519281,88.0979156 C80.3691156,88.0979156 80.6034906,88.0803375 80.6738031,88.0686188 L80.6738031,88.9240875 C80.5507562,88.9533844 80.2695062,88.9709625 80.0292719,88.9709625 C78.9101312,88.9709625 78.4765375,88.5139313 78.4765375,87.3420563 L78.4765375,83.6682281 L77.5683344,83.6682281 L77.5683344,82.8303375 L78.4765375,82.8303375 L78.4765375,81.3596344 Z M83.656225,88.1623688 C84.6171625,88.1623688 85.3554437,87.4885406 85.3554437,86.6096344 L85.3554437,86.1115875 L83.7265375,86.2111969 C82.906225,86.2639313 82.437475,86.6272125 82.437475,87.2014313 C82.437475,87.7815094 82.9238031,88.1623688 83.656225,88.1623688 Z M83.4277094,89.0295563 C82.2148187,89.0295563 81.4003656,88.2971344 81.4003656,87.2014313 C81.4003656,86.1584625 82.2031,85.5022125 83.60935,85.4201813 L85.3554437,85.3205719 L85.3554437,84.8108063 C85.3554437,84.0666656 84.8632562,83.6213531 84.0195062,83.6213531 C83.23435,83.6213531 82.7421625,83.9904938 82.6132562,84.58815 L81.6288812,84.58815 C81.6991937,83.5334625 82.6015375,82.7248688 84.0429437,82.7248688 C85.4726312,82.7248688 86.374975,83.4983063 86.374975,84.7111969 L86.374975,88.9240875 L85.4081781,88.9240875 L85.4081781,87.8752594 L85.3847406,87.8752594 C85.0214594,88.572525 84.2480219,89.0295563 83.4277094,89.0295563 Z M90.6991937,89.0295563 C89.8085687,89.0295563 89.1113031,88.5959625 88.718725,87.8928375 L88.6952875,87.8928375 L88.6952875,88.9240875 L87.7226312,88.9240875 L87.7226312,80.4690094 L88.7421625,80.4690094 L88.7421625,83.8498688 L88.7656,83.8498688 C89.1464594,83.1526031 89.8554437,82.7248688 90.7167719,82.7248688 C92.2519281,82.7248688 93.2890375,83.9670563 93.2890375,85.8772125 C93.2890375,87.7932281 92.2577875,89.0295563 90.6991937,89.0295563 Z M90.499975,83.6213531 C89.468725,83.6213531 88.7363031,84.5236969 88.7363031,85.8772125 C88.7363031,87.2365875 89.468725,88.1330719 90.499975,88.1330719 C91.5781,88.1330719 92.2460687,87.2717438 92.2460687,85.8772125 C92.2460687,84.4944 91.5781,83.6213531 90.499975,83.6213531 Z M94.3730219,88.9240875 L94.3730219,80.4690094 L95.3925531,80.4690094 L95.3925531,88.9240875 L94.3730219,88.9240875 Z M99.2128656,83.6096344 C98.2577875,83.6096344 97.5898187,84.3420563 97.5253656,85.3557281 L100.835912,85.3557281 C100.812475,84.3361969 100.173803,83.6096344 99.2128656,83.6096344 Z M100.812475,87.1779938 L101.814428,87.1779938 C101.638647,88.2444 100.607397,89.0295563 99.2773187,89.0295563 C97.531225,89.0295563 96.4706781,87.8166656 96.4706781,85.90065 C96.4706781,84.0080719 97.5488031,82.7248688 99.2304437,82.7248688 C100.876928,82.7248688 101.8906,83.9201813 101.8906,85.7658844 L101.8906,86.1526031 L97.5195062,86.1526031 L97.5195062,86.2111969 C97.5195062,87.3772125 98.2050531,88.1447906 99.3007562,88.1447906 C100.074194,88.1447906 100.642553,87.7522125 100.812475,87.1779938 Z M105.376928,88.9240875 L105.376928,82.8303375 L106.337866,82.8303375 L106.337866,83.8264313 L106.361303,83.8264313 C106.560522,83.1526031 107.123022,82.7248688 107.837866,82.7248688 C108.013647,82.7248688 108.165991,82.7541656 108.248022,82.7658844 L108.248022,83.7561188 C108.165991,83.7268219 107.949194,83.697525 107.7031,83.697525 C106.912084,83.697525 106.396459,84.2658844 106.396459,85.1272125 L106.396459,88.9240875 L105.376928,88.9240875 Z M111.306616,89.0295563 C109.619116,89.0295563 108.482397,87.8166656 108.482397,85.8772125 C108.482397,83.9319 109.619116,82.7248688 111.306616,82.7248688 C112.988256,82.7248688 114.124975,83.9319 114.124975,85.8772125 C114.124975,87.8166656 112.988256,89.0295563 111.306616,89.0295563 Z M111.306616,88.1330719 C112.384741,88.1330719 113.087866,87.3127594 113.087866,85.8772125 C113.087866,84.4416656 112.384741,83.6213531 111.306616,83.6213531 C110.228491,83.6213531 109.519506,84.4416656 109.519506,85.8772125 C109.519506,87.3127594 110.228491,88.1330719 111.306616,88.1330719 Z M117.675756,89.0295563 C115.988256,89.0295563 114.851537,87.8166656 114.851537,85.8772125 C114.851537,83.9319 115.988256,82.7248688 117.675756,82.7248688 C119.357397,82.7248688 120.494116,83.9319 120.494116,85.8772125 C120.494116,87.8166656 119.357397,89.0295563 117.675756,89.0295563 Z M117.675756,88.1330719 C118.753881,88.1330719 119.457006,87.3127594 119.457006,85.8772125 C119.457006,84.4416656 118.753881,83.6213531 117.675756,83.6213531 C116.597631,83.6213531 115.888647,84.4416656 115.888647,85.8772125 C115.888647,87.3127594 116.597631,88.1330719 117.675756,88.1330719 Z M121.519506,88.9240875 L121.519506,82.8303375 L122.480444,82.8303375 L122.480444,83.8029938 L122.503881,83.8029938 C122.790991,83.1584625 123.412084,82.7248688 124.232397,82.7248688 C125.064428,82.7248688 125.679662,83.1467438 125.943334,83.885025 L125.966772,83.885025 C126.306616,83.1584625 127.021459,82.7248688 127.876928,82.7248688 C129.083959,82.7248688 129.863256,83.510025 129.863256,84.7170563 L129.863256,88.9240875 L128.843725,88.9240875 L128.843725,84.9514313 C128.843725,84.1194 128.380834,83.6272125 127.5781,83.6272125 C126.769506,83.6272125 126.201147,84.2248688 126.201147,85.0510406 L126.201147,88.9240875 L125.181616,88.9240875 L125.181616,84.8401031 C125.181616,84.1076813 124.689428,83.6272125 123.933569,83.6272125 C123.124975,83.6272125 122.539037,84.260025 122.539037,85.103775 L122.539037,88.9240875 L121.519506,88.9240875 Z M131.052709,84.5119781 C131.052709,83.4690094 131.98435,82.7248688 133.326147,82.7248688 C134.585912,82.7248688 135.511694,83.4748688 135.558569,84.5061188 L134.585912,84.5061188 C134.5156,83.9201813 134.040991,83.5569 133.290991,83.5569 C132.54685,83.5569 132.054662,83.9260406 132.054662,84.4592438 C132.054662,84.8811188 132.376928,85.1623688 133.068334,85.33815 L134.011694,85.5666656 C135.242162,85.8772125 135.687475,86.322525 135.687475,87.2190094 C135.687475,88.2795563 134.685522,89.0295563 133.261694,89.0295563 C131.925756,89.0295563 130.994116,88.3029938 130.888647,87.2248688 L131.908178,87.2248688 C132.019506,87.8576813 132.499975,88.197525 133.326147,88.197525 C134.152319,88.197525 134.662084,87.8459625 134.662084,87.2951813 C134.662084,86.8615875 134.410131,86.6272125 133.724584,86.4455719 L132.652319,86.1701813 C131.580053,85.8947906 131.052709,85.3440094 131.052709,84.5119781 Z" id="Comfortable-rooms" fill="#FFFFFF"></path>
                <path d="M41.7031,103.465009 L41.7031,108.884931 C41.7031,110.162275 42.5409906,111.088056 44.0058344,111.088056 C45.4706781,111.088056 46.3085687,110.162275 46.3085687,108.884931 L46.3085687,103.465009 L47.3632562,103.465009 L47.3632562,108.955244 C47.3632562,110.759931 46.1034906,112.060712 44.0058344,112.060712 C41.9081781,112.060712 40.6484125,110.759931 40.6484125,108.955244 L40.6484125,103.465009 L41.7031,103.465009 Z M48.8456781,111.920087 L48.8456781,105.826337 L49.8066156,105.826337 L49.8066156,106.798994 L49.8300531,106.798994 C50.1698969,106.142744 50.8202875,105.720869 51.7636469,105.720869 C53.0995844,105.720869 53.8730219,106.582197 53.8730219,107.965009 L53.8730219,111.920087 L52.8534906,111.920087 L52.8534906,108.14665 C52.8534906,107.162275 52.3906,106.623212 51.4531,106.623212 C50.4921625,106.623212 49.8652094,107.3029 49.8652094,108.33415 L49.8652094,111.920087 L48.8456781,111.920087 Z M55.2206781,111.920087 L55.2206781,103.465009 L56.2402094,103.465009 L56.2402094,111.920087 L55.2206781,111.920087 Z M57.6698969,111.920087 L57.6698969,105.826337 L58.6894281,105.826337 L58.6894281,111.920087 L57.6698969,111.920087 Z M58.1796625,104.800947 C57.8339594,104.800947 57.54685,104.513837 57.54685,104.168134 C57.54685,103.816572 57.8339594,103.535322 58.1796625,103.535322 C58.531225,103.535322 58.8183344,103.816572 58.8183344,104.168134 C58.8183344,104.513837 58.531225,104.800947 58.1796625,104.800947 Z M60.0663812,111.920087 L60.0663812,105.826337 L61.0273187,105.826337 L61.0273187,106.798994 L61.0507562,106.798994 C61.3378656,106.154462 61.9589594,105.720869 62.7792719,105.720869 C63.6113031,105.720869 64.2265375,106.142744 64.4902094,106.881025 L64.5136469,106.881025 C64.8534906,106.154462 65.5683344,105.720869 66.4238031,105.720869 C67.6308344,105.720869 68.4101312,106.506025 68.4101312,107.713056 L68.4101312,111.920087 L67.3906,111.920087 L67.3906,107.947431 C67.3906,107.1154 66.9277094,106.623212 66.124975,106.623212 C65.3163812,106.623212 64.7480219,107.220869 64.7480219,108.047041 L64.7480219,111.920087 L63.7284906,111.920087 L63.7284906,107.836103 C63.7284906,107.103681 63.2363031,106.623212 62.4804437,106.623212 C61.67185,106.623212 61.0859125,107.256025 61.0859125,108.099775 L61.0859125,111.920087 L60.0663812,111.920087 Z M69.7577875,111.920087 L69.7577875,105.826337 L70.7773187,105.826337 L70.7773187,111.920087 L69.7577875,111.920087 Z M70.2675531,104.800947 C69.92185,104.800947 69.6347406,104.513837 69.6347406,104.168134 C69.6347406,103.816572 69.92185,103.535322 70.2675531,103.535322 C70.6191156,103.535322 70.906225,103.816572 70.906225,104.168134 C70.906225,104.513837 70.6191156,104.800947 70.2675531,104.800947 Z M72.4823969,104.355634 L73.5019281,104.355634 L73.5019281,105.826337 L74.6855219,105.826337 L74.6855219,106.664228 L73.5019281,106.664228 L73.5019281,110.285322 C73.5019281,110.841962 73.7363031,111.093916 74.2577875,111.093916 C74.374975,111.093916 74.60935,111.076337 74.6796625,111.064619 L74.6796625,111.920087 C74.5566156,111.949384 74.2753656,111.966962 74.0351312,111.966962 C72.9159906,111.966962 72.4823969,111.509931 72.4823969,110.338056 L72.4823969,106.664228 L71.5741937,106.664228 L71.5741937,105.826337 L72.4823969,105.826337 L72.4823969,104.355634 Z M78.0370844,106.605634 C77.0820062,106.605634 76.4140375,107.338056 76.3495844,108.351728 L79.6601312,108.351728 C79.6366937,107.332197 78.9980219,106.605634 78.0370844,106.605634 Z M79.6366937,110.173994 L80.6386469,110.173994 C80.4628656,111.2404 79.4316156,112.025556 78.1015375,112.025556 C76.3554437,112.025556 75.2948969,110.812666 75.2948969,108.89665 C75.2948969,107.004072 76.3730219,105.720869 78.0546625,105.720869 C79.7011469,105.720869 80.7148187,106.916181 80.7148187,108.761884 L80.7148187,109.148603 L76.343725,109.148603 L76.343725,109.207197 C76.343725,110.373212 77.0292719,111.140791 78.124975,111.140791 C78.8984125,111.140791 79.4667719,110.748212 79.6366937,110.173994 Z M84.0488031,112.025556 C82.4960687,112.025556 81.4413812,110.783369 81.4413812,108.873212 C81.4413812,106.963056 82.4902094,105.720869 84.0253656,105.720869 C84.8984125,105.720869 85.6015375,106.148603 85.9648187,106.816572 L85.9882562,106.816572 L85.9882562,103.465009 L87.0077875,103.465009 L87.0077875,111.920087 L86.0351312,111.920087 L86.0351312,110.888837 L86.0175531,110.888837 C85.624975,111.591962 84.9277094,112.025556 84.0488031,112.025556 Z M84.2421625,106.617353 C83.1640375,106.617353 82.48435,107.496259 82.48435,108.873212 C82.48435,110.256025 83.1640375,111.129072 84.2421625,111.129072 C85.2909906,111.129072 85.9941156,110.238447 85.9941156,108.873212 C85.9941156,107.513837 85.2909906,106.617353 84.2421625,106.617353 Z M98.5976312,105.826337 L96.8984125,111.920087 L95.8613031,111.920087 L94.48435,107.203291 L94.4609125,107.203291 L93.0898187,111.920087 L92.0527094,111.920087 L90.3476312,105.826337 L91.3613031,105.826337 L92.5800531,110.783369 L92.6034906,110.783369 L93.9804437,105.826337 L94.9648187,105.826337 L96.3476312,110.783369 L96.3710687,110.783369 L97.5898187,105.826337 L98.5976312,105.826337 Z M99.4823969,111.920087 L99.4823969,103.465009 L100.501928,103.465009 L100.501928,106.798994 L100.525366,106.798994 C100.865209,106.119306 101.533178,105.720869 102.458959,105.720869 C103.794897,105.720869 104.603491,106.623212 104.603491,107.982587 L104.603491,111.920087 L103.583959,111.920087 L103.583959,108.170087 C103.583959,107.203291 103.097631,106.623212 102.142553,106.623212 C101.128881,106.623212 100.501928,107.314619 100.501928,108.369306 L100.501928,111.920087 L99.4823969,111.920087 Z M108.423803,112.025556 C106.736303,112.025556 105.599584,110.812666 105.599584,108.873212 C105.599584,106.9279 106.736303,105.720869 108.423803,105.720869 C110.105444,105.720869 111.242162,106.9279 111.242162,108.873212 C111.242162,110.812666 110.105444,112.025556 108.423803,112.025556 Z M108.423803,111.129072 C109.501928,111.129072 110.205053,110.308759 110.205053,108.873212 C110.205053,107.437666 109.501928,106.617353 108.423803,106.617353 C107.345678,106.617353 106.636694,107.437666 106.636694,108.873212 C106.636694,110.308759 107.345678,111.129072 108.423803,111.129072 Z M112.320287,111.920087 L112.320287,103.465009 L113.339819,103.465009 L113.339819,111.920087 L112.320287,111.920087 Z M117.160131,106.605634 C116.205053,106.605634 115.537084,107.338056 115.472631,108.351728 L118.783178,108.351728 C118.759741,107.332197 118.121069,106.605634 117.160131,106.605634 Z M118.759741,110.173994 L119.761694,110.173994 C119.585912,111.2404 118.554662,112.025556 117.224584,112.025556 C115.478491,112.025556 114.417944,110.812666 114.417944,108.89665 C114.417944,107.004072 115.496069,105.720869 117.177709,105.720869 C118.824194,105.720869 119.837866,106.916181 119.837866,108.761884 L119.837866,109.148603 L115.466772,109.148603 L115.466772,109.207197 C115.466772,110.373212 116.152319,111.140791 117.248022,111.140791 C118.021459,111.140791 118.589819,110.748212 118.759741,110.173994 Z M120.757787,107.507978 C120.757787,106.465009 121.689428,105.720869 123.031225,105.720869 C124.290991,105.720869 125.216772,106.470869 125.263647,107.502119 L124.290991,107.502119 C124.220678,106.916181 123.746069,106.5529 122.996069,106.5529 C122.251928,106.5529 121.759741,106.922041 121.759741,107.455244 C121.759741,107.877119 122.082006,108.158369 122.773412,108.33415 L123.716772,108.562666 C124.947241,108.873212 125.392553,109.318525 125.392553,110.215009 C125.392553,111.275556 124.3906,112.025556 122.966772,112.025556 C121.630834,112.025556 120.699194,111.298994 120.593725,110.220869 L121.613256,110.220869 C121.724584,110.853681 122.205053,111.193525 123.031225,111.193525 C123.857397,111.193525 124.367162,110.841962 124.367162,110.291181 C124.367162,109.857587 124.115209,109.623212 123.429662,109.441572 L122.357397,109.166181 C121.285131,108.890791 120.757787,108.340009 120.757787,107.507978 Z M128.972631,112.025556 C127.285131,112.025556 126.148412,110.812666 126.148412,108.873212 C126.148412,106.9279 127.285131,105.720869 128.972631,105.720869 C130.654272,105.720869 131.790991,106.9279 131.790991,108.873212 C131.790991,110.812666 130.654272,112.025556 128.972631,112.025556 Z M128.972631,111.129072 C130.050756,111.129072 130.753881,110.308759 130.753881,108.873212 C130.753881,107.437666 130.050756,106.617353 128.972631,106.617353 C127.894506,106.617353 127.185522,107.437666 127.185522,108.873212 C127.185522,110.308759 127.894506,111.129072 128.972631,111.129072 Z M132.816381,111.920087 L132.816381,105.826337 L133.777319,105.826337 L133.777319,106.798994 L133.800756,106.798994 C134.087866,106.154462 134.708959,105.720869 135.529272,105.720869 C136.361303,105.720869 136.976537,106.142744 137.240209,106.881025 L137.263647,106.881025 C137.603491,106.154462 138.318334,105.720869 139.173803,105.720869 C140.380834,105.720869 141.160131,106.506025 141.160131,107.713056 L141.160131,111.920087 L140.1406,111.920087 L140.1406,107.947431 C140.1406,107.1154 139.677709,106.623212 138.874975,106.623212 C138.066381,106.623212 137.498022,107.220869 137.498022,108.047041 L137.498022,111.920087 L136.478491,111.920087 L136.478491,107.836103 C136.478491,107.103681 135.986303,106.623212 135.230444,106.623212 C134.42185,106.623212 133.835912,107.256025 133.835912,108.099775 L133.835912,111.920087 L132.816381,111.920087 Z M144.898412,106.605634 C143.943334,106.605634 143.275366,107.338056 143.210912,108.351728 L146.521459,108.351728 C146.498022,107.332197 145.85935,106.605634 144.898412,106.605634 Z M146.498022,110.173994 L147.499975,110.173994 C147.324194,111.2404 146.292944,112.025556 144.962866,112.025556 C143.216772,112.025556 142.156225,110.812666 142.156225,108.89665 C142.156225,107.004072 143.23435,105.720869 144.915991,105.720869 C146.562475,105.720869 147.576147,106.916181 147.576147,108.761884 L147.576147,109.148603 L143.205053,109.148603 L143.205053,109.207197 C143.205053,110.373212 143.8906,111.140791 144.986303,111.140791 C145.759741,111.140791 146.3281,110.748212 146.498022,110.173994 Z M154.091772,112.025556 C153.201147,112.025556 152.503881,111.591962 152.111303,110.888837 L152.087866,110.888837 L152.087866,111.920087 L151.115209,111.920087 L151.115209,103.465009 L152.134741,103.465009 L152.134741,106.845869 L152.158178,106.845869 C152.539037,106.148603 153.248022,105.720869 154.10935,105.720869 C155.644506,105.720869 156.681616,106.963056 156.681616,108.873212 C156.681616,110.789228 155.650366,112.025556 154.091772,112.025556 Z M153.892553,106.617353 C152.861303,106.617353 152.128881,107.519697 152.128881,108.873212 C152.128881,110.232587 152.861303,111.129072 153.892553,111.129072 C154.970678,111.129072 155.638647,110.267744 155.638647,108.873212 C155.638647,107.4904 154.970678,106.617353 153.892553,106.617353 Z M157.712866,111.920087 L157.712866,105.826337 L158.673803,105.826337 L158.673803,106.822431 L158.697241,106.822431 C158.896459,106.148603 159.458959,105.720869 160.173803,105.720869 C160.349584,105.720869 160.501928,105.750166 160.583959,105.761884 L160.583959,106.752119 C160.501928,106.722822 160.285131,106.693525 160.039037,106.693525 C159.248022,106.693525 158.732397,107.261884 158.732397,108.123212 L158.732397,111.920087 L157.712866,111.920087 Z M163.560522,106.605634 C162.605444,106.605634 161.937475,107.338056 161.873022,108.351728 L165.183569,108.351728 C165.160131,107.332197 164.521459,106.605634 163.560522,106.605634 Z M165.160131,110.173994 L166.162084,110.173994 C165.986303,111.2404 164.955053,112.025556 163.624975,112.025556 C161.878881,112.025556 160.818334,110.812666 160.818334,108.89665 C160.818334,107.004072 161.896459,105.720869 163.5781,105.720869 C165.224584,105.720869 166.238256,106.916181 166.238256,108.761884 L166.238256,109.148603 L161.867162,109.148603 L161.867162,109.207197 C161.867162,110.373212 162.552709,111.140791 163.648412,111.140791 C164.42185,111.140791 164.990209,110.748212 165.160131,110.173994 Z M169.273412,111.158369 C170.23435,111.158369 170.972631,110.484541 170.972631,109.605634 L170.972631,109.107587 L169.343725,109.207197 C168.523412,109.259931 168.054662,109.623212 168.054662,110.197431 C168.054662,110.777509 168.540991,111.158369 169.273412,111.158369 Z M169.044897,112.025556 C167.832006,112.025556 167.017553,111.293134 167.017553,110.197431 C167.017553,109.154462 167.820287,108.498212 169.226537,108.416181 L170.972631,108.316572 L170.972631,107.806806 C170.972631,107.062666 170.480444,106.617353 169.636694,106.617353 C168.851537,106.617353 168.35935,106.986494 168.230444,107.58415 L167.246069,107.58415 C167.316381,106.529462 168.218725,105.720869 169.660131,105.720869 C171.089819,105.720869 171.992162,106.494306 171.992162,107.707197 L171.992162,111.920087 L171.025366,111.920087 L171.025366,110.871259 L171.001928,110.871259 C170.638647,111.568525 169.865209,112.025556 169.044897,112.025556 Z M174.35935,108.533369 L177.054662,105.826337 L178.290991,105.826337 L175.648412,108.457197 L178.373022,111.920087 L177.189428,111.920087 L174.927709,109.08415 L174.35935,109.623212 L174.35935,111.920087 L173.339819,111.920087 L173.339819,103.465009 L174.35935,103.465009 L174.35935,108.533369 Z M179.439428,111.920087 L179.439428,106.664228 L178.589819,106.664228 L178.589819,105.826337 L179.439428,105.826337 L179.439428,105.14665 C179.439428,103.974775 179.98435,103.418134 181.10935,103.418134 C181.337866,103.418134 181.583959,103.441572 181.730444,103.465009 L181.730444,104.291181 C181.607397,104.273603 181.437475,104.256025 181.267553,104.256025 C180.716772,104.256025 180.4531,104.548994 180.4531,105.152509 L180.4531,105.826337 L181.701147,105.826337 L181.701147,106.664228 L180.458959,106.664228 L180.458959,111.920087 L179.439428,111.920087 Z M184.414037,111.158369 C185.374975,111.158369 186.113256,110.484541 186.113256,109.605634 L186.113256,109.107587 L184.48435,109.207197 C183.664037,109.259931 183.195287,109.623212 183.195287,110.197431 C183.195287,110.777509 183.681616,111.158369 184.414037,111.158369 Z M184.185522,112.025556 C182.972631,112.025556 182.158178,111.293134 182.158178,110.197431 C182.158178,109.154462 182.960912,108.498212 184.367162,108.416181 L186.113256,108.316572 L186.113256,107.806806 C186.113256,107.062666 185.621069,106.617353 184.777319,106.617353 C183.992162,106.617353 183.499975,106.986494 183.371069,107.58415 L182.386694,107.58415 C182.457006,106.529462 183.35935,105.720869 184.800756,105.720869 C186.230444,105.720869 187.132787,106.494306 187.132787,107.707197 L187.132787,111.920087 L186.165991,111.920087 L186.165991,110.871259 L186.142553,110.871259 C185.779272,111.568525 185.005834,112.025556 184.185522,112.025556 Z M188.322241,107.507978 C188.322241,106.465009 189.253881,105.720869 190.595678,105.720869 C191.855444,105.720869 192.781225,106.470869 192.8281,107.502119 L191.855444,107.502119 C191.785131,106.916181 191.310522,106.5529 190.560522,106.5529 C189.816381,106.5529 189.324194,106.922041 189.324194,107.455244 C189.324194,107.877119 189.646459,108.158369 190.337866,108.33415 L191.281225,108.562666 C192.511694,108.873212 192.957006,109.318525 192.957006,110.215009 C192.957006,111.275556 191.955053,112.025556 190.531225,112.025556 C189.195287,112.025556 188.263647,111.298994 188.158178,110.220869 L189.177709,110.220869 C189.289037,110.853681 189.769506,111.193525 190.595678,111.193525 C191.42185,111.193525 191.931616,110.841962 191.931616,110.291181 C191.931616,109.857587 191.679662,109.623212 190.994116,109.441572 L189.92185,109.166181 C188.849584,108.890791 188.322241,108.340009 188.322241,107.507978 Z M194.339819,104.355634 L195.35935,104.355634 L195.35935,105.826337 L196.542944,105.826337 L196.542944,106.664228 L195.35935,106.664228 L195.35935,110.285322 C195.35935,110.841962 195.593725,111.093916 196.115209,111.093916 C196.232397,111.093916 196.466772,111.076337 196.537084,111.064619 L196.537084,111.920087 C196.414037,111.949384 196.132787,111.966962 195.892553,111.966962 C194.773412,111.966962 194.339819,111.509931 194.339819,110.338056 L194.339819,106.664228 L193.431616,106.664228 L193.431616,105.826337 L194.339819,105.826337 L194.339819,104.355634 Z" id="Unlimited-wholesome" fill="#FFFFFF"></path>
                <path d="M43.8417719,134.916088 L40.6484125,134.916088 L40.6484125,126.461009 L43.8534906,126.461009 C45.3007562,126.461009 46.2792719,127.304759 46.2792719,128.570384 C46.2792719,129.449291 45.6347406,130.269603 44.8202875,130.416088 L44.8202875,130.462963 C45.968725,130.609447 46.7070062,131.418041 46.7070062,132.543041 C46.7070062,134.031322 45.6406,134.916088 43.8417719,134.916088 Z M41.7031,127.39265 L41.7031,130.105541 L43.2851312,130.105541 C44.5331781,130.105541 45.2128656,129.607494 45.2128656,128.693431 C45.2128656,127.855541 44.6386469,127.39265 43.6132562,127.39265 L41.7031,127.39265 Z M41.7031,133.984447 L43.6835687,133.984447 C44.9550531,133.984447 45.6230219,133.468822 45.6230219,132.490306 C45.6230219,131.511791 44.9316156,131.013744 43.5839594,131.013744 L41.7031,131.013744 L41.7031,133.984447 Z M47.7441156,134.916088 L47.7441156,128.822338 L48.7050531,128.822338 L48.7050531,129.818431 L48.7284906,129.818431 C48.9277094,129.144603 49.4902094,128.716869 50.2050531,128.716869 C50.3808344,128.716869 50.5331781,128.746166 50.6152094,128.757884 L50.6152094,129.748119 C50.5331781,129.718822 50.3163812,129.689525 50.0702875,129.689525 C49.2792719,129.689525 48.7636469,130.257884 48.7636469,131.119213 L48.7636469,134.916088 L47.7441156,134.916088 Z M53.3339594,134.154369 C54.2948969,134.154369 55.0331781,133.480541 55.0331781,132.601634 L55.0331781,132.103588 L53.4042719,132.203197 C52.5839594,132.255931 52.1152094,132.619213 52.1152094,133.193431 C52.1152094,133.773509 52.6015375,134.154369 53.3339594,134.154369 Z M53.1054437,135.021556 C51.8925531,135.021556 51.0781,134.289134 51.0781,133.193431 C51.0781,132.150463 51.8808344,131.494213 53.2870844,131.412181 L55.0331781,131.312572 L55.0331781,130.802806 C55.0331781,130.058666 54.5409906,129.613353 53.6972406,129.613353 C52.9120844,129.613353 52.4198969,129.982494 52.2909906,130.58015 L51.3066156,130.58015 C51.3769281,129.525463 52.2792719,128.716869 53.7206781,128.716869 C55.1503656,128.716869 56.0527094,129.490306 56.0527094,130.703197 L56.0527094,134.916088 L55.0859125,134.916088 L55.0859125,133.867259 L55.062475,133.867259 C54.6991937,134.564525 53.9257562,135.021556 53.1054437,135.021556 Z M57.3476312,134.916088 L57.3476312,128.822338 L58.3085687,128.822338 L58.3085687,129.794994 L58.3320062,129.794994 C58.67185,129.138744 59.3222406,128.716869 60.2656,128.716869 C61.6015375,128.716869 62.374975,129.578197 62.374975,130.961009 L62.374975,134.916088 L61.3554437,134.916088 L61.3554437,131.14265 C61.3554437,130.158275 60.8925531,129.619213 59.9550531,129.619213 C58.9941156,129.619213 58.3671625,130.2989 58.3671625,131.33015 L58.3671625,134.916088 L57.3476312,134.916088 Z M65.9784906,135.021556 C64.4257562,135.021556 63.3710687,133.779369 63.3710687,131.869213 C63.3710687,129.959056 64.4198969,128.716869 65.9550531,128.716869 C66.8281,128.716869 67.531225,129.144603 67.8945062,129.812572 L67.9179437,129.812572 L67.9179437,126.461009 L68.937475,126.461009 L68.937475,134.916088 L67.9648187,134.916088 L67.9648187,133.884838 L67.9472406,133.884838 C67.5546625,134.587963 66.8573969,135.021556 65.9784906,135.021556 Z M66.17185,129.613353 C65.093725,129.613353 64.4140375,130.492259 64.4140375,131.869213 C64.4140375,133.252025 65.093725,134.125072 66.17185,134.125072 C67.2206781,134.125072 67.9238031,133.234447 67.9238031,131.869213 C67.9238031,130.509838 67.2206781,129.613353 66.17185,129.613353 Z M72.7577875,129.601634 C71.8027094,129.601634 71.1347406,130.334056 71.0702875,131.347728 L74.3808344,131.347728 C74.3573969,130.328197 73.718725,129.601634 72.7577875,129.601634 Z M74.3573969,133.169994 L75.35935,133.169994 C75.1835687,134.2364 74.1523187,135.021556 72.8222406,135.021556 C71.0761469,135.021556 70.0156,133.808666 70.0156,131.89265 C70.0156,130.000072 71.093725,128.716869 72.7753656,128.716869 C74.42185,128.716869 75.4355219,129.912181 75.4355219,131.757884 L75.4355219,132.144603 L71.0644281,132.144603 L71.0644281,132.203197 C71.0644281,133.369213 71.749975,134.136791 72.8456781,134.136791 C73.6191156,134.136791 74.187475,133.744213 74.3573969,133.169994 Z M78.7695062,135.021556 C77.2167719,135.021556 76.1620844,133.779369 76.1620844,131.869213 C76.1620844,129.959056 77.2109125,128.716869 78.7460687,128.716869 C79.6191156,128.716869 80.3222406,129.144603 80.6855219,129.812572 L80.7089594,129.812572 L80.7089594,126.461009 L81.7284906,126.461009 L81.7284906,134.916088 L80.7558344,134.916088 L80.7558344,133.884838 L80.7382562,133.884838 C80.3456781,134.587963 79.6484125,135.021556 78.7695062,135.021556 Z M78.9628656,129.613353 C77.8847406,129.613353 77.2050531,130.492259 77.2050531,131.869213 C77.2050531,133.252025 77.8847406,134.125072 78.9628656,134.125072 C80.0116937,134.125072 80.7148187,133.234447 80.7148187,131.869213 C80.7148187,130.509838 80.0116937,129.613353 78.9628656,129.613353 Z M85.8945062,127.351634 L86.9140375,127.351634 L86.9140375,128.822338 L88.0976312,128.822338 L88.0976312,129.660228 L86.9140375,129.660228 L86.9140375,133.281322 C86.9140375,133.837963 87.1484125,134.089916 87.6698969,134.089916 C87.7870844,134.089916 88.0214594,134.072338 88.0917719,134.060619 L88.0917719,134.916088 C87.968725,134.945384 87.687475,134.962963 87.4472406,134.962963 C86.3281,134.962963 85.8945062,134.505931 85.8945062,133.334056 L85.8945062,129.660228 L84.9863031,129.660228 L84.9863031,128.822338 L85.8945062,128.822338 L85.8945062,127.351634 Z M91.531225,135.021556 C89.843725,135.021556 88.7070062,133.808666 88.7070062,131.869213 C88.7070062,129.9239 89.843725,128.716869 91.531225,128.716869 C93.2128656,128.716869 94.3495844,129.9239 94.3495844,131.869213 C94.3495844,133.808666 93.2128656,135.021556 91.531225,135.021556 Z M91.531225,134.125072 C92.60935,134.125072 93.312475,133.304759 93.312475,131.869213 C93.312475,130.433666 92.60935,129.613353 91.531225,129.613353 C90.4531,129.613353 89.7441156,130.433666 89.7441156,131.869213 C89.7441156,133.304759 90.4531,134.125072 91.531225,134.125072 Z M95.4277094,134.916088 L95.4277094,128.822338 L96.4472406,128.822338 L96.4472406,134.916088 L95.4277094,134.916088 Z M95.937475,127.796947 C95.5917719,127.796947 95.3046625,127.509838 95.3046625,127.164134 C95.3046625,126.812572 95.5917719,126.531322 95.937475,126.531322 C96.2890375,126.531322 96.5761469,126.812572 96.5761469,127.164134 C96.5761469,127.509838 96.2890375,127.796947 95.937475,127.796947 Z M97.8769281,134.916088 L97.8769281,126.461009 L98.8964594,126.461009 L98.8964594,134.916088 L97.8769281,134.916088 Z M102.716772,129.601634 C101.761694,129.601634 101.093725,130.334056 101.029272,131.347728 L104.339819,131.347728 C104.316381,130.328197 103.677709,129.601634 102.716772,129.601634 Z M104.316381,133.169994 L105.318334,133.169994 C105.142553,134.2364 104.111303,135.021556 102.781225,135.021556 C101.035131,135.021556 99.9745844,133.808666 99.9745844,131.89265 C99.9745844,130.000072 101.052709,128.716869 102.73435,128.716869 C104.380834,128.716869 105.394506,129.912181 105.394506,131.757884 L105.394506,132.144603 L101.023412,132.144603 L101.023412,132.203197 C101.023412,133.369213 101.708959,134.136791 102.804662,134.136791 C103.5781,134.136791 104.146459,133.744213 104.316381,133.169994 Z M106.748022,127.351634 L107.767553,127.351634 L107.767553,128.822338 L108.951147,128.822338 L108.951147,129.660228 L107.767553,129.660228 L107.767553,133.281322 C107.767553,133.837963 108.001928,134.089916 108.523412,134.089916 C108.6406,134.089916 108.874975,134.072338 108.945287,134.060619 L108.945287,134.916088 C108.822241,134.945384 108.540991,134.962963 108.300756,134.962963 C107.181616,134.962963 106.748022,134.505931 106.748022,133.334056 L106.748022,129.660228 L105.839819,129.660228 L105.839819,128.822338 L106.748022,128.822338 L106.748022,127.351634 Z M110.035131,134.916088 L110.035131,128.822338 L110.996069,128.822338 L110.996069,129.818431 L111.019506,129.818431 C111.218725,129.144603 111.781225,128.716869 112.496069,128.716869 C112.67185,128.716869 112.824194,128.746166 112.906225,128.757884 L112.906225,129.748119 C112.824194,129.718822 112.607397,129.689525 112.361303,129.689525 C111.570287,129.689525 111.054662,130.257884 111.054662,131.119213 L111.054662,134.916088 L110.035131,134.916088 Z M113.785131,134.916088 L113.785131,128.822338 L114.804662,128.822338 L114.804662,134.916088 L113.785131,134.916088 Z M114.294897,127.796947 C113.949194,127.796947 113.662084,127.509838 113.662084,127.164134 C113.662084,126.812572 113.949194,126.531322 114.294897,126.531322 C114.646459,126.531322 114.933569,126.812572 114.933569,127.164134 C114.933569,127.509838 114.646459,127.796947 114.294897,127.796947 Z M118.624975,129.601634 C117.669897,129.601634 117.001928,130.334056 116.937475,131.347728 L120.248022,131.347728 C120.224584,130.328197 119.585912,129.601634 118.624975,129.601634 Z M120.224584,133.169994 L121.226537,133.169994 C121.050756,134.2364 120.019506,135.021556 118.689428,135.021556 C116.943334,135.021556 115.882787,133.808666 115.882787,131.89265 C115.882787,130.000072 116.960912,128.716869 118.642553,128.716869 C120.289037,128.716869 121.302709,129.912181 121.302709,131.757884 L121.302709,132.144603 L116.931616,132.144603 L116.931616,132.203197 C116.931616,133.369213 117.617162,134.136791 118.712866,134.136791 C119.486303,134.136791 120.054662,133.744213 120.224584,133.169994 Z M122.222631,130.503978 C122.222631,129.461009 123.154272,128.716869 124.496069,128.716869 C125.755834,128.716869 126.681616,129.466869 126.728491,130.498119 L125.755834,130.498119 C125.685522,129.912181 125.210912,129.5489 124.460912,129.5489 C123.716772,129.5489 123.224584,129.918041 123.224584,130.451244 C123.224584,130.873119 123.54685,131.154369 124.238256,131.33015 L125.181616,131.558666 C126.412084,131.869213 126.857397,132.314525 126.857397,133.211009 C126.857397,134.271556 125.855444,135.021556 124.431616,135.021556 C123.095678,135.021556 122.164037,134.294994 122.058569,133.216869 L123.0781,133.216869 C123.189428,133.849681 123.669897,134.189525 124.496069,134.189525 C125.322241,134.189525 125.832006,133.837963 125.832006,133.287181 C125.832006,132.853588 125.580053,132.619213 124.894506,132.437572 L123.822241,132.162181 C122.749975,131.886791 122.222631,131.336009 122.222631,130.503978 Z" id="Branded-toiletries" fill="#FFFFFF"></path>
                <path d="M41.7031,156.912088 L40.6484125,156.912088 L40.6484125,148.457009 L41.7031,148.457009 L41.7031,156.912088 Z M43.1855219,156.912088 L43.1855219,150.818338 L44.1464594,150.818338 L44.1464594,151.790994 L44.1698969,151.790994 C44.5097406,151.134744 45.1601312,150.712869 46.1034906,150.712869 C47.4394281,150.712869 48.2128656,151.574197 48.2128656,152.957009 L48.2128656,156.912088 L47.1933344,156.912088 L47.1933344,153.13865 C47.1933344,152.154275 46.7304437,151.615213 45.7929437,151.615213 C44.8320062,151.615213 44.2050531,152.2949 44.2050531,153.32615 L44.2050531,156.912088 L43.1855219,156.912088 Z M53.3398187,153.958963 L49.4960687,153.958963 L49.4960687,153.009744 L53.3398187,153.009744 L53.3398187,153.958963 Z M54.6523187,156.912088 L54.6523187,150.818338 L55.6132562,150.818338 L55.6132562,151.814431 L55.6366937,151.814431 C55.8359125,151.140603 56.3984125,150.712869 57.1132562,150.712869 C57.2890375,150.712869 57.4413812,150.742166 57.5234125,150.753884 L57.5234125,151.744119 C57.4413812,151.714822 57.2245844,151.685525 56.9784906,151.685525 C56.187475,151.685525 55.67185,152.253884 55.67185,153.115213 L55.67185,156.912088 L54.6523187,156.912088 Z M60.5820062,157.017556 C58.8945062,157.017556 57.7577875,155.804666 57.7577875,153.865213 C57.7577875,151.9199 58.8945062,150.712869 60.5820062,150.712869 C62.2636469,150.712869 63.4003656,151.9199 63.4003656,153.865213 C63.4003656,155.804666 62.2636469,157.017556 60.5820062,157.017556 Z M60.5820062,156.121072 C61.6601312,156.121072 62.3632562,155.300759 62.3632562,153.865213 C62.3632562,152.429666 61.6601312,151.609353 60.5820062,151.609353 C59.5038812,151.609353 58.7948969,152.429666 58.7948969,153.865213 C58.7948969,155.300759 59.5038812,156.121072 60.5820062,156.121072 Z M66.9511469,157.017556 C65.2636469,157.017556 64.1269281,155.804666 64.1269281,153.865213 C64.1269281,151.9199 65.2636469,150.712869 66.9511469,150.712869 C68.6327875,150.712869 69.7695062,151.9199 69.7695062,153.865213 C69.7695062,155.804666 68.6327875,157.017556 66.9511469,157.017556 Z M66.9511469,156.121072 C68.0292719,156.121072 68.7323969,155.300759 68.7323969,153.865213 C68.7323969,152.429666 68.0292719,151.609353 66.9511469,151.609353 C65.8730219,151.609353 65.1640375,152.429666 65.1640375,153.865213 C65.1640375,155.300759 65.8730219,156.121072 66.9511469,156.121072 Z M70.7948969,156.912088 L70.7948969,150.818338 L71.7558344,150.818338 L71.7558344,151.790994 L71.7792719,151.790994 C72.0663812,151.146463 72.687475,150.712869 73.5077875,150.712869 C74.3398187,150.712869 74.9550531,151.134744 75.218725,151.873025 L75.2421625,151.873025 C75.5820062,151.146463 76.29685,150.712869 77.1523187,150.712869 C78.35935,150.712869 79.1386469,151.498025 79.1386469,152.705056 L79.1386469,156.912088 L78.1191156,156.912088 L78.1191156,152.939431 C78.1191156,152.1074 77.656225,151.615213 76.8534906,151.615213 C76.0448969,151.615213 75.4765375,152.212869 75.4765375,153.039041 L75.4765375,156.912088 L74.4570062,156.912088 L74.4570062,152.828103 C74.4570062,152.095681 73.9648187,151.615213 73.2089594,151.615213 C72.4003656,151.615213 71.8144281,152.248025 71.8144281,153.091775 L71.8144281,156.912088 L70.7948969,156.912088 Z M87.9570062,152.816384 L86.9609125,152.816384 C86.8144281,152.154275 86.2988031,151.609353 85.4023187,151.609353 C84.3476312,151.609353 83.6327875,152.4824 83.6327875,153.865213 C83.6327875,155.283181 84.35935,156.121072 85.4140375,156.121072 C86.2460687,156.121072 86.7909906,155.681619 86.9667719,154.949197 L87.968725,154.949197 C87.8105219,156.162088 86.7909906,157.017556 85.4081781,157.017556 C83.7206781,157.017556 82.5956781,155.828103 82.5956781,153.865213 C82.5956781,151.943338 83.7148187,150.712869 85.3964594,150.712869 C86.9198969,150.712869 87.8281,151.720681 87.9570062,152.816384 Z M91.4316156,157.017556 C89.7441156,157.017556 88.6073969,155.804666 88.6073969,153.865213 C88.6073969,151.9199 89.7441156,150.712869 91.4316156,150.712869 C93.1132562,150.712869 94.249975,151.9199 94.249975,153.865213 C94.249975,155.804666 93.1132562,157.017556 91.4316156,157.017556 Z M91.4316156,156.121072 C92.5097406,156.121072 93.2128656,155.300759 93.2128656,153.865213 C93.2128656,152.429666 92.5097406,151.609353 91.4316156,151.609353 C90.3534906,151.609353 89.6445062,152.429666 89.6445062,153.865213 C89.6445062,155.300759 90.3534906,156.121072 91.4316156,156.121072 Z M95.6034906,156.912088 L95.6034906,151.656228 L94.7538812,151.656228 L94.7538812,150.818338 L95.6034906,150.818338 L95.6034906,150.13865 C95.6034906,148.966775 96.1484125,148.410134 97.2734125,148.410134 C97.5019281,148.410134 97.7480219,148.433572 97.8945062,148.457009 L97.8945062,149.283181 C97.7714594,149.265603 97.6015375,149.248025 97.4316156,149.248025 C96.8808344,149.248025 96.6171625,149.540994 96.6171625,150.144509 L96.6171625,150.818338 L97.8652094,150.818338 L97.8652094,151.656228 L96.6230219,151.656228 L96.6230219,156.912088 L95.6034906,156.912088 Z M99.2480219,156.912088 L99.2480219,151.656228 L98.3984125,151.656228 L98.3984125,150.818338 L99.2480219,150.818338 L99.2480219,150.13865 C99.2480219,148.966775 99.7929437,148.410134 100.917944,148.410134 C101.146459,148.410134 101.392553,148.433572 101.539037,148.457009 L101.539037,149.283181 C101.415991,149.265603 101.246069,149.248025 101.076147,149.248025 C100.525366,149.248025 100.261694,149.540994 100.261694,150.144509 L100.261694,150.818338 L101.509741,150.818338 L101.509741,151.656228 L100.267553,151.656228 L100.267553,156.912088 L99.2480219,156.912088 Z M104.714819,151.597634 C103.759741,151.597634 103.091772,152.330056 103.027319,153.343728 L106.337866,153.343728 C106.314428,152.324197 105.675756,151.597634 104.714819,151.597634 Z M106.314428,155.165994 L107.316381,155.165994 C107.1406,156.2324 106.10935,157.017556 104.779272,157.017556 C103.033178,157.017556 101.972631,155.804666 101.972631,153.88865 C101.972631,151.996072 103.050756,150.712869 104.732397,150.712869 C106.378881,150.712869 107.392553,151.908181 107.392553,153.753884 L107.392553,154.140603 L103.021459,154.140603 L103.021459,154.199197 C103.021459,155.365213 103.707006,156.132791 104.802709,156.132791 C105.576147,156.132791 106.144506,155.740213 106.314428,155.165994 Z M110.861303,151.597634 C109.906225,151.597634 109.238256,152.330056 109.173803,153.343728 L112.48435,153.343728 C112.460912,152.324197 111.822241,151.597634 110.861303,151.597634 Z M112.460912,155.165994 L113.462866,155.165994 C113.287084,156.2324 112.255834,157.017556 110.925756,157.017556 C109.179662,157.017556 108.119116,155.804666 108.119116,153.88865 C108.119116,151.996072 109.197241,150.712869 110.878881,150.712869 C112.525366,150.712869 113.539037,151.908181 113.539037,153.753884 L113.539037,154.140603 L109.167944,154.140603 L109.167944,154.199197 C109.167944,155.365213 109.853491,156.132791 110.949194,156.132791 C111.722631,156.132791 112.290991,155.740213 112.460912,155.165994 Z M123.165991,156.912088 L122.380834,156.062478 C121.665991,156.695291 120.681616,157.052713 119.679662,157.052713 C118.009741,157.052713 116.843725,156.068338 116.843725,154.662088 C116.843725,153.671853 117.382787,152.910134 118.501928,152.318338 C118.67185,152.230447 118.777319,152.171853 118.824194,152.154275 C118.068334,151.351541 117.775366,150.806619 117.775366,150.191384 C117.775366,149.119119 118.689428,148.316384 119.908178,148.316384 C121.150366,148.316384 122.04685,149.1074 122.04685,150.203103 C122.04685,151.064431 121.525366,151.691384 120.236303,152.371072 L122.3281,154.626931 C122.603491,154.111306 122.732397,153.4199 122.732397,152.376931 L122.732397,152.124978 L123.705053,152.124978 L123.705053,152.382791 C123.705053,153.671853 123.470678,154.609353 123.007787,155.335916 L124.490209,156.912088 L123.165991,156.912088 Z M119.105444,152.933572 C118.232397,153.466775 117.886694,153.941384 117.886694,154.591775 C117.886694,155.535134 118.648412,156.173806 119.773412,156.173806 C120.529272,156.173806 121.314428,155.869119 121.7656,155.38865 L119.386694,152.781228 C119.310522,152.816384 119.158178,152.898416 119.105444,152.933572 Z M119.673803,151.779275 C120.687475,151.26365 121.062475,150.841775 121.062475,150.238259 C121.062475,149.593728 120.599584,149.142556 119.914037,149.142556 C119.246069,149.142556 118.771459,149.605447 118.771459,150.249978 C118.771459,150.712869 119.017553,151.123025 119.673803,151.779275 Z M127.841772,149.347634 L128.861303,149.347634 L128.861303,150.818338 L130.044897,150.818338 L130.044897,151.656228 L128.861303,151.656228 L128.861303,155.277322 C128.861303,155.833963 129.095678,156.085916 129.617162,156.085916 C129.73435,156.085916 129.968725,156.068338 130.039037,156.056619 L130.039037,156.912088 C129.915991,156.941384 129.634741,156.958963 129.394506,156.958963 C128.275366,156.958963 127.841772,156.501931 127.841772,155.330056 L127.841772,151.656228 L126.933569,151.656228 L126.933569,150.818338 L127.841772,150.818338 L127.841772,149.347634 Z M133.396459,151.597634 C132.441381,151.597634 131.773412,152.330056 131.708959,153.343728 L135.019506,153.343728 C134.996069,152.324197 134.357397,151.597634 133.396459,151.597634 Z M134.996069,155.165994 L135.998022,155.165994 C135.822241,156.2324 134.790991,157.017556 133.460912,157.017556 C131.714819,157.017556 130.654272,155.804666 130.654272,153.88865 C130.654272,151.996072 131.732397,150.712869 133.414037,150.712869 C135.060522,150.712869 136.074194,151.908181 136.074194,153.753884 L136.074194,154.140603 L131.7031,154.140603 L131.7031,154.199197 C131.7031,155.365213 132.388647,156.132791 133.48435,156.132791 C134.257787,156.132791 134.826147,155.740213 134.996069,155.165994 Z M139.10935,156.150369 C140.070287,156.150369 140.808569,155.476541 140.808569,154.597634 L140.808569,154.099588 L139.179662,154.199197 C138.35935,154.251931 137.8906,154.615213 137.8906,155.189431 C137.8906,155.769509 138.376928,156.150369 139.10935,156.150369 Z M138.880834,157.017556 C137.667944,157.017556 136.853491,156.285134 136.853491,155.189431 C136.853491,154.146463 137.656225,153.490213 139.062475,153.408181 L140.808569,153.308572 L140.808569,152.798806 C140.808569,152.054666 140.316381,151.609353 139.472631,151.609353 C138.687475,151.609353 138.195287,151.978494 138.066381,152.57615 L137.082006,152.57615 C137.152319,151.521463 138.054662,150.712869 139.496069,150.712869 C140.925756,150.712869 141.8281,151.486306 141.8281,152.699197 L141.8281,156.912088 L140.861303,156.912088 L140.861303,155.863259 L140.837866,155.863259 C140.474584,156.560525 139.701147,157.017556 138.880834,157.017556 Z M145.583959,156.912088 L145.583959,150.818338 L146.544897,150.818338 L146.544897,151.790994 L146.568334,151.790994 C146.855444,151.146463 147.476537,150.712869 148.29685,150.712869 C149.128881,150.712869 149.744116,151.134744 150.007787,151.873025 L150.031225,151.873025 C150.371069,151.146463 151.085912,150.712869 151.941381,150.712869 C153.148412,150.712869 153.927709,151.498025 153.927709,152.705056 L153.927709,156.912088 L152.908178,156.912088 L152.908178,152.939431 C152.908178,152.1074 152.445287,151.615213 151.642553,151.615213 C150.833959,151.615213 150.2656,152.212869 150.2656,153.039041 L150.2656,156.912088 L149.246069,156.912088 L149.246069,152.828103 C149.246069,152.095681 148.753881,151.615213 147.998022,151.615213 C147.189428,151.615213 146.603491,152.248025 146.603491,153.091775 L146.603491,156.912088 L145.583959,156.912088 Z M157.232397,156.150369 C158.193334,156.150369 158.931616,155.476541 158.931616,154.597634 L158.931616,154.099588 L157.302709,154.199197 C156.482397,154.251931 156.013647,154.615213 156.013647,155.189431 C156.013647,155.769509 156.499975,156.150369 157.232397,156.150369 Z M157.003881,157.017556 C155.790991,157.017556 154.976537,156.285134 154.976537,155.189431 C154.976537,154.146463 155.779272,153.490213 157.185522,153.408181 L158.931616,153.308572 L158.931616,152.798806 C158.931616,152.054666 158.439428,151.609353 157.595678,151.609353 C156.810522,151.609353 156.318334,151.978494 156.189428,152.57615 L155.205053,152.57615 C155.275366,151.521463 156.177709,150.712869 157.619116,150.712869 C159.048803,150.712869 159.951147,151.486306 159.951147,152.699197 L159.951147,156.912088 L158.98435,156.912088 L158.98435,155.863259 L158.960912,155.863259 C158.597631,156.560525 157.824194,157.017556 157.003881,157.017556 Z M162.318334,153.525369 L165.013647,150.818338 L166.249975,150.818338 L163.607397,153.449197 L166.332006,156.912088 L165.148412,156.912088 L162.886694,154.07615 L162.318334,154.615213 L162.318334,156.912088 L161.298803,156.912088 L161.298803,148.457009 L162.318334,148.457009 L162.318334,153.525369 Z M169.220678,151.597634 C168.2656,151.597634 167.597631,152.330056 167.533178,153.343728 L170.843725,153.343728 C170.820287,152.324197 170.181616,151.597634 169.220678,151.597634 Z M170.820287,155.165994 L171.822241,155.165994 C171.646459,156.2324 170.615209,157.017556 169.285131,157.017556 C167.539037,157.017556 166.478491,155.804666 166.478491,153.88865 C166.478491,151.996072 167.556616,150.712869 169.238256,150.712869 C170.884741,150.712869 171.898412,151.908181 171.898412,153.753884 L171.898412,154.140603 L167.527319,154.140603 L167.527319,154.199197 C167.527319,155.365213 168.212866,156.132791 169.308569,156.132791 C170.082006,156.132791 170.650366,155.740213 170.820287,155.165994 Z M172.923803,156.912088 L172.923803,150.818338 L173.884741,150.818338 L173.884741,151.814431 L173.908178,151.814431 C174.107397,151.140603 174.669897,150.712869 175.384741,150.712869 C175.560522,150.712869 175.712866,150.742166 175.794897,150.753884 L175.794897,151.744119 C175.712866,151.714822 175.496069,151.685525 175.249975,151.685525 C174.458959,151.685525 173.943334,152.253884 173.943334,153.115213 L173.943334,156.912088 L172.923803,156.912088 Z" id="In-room-coffee-&amp;-tea" fill="#FFFFFF"></path>
                <path d="M29.8291,86.9739 C29.8291,87.7749 29.1801,88.4239 28.3791,88.4239 C27.5781,88.4239 26.9291,87.7749 26.9291,86.9739 C26.9291,86.1729 27.5781,85.5239 28.3791,85.5239 C29.1801,85.5239 29.8291,86.1729 29.8291,86.9739" id="Fill-49" fill="#FFFFFF"></path>
                <path d="M29.8291,108.99 C29.8291,109.791 29.1801,110.44 28.3791,110.44 C27.5781,110.44 26.9291,109.791 26.9291,108.99 C26.9291,108.189 27.5781,107.54 28.3791,107.54 C29.1801,107.54 29.8291,108.189 29.8291,108.99" id="Fill-51" fill="#FFFFFF"></path>
                <path d="M29.8291,131.0062 C29.8291,131.8072 29.1801,132.4562 28.3791,132.4562 C27.5781,132.4562 26.9291,131.8072 26.9291,131.0062 C26.9291,130.2052 27.5781,129.5562 28.3791,129.5562 C29.1801,129.5562 29.8291,130.2052 29.8291,131.0062" id="Fill-53" fill="#FFFFFF"></path>
                <path d="M29.8291,153.0223 C29.8291,153.8233 29.1801,154.4723 28.3791,154.4723 C27.5781,154.4723 26.9291,153.8233 26.9291,153.0223 C26.9291,152.2213 27.5781,151.5723 28.3791,151.5723 C29.1801,151.5723 29.8291,152.2213 29.8291,153.0223" id="Fill-55" fill="#FFFFFF"></path>
                <g id="Group-48" transform="translate(27.000000, 16.000000)">
                    <g id="Group-3" transform="translate(0.000000, 2.172000)">
                        <mask id="mask-2" fill="white">
                            <use xlink:href="#path-1"></use>
                        </mask>
                        <g id="Clip-2"></g>
                        <path d="M-0.0001,3.5641 C7.8709,-1.9629 18.7159,-0.0369 24.2419,7.8351 C29.7699,15.7061 27.8429,26.5501 19.9719,32.0771 L-0.0001,3.5641 Z" id="Fill-1" fill="#FFBF00" mask="url(#mask-2)"></path>
                    </g>
                    <path d="M44.2137,38.4778 C36.3427,44.0048 25.4977,42.0788 19.9717,34.2068 C14.4447,26.3358 16.3707,15.4918 24.2417,9.9648 L44.2137,38.4778 Z" id="Fill-4" fill="#58268E"></path>
                    <g id="Group-8" transform="translate(2.000000, 16.172000)">
                        <mask id="mask-4" fill="white">
                            <use xlink:href="#path-3"></use>
                        </mask>
                        <g id="Clip-7"></g>
                        <path d="M3.7362,28.0001 C-1.7908,20.1281 0.1352,9.2841 8.0072,3.7581 C15.8782,-1.7689 26.7222,0.1571 32.2492,8.0281 L3.7362,28.0001 Z" id="Fill-6" fill="#82C51B" mask="url(#mask-4)"></path>
                    </g>
                    <path d="M38.4774,-7.10542736e-15 C44.0044,7.871 42.0794,18.716 34.2064,24.242 C26.3354,29.769 15.4924,27.843 9.9644,19.972 L38.4774,-7.10542736e-15 Z" id="Fill-9" fill="#01703C"></path>
                    <path d="M22.2743,18.3386 C23.5233,18.3386 24.5353,19.3506 24.5353,20.5996 C24.5353,21.8486 23.5233,22.8606 22.2743,22.8606 C21.0253,22.8606 20.0133,21.8486 20.0133,20.5996 C20.0133,19.3506 21.0253,18.3386 22.2743,18.3386" id="Fill-11" fill="#FFFFFF"></path>
                    <path d="M97.8466,17.7102 L98.4756,17.7102 C98.5616,17.7102 98.6016,17.7102 98.6826,17.7552 C100.3576,18.0062 101.4496,18.9272 101.4496,20.0552 C101.4496,20.9352 100.7356,21.8152 98.3496,21.8152 L92.5736,21.8152 C93.3236,19.3052 95.3356,17.7102 97.8466,17.7102 M97.8466,30.5662 C95.2506,30.5662 93.1576,28.9352 92.4476,26.2942 L99.5626,26.2942 C103.0796,26.2942 106.5966,24.2012 106.5966,20.1402 C106.5966,17.3772 104.8406,14.9922 102.3256,13.7352 C101.1126,13.2322 99.8146,12.9402 98.4756,12.8542 L97.8466,12.8542 C91.8196,12.8542 86.8366,17.9612 86.8366,24.1602 C86.8366,30.3992 91.8196,35.3812 97.8466,35.3812 C100.9066,35.3812 103.4166,34.4202 105.2986,32.7852 L101.5306,29.1422 C100.5696,30.1072 99.1856,30.5662 97.8466,30.5662" id="Fill-13" fill="#FFFFFF"></path>
                    <path d="M85.329,13.3982 C82.775,13.3982 80.515,14.6962 79.091,16.6642 C78.212,14.7382 76.286,13.3982 74.024,13.3982 L74.024,18.9252 L74.024,34.9192 L79.552,34.9192 L79.552,24.2842 C79.552,20.6832 81.058,18.8832 84.408,18.8832 L86.879,18.8832 L86.879,13.3982 L85.329,13.3982 Z" id="Fill-15" fill="#FFFFFF"></path>
                    <path d="M142.0194,30.2739 C138.9604,30.2739 136.4904,27.6369 136.4904,24.2009 C136.4904,20.6839 138.9604,18.0069 142.0194,18.0069 C145.0744,18.0069 147.5444,20.7689 147.5444,24.2009 C147.5444,27.5519 145.0744,30.2739 142.0194,30.2739 Z M147.5034,7.8329 L147.5034,15.4099 C145.8694,13.8199 143.6504,12.8989 141.1794,12.8989 C135.5694,12.9399 130.9644,17.7959 130.9644,24.1599 C130.9644,30.5249 135.5694,35.3409 141.1794,35.3409 L141.4314,35.3409 C143.8614,35.3409 146.5824,34.3749 148.3844,32.2819 C149.3454,33.8309 151.1064,34.8779 153.0744,34.8779 L153.0744,7.8329 L147.5034,7.8329 Z" id="Fill-17" fill="#FFFFFF"></path>
                    <path d="M64.4784,25.7915 L64.4784,18.8415 L64.4784,18.2545 L64.4784,18.2135 L64.4784,13.4395 L64.4784,13.3985 L64.4784,7.9135 L59.0364,7.9135 L59.0364,13.3985 L59.0364,18.7995 L59.0364,25.7075 C59.0364,31.5275 62.3434,35.2955 68.5824,34.6255 L68.5824,29.6855 C65.8604,29.8945 64.4784,28.7645 64.4784,25.7915" id="Fill-19" fill="#FFFFFF"></path>
                    <mask id="mask-6" fill="white">
                        <use xlink:href="#path-5"></use>
                    </mask>
                    <g id="Clip-22"></g>
                    <polygon id="Fill-21" fill="#FFFFFF" mask="url(#mask-6)" points="59.036 24.326 64.478 24.326 64.478 7.955 59.036 7.955"></polygon>
                    <path d="M59.036,24.2842 L59.036,18.8412 C62.05,18.8412 64.478,21.2692 64.478,24.2842 L59.036,24.2842 Z" id="Fill-23" fill="#FFFFFF" mask="url(#mask-6)"></path>
                    <path d="M69.9637,18.841 L64.5207,18.841 C64.5207,15.827 66.9487,13.398 69.9637,13.398 L69.9637,18.841 Z" id="Fill-24" fill="#FFFFFF" mask="url(#mask-6)"></path>
                    <path d="M53.5927,18.7993 C59.5797,18.7993 64.4367,13.9423 64.4787,7.9133 L58.9937,7.9133 C58.9517,10.8863 56.5657,13.3143 53.5927,13.3143 L53.5927,18.7993 Z" id="Fill-25" fill="#FFFFFF" mask="url(#mask-6)"></path>
                    <polygon id="Fill-26" fill="#FFFFFF" mask="url(#mask-6)" points="53.593 18.799 69.964 18.799 69.964 13.356 53.593 13.356"></polygon>
                    <path d="M128.245,34.9189 L122.761,34.9189 L122.761,22.3579 C122.761,21.1019 122.384,18.0869 118.741,18.0869 C116.27,18.0869 114.555,19.9299 114.555,22.3579 L114.555,34.9189 L109.069,34.9189 L109.069,13.4399 L114.303,13.4399 L114.303,15.5339 C115.684,13.9009 117.568,12.8959 119.83,12.8959 C124.854,12.8959 128.203,16.7059 128.203,22.3579 L128.203,34.9189 L128.245,34.9189 Z" id="Fill-27" fill="#FFFFFF" mask="url(#mask-6)"></path>
                    <path d="M184.744,25.3838 L184.883,25.3838 L184.955,25.3838 L185.02,25.3838 C185.58,25.4558 185.929,25.7688 185.929,26.1528 C185.929,26.4658 185.687,26.7478 184.883,26.7478 L182.96,26.7478 C183.242,25.9068 183.903,25.3838 184.744,25.3838 Z M185.339,28.2498 C186.523,28.2498 187.677,27.5468 187.677,26.1888 C187.677,25.2818 187.082,24.4768 186.247,24.0558 C185.862,23.8818 185.405,23.7798 184.955,23.7798 L184.744,23.7798 C182.72,23.7798 181.079,25.4918 181.079,27.5468 C181.079,29.6078 182.72,31.2848 184.744,31.2848 C185.754,31.2848 186.595,30.9718 187.22,30.4128 L185.964,29.1938 C185.651,29.5418 185.195,29.6798 184.744,29.6798 C183.867,29.6798 183.17,29.1218 182.96,28.2498 L185.339,28.2498 Z" id="Fill-28" fill="#FFFFFF" mask="url(#mask-6)"></path>
                    <path d="M191.7264,25.3838 L191.8654,25.3838 L191.9374,25.3838 L192.0024,25.3838 C192.5614,25.4558 192.9104,25.7688 192.9104,26.1528 C192.9104,26.4658 192.6694,26.7478 191.8654,26.7478 L189.9424,26.7478 C190.2244,25.9068 190.8854,25.3838 191.7264,25.3838 Z M192.3214,28.2498 C193.5044,28.2498 194.6594,27.5468 194.6594,26.1888 C194.6594,25.2818 194.0644,24.4768 193.2284,24.0558 C192.8444,23.8818 192.3874,23.7798 191.9374,23.7798 L191.7264,23.7798 C189.7024,23.7798 188.0614,25.4918 188.0614,27.5468 C188.0614,29.6078 189.7024,31.2848 191.7264,31.2848 C192.7364,31.2848 193.5774,30.9718 194.2024,30.4128 L192.9464,29.1938 C192.6334,29.5418 192.1774,29.6798 191.7264,29.6798 C190.8554,29.6798 190.1524,29.1218 189.9424,28.2498 L192.3214,28.2498 Z" id="Fill-29" fill="#FFFFFF" mask="url(#mask-6)"></path>
                    <path d="M180.5536,23.9538 C179.7156,23.9538 178.9476,24.3728 178.4586,25.0358 C178.1796,24.4078 177.5156,23.9538 176.7826,23.9538 L176.7826,25.8038 L176.7826,31.1458 L178.6326,31.1458 L178.6326,27.6198 C178.6326,26.4328 179.1216,25.8038 180.2396,25.8038 L181.0416,25.8038 L181.0416,23.9888 L180.5536,23.9538 Z" id="Fill-30" fill="#FFFFFF" mask="url(#mask-6)"></path>
                    <path d="M199.0214,29.5717 C198.0114,29.5717 197.1704,28.6647 197.1704,27.5467 C197.1704,26.3997 197.9754,25.4917 199.0214,25.4917 C200.0374,25.4917 200.8724,26.3637 200.8724,27.5467 C200.8724,28.7007 200.0374,29.5717 199.0214,29.5717 M199.3034,23.8157 C198.4994,23.8157 197.7294,24.1277 197.2074,24.6507 L197.2074,22.1387 L195.3564,22.1387 L195.3564,31.1457 C196.0164,31.1457 196.5764,30.7977 196.9304,30.2747 C197.5194,30.9717 198.4264,31.2847 199.2314,31.2847 L199.3034,31.2847 C201.1844,31.2847 202.7224,29.6797 202.7224,27.5467 C202.6864,25.4197 201.1844,23.8157 199.3034,23.8157" id="Fill-31" fill="#FFFFFF" mask="url(#mask-6)"></path>
                    <path d="M206.911,29.542 C205.793,29.542 204.886,28.635 204.886,27.517 C204.886,26.399 205.793,25.492 206.911,25.492 C208.028,25.492 208.935,26.399 208.935,27.517 C208.935,28.635 208.028,29.542 206.911,29.542 M207.018,23.78 C204.922,23.707 203.21,25.384 203.18,27.445 C203.107,29.542 204.784,31.248 206.845,31.284 C208.935,31.356 210.648,29.68 210.684,27.619 C210.721,25.522 209.08,23.816 207.018,23.78" id="Fill-32" fill="#FFFFFF" mask="url(#mask-6)"></path>
                    <path d="M173.6405,28.0737 L173.6405,25.7697 L173.6405,25.5947 L173.6405,23.9887 L173.6405,22.1737 L171.8255,22.1737 L171.8255,23.9887 L171.8255,25.8037 L171.8255,28.1087 C171.8255,30.0637 172.9075,31.2857 175.0015,31.0757 L175.0015,29.4007 C174.0945,29.4357 173.6405,29.0857 173.6405,28.0737" id="Fill-33" fill="#FFFFFF" mask="url(#mask-6)"></path>
                    <polygon id="Fill-34" fill="#FFFFFF" mask="url(#mask-6)" points="171.825 27.585 173.64 27.585 173.64 22.138 171.825 22.138"></polygon>
                    <path d="M171.8251,27.5849 L171.8251,25.7689 C172.8381,25.7689 173.6401,26.5719 173.6401,27.5849 L171.8251,27.5849 Z" id="Fill-35" fill="#FFFFFF" mask="url(#mask-6)"></path>
                    <path d="M175.4559,25.7693 L173.6409,25.7693 C173.6409,24.7573 174.4429,23.9543 175.4559,23.9543 L175.4559,25.7693 Z" id="Fill-36" fill="#FFFFFF" mask="url(#mask-6)"></path>
                    <path d="M170.0096,25.7693 C171.9996,25.7693 173.6406,24.1283 173.6406,22.1383 L171.8246,22.1383 C171.8246,23.1163 171.0226,23.9193 170.0096,23.9543 L170.0096,25.7693 Z" id="Fill-37" fill="#FFFFFF" mask="url(#mask-6)"></path>
                    <polygon id="Fill-38" fill="#FFFFFF" mask="url(#mask-6)" points="170.01 25.769 175.456 25.769 175.456 23.954 170.01 23.954"></polygon>
                    <path d="M169.1366,27.5151 C169.1366,29.6451 167.4256,31.3551 165.2956,31.3551 C163.1666,31.3551 161.4556,29.6451 161.4556,27.5151 C161.4556,25.3851 163.1666,23.6741 165.2956,23.6741 C167.3906,23.6741 169.1366,25.3851 169.1366,27.5151" id="Fill-39" fill="#82C51B" mask="url(#mask-6)"></path>
                    <path d="M164.3505,28.5625 C164.0745,28.5625 163.7975,28.3165 163.7975,27.8295 C163.7975,27.3425 164.0385,26.9945 164.3505,26.9945 C164.6325,26.9945 164.8075,27.2705 164.8075,27.7575 C164.8075,28.2865 164.6325,28.5625 164.3505,28.5625 M165.0175,26.9225 C164.9095,26.7835 164.7355,26.7115 164.4955,26.7115 C164.2125,26.7115 163.9365,26.8855 163.7975,27.1685 L163.7975,25.7325 L163.0645,25.7325 L163.0645,26.0505 L163.3765,26.0505 L163.3765,28.8385 L163.6175,28.8385 L163.7615,28.4245 C163.9005,28.6645 164.1105,28.8385 164.4225,28.8385 C164.6325,28.8385 164.8435,28.7365 164.9815,28.5985 C165.1925,28.3885 165.2935,28.0755 165.2935,27.7575 C165.2935,27.4085 165.2285,27.1325 165.0175,26.9225" id="Fill-40" fill="#FFFFFF" mask="url(#mask-6)"></path>
                    <path d="M166.0643,29.156 C166.0643,29.191 166.0293,29.261 166.0293,29.296 C166.2043,29.261 166.3083,29.156 166.4483,28.772 L165.7503,27.026 L165.4703,27.026 L165.4703,26.747 L166.5523,26.747 L166.5523,27.026 L166.2043,27.026 L166.6923,28.318 L167.1813,27.026 L166.9023,27.026 L166.9023,26.747 L167.7753,26.747 L167.7753,27.026 L167.4963,27.026 L166.7973,28.737 C166.5183,29.365 166.2733,29.54 165.9603,29.54 C165.6803,29.54 165.5413,29.4 165.5413,29.191 C165.5413,29.051 165.6453,28.912 165.8203,28.912 C165.9603,28.877 166.0643,29.016 166.0643,29.156" id="Fill-41" fill="#FFFFFF" mask="url(#mask-6)"></path>
                    <polygon id="Fill-42" fill="#999999" mask="url(#mask-6)" points="168.4384 13.0261 168.4384 19.7991 167.6354 19.7991 167.6354 16.6571 163.9344 16.6571 163.9344 19.7991 163.0964 19.7991 163.0964 13.0261 163.9344 13.0261 163.9344 15.8541 167.6354 15.8541 167.6354 13.0261"></polygon>
                    <path d="M175.244,19.0986 C173.85,19.0986 172.697,17.9146 172.697,16.3766 C172.697,14.8446 173.85,13.6546 175.244,13.6546 C176.681,13.6546 177.792,14.8086 177.792,16.3766 C177.792,17.9146 176.644,19.0986 175.244,19.0986 M175.244,12.8496 C173.393,12.8496 171.897,14.4236 171.897,16.3766 C171.897,18.3656 173.393,19.9036 175.244,19.9036 C177.096,19.9036 178.598,18.3356 178.598,16.3766 C178.598,14.3516 177.131,12.8496 175.244,12.8496" id="Fill-43" fill="#999999" mask="url(#mask-6)"></path>
                    <polygon id="Fill-44" fill="#999999" mask="url(#mask-6)" points="183.9745 13.7942 183.9745 19.7642 183.1365 19.7642 183.1365 13.7942 181.0065 13.7942 181.0065 12.9912 186.1045 12.9912 186.1045 13.7942"></polygon>
                    <polygon id="Fill-45" fill="#999999" mask="url(#mask-6)" points="194.1698 13.0261 194.1698 13.8291 190.1538 13.8291 190.1538 15.8891 193.7848 15.8891 193.7848 16.6921 190.1538 16.6921 190.1538 19.0311 194.1698 19.0311 194.1698 19.8341 189.3158 19.8341 189.3158 13.0611"></polygon>
                    <polygon id="Fill-46" fill="#999999" mask="url(#mask-6)" points="201.955 19.7993 197.626 19.7993 197.626 13.0263 198.464 13.0263 198.464 18.9963 201.955 18.9963"></polygon>
                    <path d="M207.2968,19.904 C205.7258,19.904 204.7128,18.996 204.7128,17.634 L205.5858,17.634 C205.5858,18.542 206.2838,19.101 207.2968,19.101 C208.4488,19.101 209.0078,18.612 209.0078,17.844 C209.0078,17.285 208.7638,16.901 207.2618,16.622 C205.7608,16.343 204.8878,15.889 204.8878,14.737 C204.8878,13.585 205.8298,12.817 207.2618,12.817 C208.7288,12.817 209.6708,13.62 209.6708,14.911 L208.8328,14.911 C208.8328,14.108 208.3098,13.585 207.2968,13.585 C206.2488,13.585 205.7608,14.039 205.7608,14.667 C205.7608,15.26 206.0748,15.54 207.4718,15.784 C208.9728,16.063 209.8808,16.482 209.8808,17.774 C209.8458,19.206 208.7978,19.904 207.2968,19.904" id="Fill-47" fill="#999999" mask="url(#mask-6)"></path>
                </g>
            </g>
        </g>
    </g>
</svg>