<?xml version="1.0" encoding="UTF-8"?>
<svg width="268px" height="150px" viewBox="0 0 268 150" version="1.1" xmlns="http://www.w3.org/2000/svg" xmlns:xlink="http://www.w3.org/1999/xlink">
    <!-- Generator: Sketch 49.3 (51167) - http://www.bohemiancoding.com/sketch -->
    <title>268x150-quality-guarantee</title>
    <desc>Created with Sketch.</desc>
    <defs></defs>
    <g id="268x150-quality-guarantee" stroke="none" stroke-width="1" fill="none" fill-rule="evenodd">
        <g id="Group" transform="translate(3.000000, 13.000000)" fill-rule="nonzero">
            <path d="M134.5,11.8 L126.4,11.8 C69.6,11.8 23.5,57.9 23.5,114.7 L23.5,123.9 L237.4,123.9 L237.4,114.7 C237.3,57.9 191.3,11.8 134.5,11.8 Z" id="Shape" fill="#2F919D"></path>
            <g transform="translate(87.000000, 32.000000)" fill="#FFFFFF" id="Shape">
                <path d="M6.3,4 C5.2,3.7 4.3,2.8 4,1.7 L3.7,0.8 L3.4,1.7 C3.1,2.8 2.2,3.7 1.1,4 L0.2,4.3 L1.1,4.6 C2.2,4.9 3.1,5.8 3.4,6.9 L3.7,7.8 L4,6.9 C4.3,5.8 5.2,4.9 6.3,4.6 L7.2,4.3 L6.3,4 Z"></path>
                <path d="M34.1,10.4 C31.8,9.7 30,7.9 29.3,5.6 L28.7,3.7 L28.1,5.6 C27.4,7.9 25.6,9.7 23.3,10.4 L21.4,11 L23.3,11.6 C25.6,12.3 27.4,14.1 28.1,16.4 L28.7,18.3 L29.3,16.4 C30,14.1 31.8,12.3 34.1,11.6 L36,11 L34.1,10.4 Z"></path>
            </g>
            <g transform="translate(34.000000, 69.000000)">
                <path d="M9.4,32.5 C8.9,32.5 8.5,32.1 8.5,31.6 L8.5,23.7 C8.5,23.2 8.9,22.8 9.4,22.8 C9.9,22.8 10.3,23.2 10.3,23.7 L10.3,31.6 C10.4,32.1 10,32.5 9.4,32.5 Z" id="Shape" fill="#296666"></path>
                <rect id="Rectangle-path" fill="#C5EACD" x="0.9" y="30.8" width="17" height="24.2"></rect>
                <rect id="Rectangle-path" fill="#9CD8A7" x="10.9" y="30.8" width="5.5" height="24.2"></rect>
                <path d="M18,55.9 C17.5,55.9 17.1,55.5 17.1,55 L17.1,31.7 L1.9,31.7 L1.9,55 C1.9,55.5 1.5,55.9 1,55.9 C0.5,55.9 0.1,55.5 0.1,55 L0.1,30.8 C0.1,30.3 0.5,29.9 1,29.9 L18,29.9 C18.5,29.9 18.9,30.3 18.9,30.8 L18.9,55 C18.9,55.5 18.5,55.9 18,55.9 Z" id="Shape" fill="#296666"></path>
                <path d="M18,43.8 L1.2,43.8 C0.7,43.8 0.3,43.4 0.3,42.9 C0.3,42.4 0.7,42 1.2,42 L18,42 C18.5,42 18.9,42.4 18.9,42.9 C18.9,43.4 18.5,43.8 18,43.8 Z" id="Shape" fill="#296666"></path>
                <polygon id="Shape" fill="#FFFFFF" points="18 23.2 0.9 23.2 2.4 18.4 3.3 15.7 4.7 11.2 14.2 11.2 15.6 15.7 16.5 18.4"></polygon>
                <polygon id="Shape" fill="#C5EACD" points="16.5 18.4 2.4 18.4 3.3 15.7 15.6 15.7"></polygon>
                <path d="M18,24.1 L1,24.1 C0.7,24.1 0.4,24 0.3,23.7 C0.1,23.5 0.1,23.2 0.2,22.9 L4,10.9 C4.1,10.5 4.5,10.3 4.9,10.3 L14.4,10.3 C14.8,10.3 15.2,10.6 15.3,10.9 L19.1,22.9 C19.2,23.2 19.1,23.5 19,23.7 C18.5,24 18.3,24.1 18,24.1 Z M2.2,22.3 L16.7,22.3 L13.5,12.1 L5.4,12.1 L2.2,22.3 Z" id="Shape" fill="#296666"></path>
                <path d="M96.7,35 L96.7,55 L15,55 L15,35 C15,34.8 15,34.7 15,34.5 C15,34.4 15,34.3 15,34.2 C15,34.2 15,34.2 15,34.1 C15,34 15,33.9 15.1,33.8 C15.1,33.8 15.1,33.8 15.1,33.8 C15.1,33.8 15.1,33.8 15.1,33.7 C15.1,33.7 15.1,33.6 15.1,33.6 C15.1,33.6 15.1,33.5 15.1,33.5 C15.2,33.3 15.3,33.1 15.3,32.9 C15.3,32.8 15.4,32.8 15.4,32.7 C15.4,32.7 15.4,32.7 15.4,32.6 C15.4,32.6 15.4,32.6 15.4,32.6 C15.4,32.6 15.4,32.6 15.4,32.6 C15.4,32.6 15.4,32.6 15.4,32.6 C15.4,32.6 15.5,32.5 15.5,32.5 C15.5,32.5 15.5,32.5 15.5,32.5 C15.5,32.5 15.6,32.4 15.6,32.4 C15.7,32.3 15.7,32.2 15.8,32.1 C15.8,32.1 15.8,32.1 15.8,32.1 C15.8,32.1 15.8,32.1 15.8,32.1 C15.8,32.1 15.9,32 15.9,32 C15.9,31.9 16,31.9 16,31.8 C16,31.8 16.1,31.7 16.1,31.7 C16.2,31.6 16.2,31.6 16.3,31.5 C16.4,31.4 16.5,31.3 16.6,31.2 C16.7,31.2 16.7,31.1 16.8,31.1 C16.9,31.1 16.9,31 17,31 C17.1,31 17.1,30.9 17.2,30.9 C17.3,30.9 17.3,30.8 17.4,30.8 C17.5,30.8 17.5,30.7 17.6,30.7 C17.6,30.7 17.7,30.7 17.7,30.7 C17.7,30.7 17.8,30.7 17.8,30.7 C17.9,30.7 18.1,30.6 18.2,30.6 C18.3,30.6 18.3,30.6 18.4,30.6 C18.5,30.6 18.5,30.6 18.6,30.6 C18.6,30.6 18.6,30.6 18.6,30.6 C18.6,30.6 18.6,30.6 18.6,30.6 C18.7,30.6 18.7,30.6 18.8,30.6 C18.8,30.6 18.8,30.6 18.8,30.6 C18.8,30.6 18.8,30.6 18.8,30.6 C18.8,30.6 18.8,30.6 18.8,30.6 C18.8,30.6 18.8,30.6 18.8,30.6 C18.8,30.6 18.8,30.6 18.8,30.6 C18.8,30.6 18.9,30.6 18.9,30.6 L91.7,30.6 C91.7,30.6 91.8,30.6 91.8,30.6 C91.8,30.6 91.9,30.6 91.9,30.6 C92.1,30.6 92.2,30.6 92.3,30.6 C92.4,30.6 92.5,30.6 92.5,30.6 C92.6,30.6 92.6,30.6 92.7,30.6 C92.7,30.6 92.7,30.6 92.8,30.6 C92.9,30.6 93,30.7 93.2,30.7 C93.3,30.7 93.4,30.8 93.5,30.8 C93.5,30.8 93.6,30.8 93.6,30.9 C93.6,30.9 93.7,30.9 93.7,31 C93.8,31.1 93.9,31.1 94.1,31.2 C94.2,31.2 94.2,31.3 94.3,31.3 C94.4,31.3 94.4,31.4 94.5,31.4 C94.6,31.5 94.7,31.6 94.8,31.7 C94.9,31.8 94.9,31.8 95,31.9 C95,31.9 95.1,32 95.1,32 C95.2,32.1 95.2,32.1 95.3,32.2 C95.3,32.2 95.3,32.2 95.3,32.3 C95.4,32.4 95.4,32.5 95.5,32.6 C95.5,32.7 95.6,32.7 95.6,32.8 C95.6,32.8 95.6,32.8 95.6,32.8 C95.6,32.9 95.7,33 95.7,33.1 C95.7,33.2 95.8,33.2 95.8,33.3 C95.8,33.3 95.8,33.3 95.8,33.3 C95.8,33.4 95.9,33.5 95.9,33.6 C95.9,33.7 95.9,33.7 96,33.8 C96,33.8 96,33.9 96,33.9 C96,34 96,34.1 96,34.2 C96,34.3 96,34.4 96,34.5 C96,34.6 96,34.6 96,34.7 C96.7,34.9 96.7,34.9 96.7,35 Z" id="Shape" fill="#6E9D96"></path>
                <rect id="Rectangle-path" fill="#6E9D96" x="15.3" y="46.9" width="5.3" height="8"></rect>
                <path d="M96.7,35 L96.7,47.5 C96.4,47.5 96.1,47.4 95.8,47.4 C92.6,47.4 92.6,49.2 89.4,49.2 C86.2,49.2 86.2,47.4 83,47.4 C79.8,47.4 79.8,49.2 76.6,49.2 C73.4,49.2 73.4,47.4 70.2,47.4 C67,47.4 67,49.2 63.8,49.2 C60.6,49.2 60.6,47.4 57.4,47.4 C54.2,47.4 54.2,49.2 51,49.2 C47.8,49.2 47.8,47.4 44.6,47.4 C41.4,47.4 41.4,49.2 38.2,49.2 C35,49.2 35,47.4 31.8,47.4 C28.6,47.4 28.6,49.2 25.4,49.2 C22.2,49.2 22.2,47.4 19,47.4 C16.7,47.4 16,48.4 14.6,48.9 L14.6,34.9 C14.6,32.5 16.6,30.5 19,30.5 L91.8,30.5 C94.7,30.5 96.7,32.5 96.7,35 Z" id="Shape" fill="#C5EACD"></path>
                <path d="M96.7,35 L96.7,47.5 C96.4,47.5 96.1,47.4 95.8,47.4 C92.6,47.4 92.6,49.2 89.4,49.2 C86.2,49.2 86.2,47.4 83,47.4 C79.8,47.4 79.8,49.2 76.6,49.2 C73.4,49.2 73.4,47.4 70.2,47.4 C67,47.4 67,49.2 63.8,49.2 C60.6,49.2 60.6,47.4 57.4,47.4 C54.2,47.4 54.2,49.2 51,49.2 C47.8,49.2 47.8,47.4 44.6,47.4 C41.4,47.4 41.4,49.2 38.2,49.2 C35,49.2 35,47.4 31.8,47.4 C28.6,47.4 28.6,49.2 25.4,49.2 C22.2,49.2 22.2,47.4 19,47.4 C16.7,47.4 16,48.4 14.6,48.9 L14.6,34.9 C14.6,32.5 16.6,30.5 19,30.5 L91.8,30.5 C94.7,30.5 96.7,32.5 96.7,35 Z" id="Shape" fill="#FFFFFF"></path>
                <path d="M96.7,55.9 C96.2,55.9 95.8,55.5 95.8,55 L95.8,35 C95.8,35 95.8,34.9 95.8,34.8 C95.8,34.8 95.8,34.7 95.8,34.7 C95.8,34.6 95.8,34.6 95.8,34.5 C95.8,34.4 95.8,34.3 95.8,34.3 L95.8,34.1 C95.8,34.1 95.8,34 95.8,34 C95.8,33.9 95.7,33.8 95.7,33.8 C95.7,33.8 95.6,33.6 95.6,33.6 C95.6,33.5 95.5,33.5 95.5,33.4 L95.4,33.2 C95.4,33.2 95.4,33.2 95.4,33.2 C95.4,33.2 95.4,33.2 95.4,33.2 C95.4,33.2 95.3,33.1 95.3,33.1 C95.3,33.1 95.3,33.1 95.2,33 C95.2,33 95.2,33 95.2,33 C95.2,32.9 95.1,32.9 95.1,32.9 L95,32.8 C95,32.8 95,32.7 94.9,32.7 C94.8,32.6 94.7,32.5 94.7,32.5 C94.7,32.5 94.6,32.4 94.5,32.4 L94.4,32.3 C94.3,32.2 94.2,32.2 94.1,32.1 L94,32 C94,32 93.9,32 93.9,32 C93.8,32 93.7,31.9 93.6,31.9 C93.5,31.9 93.4,31.8 93.3,31.8 L93.4,30.9 L93.2,31.8 L93,31.8 C93,31.8 92.9,31.8 92.9,31.8 C92.8,31.8 92.6,31.8 92.5,31.8 C92.5,31.8 92.4,31.8 92.4,31.8 L19.6,31.8 C19.5,31.8 19.5,31.8 19.5,31.8 C19.5,31.8 19.5,31.8 19.5,31.8 C19.5,31.8 19.5,31.8 19.5,31.8 C19,31.8 18.6,31.4 18.6,30.9 C18.6,30.5 18.9,30.1 19.2,30 C19.3,30 19.4,30 19.5,30 C19.6,30 19.6,30 19.7,30 L92.5,30 C92.6,30 92.6,30 92.7,30 C92.7,30 92.8,30 92.8,30 C93,30 93.2,30 93.3,30.1 C93.4,30.1 93.5,30.1 93.5,30.1 C93.6,30.1 93.7,30.1 93.8,30.2 C94,30.3 94.2,30.3 94.3,30.4 C94.4,30.4 94.5,30.5 94.7,30.6 C94.7,30.6 94.8,30.6 94.8,30.7 C94.8,30.7 94.9,30.8 95,30.8 C95.1,30.9 95.3,31 95.4,31.1 C95.4,31.1 95.5,31.2 95.6,31.2 C95.7,31.3 95.8,31.3 95.8,31.4 C95.9,31.5 96,31.6 96.1,31.7 C96.1,31.7 96.2,31.8 96.3,31.9 L96.4,32 C96.4,32.1 96.5,32.1 96.6,32.2 C96.6,32.2 96.6,32.2 96.7,32.3 C96.8,32.4 96.8,32.5 96.9,32.5 C96.9,32.5 96.9,32.6 97,32.6 L97.1,32.8 C97.1,32.8 97.1,32.9 97.2,32.9 C97.2,33 97.3,33.1 97.4,33.2 L97.5,33.4 C97.5,33.4 97.5,33.5 97.6,33.5 C97.7,33.6 97.7,33.8 97.7,33.9 L97.7,34 C97.7,34 97.7,34.2 97.8,34.2 L97.8,34.3 C97.8,34.4 97.8,34.5 97.8,34.6 C97.8,34.7 97.8,34.8 97.8,34.9 C97.8,35 97.8,35.1 97.8,35.1 C97.8,35.1 97.8,35.2 97.8,35.3 L97.8,55.3 C97.6,55.5 97.2,55.9 96.7,55.9 Z" id="Shape" fill="#296666"></path>
                <path d="M15,55.9 C14.5,55.9 14.1,55.5 14.1,55 L14.1,35 C14.1,34.8 14.1,34.6 14.1,34.4 C14.1,34.3 14.1,34.2 14.1,34.1 C14.1,34.1 14.1,34.1 14.1,34.1 C14.1,34 14.1,33.9 14.2,33.8 C14.2,33.8 14.2,33.7 14.2,33.7 C14.2,33.7 14.2,33.7 14.2,33.6 C14.2,33.5 14.2,33.4 14.3,33.4 C14.4,33.2 14.5,32.9 14.6,32.7 L14.7,32.5 C14.7,32.5 14.7,32.5 14.7,32.4 C14.7,32.4 14.7,32.3 14.7,32.3 C14.7,32.3 14.7,32.2 14.8,32.2 C14.8,32.2 14.8,32.2 14.8,32.1 C14.8,32.1 14.8,32.1 14.8,32.1 C14.8,32 14.9,32 14.9,31.9 C14.9,31.8 15,31.7 15.1,31.6 C15.1,31.6 15.2,31.5 15.2,31.5 C15.2,31.5 15.2,31.5 15.2,31.5 C15.2,31.5 15.3,31.4 15.3,31.4 C15.3,31.4 15.4,31.3 15.4,31.2 C15.4,31.2 15.5,31.1 15.5,31.1 C15.5,31.1 15.6,31 15.6,31 C15.7,30.9 15.7,30.9 15.8,30.8 C15.9,30.7 16.1,30.6 16.2,30.5 C16.2,30.5 16.3,30.4 16.4,30.4 C16.5,30.4 16.6,30.3 16.6,30.3 C16.7,30.3 16.8,30.2 16.8,30.2 C16.8,30.2 16.9,30.1 17,30.1 C17.1,30.1 17.2,30 17.3,30 C17.4,30 17.4,30 17.4,30 C17.4,30 17.5,30 17.5,30 C17.6,30 17.8,29.9 17.9,29.9 C18,29.9 18.1,29.9 18.2,29.8 C18.3,29.8 18.3,29.8 18.4,29.8 C18.4,29.8 18.5,29.8 18.5,29.8 C18.6,29.8 18.7,29.8 18.8,29.8 C18.8,29.8 18.9,29.8 18.9,29.8 C18.9,29.8 19,29.8 19,29.8 C19.5,29.8 19.8,30.2 19.8,30.7 C19.8,31.2 19.4,31.6 18.9,31.6 C18.9,31.6 18.9,31.6 18.9,31.6 C18.9,31.6 18.9,31.6 18.9,31.6 C18.9,31.6 18.9,31.6 18.9,31.6 C18.9,31.6 18.8,31.6 18.7,31.6 C18.7,31.6 18.6,31.6 18.6,31.6 L18.5,31.6 C18.5,31.6 18.4,31.6 18.4,31.6 C18.3,31.6 18.2,31.6 18.1,31.7 C18.1,31.7 18,31.7 18,31.7 C18,31.7 17.9,31.7 17.9,31.7 C17.8,31.7 17.8,31.8 17.7,31.8 L17.6,31.9 C17.6,31.9 17.5,31.9 17.5,32 C17.5,32 17.4,32.1 17.4,32.1 C17.4,32.1 17.3,32.1 17.3,32.2 C17.2,32.3 17.1,32.3 17,32.4 L16.8,32.5 C16.8,32.5 16.7,32.6 16.7,32.6 C16.7,32.6 16.6,32.6 16.6,32.7 C16.6,32.7 16.5,32.8 16.5,32.8 C16.5,32.8 16.5,32.8 16.5,32.8 C16.4,32.9 16.4,32.9 16.3,33 C16.3,33 16.3,33.1 16.2,33.1 C16.2,33.1 16.2,33.2 16.1,33.2 C16.1,33.2 16.1,33.2 16.1,33.3 C16.1,33.3 16.1,33.3 16.1,33.3 C16.1,33.3 16.1,33.3 16.1,33.3 L16,33.4 C15.9,33.5 15.9,33.7 15.8,33.9 C15.8,33.9 15.8,33.9 15.8,34 C15.8,34 15.8,34.1 15.8,34.1 C15.8,34.1 15.8,34.2 15.8,34.2 C15.8,34.2 15.8,34.3 15.8,34.3 C15.8,34.3 15.8,34.4 15.8,34.4 C15.8,34.4 15.8,34.4 15.8,34.4 C15.8,34.4 15.8,34.5 15.8,34.5 C15.8,34.7 15.8,34.8 15.8,34.9 L15.8,54.9 C15.9,55.5 15.5,55.9 15,55.9 Z" id="Shape" fill="#296666"></path>
                <rect id="Rectangle-path" fill="#C5EACD" x="24.5" y="0.8" width="62.6" height="29.7"></rect>
                <path d="M87.1,0.8 L87.1,20.8 C68.8,17 38.9,10.9 24.5,7.9 L24.5,0.7 L87.1,0.7 L87.1,0.8 Z" id="Shape" fill="#6E9D96"></path>
                <path d="M87.1,31.5 L24.5,31.5 C24,31.5 23.6,31.1 23.6,30.6 L23.6,0.9 C23.6,0.4 24,0 24.5,0 L87.1,0 C87.6,0 88,0.4 88,0.9 L88,30.6 C88,31 87.6,31.5 87.1,31.5 Z M25.5,29.6 L86.2,29.6 L86.2,1.8 L25.5,1.8 L25.5,29.6 Z" id="Shape" fill="#296666"></path>
                <rect id="Rectangle-path" fill="#FFFFFF" x="31.6" y="17.5" width="20.1" height="13.1"></rect>
                <rect id="Rectangle-path" fill="#FFFFFF" x="31.6" y="17.5" width="4.8" height="13.1"></rect>
                <rect id="Rectangle-path" fill="#FFFFFF" x="60" y="17.5" width="20.1" height="13.1"></rect>
                <rect id="Rectangle-path" fill="#FFFFFF" x="60" y="17.5" width="4.2" height="13.1"></rect>
                <g transform="translate(30.000000, 16.000000)" fill="#296666" id="Shape">
                    <path d="M21.6,15.5 L1.5,15.5 C1,15.5 0.6,15.1 0.6,14.6 L0.6,1.5 C0.6,1 1,0.6 1.5,0.6 L21.6,0.6 C22.1,0.6 22.5,1 22.5,1.5 L22.5,14.6 C22.5,15 22.1,15.5 21.6,15.5 Z M2.5,13.6 L20.7,13.6 L20.7,2.4 L2.5,2.4 L2.5,13.6 Z"></path>
                    <path d="M50.1,15.5 L30,15.5 C29.5,15.5 29.1,15.1 29.1,14.6 L29.1,1.5 C29.1,1 29.5,0.6 30,0.6 L50.1,0.6 C50.6,0.6 51,1 51,1.5 L51,14.6 C51,15 50.6,15.5 50.1,15.5 Z M30.9,13.6 L49.1,13.6 L49.1,2.4 L30.9,2.4 L30.9,13.6 Z"></path>
                </g>
                <path d="M3.8,28.3 C3.3,28.3 2.9,27.9 2.9,27.4 L2.9,23.2 C2.9,22.7 3.3,22.3 3.8,22.3 C4.3,22.3 4.7,22.7 4.7,23.2 L4.7,27.4 C4.8,27.9 4.3,28.3 3.8,28.3 Z" id="Shape" fill="#296666"></path>
                <path d="M43.1,25.2 L40.8,25.2 C40.3,25.2 39.9,24.8 39.9,24.3 C39.9,23.8 40.3,23.4 40.8,23.4 L43.1,23.4 C43.6,23.4 44,23.8 44,24.3 C44,24.8 43.6,25.2 43.1,25.2 Z" id="Shape" fill="#6F9E97"></path>
                <path d="M71.2,25.2 L68.9,25.2 C68.4,25.2 68,24.8 68,24.3 C68,23.8 68.4,23.4 68.9,23.4 L71.2,23.4 C71.7,23.4 72.1,23.8 72.1,24.3 C72.1,24.8 71.7,25.2 71.2,25.2 Z" id="Shape" fill="#6F9E97"></path>
                <path d="M10.6,37.8 L8.4,37.8 C7.9,37.8 7.5,37.4 7.5,36.9 C7.5,36.4 7.9,36 8.4,36 L10.6,36 C11.1,36 11.5,36.4 11.5,36.9 C11.5,37.4 11.1,37.8 10.6,37.8 Z" id="Shape" fill="#296666"></path>
            </g>
            <path d="M85.9,61.5 C85.8,60.1 84.8,58.1 84.4,56.9 C84.1,56 83.8,55.1 83.3,54.4 C83,54 82.6,53.6 82.2,53.8 C81.9,53.9 81.7,54.3 81.6,54.6 C80.9,56.5 80.5,58.5 80.3,60.5 L69.4,58 C66.9,57.5 64.7,59.7 65,62.2 L69,71.2 C69.2,72.7 70.3,74 71.9,74.4 L84.4,75.2 L86.9,61.7 L85.9,61.5 Z" id="Shape" fill="#C5E3CA"></path>
            <path d="M84.2,76.1 C84.2,76.1 84.2,76.1 84.2,76.1 L71.6,75.3 C71.5,75.3 71.5,75.3 71.4,75.3 C69.6,74.9 68.2,73.3 67.9,71.5 L64,62.6 C64,62.5 63.9,62.4 63.9,62.3 C63.7,60.8 64.2,59.3 65.3,58.3 C66.4,57.3 67.9,56.8 69.4,57.1 L79.4,59.4 C79.7,57.6 80.1,55.9 80.7,54.3 C80.8,54 81.1,53.2 81.9,52.9 C82.7,52.6 83.5,53 84.1,53.9 C84.7,54.8 85,55.8 85.3,56.6 C85.4,56.9 85.6,57.3 85.7,57.7 C86.1,58.7 86.6,59.8 86.7,60.8 L86.9,60.8 C87.4,60.9 87.7,61.4 87.6,61.9 L85.1,75.4 C85.1,75.7 84.7,76.1 84.2,76.1 Z M71.9,73.4 L83.5,74.2 L85.7,62.4 C85.3,62.3 85,62 85,61.5 C85,60.6 84.4,59.3 84,58.3 C83.8,57.9 83.7,57.5 83.5,57.1 C83.2,56.3 83,55.4 82.5,54.8 C82.5,54.8 82.5,54.7 82.4,54.7 C82.4,54.7 82.4,54.7 82.4,54.7 C81.8,56.5 81.3,58.4 81.1,60.4 C81.1,60.7 80.9,60.9 80.7,61.1 C80.5,61.3 80.2,61.3 80,61.2 L69.1,58.7 C68.2,58.5 67.3,58.8 66.7,59.4 C66.1,60 65.7,60.8 65.8,61.7 L69.7,70.6 C69.7,70.7 69.8,70.8 69.8,70.9 C69.9,72.1 70.8,73.1 71.9,73.4 Z" id="Shape" fill="#2A6666"></path>
            <path d="M156.8,62.5 L139.8,84.4 C138.1,85.9 136.4,86.4 134.5,86 L127.2,84.5 L125.9,84.2 L84.4,75.6 L87.4,61.3 L126.9,69 C130.3,69.7 133.8,68.4 135.9,65.6 L137.1,64.1 L140,60.4 L141.9,57.9 L142.8,56.7 L147.6,50.4 L153.5,54.9 C156.6,57.4 158.1,60.8 156.8,62.5 Z" id="Shape" fill="#FFFFFF"></path>
            <path d="M156.8,62.5 L139.8,84.4 C138.1,85.9 136.4,86.4 134.5,86 L127.2,84.5 L125.9,84.2 C137.9,77.8 141.6,67.6 141.9,57.9 L142.8,56.7 L147.6,50.4 L153.5,54.9 C156.6,57.4 158.1,60.8 156.8,62.5 Z" id="Shape" fill="#C5E3CA"></path>
            <path d="M135.6,87 C135.1,87 134.7,86.9 134.2,86.8 L84.1,76.4 C83.6,76.3 83.3,75.8 83.4,75.3 L86.4,61 C86.5,60.5 87,60.2 87.5,60.3 L127,68 C130.1,68.6 133.2,67.4 135.1,64.9 L146.8,49.7 C146.9,49.5 147.2,49.4 147.4,49.3 C147.6,49.3 147.9,49.3 148.1,49.5 L154,54 C157.6,56.8 159.1,60.6 157.5,62.7 L140.5,84.6 C140.5,84.6 140.4,84.7 140.4,84.7 C138.8,86.4 137.3,87 135.6,87 Z M85.4,74.9 L134.6,85.1 C136.2,85.4 137.6,85 139.1,83.7 L156.1,61.9 C157,60.8 155.9,58 153,55.7 L147.8,51.7 L136.7,66.1 C134.3,69.2 130.5,70.6 126.8,69.8 L88.2,62.2 L85.4,74.9 Z" id="Shape" fill="#2A6666"></path>
            <path d="M213.3,115.6 L217.4,123.9 L145.9,123.9 L150,115.6 C156.3,103 157.5,88.4 153.5,74.9 L145.8,49 L151.2,46.9 L152.3,46.5 L167.2,40.5 L195.3,40.5 L217.3,49 L209.6,74.9 C205.8,88.5 207,103 213.3,115.6 Z" id="Shape" fill="#6E9D96"></path>
            <path d="M150,115.6 C156.3,103 157.5,88.4 153.5,74.9 L145.8,49 L151.2,46.9 L152.3,46.5 C156.2,65.5 166.9,103.5 193,124 L145.9,124 L150,115.6 Z" id="Shape" fill="#9DD0A4"></path>
            <path d="M217.4,124.9 L145.9,124.9 C145.6,124.9 145.3,124.7 145.1,124.5 C144.9,124.2 144.9,123.9 145.1,123.6 L149.2,115.3 C155.4,102.8 156.6,88.6 152.7,75.3 L145,49.4 C144.9,48.9 145.1,48.5 145.5,48.3 L166.9,39.8 C167,39.8 167.1,39.7 167.2,39.7 L195.3,39.7 C195.4,39.7 195.5,39.7 195.6,39.8 L217.5,48.3 C217.9,48.5 218.2,49 218,49.4 L210.3,75.3 C206.4,88.6 207.6,102.9 213.8,115.3 L217.9,123.6 C218,123.9 218,124.2 217.9,124.5 C218,124.7 217.7,124.9 217.4,124.9 Z M147.4,123 L215.9,123 L212.4,116 C206,103.1 204.7,88.4 208.8,74.6 L216.2,49.5 L195.2,41.3 L167.4,41.3 L146.9,49.5 L154.3,74.6 C158.4,88.4 157.1,103.1 150.7,116 L147.4,123 Z" id="Shape" fill="#2A6666"></path>
            <g transform="translate(160.000000, 50.000000)" id="Shape">
                <path d="M59.9,8.9 L59.9,50.2 C59.9,54.1 56.7,57.4 52.7,57.4 L1.6,57.4 L1.6,42.8 L47.6,42.8 C47.2,36.6 47.8,29.9 49.7,23.8 L56.5,1.5 C58.6,3.2 59.9,5.9 59.9,8.9 Z" fill="#FFFFFF"></path>
                <path d="M59.9,8.9 L59.9,50.2 C59.9,54.2 56.7,57.4 52.7,57.4 L47.5,57.4 C51.4,57.4 54.7,54.2 54.7,50.2 L54.7,8.9 C54.7,8.5 54.7,8 54.6,7.6 L56.5,1.5 C58.6,3.2 59.9,5.9 59.9,8.9 Z" fill="#C5E3CA"></path>
                <path d="M52.8,58.2 L1.7,58.2 C1.2,58.2 0.8,57.8 0.8,57.3 L0.8,42.7 C0.8,42.2 1.2,41.8 1.7,41.8 L46.8,41.8 C46.5,35.5 47.2,29.1 49,23.5 L55.8,1.2 C55.9,0.9 56.1,0.7 56.4,0.6 C56.7,0.5 57,0.6 57.3,0.8 C59.6,2.8 61,5.8 61,8.9 L61,50.2 C60.9,54.6 57.2,58.2 52.8,58.2 Z M2.6,56.4 L52.8,56.4 C56.2,56.4 59,53.6 59,50.2 L59,8.9 C59,6.8 58.3,4.8 57,3.2 L50.6,24 C48.8,29.7 48.1,36.2 48.6,42.6 C48.6,42.9 48.5,43.1 48.4,43.3 C48.2,43.5 48,43.6 47.7,43.6 L2.6,43.6 L2.6,56.4 Z" fill="#2A6666"></path>
            </g>
            <path d="M161.6,106.4 L149.9,107.2 C148.1,107.2 146.6,105 146.6,103.1 L146.6,96.8 C146.6,95 148.1,92.7 149.9,92.7 L161.6,93.5 L161.6,106.4 Z" id="Shape" fill="#C5E3CA"></path>
            <path d="M150,108.1 C147.6,108.1 145.7,105.4 145.7,103.1 L145.7,96.8 C145.7,94.5 147.5,91.8 149.9,91.8 L161.7,92.6 C162.2,92.6 162.6,93 162.6,93.5 L162.6,106.4 C162.6,106.9 162.2,107.3 161.7,107.3 L150,108.1 C150,108.1 150,108.1 150,108.1 Z M149.8,93.7 C148.6,93.7 147.5,95.5 147.5,96.8 L147.5,103.1 C147.5,104.5 148.7,106.2 149.9,106.2 L160.7,105.5 L160.7,94.4 L149.8,93.7 Z" id="Shape" fill="#2A6666"></path>
            <g transform="translate(165.000000, 35.000000)" id="Shape">
                <path d="M31,3.4 C31,6.3 30.9,11.8 30.4,17.7 C30,22.9 29.2,28.4 28,32.9 C27.4,34.9 26.8,36.6 26,38.1 C20.5,47.9 16.6,51.2 16.6,51.2 L16.5,51.2 C16.5,51.2 12.6,47.9 7.1,38.1 C4.5,33.4 3.2,24.9 2.6,17.2 C1.9,8.8 2,1.4 2,1.4 L31,1.4 C31,1.3 31,2.1 31,3.4 Z" fill="#FFFFFF"></path>
                <path d="M2,2.8 L2.2,2.8 C2.1,3.4 2,4.3 2,2.8 Z" fill="#9DD0A4"></path>
                <path d="M2.4,2.8 L2.2,2.8 C2.2,2.4 2.3,2.1 2.4,2.8 Z" fill="#9DD0A4"></path>
                <path d="M31,3.4 C31,6.3 30.9,11.8 30.4,17.7 C30,22.9 29.2,28.4 28,32.9 C22.4,32.9 6.1,8.4 2.6,3.9 C2.6,3.4 2.5,3 2.5,2.8 L31,2.8 C30.9,3 31,3.2 31,3.4 Z" fill="#9DD0A4"></path>
                <g fill="#2A6666">
                    <path d="M16.4,52 C16.2,52 16,51.9 15.8,51.8 C15.6,51.7 11.7,48.3 6.2,38.5 C0.7,28.6 0.9,2.4 1,1.3 C1,0.8 1.4,0.4 1.9,0.4 C1.9,0.4 1.9,0.4 1.9,0.4 C2.4,0.4 2.8,0.8 2.8,1.3 C2.8,1.6 2.5,28.2 7.8,37.6 C13.1,47.1 16.9,50.4 17,50.4 C17.4,50.7 17.4,51.3 17.1,51.7 C16.9,51.9 16.7,52 16.4,52 Z"></path>
                    <path d="M16.5,52 C16.2,52 16,51.9 15.8,51.7 C15.5,51.3 15.5,50.7 15.9,50.4 C15.9,50.4 19.8,47 25.1,37.6 C30.4,28.2 30.1,1.6 30.1,1.3 C30.1,0.8 30.5,0.4 31,0.4 C31,0.4 31,0.4 31,0.4 C31.5,0.4 31.9,0.8 31.9,1.3 C31.9,2.4 32.2,28.6 26.7,38.5 C21.2,48.3 17.3,51.7 17.1,51.8 C16.9,52 16.7,52 16.5,52 Z"></path>
                </g>
            </g>
            <path d="M185.9,51.6 L181.7,54.3 L177.5,51.6 C176.6,50.7 175.2,51.5 175.2,52.9 L175.2,58.6 C175.2,60 176.6,60.8 177.5,59.9 L181.7,57.2 L185.9,59.9 C186.8,60.8 188.2,60 188.2,58.6 L188.2,52.9 C188.2,51.5 186.8,50.7 185.9,51.6 Z" id="Shape" fill="#2A6666"></path>
            <circle id="Oval" fill="#2A6666" cx="181.7" cy="70.8" r="1.1"></circle>
            <circle id="Oval" fill="#2A6666" cx="181.7" cy="64.4" r="1.1"></circle>
            <circle id="Oval" fill="#2A6666" cx="181.7" cy="77.2" r="1.1"></circle>
            <circle id="Oval" fill="#2A6666" cx="165.9" cy="99.6" r="1.1"></circle>
            <circle id="Oval" fill="#2A6666" cx="91.8" cy="69.2" r="1.1"></circle>
            <path d="M95.1,78.8 C95,78.8 95,78.8 94.9,78.8 C94.4,78.7 94.1,78.2 94.2,77.7 L97,63.2 C97.1,62.7 97.6,62.4 98.1,62.5 C98.6,62.6 98.9,63.1 98.8,63.6 L96,78 C95.9,78.5 95.5,78.8 95.1,78.8 Z" id="Shape" fill="#2A6666"></path>
            <g transform="translate(168.000000, 91.000000)">
                <rect id="Rectangle-path" fill="#FFFFFF" x="1.6" y="1.7" width="35.6" height="31.3"></rect>
                <path d="M43.1,6 L43.1,33 L35.4,33 L28,1.7 L38.7,1.7 C41.2,1.7 43.1,3.6 43.1,6 Z" id="Shape" fill="#C5E3CA"></path>
                <path d="M43.1,33.9 L1.6,33.9 C1.1,33.9 0.7,33.5 0.7,33 L0.7,1.7 C0.7,1.2 1.1,0.8 1.6,0.8 L38.7,0.8 C41.6,0.8 44,3.2 44,6.1 L44,33 C44,33.5 43.6,33.9 43.1,33.9 Z M2.5,32 L42.2,32 L42.2,6.1 C42.2,4.2 40.6,2.6 38.7,2.6 L2.5,2.6 L2.5,32 Z" id="Shape" fill="#2A6666"></path>
            </g>
            <g transform="translate(0.000000, 123.000000)" fill="#2A6666" id="Shape">
                <path d="M262.1,1.9 L248.3,1.9 C247.8,1.9 247.4,1.5 247.4,1 C247.4,0.5 247.8,0.1 248.3,0.1 L262.1,0.1 C262.6,0.1 263,0.5 263,1 C263,1.5 262.6,1.9 262.1,1.9 Z"></path>
                <path d="M14.1,1.9 L1.2,1.9 C0.7,1.9 0.3,1.5 0.3,1 C0.3,0.5 0.7,0.1 1.2,0.1 L14.1,0.1 C14.6,0.1 15,0.5 15,1 C15,1.5 14.6,1.9 14.1,1.9 Z"></path>
                <path d="M240.7,1.9 L20.3,1.9 C19.8,1.9 19.4,1.5 19.4,1 C19.4,0.5 19.8,0.1 20.3,0.1 L240.7,0.1 C241.2,0.1 241.6,0.5 241.6,1 C241.6,1.5 241.2,1.9 240.7,1.9 Z"></path>
            </g>
            <g transform="translate(163.000000, 0.000000)" id="Shape">
                <path d="M31.8,38.9 L28.1,43.9 C26.6,46.6 23.7,48.3 20.6,48.3 L17,48.3 C15,48.3 13,47.6 11.5,46.3 C10.7,45.6 10,44.8 9.5,43.9 L5.8,38.9 C4.5,37.2 4,35.1 4.2,33 L6.8,11.1 L30.9,11.1 L31.4,15.5 L33.5,33 C33.6,35.1 33.1,37.2 31.8,38.9 Z" fill="#C5E3CA"></path>
                <path d="M31.3,15.5 C30.2,16.3 19.5,15.5 12.6,22.1 C10.2,24.4 5.6,36.5 11.4,46.4 C10.6,45.7 9.9,44.9 9.4,44 L5.7,39 C4.4,37.3 3.9,35.2 4.1,33.1 L6.7,11.2 L21.7,11.2 L31.3,15.5 Z" fill="#FFFFFF"></path>
                <path d="M20.5,49.3 L17,49.3 C13.6,49.3 10.4,47.4 8.7,44.4 L5,39.4 C3.6,37.5 3,35.2 3.2,32.8 L5.8,10.9 C5.9,10.4 6.2,10.1 6.7,10.1 L30.8,10.1 C31.3,10.1 31.7,10.5 31.7,10.9 L34.3,32.8 C34.6,35.1 34,37.5 32.5,39.4 L28.8,44.4 C27.1,47.4 24,49.3 20.5,49.3 Z M7.5,12.1 L5,33.2 C4.8,35.1 5.3,36.9 6.4,38.4 L10.1,43.4 C10.1,43.4 10.1,43.5 10.2,43.5 C11.6,45.9 14.1,47.5 16.9,47.5 L20.4,47.5 C23.2,47.5 25.8,46 27.1,43.5 C27.1,43.5 27.1,43.4 27.2,43.4 L30.9,38.4 C32,36.9 32.5,35 32.3,33.2 L29.8,12.1 L7.5,12.1 Z" fill="#2A6666"></path>
                <path d="M27.7,3.4 C17.7,0.9 6.2,-1.7 5.1,10.2 C3.9,9.5 2.7,9.1 1.8,9.9 C-0.6,12 4.5,29.6 4.5,29.6 L8.6,14.6 C14.6,17.7 23.9,22.4 31,22.5 L33,29.6 C33,29.6 36.2,25.3 37.1,21.2 C39.3,20.5 41.3,19.7 42.4,17.2 C46.8,7.7 35.5,5.4 27.7,3.4 Z" fill="#6E9D96"></path>
                <path d="M12.7,16.7 C12.8,16.8 12.9,16.8 13,16.9 C12.9,16.9 12.8,16.8 12.7,16.7 Z" fill="#9DD0A4"></path>
                <path d="M31.8,5.4 C21.8,2.9 10.3,0.3 9.2,12.2 C8,11.5 6.8,11.1 5.9,12 C4.7,13.1 5.4,18.2 6.4,23 L4.6,29.8 C4.6,29.8 -0.5,12.2 1.9,10.1 C2.8,9.3 4,9.6 5.2,10.3 C6.3,-1.6 17.8,0.9 27.8,3.5 C31.4,4.4 35.3,5.5 37.9,7.3 C35.9,6.5 33.8,5.9 31.8,5.4 Z" fill="#FFFFFF"></path>
                <path d="M33,30.7 C32.9,30.7 32.9,30.7 32.8,30.7 C32.5,30.6 32.2,30.4 32.1,30 L30.3,23.5 C23.3,23.1 14.8,18.9 9.2,16.1 L5.4,30 C5.3,30.4 4.9,30.7 4.5,30.7 C4.5,30.7 4.5,30.7 4.5,30.7 C4.1,30.7 3.7,30.4 3.6,30 C2,24.5 -1.4,11.6 1.2,9.3 C1.8,8.7 2.8,8.3 4.4,8.9 C4.9,5.9 6.2,3.7 8.1,2.3 C13,-1.2 21.6,1 27.9,2.6 L28.8,2.8 C34.4,4.2 41.3,5.9 43.5,10.4 C44.5,12.5 44.4,15 43.2,17.7 C42,20.3 39.9,21.3 37.8,22 C36.7,26.1 33.8,30.1 33.6,30.2 C33.6,30.5 33.3,30.7 33,30.7 Z M8.6,13.8 C8.7,13.8 8.9,13.8 9,13.9 C14.2,16.6 23.9,21.6 31,21.7 C31.4,21.7 31.8,22 31.9,22.4 L33.3,27.6 C34.3,26 35.7,23.6 36.2,21.2 C36.3,20.9 36.5,20.6 36.8,20.5 C38.8,19.9 40.6,19.2 41.6,17 C42.6,14.7 42.7,12.8 42,11.2 C40.2,7.5 33.7,5.8 28.5,4.5 L27.6,4.3 C21.6,2.8 13.5,0.7 9.3,3.7 C7.5,5 6.4,7.2 6.2,10.3 C6.2,10.6 6,10.9 5.7,11 C5.4,11.1 5.1,11.1 4.8,11 C3.8,10.4 3,10.3 2.6,10.6 C1.7,11.4 2.6,18.2 4.7,26.2 L7.9,14.4 C8,14.1 8.2,13.9 8.4,13.8 C8.4,13.8 8.5,13.8 8.6,13.8 Z" fill="#2A6666"></path>
                <path d="M18.8,41 C16.7,41 14.7,40.2 13.3,38.7 C12.6,38 12,37.1 11.6,36.2 C11.4,35.7 11.6,35.2 12.1,35 C12.6,34.8 13.1,35 13.3,35.5 C13.6,36.3 14.1,36.9 14.6,37.5 C15.7,38.6 17.2,39.3 18.8,39.3 C21.2,39.3 23.4,37.8 24.3,35.6 C24.5,35.1 25,34.9 25.5,35.1 C26,35.3 26.2,35.8 26,36.3 C24.8,39.1 21.9,41 18.8,41 Z" fill="#2A6666"></path>
            </g>
        </g>
    </g>
</svg>