<svg xmlns="http://www.w3.org/2000/svg" xmlns:xlink="http://www.w3.org/1999/xlink" width="58" height="58" viewBox="0 0 58 58">
    <defs>
        <circle id="a" cx="28" cy="28" r="28"/>
    </defs>
    <g fill="none" fill-rule="evenodd" transform="translate(1 1)">
        <mask id="b" fill="#fff">
            <use xlink:href="#a"/>
        </mask>
        <use fill="#E9FFF2" stroke="#0C893D" stroke-width=".5" xlink:href="#a"/>
        <g mask="url(#b)">
            <path fill="#8CDBAB" d="M4.55 41.29h1.169v-2.4h-1.17v2.4zm0-3.132h12.92v-3.256H4.55v3.256zm35.753 0h12.92v-3.256h-12.92v3.256zm11.752 3.132h1.169v-2.4h-1.17v2.4zM8.977 47.58h5.148v7.954h-.323v-4.207c0-.19-.13-.344-.298-.364-.158-1.487-1.262-2.208-1.867-2.389-.007-.002-.014-.002-.021-.005-.011-.002-.022-.002-.032-.005-.012-.002-.023-.002-.035-.002-.01 0-.02 0-.03.002a.091.091 0 0 0-.036.008c-.006 0-.012 0-.019.002-.605.181-1.709.902-1.866 2.39-.168.019-.298.173-.298.363v4.207h-.323V47.58zm14.742-9.422h1.17v-3.256h-1.17v3.256zm1.834 0h1.169v-3.256h-1.17v3.256zm1.833 0h1.169v-3.256h-1.169v3.256zm1.833 0h1.17v-3.256h-1.17v3.256zm1.833 0h1.17v-3.256h-1.17v3.256zm1.834 0h1.17v-3.256h-1.17v3.256zm1.577 8.69h-.485c-.204-5.47-4.955-6.948-5.004-6.96-.007-.003-.014-.003-.021-.005a.152.152 0 0 0-.033-.005c-.011-.003-.023-.003-.034-.003h-.03l-.038.008-.017.004c-.05.013-4.8 1.49-5.004 6.96h-.486c-.183 0-.332.164-.332.367v8.32h-.45V38.891h12.717v16.643h-.451v-8.32c0-.203-.149-.367-.332-.367zm.257-8.69h1.27v-3.256h-1.27v3.256zm14.742 9.422h.26c.183 0 .331-.166.331-.366 0-.203-.148-.367-.332-.367h-.259v-.08c0-2.956-3.008-4.07-3.137-4.117h-.002a.316.316 0 0 0-.051-.012l-.013-.002a.122.122 0 0 0-.042 0c-.01 0-.018-.003-.025 0a.103.103 0 0 0-.028.005c-.014.002-.027.004-.038.01h-.005c-.128.046-3.137 1.16-3.137 4.116v.08h-.259c-.184 0-.332.164-.332.367 0 .2.148.366.332.366h.26v7.954h-1.938V42.022h12.177v13.512h-3.762V47.58zm-1.286 3.383c-.157-1.487-1.262-2.208-1.866-2.389-.007-.002-.014-.002-.02-.005-.011-.002-.022-.002-.033-.005-.012-.002-.023-.002-.034-.002-.01 0-.022 0-.03.002-.014 0-.025.003-.036.005-.007.003-.013.003-.02.005-.604.181-1.71.902-1.866 2.39-.169.019-.3.173-.3.363v4.207h-.323V47.58h5.15v7.954h-.323v-4.207c0-.19-.13-.344-.299-.364zm2.046-9.673h1.169v-2.4h-1.17v2.4zm-1.833 0h1.169v-2.4h-1.17v2.4zm-1.834 0h1.17v-2.4h-1.17v2.4zm-1.833 0h1.17v-2.4h-1.17v2.4zm-1.833 0h1.17v-2.4h-1.17v2.4zm-1.842 0h1.178v-2.4h-1.178v2.4zm-19.263-3.132h1.271v-3.256h-1.27v3.256zM15.55 41.29h1.177v-2.4H15.55v2.4zm-1.834 0h1.17v-2.4h-1.17v2.4zm-1.833 0h1.169v-2.4h-1.17v2.4zm-1.834 0h1.17v-2.4h-1.17v2.4zm-1.832 0h1.168v-2.4H8.217v2.4zm-1.834 0h1.17v-2.4h-1.17v2.4zm-1.833.732h12.177v13.512H14.79V47.58h.26c.183 0 .331-.166.331-.366 0-.203-.148-.367-.332-.367h-.26v-.08c0-2.956-3.007-4.07-3.135-4.117h-.002a.366.366 0 0 0-.051-.012l-.015-.002a.122.122 0 0 0-.042 0c-.008 0-.016-.003-.024 0-.01 0-.02.002-.029.005a.193.193 0 0 0-.037.01h-.005c-.128.046-3.136 1.16-3.136 4.116v.08h-.26c-.183 0-.331.164-.331.367 0 .2.148.366.332.366h.26v7.954H4.55V42.022z"/>
            <path fill="#8CDBAB" d="M23.07 40h11.86v16H23.07zM19.516 22.443l.952 1.583h-1.904l.952-1.583zm9.26 5.11h7.355v.946H21.42v-.946h7.355zm9.259-5.11l.952 1.583h-1.904l.952-1.583zm-1.24 10.756h2.48v-3.967h-2.48v3.967zm-18.519 0h2.48v-3.967h-2.48v3.967z"/>
            <path fill="#0C893D" d="M4.393 41.356h1.169v-2.4h-1.17v2.4zm0-3.132h12.92v-3.257H4.394v3.257zm13.585 0h2.985v-3.257h-2.985v3.257zm22.168 0h12.92v-3.257h-12.92v3.257zm11.752 3.132h1.169v-2.4h-1.17v2.4zM11.393 49.38a2.092 2.092 0 0 1 1.308 2.013c0 .184.121.335.28.362V55.6H9.807v-3.845c.158-.027.279-.178.279-.362 0-1.382 1-1.89 1.307-2.013zm-2.574-1.734h5.149V55.6h-.323v-4.207c0-.19-.131-.344-.299-.364-.157-1.487-1.261-2.208-1.866-2.389-.007-.002-.014-.002-.022-.005-.01-.002-.02-.002-.032-.005-.011-.002-.022-.002-.034-.002-.01 0-.02 0-.03.002a.091.091 0 0 0-.036.008c-.006 0-.013 0-.019.002-.605.181-1.709.902-1.867 2.39-.167.019-.298.173-.298.363V55.6H8.82v-7.954zm2.575-4.19c.49.21 2.574 1.23 2.574 3.376v.081H8.819v-.08c0-2.148 2.085-3.166 2.575-3.377zm12.168-5.232h1.17v-3.257h-1.17v3.257zm1.833 0h1.17v-3.257h-1.17v3.257zm1.834 0h1.169v-3.257h-1.17v3.257zm1.833 0h1.169v-3.257h-1.169v3.257zm1.833 0h1.17v-3.257h-1.17v3.257zm1.834 0h1.17v-3.257h-1.17v3.257zm1.577 8.69h-.485c-.204-5.47-4.956-6.948-5.005-6.96-.006-.003-.013-.003-.02-.006a.152.152 0 0 0-.033-.004c-.012-.003-.023-.003-.034-.003h-.03l-.038.007c-.006.003-.011.003-.017.005-.05.013-4.8 1.49-5.004 6.96h-.486c-.183 0-.332.164-.332.367v8.32h-.451V38.957h12.718V55.6h-.451v-8.32c0-.203-.149-.367-.332-.367zm-5.577-6.225c.613.217 4.434 1.768 4.434 6.59 0 .2.148.367.332.367h.478V55.6H23.486v-7.954h.48c.182 0 .331-.166.331-.366 0-4.862 3.785-6.369 4.432-6.591zm5.833-2.465h1.271v-3.257h-1.27v3.257zm1.935 0h2.985v-3.257h-2.985v3.257zM35.753 55.6h4.473V38.957h-4.473V55.6zm13.552-7.954h.26c.183 0 .331-.166.331-.366 0-.203-.148-.367-.332-.367h-.259v-.08c0-2.956-3.009-4.07-3.137-4.117h-.002a.316.316 0 0 0-.051-.012l-.013-.002a.122.122 0 0 0-.043 0c-.008 0-.017-.003-.024 0a.103.103 0 0 0-.029.004.173.173 0 0 0-.037.01h-.005c-.128.047-3.137 1.16-3.137 4.116v.081h-.259c-.184 0-.332.164-.332.367 0 .2.148.366.332.366h.26V55.6H40.89V42.088h12.177V55.6h-3.762v-7.954zm-3.239-4.19c.49.21 2.575 1.23 2.575 3.376v.081h-5.15v-.08c0-2.148 2.086-3.166 2.575-3.377zm1.953 7.573c-.157-1.487-1.262-2.208-1.867-2.389-.006-.002-.013-.002-.02-.005-.01-.002-.022-.002-.033-.005-.01-.002-.022-.002-.033-.002-.01 0-.022 0-.03.002a.157.157 0 0 0-.036.005c-.007.003-.014.003-.02.005-.605.181-1.71.902-1.867 2.39-.168.019-.298.173-.298.363V55.6h-.324v-7.954h5.15V55.6h-.323v-4.207c0-.19-.13-.344-.3-.364zm-1.953-1.649a2.092 2.092 0 0 1 1.309 2.013c0 .184.12.335.279.362V55.6h-3.175v-3.845c.16-.027.279-.178.279-.362 0-1.382 1-1.89 1.308-2.013zm3.999-8.024h1.169v-2.4h-1.17v2.4zm-1.834 0h1.17v-2.4h-1.17v2.4zm-1.833 0h1.17v-2.4h-1.17v2.4zm-1.833 0h1.169v-2.4h-1.169v2.4zm-1.833 0H43.9v-2.4h-1.17v2.4zm-1.842 0h1.178v-2.4H40.89v2.4zm-19.263-3.132h1.271v-3.257h-1.27v3.257zm-3.981.733h4.06V55.6h-4.472V38.957h.412zm-2.254 2.399h1.178v-2.4h-1.178v2.4zm-1.833 0h1.17v-2.4h-1.17v2.4zm-1.833 0h1.169v-2.4h-1.17v2.4zm-1.834 0h1.17v-2.4h-1.17v2.4zm-1.833 0h1.17v-2.4h-1.17v2.4zm-1.833 0h1.17v-2.4h-1.17v2.4zm-1.833.732H16.57V55.6h-1.938v-7.954h.259c.183 0 .332-.166.332-.366 0-.203-.149-.367-.332-.367h-.26v-.08c0-2.956-3.007-4.07-3.135-4.117h-.003a.366.366 0 0 0-.05-.012l-.015-.002a.122.122 0 0 0-.042 0c-.008 0-.016-.003-.024 0-.01 0-.02.002-.03.004a.193.193 0 0 0-.036.01h-.005c-.128.047-3.136 1.16-3.136 4.116v.081h-.26c-.183 0-.331.164-.331.367 0 .2.148.366.332.366h.26V55.6H4.392V42.088zM53.73 55.64V38.957h.378c.184 0 .333-.164.333-.367 0-.203-.149-.366-.333-.366h-.378v-3.257h.378c.184 0 .333-.163.333-.366 0-.203-.149-.366-.333-.366H3.351c-.184 0-.332.163-.332.366 0 .203.148.366.332.366h.377v3.257h-.377c-.184 0-.332.163-.332.366 0 .203.148.367.332.367h.377v16.682h50.003zM19.452 22.519l.952 1.583H18.5l.952-1.583zm9.26 5.11h7.355v.945H21.356v-.945h7.355zm9.259-5.11l.952 1.583h-1.904l.952-1.583zm-1.24 10.756h2.48v-3.968h-2.48v3.968zm0-4.7h2.48v-3.74h-2.48v3.74zm-8.02.732h7.356v3.968H21.356v-3.968h7.355zm-10.499-.733h2.48v-3.74h-2.48v3.74zm0 4.7h2.48v-3.967h-2.48v3.968zm-1.328-3.967h.664v3.968H3.332c-.183 0-.332.163-.332.366 0 .2.149.366.332.366h50.759c.184 0 .332-.166.332-.366 0-.203-.148-.366-.332-.366H39.875v-3.968h.664c.184 0 .332-.163.332-.366 0-.203-.148-.367-.332-.367h-.664v-4.06a.33.33 0 0 0 .004-.046c0-.02-.006-.037-.008-.056l-.007-.032a.346.346 0 0 0-.053-.127c-.007-.01-.011-.022-.018-.032l-1.49-2.474v-1.38c0-.203-.148-.367-.332-.367-.184 0-.332.164-.332.366v1.38l-1.514 2.517-.003.002s0 .003-.002.003a.454.454 0 0 0-.033.075l-.007.025a.683.683 0 0 0-.01.066v.022c-.003.005-.003.007-.003.012v2.428H21.356v-2.428l-.001-.012-.002-.022a.455.455 0 0 0-.011-.066l-.007-.025a.403.403 0 0 0-.033-.075l-.002-.003-.001-.002-1.515-2.516v-1.38c0-.203-.148-.367-.332-.367-.184 0-.332.164-.332.366v1.38l-1.515 2.517-.001.002-.002.003a.418.418 0 0 0-.033.075l-.007.025a.426.426 0 0 0-.01.066l-.003.022V28.574h-.665c-.184 0-.333.164-.333.367 0 .203.149.366.333.366z"/>
            <path fill="#0C893D" d="M17.944 40.52h3.143c.184 0 .333-.166.333-.366 0-.203-.15-.367-.333-.367h-3.143c-.183 0-.332.164-.332.367 0 .2.149.366.332.366M17.944 41.986h3.143c.184 0 .333-.164.333-.367 0-.2-.15-.366-.333-.366h-3.143c-.183 0-.332.166-.332.366 0 .203.149.367.332.367M39.685 39.787h-3.143c-.184 0-.332.164-.332.367 0 .2.148.366.332.366h3.143c.184 0 .333-.166.333-.366 0-.203-.149-.367-.333-.367M39.685 41.253h-3.143c-.184 0-.332.166-.332.366 0 .203.148.367.332.367h3.143c.184 0 .333-.164.333-.367 0-.2-.149-.366-.333-.366M19.494 25.374c-.184 0-.332.164-.332.367v1.49c0 .203.148.366.332.366.184 0 .332-.163.332-.366v-1.49c0-.203-.148-.367-.332-.367M38.091 27.597c.184 0 .333-.163.333-.366v-1.49c0-.203-.149-.367-.333-.367-.183 0-.332.164-.332.367v1.49c0 .203.149.366.332.366"/>
        </g>
    </g>
</svg>
