<svg xmlns="http://www.w3.org/2000/svg" xmlns:xlink="http://www.w3.org/1999/xlink" width="58" height="58" viewBox="0 0 58 58">
    <defs>
        <circle id="a" cx="28" cy="28" r="28"/>
    </defs>
    <g fill="none" fill-rule="evenodd" transform="translate(1 1)">
        <mask id="b" fill="#fff">
            <use xlink:href="#a"/>
        </mask>
        <use fill="#E9FFF2" xlink:href="#a"/>
        <circle cx="28" cy="28" r="28.25" stroke="#0C893D" stroke-width=".5"/>
        <g mask="url(#b)">
            <path fill="#8CDCAC" d="M46.122 46.065h-3.018l.238-.25h3.119l.237.25h-.576zm-2.05 3.49h1.66v-2.693h-1.66v2.692zm.44 4.922h.781v-1.063h-.781v1.063zm.39-11.388a.44.44 0 0 1 .433.443.44.44 0 0 1-.432.444.44.44 0 0 1-.436-.444.44.44 0 0 1 .436-.443zM13.32 46.065H10.3l.236-.25h3.122l.238.25h-.576zm-2.054 3.49h1.663v-2.693h-1.663v2.692zm.44 4.922h.782v-1.063h-.781v1.063zm.391-11.388a.44.44 0 0 1 .436.443.44.44 0 0 1-.436.444.44.44 0 0 1-.435-.444.44.44 0 0 1 .435-.443zm29.892-4.384l2.233 2.382c.11.116.138.286.079.433a.392.392 0 0 1-.36.242h-2.89v2.359c0 .22-.175.399-.391.399h-1.986a.395.395 0 0 1-.39-.4v-2.358H36.74v2.359c0 .22-.174.399-.39.399h-1.986a.395.395 0 0 1-.391-.4v-2.358H32.43v2.359c0 .22-.175.399-.391.399h-1.986a.395.395 0 0 1-.39-.4v-2.358h-2.325v2.359c0 .22-.175.399-.391.399h-1.989a.395.395 0 0 1-.39-.4v-2.358h-1.54v2.359c0 .22-.175.399-.392.399h-1.988a.395.395 0 0 1-.391-.4v-2.358h-1.54v2.359c0 .22-.175.399-.391.399h-1.988a.395.395 0 0 1-.391-.4v-2.358h-2.888a.39.39 0 0 1-.36-.242.405.405 0 0 1 .076-.433l2.236-2.382h-7.23v17.51h8.166v-2.358c0-.22.174-.399.39-.399h1.989c.216 0 .39.179.39.399v2.359h1.541v-2.36c0-.22.175-.398.39-.398h1.99c.216 0 .39.179.39.399v2.359h1.54v-2.36c0-.22.175-.398.391-.398h1.989c.216 0 .39.179.39.399v2.359h2.325v-2.36c0-.22.175-.398.391-.398h1.986c.216 0 .39.179.39.399v2.359h1.544v-2.36c0-.22.174-.398.39-.398h1.986c.217 0 .391.179.391.399v2.359h1.543v-2.36c0-.22.175-.398.391-.398h1.986c.216 0 .39.179.39.399v2.359h8.168V38.705H41.99z"/>
            <path fill="#0EB550" d="M12.147 30.864c.214.268.456.65.456.987 0 .453-.253.913-.401 1.143h-.11c-.148-.23-.401-.693-.401-1.143 0-.338.24-.718.456-.987"/>
            <path fill="#8CDBAB" d="M12.082 34.784h2.653l.964 1.155v1.132H8.824v-1.132l.964-1.155h2.294M42.625 34.784h4.944l.964 1.155v1.132H41.66v-1.132l.964-1.155"/>
            <path fill="#0EB550" d="M44.98 30.864c.217.268.46.65.46.987 0 .453-.256.913-.402 1.143h-.112c-.146-.23-.399-.693-.399-1.143 0-.338.237-.718.454-.987M44.871 26.943a.343.343 0 1 1-.003.686.343.343 0 0 1 .003-.686"/>
            <path fill="#8CDBAB" d="M36.626 38.182V36.7a.391.391 0 1 0-.782 0v1.48h-.51v-1.48a.391.391 0 1 0-.783 0v1.48h-.508v-1.48a.391.391 0 1 0-.782 0v1.48h-.51v-1.48a.391.391 0 1 0-.782 0v1.48h-.65c.003-.51.006-1.378-.002-1.752-.005-.142-.013-.366-.08-.6h5.9v2.353h-.511M20.03 34.011l.473-.45a.392.392 0 0 0 .118-.283v-1.023a.382.382 0 0 0-.116-.277l-.475-.474v-.379h16.84v.38l-.474.473a.393.393 0 0 0-.116.277v1.023c0 .107.045.209.12.283l.47.45v1.01H30.61a1.758 1.758 0 0 0-.65-.116h-.003a2.246 2.246 0 0 0-.61-1.277c-.275-.278-.603-.437-.894-.437-.294 0-.62.16-.895.437a2.213 2.213 0 0 0-.609 1.277c-.247 0-.464.042-.65.116H20.03v-1.01M19.77 35.568h5.9c-.07.26-.078.509-.08.667-.011.414-.009 1.378-.004 1.947h-.648v-1.646c0-.24-.175-.436-.39-.436-.217 0-.392.196-.392.436v1.646h-.51v-1.646c0-.24-.175-.436-.39-.436-.217 0-.392.196-.392.436v1.646h-.51v-1.646c0-.24-.175-.436-.391-.436-.216 0-.39.196-.39.436v1.646h-.511v-1.646c0-.24-.175-.436-.391-.436-.216 0-.39.196-.39.436v1.646h-.511v-2.614"/>
            <path fill="#0EB550" d="M12.293 26.943a.343.343 0 0 1 0 .686.343.343 0 0 1 0-.686"/>
            <path fill="#0C893D" d="M13.418 46.007h-3.02l.236-.246h3.122l.238.246h-.576zm-2.054 3.43h1.663v-2.646h-1.663v2.646zm2.838-4.34a.387.387 0 0 0-.279-.12H10.47a.389.389 0 0 0-.281.12l-.996 1.029a.393.393 0 1 0 .281.665h1.108v3.038c0 .217.175.393.391.393h2.445c.216 0 .39-.176.39-.393v-3.038h1.108a.393.393 0 0 0 .282-.665l-.996-1.03zM12.082 25.8c.216 0 .39-.176.39-.392v-1.47a.391.391 0 1 0-.781 0v1.47c0 .216.175.392.39.392M13.927 50.466h-3.409a.391.391 0 0 0 0 .784h3.409a.391.391 0 0 0 0-.784M12.126 43.148a.436.436 0 1 1-.002.872.436.436 0 0 1 .002-.872zm0 1.655a1.22 1.22 0 0 0 0-2.44 1.22 1.22 0 0 0 0 2.44zM11.69 54.386h.783v-1.045h-.782v1.045zm1.174-1.83H11.3a.391.391 0 0 0-.39.393v1.83c0 .216.174.391.39.391h1.564c.216 0 .39-.175.39-.392v-1.83a.391.391 0 0 0-.39-.391zM18.5 44.716h-1.988a.391.391 0 0 0 0 .784h1.989a.391.391 0 0 0 0-.784M22.67 44.716h-1.988a.391.391 0 0 0 0 .784h1.988a.391.391 0 0 0 0-.784M27.1 44.716h-1.988a.391.391 0 0 0 0 .784h1.989a.391.391 0 0 0 0-.784M26.155 45.761a.393.393 0 0 0-.391.392v6.436c0 .217.177.393.39.393.217 0 .391-.176.391-.393v-6.436a.391.391 0 0 0-.39-.392M21.724 45.761a.391.391 0 0 0-.39.392v6.436a.391.391 0 1 0 .781 0v-6.436a.393.393 0 0 0-.39-.392M17.294 45.761a.391.391 0 0 0-.391.392v6.436a.391.391 0 1 0 .782 0v-6.436a.393.393 0 0 0-.391-.392M21.505 23.566c.9-1.689 4.246-3.962 4.855-4.367h4.326c.608.405 3.954 2.678 4.853 4.367.818 1.534.245 2.484-.206 3.082h-4.068c.128-.378.13-.78-.016-1.12a1.188 1.188 0 0 0-.766-.68c-.122-1.057-1.571-1.981-1.756-2.095a.263.263 0 0 0-.021-.011l-.034-.017a.457.457 0 0 0-.04-.013l-.033-.008a.458.458 0 0 0-.117-.006l-.032.005c-.015.002-.028.006-.041.01a.487.487 0 0 0-.031.01l-.042.021c-.005.003-.013.005-.018.009-.185.114-1.634 1.038-1.754 2.096a1.182 1.182 0 0 0-.766.678c-.146.34-.146.743-.019 1.12h-4.068c-.45-.597-1.024-1.547-.206-3.081zm5.13-5.151h3.778v-.882h-3.779v.882zm.82-1.666h2.137v-.425h-2.137v.425zm-.831-4.171c.023-.099.15-.137.226-.151.209-.04.5.02.686.178a10.376 10.376 0 0 0-.164 1.735c-.467-.517-.892-1.132-.748-1.762zm3.573-.151c.075.014.203.052.226.15.141.631-.281 1.246-.748 1.763a10.661 10.661 0 0 0-.164-1.735.885.885 0 0 1 .686-.178zm-2.03 3.113c-.09-2.152.166-3.115.356-3.524.188.409.443 1.372.357 3.524h-.714zm-1.653 10.297c.076-.172.227-.26.467-.268a.395.395 0 0 0 .302-.156.398.398 0 0 0 .065-.333c-.11-.425.579-1.107 1.175-1.524.597.416 1.283 1.097 1.176 1.524a.389.389 0 0 0 .365.49c.24.007.393.095.466.267.097.228.044.548-.128.81h-3.76c-.17-.262-.224-.582-.128-.81zm2.01 2.412h-6.615v-.817h13.226v.817h-6.612zm-7.397-1.075v1.075H19.38a.393.393 0 0 0-.391.392v.751a.391.391 0 0 0 .782 0v-.36h.64v.36a.391.391 0 1 0 .783 0v-.36h.64v.36a.391.391 0 1 0 .783 0v-.36h.64v.36a.391.391 0 1 0 .782 0v-.36h.642v.36a.391.391 0 1 0 .781 0v-.36h.641v.36a.391.391 0 1 0 .782 0v-.36h.639v.36a.391.391 0 1 0 .782 0v-.36h.435v.36a.391.391 0 1 0 .782 0v-.36h.64v.36a.391.391 0 1 0 .782 0v-.36h.642v.36a.391.391 0 1 0 .781 0v-.36h.641v.36a.391.391 0 1 0 .782 0v-.36h.639v.36a.391.391 0 0 0 .782 0v-.36h.64v.36a.391.391 0 1 0 .783 0v-.36h.64v.36a.391.391 0 1 0 .782 0v-.751a.391.391 0 0 0-.39-.392h-1.75v-1.075c.488-.639 1.38-1.977.314-3.978-.965-1.812-4.227-4.061-5.035-4.6V17.14a.391.391 0 0 0-.391-.392h-.43v-.817a.393.393 0 0 0-.391-.392h-.32c0-.021 0-.041.002-.062.036-.039.073-.075.112-.116.675-.678 1.691-1.702 1.407-2.958-.086-.385-.401-.665-.844-.748a1.698 1.698 0 0 0-1.053.16c-.227-.572-.495-.743-.628-.792l-.02-.006a.54.54 0 0 0-.08-.016.341.341 0 0 0-.111.005l-.042.011-.02.006c-.134.05-.4.22-.629.792a1.696 1.696 0 0 0-1.053-.16c-.44.083-.755.363-.841.748-.287 1.256.732 2.28 1.404 2.958l.115.116c0 .02 0 .04.003.062h-.32a.391.391 0 0 0-.392.392v.817h-.43a.391.391 0 0 0-.39.392v1.455c-.811.539-4.071 2.788-5.038 4.6-1.066 2.001-.175 3.34.312 3.978zM22.717 32.17h-.993a.391.391 0 0 0 0 .785h.993a.391.391 0 0 0 0-.785M25.063 32.17h-.993a.391.391 0 0 0 0 .785h.993a.391.391 0 0 0 0-.785M26.676 32.955h.995a.393.393 0 0 0 0-.785h-.995a.391.391 0 0 0 0 .785"/>
            <path fill="#0C893D" d="M49.218 56.15h-8.167v-2.319a.391.391 0 0 0-.391-.392h-1.986a.391.391 0 0 0-.39.392v2.32H36.74v-2.32a.391.391 0 0 0-.39-.392h-1.986a.391.391 0 0 0-.391.392v2.32H32.43v-2.32a.391.391 0 0 0-.391-.392h-1.986a.391.391 0 0 0-.39.392v2.32h-2.325v-2.32a.391.391 0 0 0-.391-.392h-1.989a.391.391 0 0 0-.39.392v2.32h-1.54v-2.32a.391.391 0 0 0-.392-.392h-1.988a.391.391 0 0 0-.391.392v2.32h-1.54v-2.32a.391.391 0 0 0-.391-.392h-1.988a.391.391 0 0 0-.391.392v2.32H7.782V38.933h7.229l-2.236 2.343a.393.393 0 0 0 .284.663h2.888v2.32c0 .216.174.392.39.392h1.989c.216 0 .39-.176.39-.392v-2.32h1.541v2.32c0 .216.175.392.39.392h1.99c.216 0 .39-.176.39-.392v-2.32h1.54v2.32c0 .216.175.392.391.392h1.989c.216 0 .39-.176.39-.392v-2.32h2.325v2.32c0 .216.175.392.391.392h1.986c.216 0 .39-.176.39-.392v-2.32h1.544v2.32c0 .216.174.392.39.392h1.986c.217 0 .391-.176.391-.392v-2.32h1.543v2.32c0 .216.175.392.391.392h1.986c.216 0 .39-.176.39-.392v-2.32h2.89a.392.392 0 0 0 .282-.663l-2.233-2.343h7.23v17.218zm-10.153 0h1.204v-1.927h-1.204v1.928zm-4.31 0h1.204v-1.927h-1.204v1.928zm-4.31 0h1.203v-1.927h-1.204v1.928zm-5.096 0h1.207v-1.927h-1.207v1.928zm-4.31 0h1.206v-1.927H21.04v1.928zm-4.31 0h1.206v-1.927h-1.207v1.928zm-6.253-25.617c.245-.247.524-.527.837-.878.245-.273.555-.673.784-.977.23.304.54.704.785.977.313.351.591.631.836.878.631.634.89.909.89 1.343 0 .497-.29.95-.45 1.16h-1.112c.151-.317.29-.721.29-1.143 0-.929-.874-1.764-.973-1.857-.015-.014-.036-.02-.054-.032-.021-.015-.042-.03-.066-.04-.023-.01-.047-.013-.073-.017-.023-.005-.046-.012-.073-.012-.026 0-.05.007-.073.012-.026.004-.049.007-.072.017-.024.01-.045.025-.066.04-.018.012-.039.018-.054.032-.1.093-.972.928-.972 1.857 0 .422.138.826.289 1.143h-1.113c-.159-.21-.446-.662-.446-1.16 0-.434.256-.709.886-1.343zm1.621-3.59a.343.343 0 0 1 0 .686.343.343 0 0 1 0-.686zm4.871 7.608a.393.393 0 0 1 0 .784.391.391 0 0 1 0-.784zm-.651 3.598h1.303v-1.895h-1.303v1.895zm3.43-2.352h5.902a2.2 2.2 0 0 0-.08.6c-.011.373-.009 1.24-.003 1.752h-.65v-1.481a.391.391 0 1 0-.781 0v1.481h-.51v-1.481a.391.391 0 1 0-.783 0v1.481h-.51v-1.481a.391.391 0 1 0-.782 0v1.481h-.511v-1.481a.391.391 0 1 0-.782 0v1.481h-.51v-2.352zm.39-1.794l.47-.45a.394.394 0 0 0 .117-.283v-1.023a.383.383 0 0 0-.115-.277l-.472-.474v-.38H36.86v.38l-.471.474a.394.394 0 0 0-.115.277v1.023c0 .107.044.209.12.283l.466.45v1.01h-6.218a1.735 1.735 0 0 0-.646-.116h-.003a2.252 2.252 0 0 0-.604-1.278c-.274-.277-.6-.436-.889-.436-.292 0-.615.16-.889.436-.2.202-.513.614-.604 1.278a1.74 1.74 0 0 0-.647.116h-6.223v-1.01zM36.74 38.15v-1.481a.391.391 0 1 0-.781 0v1.481h-.511v-1.481a.391.391 0 1 0-.782 0v1.481h-.508v-1.481a.391.391 0 1 0-.782 0v1.481h-.51v-1.481a.391.391 0 1 0-.783 0v1.481h-.649c.003-.511.006-1.38-.002-1.753-.005-.142-.013-.365-.081-.6h5.9v2.353h-.51zm2.64 0h1.303v-1.895H39.38v1.895zm.652-3.598a.393.393 0 0 1 0 .784.391.391 0 0 1 0-.784zm3.247-4.018c.245-.247.524-.527.84-.878.241-.273.554-.673.784-.977.226.304.539.704.781.977.316.351.595.631.84.878.63.634.886.909.886 1.343 0 .497-.29.95-.446 1.16h-1.115c.15-.317.291-.721.291-1.143 0-.929-.875-1.764-.974-1.857-.016-.014-.034-.02-.052-.032-.024-.014-.042-.03-.068-.04-.024-.01-.047-.013-.07-.017-.027-.005-.05-.012-.073-.012-.027 0-.05.007-.076.012-.023.004-.047.007-.07.017-.024.01-.045.025-.068.04-.018.012-.037.018-.052.032-.1.093-.972.928-.972 1.857 0 .422.138.826.289 1.143h-1.115c-.157-.21-.446-.662-.446-1.16 0-.434.255-.709.886-1.343zm1.624-3.59a.343.343 0 1 1-.004.686.343.343 0 0 1 .004-.686zM41.465 37.92h7.086l.198.23h-7.284v-.23zm3.177-4.1h2.34l.237.245h-4.636l.237-.245h1.822zm.258-2.914c.216.268.459.65.459.987 0 .453-.256.913-.402 1.143h-.112c-.146-.23-.399-.693-.399-1.143 0-.338.238-.718.454-.987zm-2.47 3.943h4.943l.964 1.156v1.131h-6.872v-1.131l.964-1.156zm-16.08 1.568c.005-.23.023-.484.177-.613.14-.119.412-.152.787-.098a.386.386 0 0 0 .313-.093.386.386 0 0 0 .133-.299c-.005-.632.253-.987.406-1.143.167-.169.305-.204.334-.204.026 0 .164.035.334.204.153.156.409.51.404 1.143a.39.39 0 0 0 .448.391c.372-.053.646-.02.787.099.15.129.172.384.177.613a93.6 93.6 0 0 1 .003 1.732h-4.306c-.002-.507-.007-1.373.003-1.732zM8.446 37.92h7.089v.23H8.248l.198-.23zm3.472-3.07h2.653l.964 1.155v1.131H8.66v-1.131l.964-1.156h2.294zm-.081-1.03h2.343l.237.245H9.778l.237-.245h1.822zm.26-2.914c.214.268.457.65.457.987 0 .453-.253.913-.402 1.143h-.11c-.148-.23-.4-.693-.4-1.143 0-.338.24-.718.455-.987zm4.631 12.96h1.207V41.94h-1.207v1.927zm4.31 0h1.207V41.94H21.04v1.927zm4.311 0h1.207V41.94h-1.207v1.927zm5.095 0h1.204V41.94h-1.204v1.927zm4.31 0h1.205V41.94h-1.204v1.927zm5.906-2.711H13.974l2.119-2.222h24.814l2.12 2.222H40.66zm-1.595 2.711h1.204V41.94h-1.204v1.927zm10.927-5.389c-.002-.012-.002-.024-.008-.035a.2.2 0 0 0-.01-.038 2.215 2.215 0 0 0-.016-.035c-.005-.011-.01-.022-.018-.033l-.023-.033c-.006-.006-.008-.013-.013-.02l-.785-.901v-1.52a.387.387 0 0 0-.091-.251l-.683-.82a.39.39 0 0 0 .078-.606l-.758-.786c.224-.323.526-.88.526-1.523 0-.776-.466-1.246-1.115-1.897-.237-.24-.508-.512-.808-.847a16.083 16.083 0 0 1-.735-.915 1.126 1.126 0 0 0-.63-2.058 1.128 1.128 0 0 0-.634 2.058c-.221.29-.51.666-.735.915-.3.335-.57.607-.808.847-.648.651-1.115 1.121-1.115 1.897 0 .643.302 1.2.527 1.523l-.759.786a.39.39 0 0 0 .078.606l-.27.326c.007-.058.018-.115.018-.174 0-.649-.527-1.176-1.173-1.176s-1.173.527-1.173 1.176c0 .19.05.368.13.527a.391.391 0 0 0-.39.392v2.287h-.566v-2.744a.391.391 0 0 0-.39-.392v-1.176a.396.396 0 0 0-.12-.283l-.467-.45v-.695l.471-.473a.395.395 0 0 0 .115-.277v-.934a.391.391 0 0 0-.39-.392H19.745a.393.393 0 0 0-.39.392v.934c0 .104.041.203.114.277l.472.473v.695l-.467.45a.396.396 0 0 0-.12.283v1.176a.393.393 0 0 0-.39.392v2.744h-.563v-2.287a.391.391 0 0 0-.391-.392c.08-.159.13-.337.13-.527 0-.649-.527-1.176-1.173-1.176s-1.173.527-1.173 1.176c0 .06.008.116.016.174l-.27-.326a.388.388 0 0 0 .08-.606l-.759-.786c.222-.323.527-.88.527-1.523 0-.776-.47-1.246-1.115-1.897-.24-.24-.511-.512-.811-.847a16.069 16.069 0 0 1-.732-.915 1.126 1.126 0 0 0-.633-2.058 1.126 1.126 0 0 0-.634 2.058c-.219.29-.51.666-.732.915-.3.335-.57.607-.81.847-.647.651-1.113 1.121-1.113 1.897 0 .643.302 1.2.523 1.523l-.758.786a.388.388 0 0 0 .08.606l-.685.82a.402.402 0 0 0-.09.251v1.52l-.783.902-.015.019-.024.033-.015.033c-.008.011-.01.023-.016.035l-.013.038-.008.035c-.002.014-.002.028-.002.042-.003.008-.003.015-.003.022v18.002c0 .216.175.392.39.392h42.22c.215 0 .39-.176.39-.392V38.54c0-.007-.003-.014-.003-.022 0-.014-.002-.028-.005-.042z"/>
            <path fill="#0C893D" d="M46.829 46.007h-3.594l.237-.246h3.12l.237.246zm-2.627 3.43h1.66v-2.646h-1.66v2.646zm.05-4.46h-.946a.393.393 0 0 0-.282.12l-.993 1.029a.39.39 0 0 0-.078.425.39.39 0 0 0 .36.24h1.107v3.038c0 .217.175.393.391.393h2.442c.216 0 .391-.176.391-.393v-3.038h1.108a.39.39 0 0 0 .36-.24.39.39 0 0 0-.079-.425l-.993-1.03a.389.389 0 0 0-.281-.119h-2.507zM44.527 23.938v1.47a.391.391 0 1 0 .782 0v-1.47a.391.391 0 0 0-.782 0M46.766 50.466h-3.411a.393.393 0 0 0 0 .784h3.41a.391.391 0 0 0 0-.784M44.962 43.148a.436.436 0 0 1 0 .871.436.436 0 0 1 0-.871zm-1.217.435c0 .673.545 1.22 1.217 1.22.67 0 1.215-.547 1.215-1.22 0-.672-.545-1.22-1.215-1.22-.672 0-1.217.548-1.217 1.22zM44.527 54.386h.782v-1.045h-.782v1.045zm1.173-1.83h-1.564a.391.391 0 0 0-.39.393v1.83c0 .216.174.391.39.391H45.7c.214 0 .39-.175.39-.392v-1.83a.393.393 0 0 0-.39-.391zM40.65 44.716h-1.986a.391.391 0 0 0 0 .784h1.985a.391.391 0 0 0 0-.784M36.48 44.716h-1.986a.391.391 0 0 0 0 .784h1.986a.391.391 0 0 0 0-.784M32.05 44.716h-1.986a.391.391 0 0 0 0 .784h1.985a.391.391 0 0 0 0-.784M31.106 45.761a.391.391 0 0 0-.39.392v6.436a.391.391 0 1 0 .781 0v-6.436a.391.391 0 0 0-.39-.392M35.536 45.761a.391.391 0 0 0-.39.392v6.436a.391.391 0 1 0 .781 0v-6.436a.391.391 0 0 0-.39-.392M39.706 45.761a.391.391 0 0 0-.39.392v6.436a.391.391 0 1 0 .781 0v-6.436a.391.391 0 0 0-.39-.392M34.494 32.955h.993a.391.391 0 0 0 0-.785h-.993a.391.391 0 0 0 0 .785M31.888 32.955h.995a.393.393 0 0 0 0-.785h-.995a.391.391 0 0 0 0 .785M29.542 32.955h.993a.391.391 0 0 0 0-.785h-.993a.391.391 0 0 0 0 .785"/>
            <path fill="#8CDBAB" d="M28.127 15.308c-.088-2.152.167-3.115.357-3.524.188.409.443 1.372.357 3.524h-.714M30.358 12.319c.076.014.203.052.227.15.14.631-.282 1.246-.748 1.763a10.661 10.661 0 0 0-.164-1.735.885.885 0 0 1 .685-.178M26.574 12.47c.023-.099.15-.137.226-.151.209-.04.5.02.686.178a10.376 10.376 0 0 0-.164 1.735c-.467-.517-.892-1.132-.748-1.762M21.486 23.469c.9-1.689 4.245-3.962 4.855-4.367h4.326c.608.405 3.954 2.678 4.853 4.367.818 1.535.245 2.484-.206 3.082h-4.068c.128-.378.13-.78-.016-1.12a1.188 1.188 0 0 0-.766-.68c-.122-1.057-1.571-1.981-1.756-2.095a.263.263 0 0 0-.021-.01l-.034-.018a.457.457 0 0 0-.04-.013l-.033-.008a.458.458 0 0 0-.117-.006.43.43 0 0 0-.105.026l-.041.02c-.006.004-.013.005-.019.009-.185.114-1.634 1.038-1.753 2.096a1.182 1.182 0 0 0-.767.678c-.146.34-.146.743-.018 1.121h-4.068c-.45-.598-1.024-1.547-.206-3.082"/>
        </g>
    </g>
</svg>
