<svg width="35" height="33" viewBox="0 0 35 33" xmlns="http://www.w3.org/2000/svg"><title>685FC486-068D-4C94-8DE8-95DCCE29B94B</title><g fill="none" fill-rule="evenodd"><path fill="#FFF" d="M1 1h33v2.255H1z"/><path stroke="#0C893D" stroke-linecap="round" stroke-linejoin="round" d="M1 1h33v2.255H1zM1 29.745h33V32H1zM2.138 3.255h1.707v26.49H2.138z"/><path fill="#00E85C" d="M31.155 3.255h1.707v26.49h-1.707z"/><path stroke="#0C893D" stroke-linecap="round" stroke-linejoin="round" d="M31.155 3.255h1.707v26.49h-1.707z"/><path d="M3.833 4.897A1 1 0 0 1 4.84 3.9h24.712v12.306a.397.397 0 0 1-.404.394H3.833V4.897z" fill="#00E85C"/><path stroke="#0C893D" stroke-linecap="round" stroke-linejoin="round" d="M5.552 5.51h23.896v12.4H5.552z"/><path stroke="#0C893D" stroke-width=".5" stroke-linecap="round" stroke-linejoin="round" fill="#FFF" d="M25.466 29.745h-3.414l-1.138-2.818h5.69z"/><path stroke="#0C893D" stroke-width=".9" stroke-linecap="round" stroke-linejoin="round" d="M25.466 29.745h-3.414l-1.138-2.818h5.69z"/><path fill="#0EB550" d="M27.172 26.927h-6.827l-.57-1.69h7.966z"/><path stroke="#0C893D" stroke-width=".8" stroke-linecap="round" stroke-linejoin="round" d="M27.172 26.927h-6.827l-.57-1.69h7.966z"/><path d="M26.034 21.29c0-.31-.127-.592-.333-.796 0-.289-.11-.577-.333-.798a1.142 1.142 0 0 0-.805-.33 1.14 1.14 0 0 0-.804-.33 1.14 1.14 0 0 0-.805.33c-.291 0-.583.11-.804.33-.223.22-.334.51-.334.798a1.118 1.118 0 0 0 0 1.594 1.138 1.138 0 0 0 1.138 1.127c.206.204.49.33.805.33.314 0 .598-.126.804-.33.291 0 .583-.11.805-.33.222-.22.333-.509.333-.797.206-.204.333-.486.333-.797z" stroke="#0C893D" stroke-linecap="round" stroke-linejoin="round"/><path d="M23.759 24.11v1.126-1.127z" stroke="#0C893D" stroke-width=".5" stroke-linecap="round" stroke-linejoin="round"/><path d="M3.845 3.255v16.857H21.64c.05-.09.107-.175.176-.249 0-.308.111-.616.334-.852.221-.235.513-.352.804-.352.206-.218.49-.353.805-.353.314 0 .598.135.804.353.291 0 .583.117.805.352.222.236.333.544.333.852.07.074.126.16.176.25h5.278V3.254H3.845z" stroke="#0C893D" stroke-linecap="round" stroke-linejoin="round"/><path d="M24.328 21.29a.567.567 0 0 1-.57.565.567.567 0 0 1-.568-.564c0-.311.255-.564.569-.564.314 0 .569.253.569.564" fill="#0C893D"/><path d="M8.397 10.018l2.275-2.254-2.275 2.254zM8.397 12.836l1.137-1.127-1.137 1.127zM11.81 9.455l1.707-1.691-1.707 1.69z" stroke="#0C893D" stroke-width=".9" stroke-linecap="round" stroke-linejoin="round"/></g></svg>