<?xml version="1.0" encoding="UTF-8"?>
<svg width="275px" height="180px" viewBox="0 0 275 180" version="1.1" xmlns="http://www.w3.org/2000/svg" xmlns:xlink="http://www.w3.org/1999/xlink">
    <!-- Generator: Sketch 52.5 (67469) - http://www.bohemiancoding.com/sketch -->
    <title>Desktop</title>
    <desc>Created with Sketch.</desc>
    <defs>
        <polygon id="path-1" points="5.68434189e-14 180.427 858.331 180.427 858.331 1.42108547e-14 5.68434189e-14 1.42108547e-14"></polygon>
    </defs>
    <g id="Page-1" stroke="none" stroke-width="1" fill="none" fill-rule="evenodd">
        <g id="Desktop" transform="translate(-92.000000, -235.000000)">
            <g id="Group-5" transform="translate(92.000000, 235.000000)">
                <mask id="mask-2" fill="white">
                    <use xlink:href="#path-1"></use>
                </mask>
                <g id="Clip-112"></g>
                <polygon id="Fill-111" fill="#FDBE10" mask="url(#mask-2)" points="-2.55795385e-13 180.427 268.551 180.427 268.551 6.834 -2.55795385e-13 6.834"></polygon>
                <polygon id="Fill-113" fill="#000000" mask="url(#mask-2)" points="6.898 173.593 275.449 173.593 275.449 -2.84217094e-14 6.898 -2.84217094e-14"></polygon>
                <path d="M39.7666125,103.465009 L42.7841906,103.465009 C44.3720813,103.465009 45.4912219,104.578291 45.4912219,106.1779 C45.4912219,107.783369 44.3603625,108.902509 42.7724719,108.902509 L40.8213,108.902509 L40.8213,111.920087 L39.7666125,111.920087 L39.7666125,103.465009 Z M40.8213,104.402509 L40.8213,107.965009 L42.5088,107.965009 C43.7158313,107.965009 44.4072375,107.3029 44.4072375,106.1779 C44.4072375,105.058759 43.7216906,104.402509 42.5088,104.402509 L40.8213,104.402509 Z M48.6904406,106.605634 C47.7353625,106.605634 47.0673938,107.338056 47.0029406,108.351728 L50.3134875,108.351728 C50.29005,107.332197 49.6513781,106.605634 48.6904406,106.605634 Z M50.29005,110.173994 L51.2920031,110.173994 C51.1162219,111.2404 50.0849719,112.025556 48.7548938,112.025556 C47.0088,112.025556 45.9482531,110.812666 45.9482531,108.89665 C45.9482531,107.004072 47.0263781,105.720869 48.7080188,105.720869 C50.3545031,105.720869 51.368175,106.916181 51.368175,108.761884 L51.368175,109.148603 L46.9970813,109.148603 L46.9970813,109.207197 C46.9970813,110.373212 47.6826281,111.140791 48.7783313,111.140791 C49.5517688,111.140791 50.1201281,110.748212 50.29005,110.173994 Z M52.3935656,111.920087 L52.3935656,105.826337 L53.3545031,105.826337 L53.3545031,106.822431 L53.3779406,106.822431 C53.5771594,106.148603 54.1396594,105.720869 54.8545031,105.720869 C55.0302844,105.720869 55.1826281,105.750166 55.2646594,105.761884 L55.2646594,106.752119 C55.1826281,106.722822 54.9658313,106.693525 54.7197375,106.693525 C53.9287219,106.693525 53.4130969,107.261884 53.4130969,108.123212 L53.4130969,111.920087 L52.3935656,111.920087 Z M56.4189563,111.920087 L56.4189563,106.664228 L55.5693469,106.664228 L55.5693469,105.826337 L56.4189563,105.826337 L56.4189563,105.14665 C56.4189563,103.974775 56.9638781,103.418134 58.0888781,103.418134 C58.3173938,103.418134 58.5634875,103.441572 58.7099719,103.465009 L58.7099719,104.291181 C58.586925,104.273603 58.4170031,104.256025 58.2470813,104.256025 C57.6963,104.256025 57.4326281,104.548994 57.4326281,105.152509 L57.4326281,105.826337 L58.680675,105.826337 L58.680675,106.664228 L57.4384875,106.664228 L57.4384875,111.920087 L56.4189563,111.920087 Z M61.8857531,106.605634 C60.930675,106.605634 60.2627063,107.338056 60.1982531,108.351728 L63.5088,108.351728 C63.4853625,107.332197 62.8466906,106.605634 61.8857531,106.605634 Z M63.4853625,110.173994 L64.4873156,110.173994 C64.3115344,111.2404 63.2802844,112.025556 61.9502063,112.025556 C60.2041125,112.025556 59.1435656,110.812666 59.1435656,108.89665 C59.1435656,107.004072 60.2216906,105.720869 61.9033313,105.720869 C63.5498156,105.720869 64.5634875,106.916181 64.5634875,108.761884 L64.5634875,109.148603 L60.1923938,109.148603 L60.1923938,109.207197 C60.1923938,110.373212 60.8779406,111.140791 61.9736438,111.140791 C62.7470813,111.140791 63.3154406,110.748212 63.4853625,110.173994 Z M70.6513781,107.824384 L69.6552844,107.824384 C69.5088,107.162275 68.993175,106.617353 68.0966906,106.617353 C67.0420031,106.617353 66.3271594,107.4904 66.3271594,108.873212 C66.3271594,110.291181 67.0537219,111.129072 68.1084094,111.129072 C68.9404406,111.129072 69.4853625,110.689619 69.6611438,109.957197 L70.6630969,109.957197 C70.5048938,111.170087 69.4853625,112.025556 68.10255,112.025556 C66.41505,112.025556 65.29005,110.836103 65.29005,108.873212 C65.29005,106.951337 66.4091906,105.720869 68.0908313,105.720869 C69.6142688,105.720869 70.5224719,106.728681 70.6513781,107.824384 Z M71.9287219,104.355634 L72.9482531,104.355634 L72.9482531,105.826337 L74.1318469,105.826337 L74.1318469,106.664228 L72.9482531,106.664228 L72.9482531,110.285322 C72.9482531,110.841962 73.1826281,111.093916 73.7041125,111.093916 C73.8213,111.093916 74.055675,111.076337 74.1259875,111.064619 L74.1259875,111.920087 C74.0029406,111.949384 73.7216906,111.966962 73.4814563,111.966962 C72.3623156,111.966962 71.9287219,111.509931 71.9287219,110.338056 L71.9287219,106.664228 L71.0205188,106.664228 L71.0205188,105.826337 L71.9287219,105.826337 L71.9287219,104.355634 Z M78.0048938,111.920087 L78.0048938,106.664228 L77.1552844,106.664228 L77.1552844,105.826337 L78.0048938,105.826337 L78.0048938,105.14665 C78.0048938,103.974775 78.5498156,103.418134 79.6748156,103.418134 C79.9033313,103.418134 80.149425,103.441572 80.2959094,103.465009 L80.2959094,104.291181 C80.1728625,104.273603 80.0029406,104.256025 79.8330188,104.256025 C79.2822375,104.256025 79.0185656,104.548994 79.0185656,105.152509 L79.0185656,105.826337 L80.2666125,105.826337 L80.2666125,106.664228 L79.024425,106.664228 L79.024425,111.920087 L78.0048938,111.920087 Z M83.5537219,112.025556 C81.8662219,112.025556 80.7295031,110.812666 80.7295031,108.873212 C80.7295031,106.9279 81.8662219,105.720869 83.5537219,105.720869 C85.2353625,105.720869 86.3720813,106.9279 86.3720813,108.873212 C86.3720813,110.812666 85.2353625,112.025556 83.5537219,112.025556 Z M83.5537219,111.129072 C84.6318469,111.129072 85.3349719,110.308759 85.3349719,108.873212 C85.3349719,107.437666 84.6318469,106.617353 83.5537219,106.617353 C82.4755969,106.617353 81.7666125,107.437666 81.7666125,108.873212 C81.7666125,110.308759 82.4755969,111.129072 83.5537219,111.129072 Z M87.3974719,111.920087 L87.3974719,105.826337 L88.3584094,105.826337 L88.3584094,106.822431 L88.3818469,106.822431 C88.5810656,106.148603 89.1435656,105.720869 89.8584094,105.720869 C90.0341906,105.720869 90.1865344,105.750166 90.2685656,105.761884 L90.2685656,106.752119 C90.1865344,106.722822 89.9697375,106.693525 89.7236438,106.693525 C88.9326281,106.693525 88.4170031,107.261884 88.4170031,108.123212 L88.4170031,111.920087 L87.3974719,111.920087 Z M96.5849719,112.025556 C95.6943469,112.025556 94.9970813,111.591962 94.6045031,110.888837 L94.5810656,110.888837 L94.5810656,111.920087 L93.6084094,111.920087 L93.6084094,103.465009 L94.6279406,103.465009 L94.6279406,106.845869 L94.6513781,106.845869 C95.0322375,106.148603 95.7412219,105.720869 96.60255,105.720869 C98.1377063,105.720869 99.1748156,106.963056 99.1748156,108.873212 C99.1748156,110.789228 98.1435656,112.025556 96.5849719,112.025556 Z M96.3857531,106.617353 C95.3545031,106.617353 94.6220813,107.519697 94.6220813,108.873212 C94.6220813,110.232587 95.3545031,111.129072 96.3857531,111.129072 C97.4638781,111.129072 98.1318469,110.267744 98.1318469,108.873212 C98.1318469,107.4904 97.4638781,106.617353 96.3857531,106.617353 Z M105.209972,105.826337 L105.209972,111.920087 L104.243175,111.920087 L104.243175,110.929853 L104.219738,110.929853 C103.856456,111.632978 103.223644,112.025556 102.286144,112.025556 C100.956066,112.025556 100.176769,111.164228 100.176769,109.781416 L100.176769,105.826337 L101.1963,105.826337 L101.1963,109.599775 C101.1963,110.590009 101.659191,111.123212 102.60255,111.123212 C103.592784,111.123212 104.190441,110.443525 104.190441,109.406416 L104.190441,105.826337 L105.209972,105.826337 Z M108.836925,112.025556 C107.284191,112.025556 106.229503,110.783369 106.229503,108.873212 C106.229503,106.963056 107.278331,105.720869 108.813488,105.720869 C109.686534,105.720869 110.389659,106.148603 110.752941,106.816572 L110.776378,106.816572 L110.776378,103.465009 L111.795909,103.465009 L111.795909,111.920087 L110.823253,111.920087 L110.823253,110.888837 L110.805675,110.888837 C110.413097,111.591962 109.715831,112.025556 108.836925,112.025556 Z M109.030284,106.617353 C107.952159,106.617353 107.272472,107.496259 107.272472,108.873212 C107.272472,110.256025 107.952159,111.129072 109.030284,111.129072 C110.079113,111.129072 110.782238,110.238447 110.782238,108.873212 C110.782238,107.513837 110.079113,106.617353 109.030284,106.617353 Z M115.651378,111.070478 C116.711925,111.070478 117.420909,110.191572 117.420909,108.849775 C117.420909,107.507978 116.711925,106.617353 115.651378,106.617353 C114.60255,106.617353 113.917003,107.484541 113.917003,108.849775 C113.917003,110.215009 114.60255,111.070478 115.651378,111.070478 Z M115.686534,114.216962 C114.344738,114.216962 113.284191,113.461103 113.114269,112.423994 L114.163097,112.423994 C114.362316,112.980634 114.965831,113.349775 115.72755,113.349775 C116.782238,113.349775 117.420909,112.7404 117.420909,111.832197 L117.420909,110.871259 L117.397472,110.871259 C117.022472,111.533369 116.301769,111.966962 115.4463,111.966962 C113.893566,111.966962 112.874034,110.742353 112.874034,108.849775 C112.874034,106.939619 113.893566,105.720869 115.469738,105.720869 C116.331066,105.720869 117.045909,106.142744 117.450206,106.851728 L117.467784,106.851728 L117.467784,105.826337 L118.440441,105.826337 L118.440441,111.797041 C118.440441,113.250166 117.368175,114.216962 115.686534,114.216962 Z M122.208019,106.605634 C121.252941,106.605634 120.584972,107.338056 120.520519,108.351728 L123.831066,108.351728 C123.807628,107.332197 123.168956,106.605634 122.208019,106.605634 Z M123.807628,110.173994 L124.809581,110.173994 C124.6338,111.2404 123.60255,112.025556 122.272472,112.025556 C120.526378,112.025556 119.465831,110.812666 119.465831,108.89665 C119.465831,107.004072 120.543956,105.720869 122.225597,105.720869 C123.872081,105.720869 124.885753,106.916181 124.885753,108.761884 L124.885753,109.148603 L120.514659,109.148603 L120.514659,109.207197 C120.514659,110.373212 121.200206,111.140791 122.295909,111.140791 C123.069347,111.140791 123.637706,110.748212 123.807628,110.173994 Z M126.239269,104.355634 L127.2588,104.355634 L127.2588,105.826337 L128.442394,105.826337 L128.442394,106.664228 L127.2588,106.664228 L127.2588,110.285322 C127.2588,110.841962 127.493175,111.093916 128.014659,111.093916 C128.131847,111.093916 128.366222,111.076337 128.436534,111.064619 L128.436534,111.920087 C128.313488,111.949384 128.032238,111.966962 127.792003,111.966962 C126.672863,111.966962 126.239269,111.509931 126.239269,110.338056 L126.239269,106.664228 L125.331066,106.664228 L125.331066,105.826337 L126.239269,105.826337 L126.239269,104.355634 Z M132.315441,104.355634 L133.334972,104.355634 L133.334972,105.826337 L134.518566,105.826337 L134.518566,106.664228 L133.334972,106.664228 L133.334972,110.285322 C133.334972,110.841962 133.569347,111.093916 134.090831,111.093916 C134.208019,111.093916 134.442394,111.076337 134.512706,111.064619 L134.512706,111.920087 C134.389659,111.949384 134.108409,111.966962 133.868175,111.966962 C132.749034,111.966962 132.315441,111.509931 132.315441,110.338056 L132.315441,106.664228 L131.407238,106.664228 L131.407238,105.826337 L132.315441,105.826337 L132.315441,104.355634 Z M135.60255,111.920087 L135.60255,105.826337 L136.563488,105.826337 L136.563488,106.822431 L136.586925,106.822431 C136.786144,106.148603 137.348644,105.720869 138.063488,105.720869 C138.239269,105.720869 138.391613,105.750166 138.473644,105.761884 L138.473644,106.752119 C138.391613,106.722822 138.174816,106.693525 137.928722,106.693525 C137.137706,106.693525 136.622081,107.261884 136.622081,108.123212 L136.622081,111.920087 L135.60255,111.920087 Z M141.192394,111.158369 C142.153331,111.158369 142.891613,110.484541 142.891613,109.605634 L142.891613,109.107587 L141.262706,109.207197 C140.442394,109.259931 139.973644,109.623212 139.973644,110.197431 C139.973644,110.777509 140.459972,111.158369 141.192394,111.158369 Z M140.963878,112.025556 C139.750988,112.025556 138.936534,111.293134 138.936534,110.197431 C138.936534,109.154462 139.739269,108.498212 141.145519,108.416181 L142.891613,108.316572 L142.891613,107.806806 C142.891613,107.062666 142.399425,106.617353 141.555675,106.617353 C140.770519,106.617353 140.278331,106.986494 140.149425,107.58415 L139.16505,107.58415 C139.235363,106.529462 140.137706,105.720869 141.579113,105.720869 C143.0088,105.720869 143.911144,106.494306 143.911144,107.707197 L143.911144,111.920087 L142.944347,111.920087 L142.944347,110.871259 L142.920909,110.871259 C142.557628,111.568525 141.784191,112.025556 140.963878,112.025556 Z M150.204113,105.826337 L147.965831,111.920087 L146.922863,111.920087 L144.678722,105.826337 L145.750988,105.826337 L147.432628,110.836103 L147.456066,110.836103 L149.143566,105.826337 L150.204113,105.826337 Z M153.268566,106.605634 C152.313488,106.605634 151.645519,107.338056 151.581066,108.351728 L154.891613,108.351728 C154.868175,107.332197 154.229503,106.605634 153.268566,106.605634 Z M154.868175,110.173994 L155.870128,110.173994 C155.694347,111.2404 154.663097,112.025556 153.333019,112.025556 C151.586925,112.025556 150.526378,110.812666 150.526378,108.89665 C150.526378,107.004072 151.604503,105.720869 153.286144,105.720869 C154.932628,105.720869 155.9463,106.916181 155.9463,108.761884 L155.9463,109.148603 L151.575206,109.148603 L151.575206,109.207197 C151.575206,110.373212 152.260753,111.140791 153.356456,111.140791 C154.129894,111.140791 154.698253,110.748212 154.868175,110.173994 Z M157.024425,111.920087 L157.024425,103.465009 L158.043956,103.465009 L158.043956,111.920087 L157.024425,111.920087 Z M159.473644,111.920087 L159.473644,103.465009 L160.493175,103.465009 L160.493175,111.920087 L159.473644,111.920087 Z M164.313488,106.605634 C163.358409,106.605634 162.690441,107.338056 162.625988,108.351728 L165.936534,108.351728 C165.913097,107.332197 165.274425,106.605634 164.313488,106.605634 Z M165.913097,110.173994 L166.91505,110.173994 C166.739269,111.2404 165.708019,112.025556 164.377941,112.025556 C162.631847,112.025556 161.5713,110.812666 161.5713,108.89665 C161.5713,107.004072 162.649425,105.720869 164.331066,105.720869 C165.97755,105.720869 166.991222,106.916181 166.991222,108.761884 L166.991222,109.148603 L162.620128,109.148603 L162.620128,109.207197 C162.620128,110.373212 163.305675,111.140791 164.401378,111.140791 C165.174816,111.140791 165.743175,110.748212 165.913097,110.173994 Z M168.016613,111.920087 L168.016613,105.826337 L168.97755,105.826337 L168.97755,106.822431 L169.000988,106.822431 C169.200206,106.148603 169.762706,105.720869 170.47755,105.720869 C170.653331,105.720869 170.805675,105.750166 170.887706,105.761884 L170.887706,106.752119 C170.805675,106.722822 170.588878,106.693525 170.342784,106.693525 C169.551769,106.693525 169.036144,107.261884 169.036144,108.123212 L169.036144,111.920087 L168.016613,111.920087 Z" id="Perfect-for-budget-t" fill="#FFFFFF" mask="url(#mask-2)"></path>
                <path d="M43.3007812,90.0647125 C40.96875,90.0647125 39.4921875,88.3713531 39.4921875,85.6936187 C39.4921875,83.0393219 40.9863281,81.3283844 43.3007812,81.3283844 C45.140625,81.3283844 46.5410156,82.447525 46.8105469,84.135025 L45.7441406,84.135025 C45.4746094,83.0276031 44.5078125,82.3010406 43.3007812,82.3010406 C41.6484375,82.3010406 40.5761719,83.6369781 40.5761719,85.6936187 C40.5761719,87.7678375 41.6367188,89.0920562 43.3066406,89.0920562 C44.5488281,89.0920562 45.4394531,88.4944 45.7441406,87.46315 L46.8105469,87.46315 C46.4238281,89.1330719 45.1699219,90.0647125 43.3007812,90.0647125 Z M47.9472656,89.9240875 L47.9472656,81.4690094 L48.9667969,81.4690094 L48.9667969,89.9240875 L47.9472656,89.9240875 Z M52.7871094,84.6096344 C51.8320312,84.6096344 51.1640625,85.3420562 51.0996094,86.3557281 L54.4101562,86.3557281 C54.3867188,85.3361969 53.7480469,84.6096344 52.7871094,84.6096344 Z M54.3867188,88.1779937 L55.3886719,88.1779937 C55.2128906,89.2444 54.1816406,90.0295562 52.8515625,90.0295562 C51.1054688,90.0295562 50.0449219,88.8166656 50.0449219,86.90065 C50.0449219,85.0080719 51.1230469,83.7248687 52.8046875,83.7248687 C54.4511719,83.7248687 55.4648438,84.9201812 55.4648438,86.7658844 L55.4648438,87.1526031 L51.09375,87.1526031 L51.09375,87.2111969 C51.09375,88.3772125 51.7792969,89.1447906 52.875,89.1447906 C53.6484375,89.1447906 54.2167969,88.7522125 54.3867188,88.1779937 Z M58.5,89.1623687 C59.4609375,89.1623687 60.1992188,88.4885406 60.1992188,87.6096344 L60.1992188,87.1115875 L58.5703125,87.2111969 C57.75,87.2639312 57.28125,87.6272125 57.28125,88.2014312 C57.28125,88.7815094 57.7675781,89.1623687 58.5,89.1623687 Z M58.2714844,90.0295562 C57.0585938,90.0295562 56.2441406,89.2971344 56.2441406,88.2014312 C56.2441406,87.1584625 57.046875,86.5022125 58.453125,86.4201812 L60.1992188,86.3205719 L60.1992188,85.8108062 C60.1992188,85.0666656 59.7070312,84.6213531 58.8632812,84.6213531 C58.078125,84.6213531 57.5859375,84.9904937 57.4570312,85.58815 L56.4726562,85.58815 C56.5429688,84.5334625 57.4453125,83.7248687 58.8867188,83.7248687 C60.3164062,83.7248687 61.21875,84.4983062 61.21875,85.7111969 L61.21875,89.9240875 L60.2519531,89.9240875 L60.2519531,88.8752594 L60.2285156,88.8752594 C59.8652344,89.572525 59.0917969,90.0295562 58.2714844,90.0295562 Z M62.5136719,89.9240875 L62.5136719,83.8303375 L63.4746094,83.8303375 L63.4746094,84.8029937 L63.4980469,84.8029937 C63.8378906,84.1467437 64.4882812,83.7248687 65.4316406,83.7248687 C66.7675781,83.7248687 67.5410156,84.5861969 67.5410156,85.9690094 L67.5410156,89.9240875 L66.5214844,89.9240875 L66.5214844,86.15065 C66.5214844,85.166275 66.0585938,84.6272125 65.1210938,84.6272125 C64.1601562,84.6272125 63.5332031,85.3069 63.5332031,86.33815 L63.5332031,89.9240875 L62.5136719,89.9240875 Z M71.296875,89.9240875 L71.296875,83.8303375 L72.2578125,83.8303375 L72.2578125,84.8264312 L72.28125,84.8264312 C72.4804688,84.1526031 73.0429688,83.7248687 73.7578125,83.7248687 C73.9335938,83.7248687 74.0859375,83.7541656 74.1679688,83.7658844 L74.1679688,84.7561187 C74.0859375,84.7268219 73.8691406,84.697525 73.6230469,84.697525 C72.8320312,84.697525 72.3164062,85.2658844 72.3164062,86.1272125 L72.3164062,89.9240875 L71.296875,89.9240875 Z M77.2265625,90.0295562 C75.5390625,90.0295562 74.4023438,88.8166656 74.4023438,86.8772125 C74.4023438,84.9319 75.5390625,83.7248687 77.2265625,83.7248687 C78.9082031,83.7248687 80.0449219,84.9319 80.0449219,86.8772125 C80.0449219,88.8166656 78.9082031,90.0295562 77.2265625,90.0295562 Z M77.2265625,89.1330719 C78.3046875,89.1330719 79.0078125,88.3127594 79.0078125,86.8772125 C79.0078125,85.4416656 78.3046875,84.6213531 77.2265625,84.6213531 C76.1484375,84.6213531 75.4394531,85.4416656 75.4394531,86.8772125 C75.4394531,88.3127594 76.1484375,89.1330719 77.2265625,89.1330719 Z M83.5957031,90.0295562 C81.9082031,90.0295562 80.7714844,88.8166656 80.7714844,86.8772125 C80.7714844,84.9319 81.9082031,83.7248687 83.5957031,83.7248687 C85.2773438,83.7248687 86.4140625,84.9319 86.4140625,86.8772125 C86.4140625,88.8166656 85.2773438,90.0295562 83.5957031,90.0295562 Z M83.5957031,89.1330719 C84.6738281,89.1330719 85.3769531,88.3127594 85.3769531,86.8772125 C85.3769531,85.4416656 84.6738281,84.6213531 83.5957031,84.6213531 C82.5175781,84.6213531 81.8085938,85.4416656 81.8085938,86.8772125 C81.8085938,88.3127594 82.5175781,89.1330719 83.5957031,89.1330719 Z M87.4394531,89.9240875 L87.4394531,83.8303375 L88.4003906,83.8303375 L88.4003906,84.8029937 L88.4238281,84.8029937 C88.7109375,84.1584625 89.3320312,83.7248687 90.1523438,83.7248687 C90.984375,83.7248687 91.5996094,84.1467437 91.8632812,84.885025 L91.8867188,84.885025 C92.2265625,84.1584625 92.9414062,83.7248687 93.796875,83.7248687 C95.0039062,83.7248687 95.7832031,84.510025 95.7832031,85.7170562 L95.7832031,89.9240875 L94.7636719,89.9240875 L94.7636719,85.9514312 C94.7636719,85.1194 94.3007812,84.6272125 93.4980469,84.6272125 C92.6894531,84.6272125 92.1210938,85.2248687 92.1210938,86.0510406 L92.1210938,89.9240875 L91.1015625,89.9240875 L91.1015625,85.8401031 C91.1015625,85.1076812 90.609375,84.6272125 89.8535156,84.6272125 C89.0449219,84.6272125 88.4589844,85.260025 88.4589844,86.103775 L88.4589844,89.9240875 L87.4394531,89.9240875 Z M96.9726562,85.5119781 C96.9726562,84.4690094 97.9042969,83.7248687 99.2460938,83.7248687 C100.505859,83.7248687 101.431641,84.4748687 101.478516,85.5061187 L100.505859,85.5061187 C100.435547,84.9201812 99.9609375,84.5569 99.2109375,84.5569 C98.4667969,84.5569 97.9746094,84.9260406 97.9746094,85.4592437 C97.9746094,85.8811187 98.296875,86.1623687 98.9882812,86.33815 L99.9316406,86.5666656 C101.162109,86.8772125 101.607422,87.322525 101.607422,88.2190094 C101.607422,89.2795562 100.605469,90.0295562 99.1816406,90.0295562 C97.8457031,90.0295562 96.9140625,89.3029937 96.8085938,88.2248687 L97.828125,88.2248687 C97.9394531,88.8576812 98.4199219,89.197525 99.2460938,89.197525 C100.072266,89.197525 100.582031,88.8459625 100.582031,88.2951812 C100.582031,87.8615875 100.330078,87.6272125 99.6445312,87.4455719 L98.5722656,87.1701812 C97.5,86.8947906 96.9726562,86.3440094 96.9726562,85.5119781 Z M112.875,83.8303375 L111.175781,89.9240875 L110.138672,89.9240875 L108.761719,85.2072906 L108.738281,85.2072906 L107.367188,89.9240875 L106.330078,89.9240875 L104.625,83.8303375 L105.638672,83.8303375 L106.857422,88.7873687 L106.880859,88.7873687 L108.257812,83.8303375 L109.242188,83.8303375 L110.625,88.7873687 L110.648438,88.7873687 L111.867188,83.8303375 L112.875,83.8303375 Z M113.759766,89.9240875 L113.759766,83.8303375 L114.779297,83.8303375 L114.779297,89.9240875 L113.759766,89.9240875 Z M114.269531,82.8049469 C113.923828,82.8049469 113.636719,82.5178375 113.636719,82.1721344 C113.636719,81.8205719 113.923828,81.5393219 114.269531,81.5393219 C114.621094,81.5393219 114.908203,81.8205719 114.908203,82.1721344 C114.908203,82.5178375 114.621094,82.8049469 114.269531,82.8049469 Z M116.484375,82.3596344 L117.503906,82.3596344 L117.503906,83.8303375 L118.6875,83.8303375 L118.6875,84.6682281 L117.503906,84.6682281 L117.503906,88.2893219 C117.503906,88.8459625 117.738281,89.0979156 118.259766,89.0979156 C118.376953,89.0979156 118.611328,89.0803375 118.681641,89.0686187 L118.681641,89.9240875 C118.558594,89.9533844 118.277344,89.9709625 118.037109,89.9709625 C116.917969,89.9709625 116.484375,89.5139312 116.484375,88.3420562 L116.484375,84.6682281 L115.576172,84.6682281 L115.576172,83.8303375 L116.484375,83.8303375 L116.484375,82.3596344 Z M119.824219,89.9240875 L119.824219,81.4690094 L120.84375,81.4690094 L120.84375,84.8029937 L120.867188,84.8029937 C121.207031,84.1233062 121.875,83.7248687 122.800781,83.7248687 C124.136719,83.7248687 124.945312,84.6272125 124.945312,85.9865875 L124.945312,89.9240875 L123.925781,89.9240875 L123.925781,86.1740875 C123.925781,85.2072906 123.439453,84.6272125 122.484375,84.6272125 C121.470703,84.6272125 120.84375,85.3186187 120.84375,86.3733062 L120.84375,89.9240875 L119.824219,89.9240875 Z M128.701172,89.9240875 L128.701172,83.8303375 L129.662109,83.8303375 L129.662109,84.8029937 L129.685547,84.8029937 C130.025391,84.1467437 130.675781,83.7248687 131.619141,83.7248687 C132.955078,83.7248687 133.728516,84.5861969 133.728516,85.9690094 L133.728516,89.9240875 L132.708984,89.9240875 L132.708984,86.15065 C132.708984,85.166275 132.246094,84.6272125 131.308594,84.6272125 C130.347656,84.6272125 129.720703,85.3069 129.720703,86.33815 L129.720703,89.9240875 L128.701172,89.9240875 Z M137.548828,90.0295562 C135.861328,90.0295562 134.724609,88.8166656 134.724609,86.8772125 C134.724609,84.9319 135.861328,83.7248687 137.548828,83.7248687 C139.230469,83.7248687 140.367188,84.9319 140.367188,86.8772125 C140.367188,88.8166656 139.230469,90.0295562 137.548828,90.0295562 Z M137.548828,89.1330719 C138.626953,89.1330719 139.330078,88.3127594 139.330078,86.8772125 C139.330078,85.4416656 138.626953,84.6213531 137.548828,84.6213531 C136.470703,84.6213531 135.761719,85.4416656 135.761719,86.8772125 C135.761719,88.3127594 136.470703,89.1330719 137.548828,89.1330719 Z M144.181641,89.9240875 L144.181641,84.6682281 L143.332031,84.6682281 L143.332031,83.8303375 L144.181641,83.8303375 L144.181641,83.15065 C144.181641,81.978775 144.726562,81.4221344 145.851562,81.4221344 C146.080078,81.4221344 146.326172,81.4455719 146.472656,81.4690094 L146.472656,82.2951812 C146.349609,82.2776031 146.179688,82.260025 146.009766,82.260025 C145.458984,82.260025 145.195312,82.5529937 145.195312,83.1565094 L145.195312,83.8303375 L146.443359,83.8303375 L146.443359,84.6682281 L145.201172,84.6682281 L145.201172,89.9240875 L144.181641,89.9240875 Z M147.498047,89.9240875 L147.498047,83.8303375 L148.458984,83.8303375 L148.458984,84.8264312 L148.482422,84.8264312 C148.681641,84.1526031 149.244141,83.7248687 149.958984,83.7248687 C150.134766,83.7248687 150.287109,83.7541656 150.369141,83.7658844 L150.369141,84.7561187 C150.287109,84.7268219 150.070312,84.697525 149.824219,84.697525 C149.033203,84.697525 148.517578,85.2658844 148.517578,86.1272125 L148.517578,89.9240875 L147.498047,89.9240875 Z M151.248047,89.9240875 L151.248047,83.8303375 L152.267578,83.8303375 L152.267578,89.9240875 L151.248047,89.9240875 Z M151.757812,82.8049469 C151.412109,82.8049469 151.125,82.5178375 151.125,82.1721344 C151.125,81.8205719 151.412109,81.5393219 151.757812,81.5393219 C152.109375,81.5393219 152.396484,81.8205719 152.396484,82.1721344 C152.396484,82.5178375 152.109375,82.8049469 151.757812,82.8049469 Z M153.697266,89.9240875 L153.697266,81.4690094 L154.716797,81.4690094 L154.716797,89.9240875 L153.697266,89.9240875 Z M156.146484,89.9240875 L156.146484,81.4690094 L157.166016,81.4690094 L157.166016,89.9240875 L156.146484,89.9240875 Z M158.4375,85.5119781 C158.4375,84.4690094 159.369141,83.7248687 160.710938,83.7248687 C161.970703,83.7248687 162.896484,84.4748687 162.943359,85.5061187 L161.970703,85.5061187 C161.900391,84.9201812 161.425781,84.5569 160.675781,84.5569 C159.931641,84.5569 159.439453,84.9260406 159.439453,85.4592437 C159.439453,85.8811187 159.761719,86.1623687 160.453125,86.33815 L161.396484,86.5666656 C162.626953,86.8772125 163.072266,87.322525 163.072266,88.2190094 C163.072266,89.2795562 162.070312,90.0295562 160.646484,90.0295562 C159.310547,90.0295562 158.378906,89.3029937 158.273438,88.2248687 L159.292969,88.2248687 C159.404297,88.8576812 159.884766,89.197525 160.710938,89.197525 C161.537109,89.197525 162.046875,88.8459625 162.046875,88.2951812 C162.046875,87.8615875 161.794922,87.6272125 161.109375,87.4455719 L160.037109,87.1701812 C158.964844,86.8947906 158.4375,86.3440094 158.4375,85.5119781 Z" id="Clean-rooms-with-no" fill="#FFFFFF" mask="url(#mask-2)"></path>
                <path d="M42.9599719,133.916088 L39.7666125,133.916088 L39.7666125,125.461009 L42.9716906,125.461009 C44.4189563,125.461009 45.3974719,126.304759 45.3974719,127.570384 C45.3974719,128.449291 44.7529406,129.269603 43.9384875,129.416088 L43.9384875,129.462963 C45.086925,129.609447 45.8252063,130.418041 45.8252063,131.543041 C45.8252063,133.031322 44.7588,133.916088 42.9599719,133.916088 Z M40.8213,126.39265 L40.8213,129.105541 L42.4033313,129.105541 C43.6513781,129.105541 44.3310656,128.607494 44.3310656,127.693431 C44.3310656,126.855541 43.7568469,126.39265 42.7314563,126.39265 L40.8213,126.39265 Z M40.8213,132.984447 L42.8017688,132.984447 C44.0732531,132.984447 44.7412219,132.468822 44.7412219,131.490306 C44.7412219,130.511791 44.0498156,130.013744 42.7021594,130.013744 L40.8213,130.013744 L40.8213,132.984447 Z M48.8720813,133.154369 C49.8330188,133.154369 50.5713,132.480541 50.5713,131.601634 L50.5713,131.103588 L48.9423938,131.203197 C48.1220813,131.255931 47.6533313,131.619213 47.6533313,132.193431 C47.6533313,132.773509 48.1396594,133.154369 48.8720813,133.154369 Z M48.6435656,134.021556 C47.430675,134.021556 46.6162219,133.289134 46.6162219,132.193431 C46.6162219,131.150463 47.4189563,130.494213 48.8252063,130.412181 L50.5713,130.312572 L50.5713,129.802806 C50.5713,129.058666 50.0791125,128.613353 49.2353625,128.613353 C48.4502063,128.613353 47.9580188,128.982494 47.8291125,129.58015 L46.8447375,129.58015 C46.91505,128.525463 47.8173938,127.716869 49.2588,127.716869 C50.6884875,127.716869 51.5908313,128.490306 51.5908313,129.703197 L51.5908313,133.916088 L50.6240344,133.916088 L50.6240344,132.867259 L50.6005969,132.867259 C50.2373156,133.564525 49.4638781,134.021556 48.6435656,134.021556 Z M52.7802844,129.503978 C52.7802844,128.461009 53.711925,127.716869 55.0537219,127.716869 C56.3134875,127.716869 57.2392688,128.466869 57.2861438,129.498119 L56.3134875,129.498119 C56.243175,128.912181 55.7685656,128.5489 55.0185656,128.5489 C54.274425,128.5489 53.7822375,128.918041 53.7822375,129.451244 C53.7822375,129.873119 54.1045031,130.154369 54.7959094,130.33015 L55.7392688,130.558666 C56.9697375,130.869213 57.41505,131.314525 57.41505,132.211009 C57.41505,133.271556 56.4130969,134.021556 54.9892688,134.021556 C53.6533313,134.021556 52.7216906,133.294994 52.6162219,132.216869 L53.6357531,132.216869 C53.7470813,132.849681 54.22755,133.189525 55.0537219,133.189525 C55.8798938,133.189525 56.3896594,132.837963 56.3896594,132.287181 C56.3896594,131.853588 56.1377063,131.619213 55.4521594,131.437572 L54.3798938,131.162181 C53.3076281,130.886791 52.7802844,130.336009 52.7802844,129.503978 Z M58.5224719,133.916088 L58.5224719,127.822338 L59.5420031,127.822338 L59.5420031,133.916088 L58.5224719,133.916088 Z M59.0322375,126.796947 C58.6865344,126.796947 58.399425,126.509838 58.399425,126.164134 C58.399425,125.812572 58.6865344,125.531322 59.0322375,125.531322 C59.3838,125.531322 59.6709094,125.812572 59.6709094,126.164134 C59.6709094,126.509838 59.3838,126.796947 59.0322375,126.796947 Z M65.9814563,129.820384 L64.9853625,129.820384 C64.8388781,129.158275 64.3232531,128.613353 63.4267688,128.613353 C62.3720813,128.613353 61.6572375,129.4864 61.6572375,130.869213 C61.6572375,132.287181 62.3838,133.125072 63.4384875,133.125072 C64.2705188,133.125072 64.8154406,132.685619 64.9912219,131.953197 L65.993175,131.953197 C65.8349719,133.166088 64.8154406,134.021556 63.4326281,134.021556 C61.7451281,134.021556 60.6201281,132.832103 60.6201281,130.869213 C60.6201281,128.947338 61.7392688,127.716869 63.4209094,127.716869 C64.9443469,127.716869 65.85255,128.724681 65.9814563,129.820384 Z M72.4209094,134.021556 C71.5302844,134.021556 70.8330188,133.587963 70.4404406,132.884838 L70.4170031,132.884838 L70.4170031,133.916088 L69.4443469,133.916088 L69.4443469,125.461009 L70.4638781,125.461009 L70.4638781,128.841869 L70.4873156,128.841869 C70.868175,128.144603 71.5771594,127.716869 72.4384875,127.716869 C73.9736438,127.716869 75.0107531,128.959056 75.0107531,130.869213 C75.0107531,132.785228 73.9795031,134.021556 72.4209094,134.021556 Z M72.2216906,128.613353 C71.1904406,128.613353 70.4580188,129.515697 70.4580188,130.869213 C70.4580188,132.228588 71.1904406,133.125072 72.2216906,133.125072 C73.2998156,133.125072 73.9677844,132.263744 73.9677844,130.869213 C73.9677844,129.4864 73.2998156,128.613353 72.2216906,128.613353 Z M76.0420031,133.916088 L76.0420031,127.822338 L77.0029406,127.822338 L77.0029406,128.818431 L77.0263781,128.818431 C77.2255969,128.144603 77.7880969,127.716869 78.5029406,127.716869 C78.6787219,127.716869 78.8310656,127.746166 78.9130969,127.757884 L78.9130969,128.748119 C78.8310656,128.718822 78.6142688,128.689525 78.368175,128.689525 C77.5771594,128.689525 77.0615344,129.257884 77.0615344,130.119213 L77.0615344,133.916088 L76.0420031,133.916088 Z M81.8896594,128.601634 C80.9345813,128.601634 80.2666125,129.334056 80.2021594,130.347728 L83.5127063,130.347728 C83.4892688,129.328197 82.8505969,128.601634 81.8896594,128.601634 Z M83.4892688,132.169994 L84.4912219,132.169994 C84.3154406,133.2364 83.2841906,134.021556 81.9541125,134.021556 C80.2080188,134.021556 79.1474719,132.808666 79.1474719,130.89265 C79.1474719,129.000072 80.2255969,127.716869 81.9072375,127.716869 C83.5537219,127.716869 84.5673938,128.912181 84.5673938,130.757884 L84.5673938,131.144603 L80.1963,131.144603 L80.1963,131.203197 C80.1963,132.369213 80.8818469,133.136791 81.97755,133.136791 C82.7509875,133.136791 83.3193469,132.744213 83.4892688,132.169994 Z M87.60255,133.154369 C88.5634875,133.154369 89.3017688,132.480541 89.3017688,131.601634 L89.3017688,131.103588 L87.6728625,131.203197 C86.85255,131.255931 86.3838,131.619213 86.3838,132.193431 C86.3838,132.773509 86.8701281,133.154369 87.60255,133.154369 Z M87.3740344,134.021556 C86.1611438,134.021556 85.3466906,133.289134 85.3466906,132.193431 C85.3466906,131.150463 86.149425,130.494213 87.555675,130.412181 L89.3017688,130.312572 L89.3017688,129.802806 C89.3017688,129.058666 88.8095813,128.613353 87.9658313,128.613353 C87.180675,128.613353 86.6884875,128.982494 86.5595813,129.58015 L85.5752063,129.58015 C85.6455188,128.525463 86.5478625,127.716869 87.9892688,127.716869 C89.4189563,127.716869 90.3213,128.490306 90.3213,129.703197 L90.3213,133.916088 L89.3545031,133.916088 L89.3545031,132.867259 L89.3310656,132.867259 C88.9677844,133.564525 88.1943469,134.021556 87.3740344,134.021556 Z M92.6884875,130.529369 L95.3838,127.822338 L96.6201281,127.822338 L93.97755,130.453197 L96.7021594,133.916088 L95.5185656,133.916088 L93.2568469,131.08015 L92.6884875,131.619213 L92.6884875,133.916088 L91.6689563,133.916088 L91.6689563,125.461009 L92.6884875,125.461009 L92.6884875,130.529369 Z M97.7685656,133.916088 L97.7685656,128.660228 L96.9189563,128.660228 L96.9189563,127.822338 L97.7685656,127.822338 L97.7685656,127.14265 C97.7685656,125.970775 98.3134875,125.414134 99.4384875,125.414134 C99.6670031,125.414134 99.9130969,125.437572 100.059581,125.461009 L100.059581,126.287181 C99.9365344,126.269603 99.7666125,126.252025 99.5966906,126.252025 C99.0459094,126.252025 98.7822375,126.544994 98.7822375,127.148509 L98.7822375,127.822338 L100.030284,127.822338 L100.030284,128.660228 L98.7880969,128.660228 L98.7880969,133.916088 L97.7685656,133.916088 Z M102.743175,133.154369 C103.704113,133.154369 104.442394,132.480541 104.442394,131.601634 L104.442394,131.103588 L102.813488,131.203197 C101.993175,131.255931 101.524425,131.619213 101.524425,132.193431 C101.524425,132.773509 102.010753,133.154369 102.743175,133.154369 Z M102.514659,134.021556 C101.301769,134.021556 100.487316,133.289134 100.487316,132.193431 C100.487316,131.150463 101.29005,130.494213 102.6963,130.412181 L104.442394,130.312572 L104.442394,129.802806 C104.442394,129.058666 103.950206,128.613353 103.106456,128.613353 C102.3213,128.613353 101.829113,128.982494 101.700206,129.58015 L100.715831,129.58015 C100.786144,128.525463 101.688488,127.716869 103.129894,127.716869 C104.559581,127.716869 105.461925,128.490306 105.461925,129.703197 L105.461925,133.916088 L104.495128,133.916088 L104.495128,132.867259 L104.471691,132.867259 C104.108409,133.564525 103.334972,134.021556 102.514659,134.021556 Z M106.651378,129.503978 C106.651378,128.461009 107.583019,127.716869 108.924816,127.716869 C110.184581,127.716869 111.110363,128.466869 111.157238,129.498119 L110.184581,129.498119 C110.114269,128.912181 109.639659,128.5489 108.889659,128.5489 C108.145519,128.5489 107.653331,128.918041 107.653331,129.451244 C107.653331,129.873119 107.975597,130.154369 108.667003,130.33015 L109.610363,130.558666 C110.840831,130.869213 111.286144,131.314525 111.286144,132.211009 C111.286144,133.271556 110.284191,134.021556 108.860363,134.021556 C107.524425,134.021556 106.592784,133.294994 106.487316,132.216869 L107.506847,132.216869 C107.618175,132.849681 108.098644,133.189525 108.924816,133.189525 C109.750988,133.189525 110.260753,132.837963 110.260753,132.287181 C110.260753,131.853588 110.0088,131.619213 109.323253,131.437572 L108.250988,131.162181 C107.178722,130.886791 106.651378,130.336009 106.651378,129.503978 Z M112.668956,126.351634 L113.688488,126.351634 L113.688488,127.822338 L114.872081,127.822338 L114.872081,128.660228 L113.688488,128.660228 L113.688488,132.281322 C113.688488,132.837963 113.922863,133.089916 114.444347,133.089916 C114.561534,133.089916 114.795909,133.072338 114.866222,133.060619 L114.866222,133.916088 C114.743175,133.945384 114.461925,133.962963 114.221691,133.962963 C113.10255,133.962963 112.668956,133.505931 112.668956,132.334056 L112.668956,128.660228 L111.760753,128.660228 L111.760753,127.822338 L112.668956,127.822338 L112.668956,126.351634 Z M118.868175,130.587963 C118.868175,128.5489 119.407238,126.890697 120.532238,125.461009 L121.387706,125.461009 C120.555675,126.427806 119.905284,128.671947 119.905284,130.587963 C119.905284,132.503978 120.555675,134.748119 121.387706,135.714916 L120.532238,135.714916 C119.407238,134.285228 118.868175,132.627025 118.868175,130.587963 Z M123.497081,125.461009 L123.497081,130.880931 C123.497081,132.158275 124.334972,133.084056 125.799816,133.084056 C127.264659,133.084056 128.10255,132.158275 128.10255,130.880931 L128.10255,125.461009 L129.157238,125.461009 L129.157238,130.951244 C129.157238,132.755931 127.897472,134.056713 125.799816,134.056713 C123.702159,134.056713 122.442394,132.755931 122.442394,130.951244 L122.442394,125.461009 L123.497081,125.461009 Z M130.639659,133.916088 L130.639659,127.822338 L131.600597,127.822338 L131.600597,128.794994 L131.624034,128.794994 C131.963878,128.138744 132.614269,127.716869 133.557628,127.716869 C134.893566,127.716869 135.667003,128.578197 135.667003,129.961009 L135.667003,133.916088 L134.647472,133.916088 L134.647472,130.14265 C134.647472,129.158275 134.184581,128.619213 133.247081,128.619213 C132.286144,128.619213 131.659191,129.2989 131.659191,130.33015 L131.659191,133.916088 L130.639659,133.916088 Z M137.014659,133.916088 L137.014659,125.461009 L138.034191,125.461009 L138.034191,133.916088 L137.014659,133.916088 Z M139.463878,133.916088 L139.463878,127.822338 L140.483409,127.822338 L140.483409,133.916088 L139.463878,133.916088 Z M139.973644,126.796947 C139.627941,126.796947 139.340831,126.509838 139.340831,126.164134 C139.340831,125.812572 139.627941,125.531322 139.973644,125.531322 C140.325206,125.531322 140.612316,125.812572 140.612316,126.164134 C140.612316,126.509838 140.325206,126.796947 139.973644,126.796947 Z M141.860363,133.916088 L141.860363,127.822338 L142.8213,127.822338 L142.8213,128.794994 L142.844738,128.794994 C143.131847,128.150463 143.752941,127.716869 144.573253,127.716869 C145.405284,127.716869 146.020519,128.138744 146.284191,128.877025 L146.307628,128.877025 C146.647472,128.150463 147.362316,127.716869 148.217784,127.716869 C149.424816,127.716869 150.204113,128.502025 150.204113,129.709056 L150.204113,133.916088 L149.184581,133.916088 L149.184581,129.943431 C149.184581,129.1114 148.721691,128.619213 147.918956,128.619213 C147.110363,128.619213 146.542003,129.216869 146.542003,130.043041 L146.542003,133.916088 L145.522472,133.916088 L145.522472,129.832103 C145.522472,129.099681 145.030284,128.619213 144.274425,128.619213 C143.465831,128.619213 142.879894,129.252025 142.879894,130.095775 L142.879894,133.916088 L141.860363,133.916088 Z M151.551769,133.916088 L151.551769,127.822338 L152.5713,127.822338 L152.5713,133.916088 L151.551769,133.916088 Z M152.061534,126.796947 C151.715831,126.796947 151.428722,126.509838 151.428722,126.164134 C151.428722,125.812572 151.715831,125.531322 152.061534,125.531322 C152.413097,125.531322 152.700206,125.812572 152.700206,126.164134 C152.700206,126.509838 152.413097,126.796947 152.061534,126.796947 Z M154.276378,126.351634 L155.295909,126.351634 L155.295909,127.822338 L156.479503,127.822338 L156.479503,128.660228 L155.295909,128.660228 L155.295909,132.281322 C155.295909,132.837963 155.530284,133.089916 156.051769,133.089916 C156.168956,133.089916 156.403331,133.072338 156.473644,133.060619 L156.473644,133.916088 C156.350597,133.945384 156.069347,133.962963 155.829113,133.962963 C154.709972,133.962963 154.276378,133.505931 154.276378,132.334056 L154.276378,128.660228 L153.368175,128.660228 L153.368175,127.822338 L154.276378,127.822338 L154.276378,126.351634 Z M159.831066,128.601634 C158.875988,128.601634 158.208019,129.334056 158.143566,130.347728 L161.454113,130.347728 C161.430675,129.328197 160.792003,128.601634 159.831066,128.601634 Z M161.430675,132.169994 L162.432628,132.169994 C162.256847,133.2364 161.225597,134.021556 159.895519,134.021556 C158.149425,134.021556 157.088878,132.808666 157.088878,130.89265 C157.088878,129.000072 158.167003,127.716869 159.848644,127.716869 C161.495128,127.716869 162.5088,128.912181 162.5088,130.757884 L162.5088,131.144603 L158.137706,131.144603 L158.137706,131.203197 C158.137706,132.369213 158.823253,133.136791 159.918956,133.136791 C160.692394,133.136791 161.260753,132.744213 161.430675,132.169994 Z M165.842784,134.021556 C164.29005,134.021556 163.235363,132.779369 163.235363,130.869213 C163.235363,128.959056 164.284191,127.716869 165.819347,127.716869 C166.692394,127.716869 167.395519,128.144603 167.7588,128.812572 L167.782238,128.812572 L167.782238,125.461009 L168.801769,125.461009 L168.801769,133.916088 L167.829113,133.916088 L167.829113,132.884838 L167.811534,132.884838 C167.418956,133.587963 166.721691,134.021556 165.842784,134.021556 Z M166.036144,128.613353 C164.958019,128.613353 164.278331,129.492259 164.278331,130.869213 C164.278331,132.252025 164.958019,133.125072 166.036144,133.125072 C167.084972,133.125072 167.788097,132.234447 167.788097,130.869213 C167.788097,129.509838 167.084972,128.613353 166.036144,128.613353 Z M172.270519,130.587963 C172.270519,133.265697 171.379894,134.730541 170.606456,135.714916 L169.750988,135.714916 C170.266613,135.117259 171.233409,133.242259 171.233409,130.587963 C171.233409,127.933666 170.260753,126.052806 169.750988,125.461009 L170.606456,125.461009 C171.379894,126.445384 172.270519,127.910228 172.270519,130.587963 Z" id="Basic-breakfast-(Unl" fill="#FFFFFF" mask="url(#mask-2)"></path>
                <path d="M40.8213,148.457009 L40.8213,153.876931 C40.8213,155.154275 41.6591906,156.080056 43.1240344,156.080056 C44.5888781,156.080056 45.4267688,155.154275 45.4267688,153.876931 L45.4267688,148.457009 L46.4814563,148.457009 L46.4814563,153.947244 C46.4814563,155.751931 45.2216906,157.052713 43.1240344,157.052713 C41.0263781,157.052713 39.7666125,155.751931 39.7666125,153.947244 L39.7666125,148.457009 L40.8213,148.457009 Z M47.9638781,156.912088 L47.9638781,150.818338 L48.9248156,150.818338 L48.9248156,151.790994 L48.9482531,151.790994 C49.2880969,151.134744 49.9384875,150.712869 50.8818469,150.712869 C52.2177844,150.712869 52.9912219,151.574197 52.9912219,152.957009 L52.9912219,156.912088 L51.9716906,156.912088 L51.9716906,153.13865 C51.9716906,152.154275 51.5088,151.615213 50.5713,151.615213 C49.6103625,151.615213 48.9834094,152.2949 48.9834094,153.32615 L48.9834094,156.912088 L47.9638781,156.912088 Z M57.3154406,157.017556 C56.4248156,157.017556 55.72755,156.583963 55.3349719,155.880838 L55.3115344,155.880838 L55.3115344,156.912088 L54.3388781,156.912088 L54.3388781,148.457009 L55.3584094,148.457009 L55.3584094,151.837869 L55.3818469,151.837869 C55.7627063,151.140603 56.4716906,150.712869 57.3330188,150.712869 C58.868175,150.712869 59.9052844,151.955056 59.9052844,153.865213 C59.9052844,155.781228 58.8740344,157.017556 57.3154406,157.017556 Z M57.1162219,151.609353 C56.0849719,151.609353 55.35255,152.511697 55.35255,153.865213 C55.35255,155.224588 56.0849719,156.121072 57.1162219,156.121072 C58.1943469,156.121072 58.8623156,155.259744 58.8623156,153.865213 C58.8623156,152.4824 58.1943469,151.609353 57.1162219,151.609353 Z M63.3798938,151.597634 C62.4248156,151.597634 61.7568469,152.330056 61.6923938,153.343728 L65.0029406,153.343728 C64.9795031,152.324197 64.3408313,151.597634 63.3798938,151.597634 Z M64.9795031,155.165994 L65.9814563,155.165994 C65.805675,156.2324 64.774425,157.017556 63.4443469,157.017556 C61.6982531,157.017556 60.6377063,155.804666 60.6377063,153.88865 C60.6377063,151.996072 61.7158313,150.712869 63.3974719,150.712869 C65.0439563,150.712869 66.0576281,151.908181 66.0576281,153.753884 L66.0576281,154.140603 L61.6865344,154.140603 L61.6865344,154.199197 C61.6865344,155.365213 62.3720813,156.132791 63.4677844,156.132791 C64.2412219,156.132791 64.8095813,155.740213 64.9795031,155.165994 Z M69.0927844,156.150369 C70.0537219,156.150369 70.7920031,155.476541 70.7920031,154.597634 L70.7920031,154.099588 L69.1630969,154.199197 C68.3427844,154.251931 67.8740344,154.615213 67.8740344,155.189431 C67.8740344,155.769509 68.3603625,156.150369 69.0927844,156.150369 Z M68.8642688,157.017556 C67.6513781,157.017556 66.836925,156.285134 66.836925,155.189431 C66.836925,154.146463 67.6396594,153.490213 69.0459094,153.408181 L70.7920031,153.308572 L70.7920031,152.798806 C70.7920031,152.054666 70.2998156,151.609353 69.4560656,151.609353 C68.6709094,151.609353 68.1787219,151.978494 68.0498156,152.57615 L67.0654406,152.57615 C67.1357531,151.521463 68.0380969,150.712869 69.4795031,150.712869 C70.9091906,150.712869 71.8115344,151.486306 71.8115344,152.699197 L71.8115344,156.912088 L70.8447375,156.912088 L70.8447375,155.863259 L70.8213,155.863259 C70.4580188,156.560525 69.6845813,157.017556 68.8642688,157.017556 Z M73.4345813,149.347634 L74.4541125,149.347634 L74.4541125,150.818338 L75.6377063,150.818338 L75.6377063,151.656228 L74.4541125,151.656228 L74.4541125,155.277322 C74.4541125,155.833963 74.6884875,156.085916 75.2099719,156.085916 C75.3271594,156.085916 75.5615344,156.068338 75.6318469,156.056619 L75.6318469,156.912088 C75.5088,156.941384 75.22755,156.958963 74.9873156,156.958963 C73.868175,156.958963 73.4345813,156.501931 73.4345813,155.330056 L73.4345813,151.656228 L72.5263781,151.656228 L72.5263781,150.818338 L73.4345813,150.818338 L73.4345813,149.347634 Z M78.6142688,156.150369 C79.5752063,156.150369 80.3134875,155.476541 80.3134875,154.597634 L80.3134875,154.099588 L78.6845813,154.199197 C77.8642688,154.251931 77.3955188,154.615213 77.3955188,155.189431 C77.3955188,155.769509 77.8818469,156.150369 78.6142688,156.150369 Z M78.3857531,157.017556 C77.1728625,157.017556 76.3584094,156.285134 76.3584094,155.189431 C76.3584094,154.146463 77.1611438,153.490213 78.5673938,153.408181 L80.3134875,153.308572 L80.3134875,152.798806 C80.3134875,152.054666 79.8213,151.609353 78.97755,151.609353 C78.1923938,151.609353 77.7002063,151.978494 77.5713,152.57615 L76.586925,152.57615 C76.6572375,151.521463 77.5595813,150.712869 79.0009875,150.712869 C80.430675,150.712869 81.3330188,151.486306 81.3330188,152.699197 L81.3330188,156.912088 L80.3662219,156.912088 L80.3662219,155.863259 L80.3427844,155.863259 C79.9795031,156.560525 79.2060656,157.017556 78.3857531,157.017556 Z M85.6572375,157.017556 C84.7666125,157.017556 84.0693469,156.583963 83.6767688,155.880838 L83.6533313,155.880838 L83.6533313,156.912088 L82.680675,156.912088 L82.680675,148.457009 L83.7002063,148.457009 L83.7002063,151.837869 L83.7236438,151.837869 C84.1045031,151.140603 84.8134875,150.712869 85.6748156,150.712869 C87.2099719,150.712869 88.2470813,151.955056 88.2470813,153.865213 C88.2470813,155.781228 87.2158313,157.017556 85.6572375,157.017556 Z M85.4580188,151.609353 C84.4267688,151.609353 83.6943469,152.511697 83.6943469,153.865213 C83.6943469,155.224588 84.4267688,156.121072 85.4580188,156.121072 C86.5361438,156.121072 87.2041125,155.259744 87.2041125,153.865213 C87.2041125,152.4824 86.5361438,151.609353 85.4580188,151.609353 Z M89.3310656,156.912088 L89.3310656,148.457009 L90.3505969,148.457009 L90.3505969,156.912088 L89.3310656,156.912088 Z M94.1709094,151.597634 C93.2158313,151.597634 92.5478625,152.330056 92.4834094,153.343728 L95.7939563,153.343728 C95.7705188,152.324197 95.1318469,151.597634 94.1709094,151.597634 Z M95.7705188,155.165994 L96.7724719,155.165994 C96.5966906,156.2324 95.5654406,157.017556 94.2353625,157.017556 C92.4892688,157.017556 91.4287219,155.804666 91.4287219,153.88865 C91.4287219,151.996072 92.5068469,150.712869 94.1884875,150.712869 C95.8349719,150.712869 96.8486438,151.908181 96.8486438,153.753884 L96.8486438,154.140603 L92.47755,154.140603 L92.47755,154.199197 C92.47755,155.365213 93.1630969,156.132791 94.2588,156.132791 C95.0322375,156.132791 95.6005969,155.740213 95.7705188,155.165994 Z M103.979503,156.912088 L102.936534,156.912088 L99.8193469,148.457009 L100.926769,148.457009 L103.440441,155.628884 L103.475597,155.628884 L105.989269,148.457009 L107.096691,148.457009 L103.979503,156.912088 Z M109.036144,156.150369 C109.997081,156.150369 110.735363,155.476541 110.735363,154.597634 L110.735363,154.099588 L109.106456,154.199197 C108.286144,154.251931 107.817394,154.615213 107.817394,155.189431 C107.817394,155.769509 108.303722,156.150369 109.036144,156.150369 Z M108.807628,157.017556 C107.594738,157.017556 106.780284,156.285134 106.780284,155.189431 C106.780284,154.146463 107.583019,153.490213 108.989269,153.408181 L110.735363,153.308572 L110.735363,152.798806 C110.735363,152.054666 110.243175,151.609353 109.399425,151.609353 C108.614269,151.609353 108.122081,151.978494 107.993175,152.57615 L107.0088,152.57615 C107.079113,151.521463 107.981456,150.712869 109.422863,150.712869 C110.85255,150.712869 111.754894,151.486306 111.754894,152.699197 L111.754894,156.912088 L110.788097,156.912088 L110.788097,155.863259 L110.764659,155.863259 C110.401378,156.560525 109.627941,157.017556 108.807628,157.017556 Z M113.10255,156.912088 L113.10255,148.457009 L114.122081,148.457009 L114.122081,156.912088 L113.10255,156.912088 Z M120.502941,150.818338 L120.502941,156.912088 L119.536144,156.912088 L119.536144,155.921853 L119.512706,155.921853 C119.149425,156.624978 118.516613,157.017556 117.579113,157.017556 C116.249034,157.017556 115.469738,156.156228 115.469738,154.773416 L115.469738,150.818338 L116.489269,150.818338 L116.489269,154.591775 C116.489269,155.582009 116.952159,156.115213 117.895519,156.115213 C118.885753,156.115213 119.483409,155.435525 119.483409,154.398416 L119.483409,150.818338 L120.502941,150.818338 Z M124.264659,151.597634 C123.309581,151.597634 122.641613,152.330056 122.577159,153.343728 L125.887706,153.343728 C125.864269,152.324197 125.225597,151.597634 124.264659,151.597634 Z M125.864269,155.165994 L126.866222,155.165994 C126.690441,156.2324 125.659191,157.017556 124.329113,157.017556 C122.583019,157.017556 121.522472,155.804666 121.522472,153.88865 C121.522472,151.996072 122.600597,150.712869 124.282238,150.712869 C125.928722,150.712869 126.942394,151.908181 126.942394,153.753884 L126.942394,154.140603 L122.5713,154.140603 L122.5713,154.199197 C122.5713,155.365213 123.256847,156.132791 124.35255,156.132791 C125.125988,156.132791 125.694347,155.740213 125.864269,155.165994 Z" id="Unbeatable-Value" fill="#FFFFFF" mask="url(#mask-2)"></path>
                <g id="Group-123" mask="url(#mask-2)" fill="#FFFFFF">
                    <g transform="translate(26.000000, 85.427000)">
                        <path d="M2.9482,1.5469 C2.9482,2.3479 2.2992,2.9969 1.4982,2.9969 C0.6972,2.9969 0.0482,2.3479 0.0482,1.5469 C0.0482,0.7459 0.6972,0.0969 1.4982,0.0969 C2.2992,0.0969 2.9482,0.7459 2.9482,1.5469" id="Fill-115"></path>
                        <path d="M2.9482,23.563 C2.9482,24.364 2.2992,25.013 1.4982,25.013 C0.6972,25.013 0.0482,24.364 0.0482,23.563 C0.0482,22.762 0.6972,22.113 1.4982,22.113 C2.2992,22.113 2.9482,22.762 2.9482,23.563" id="Fill-117"></path>
                        <path d="M2.9482,45.5792 C2.9482,46.3802 2.2992,47.0292 1.4982,47.0292 C0.6972,47.0292 0.0482,46.3802 0.0482,45.5792 C0.0482,44.7782 0.6972,44.1292 1.4982,44.1292 C2.2992,44.1292 2.9482,44.7782 2.9482,45.5792" id="Fill-119"></path>
                        <path d="M2.9482,67.5953 C2.9482,68.3963 2.2992,69.0453 1.4982,69.0453 C0.6972,69.0453 0.0482,68.3963 0.0482,67.5953 C0.0482,66.7943 0.6972,66.1453 1.4982,66.1453 C2.2992,66.1453 2.9482,66.7943 2.9482,67.5953" id="Fill-121"></path>
                    </g>
                </g>
                <g id="Group-4" mask="url(#mask-2)">
                    <g transform="translate(26.000000, 16.000000)">
                        <path d="M0.0479,6.2947 C7.9129,0.7677 18.7539,2.6807 24.2799,10.5887 C29.8079,18.4967 27.8949,29.2947 19.9859,34.8217 L0.0479,6.2947 Z" id="Fill-124" fill="#FFBF00"></path>
                        <path d="M44.2197,39.0731 C36.3547,44.6001 25.5137,42.6871 19.9867,34.7791 C14.4597,26.8721 16.3727,16.0731 24.2807,10.5461 L44.2197,39.0731 Z" id="Fill-126" fill="#58268E"></path>
                        <path d="M5.7441,44.7701 C0.2181,36.9051 2.1311,26.0641 10.0381,20.5371 C17.9461,15.0101 28.7441,16.9231 34.2711,24.8311 L5.7441,44.7701 Z" id="Fill-128" fill="#82C51B"></path>
                        <path d="M10.0381,20.5369 C10.0381,20.5369 13.7371,26.7869 17.3931,28.8699 C21.2621,31.0799 26.5341,30.2299 26.5341,30.2299 L34.2711,24.8309 L10.0381,20.5369 Z" id="Fill-130" fill="#53A521"></path>
                        <path d="M38.5225,0.598 C44.0495,8.463 42.1365,19.304 34.2285,24.831 C26.3215,30.358 15.5225,28.445 9.9965,20.537 L38.5225,0.598 Z" id="Fill-132" fill="#01703C"></path>
                        <path d="M10.0381,20.5369 L21.8991,7.8249 C21.8991,7.8249 22.7081,8.5909 23.2181,9.2279 C23.7271,9.8659 24.2801,10.5889 24.2801,10.5889 L10.0381,20.5369 Z" id="Fill-134" fill="#FF9100"></path>
                        <path d="M34.2715,24.8309 L22.3255,37.4999 C22.3255,37.4999 21.4745,36.6499 21.1345,36.2249 C20.7945,35.7999 20.0295,34.8219 20.0295,34.8219 L34.2715,24.8309 Z" id="Fill-136" fill="#3E1B64"></path>
                        <path d="M22.3252,18.9214 C23.5692,18.9214 24.5782,19.9304 24.5782,21.1744 C24.5782,22.4194 23.5692,23.4284 22.3252,23.4284 C21.0812,23.4284 20.0712,22.4194 20.0712,21.1744 C20.0712,19.9304 21.0812,18.9214 22.3252,18.9214" id="Fill-138" fill="#FFFFFF"></path>
                        <path d="M155.7764,28.1895 L155.9464,28.1895 L156.0314,28.1895 L156.1164,28.1895 C156.7974,28.2745 157.2214,28.6575 157.2214,29.0825 C157.2214,29.4225 156.9234,29.7625 155.9894,29.7625 L153.6934,29.7625 C153.9914,28.8275 154.7554,28.1895 155.7764,28.1895 M155.7764,33.3335 C154.7554,33.3335 153.9054,32.6965 153.6084,31.6335 L155.6484,31.6335 L156.4564,31.6335 C157.8594,31.6335 159.2624,30.7825 159.2624,29.1675 C159.2624,28.0625 158.5824,27.0845 157.5614,26.6165 C157.0944,26.4035 156.5844,26.2765 156.0314,26.2765 L155.7764,26.2765 C153.3524,26.2765 151.3974,28.3175 151.3974,30.7825 C151.3974,33.2485 153.3954,35.2895 155.8184,35.2895 C157.0514,35.2895 158.0294,34.9065 158.7954,34.2695 L157.3064,32.8235 C156.8384,33.1635 156.3294,33.3335 155.7764,33.3335" id="Fill-140" fill="#FFFFFF"></path>
                        <path d="M164.1514,28.1895 L164.3214,28.1895 L164.4064,28.1895 L164.4914,28.1895 C165.1724,28.2745 165.5964,28.6575 165.5964,29.0825 C165.5964,29.4225 165.2994,29.7625 164.3644,29.7625 L162.0254,29.7625 C162.3664,28.8275 163.1304,28.1895 164.1514,28.1895 M164.1514,33.3335 C163.1304,33.3335 162.2814,32.6965 161.9834,31.6335 L164.0244,31.6335 L164.8324,31.6335 C166.2344,31.6335 167.6374,30.7825 167.6374,29.1675 C167.6374,28.0625 166.9574,27.0845 165.9374,26.6165 C165.4694,26.4035 164.9594,26.2765 164.4064,26.2765 L164.1514,26.2765 C161.7284,26.2765 159.7724,28.3175 159.7724,30.7825 C159.7724,33.2485 161.7704,35.2895 164.1944,35.2895 C165.4264,35.2895 166.4054,34.9065 167.1704,34.2695 L165.6814,32.8235 C165.2564,33.1635 164.7044,33.3335 164.1514,33.3335" id="Fill-142" fill="#FFFFFF"></path>
                        <path d="M150.7598,26.4463 C149.7388,26.4463 148.8468,26.9563 148.2508,27.7643 C147.9108,26.9993 147.1458,26.4463 146.2528,26.4463 L146.2528,28.6573 L146.2528,35.0343 L148.4638,35.0343 L148.4638,30.7823 C148.4638,29.3373 149.0598,28.6143 150.4198,28.6143 L151.3978,28.6143 L151.3978,26.4463 L150.7598,26.4463 Z" id="Fill-144" fill="#FFFFFF"></path>
                        <path d="M172.9092,33.2061 C171.6772,33.2061 170.6982,32.1011 170.6982,30.7831 C170.6982,29.4221 171.6772,28.3171 172.9092,28.3171 C174.1422,28.3171 175.1202,29.3801 175.1202,30.7831 C175.1202,32.1431 174.1422,33.2061 172.9092,33.2061 M173.2502,26.2761 C172.2712,26.2761 171.3792,26.6591 170.7412,27.2971 L170.7412,24.2781 L168.5302,24.2781 L168.5302,35.0771 C169.3382,35.0771 170.0182,34.6521 170.4012,34.0561 C171.1242,34.9071 172.2292,35.2891 173.1642,35.2891 L173.2072,35.2891 L173.2502,35.2891 C175.5032,35.2891 177.3312,33.3341 177.3312,30.8251 C177.3312,28.2321 175.5032,26.2761 173.2502,26.2761" id="Fill-146" fill="#FFFFFF"></path>
                        <path d="M182.3896,28.3172 C181.0296,28.3172 179.9666,29.4222 179.9666,30.7402 C179.9666,32.0582 181.0726,33.1632 182.3896,33.1632 C183.7076,33.1632 184.8136,32.0582 184.8136,30.7402 C184.8136,29.4222 183.7506,28.3172 182.3896,28.3172 M186.8966,30.8252 C186.8546,33.3342 184.8136,35.2892 182.3046,35.2472 C179.7966,35.2042 177.8406,33.1632 177.8836,30.6552 C177.9256,28.1472 179.9666,26.1912 182.4746,26.2342 C184.9836,26.2762 186.9396,28.3592 186.8966,30.8252" id="Fill-148" fill="#FFFFFF"></path>
                        <path d="M142.4268,31.4207 L142.4268,28.6577 L142.4268,28.4447 L142.4268,26.4887 L142.4268,24.2777 L140.2588,24.2777 L140.2588,26.4887 L140.2588,28.6577 L140.2588,31.4207 C140.2588,33.7587 141.5758,35.2467 144.0848,34.9917 L144.0848,32.9937 C142.9798,33.0357 142.4268,32.6107 142.4268,31.4207" id="Fill-150" fill="#FFFFFF"></path>
                        <polygon id="Fill-152" fill="#FFFFFF" points="140.259 30.825 142.427 30.825 142.427 24.278 140.259 24.278"></polygon>
                        <path d="M140.2588,30.8255 L140.2588,28.6575 C141.4488,28.6575 142.4268,29.6355 142.4268,30.8255 L140.2588,30.8255 Z" id="Fill-154" fill="#FFFFFF"></path>
                        <path d="M144.6377,28.6573 L142.4697,28.6573 C142.4697,27.4673 143.4477,26.4893 144.6377,26.4893 L144.6377,28.6573 Z" id="Fill-155" fill="#FFFFFF"></path>
                        <path d="M138.0908,28.6146 C140.4718,28.6146 142.4268,26.6586 142.4268,24.2786 L140.2588,24.2786 C140.2588,25.4686 139.2808,26.4466 138.0908,26.4466" id="Fill-156" fill="#FFFFFF"></path>
                        <polyline id="Fill-157" fill="#FFFFFF" points="138.0908 26.4463 144.6378 26.4463 144.6378 28.6143 138.0908 28.6143"></polyline>
                        <path d="M137.0273,30.7403 C137.0273,33.2913 134.9443,35.3743 132.3933,35.3743 C129.8423,35.3743 127.7593,33.2913 127.7593,30.7403 C127.7593,28.1893 129.8423,26.1063 132.3933,26.1063 C134.9873,26.1063 137.0273,28.1893 137.0273,30.7403" id="Fill-158" fill="#FFBF00"></path>
                        <path d="M131.8838,31.0379 C131.8838,30.4429 131.6708,30.1029 131.3308,30.1029 C130.9478,30.1029 130.6508,30.5279 130.6508,31.0799 C130.6508,31.6329 130.9898,31.9729 131.3308,31.9729 C131.6708,31.9729 131.8838,31.6329 131.8838,31.0379 Z M130.1408,28.9549 L129.7578,28.9549 L129.7578,28.5719 L130.6508,28.5719 L130.6508,30.3149 C130.8208,29.9749 131.1608,29.7629 131.4578,29.7629 C131.7558,29.7629 131.9258,29.8479 132.0958,30.0179 C132.3088,30.2299 132.4368,30.5699 132.4368,31.0379 C132.4368,31.4209 132.3088,31.8029 132.0958,32.0589 C131.9258,32.2279 131.6708,32.3559 131.4158,32.3559 C131.0328,32.3559 130.7788,32.1429 130.6088,31.8459 L130.4388,32.3129 L130.1408,32.3129 L130.1408,28.9549 Z" id="Fill-159" fill="#FFFFFF"></path>
                        <path d="M133.3711,32.6961 C133.3711,32.7381 133.3291,32.8231 133.3291,32.8661 C133.5421,32.8231 133.6691,32.6961 133.8391,32.2711 L132.9891,30.1881 L132.6481,30.1881 L132.6481,29.8471 L133.9671,29.8471 L133.9671,30.1881 L133.5421,30.1881 L134.1371,31.7181 L134.7311,30.1881 L134.3921,30.1881 L134.3921,29.8471 L135.4121,29.8471 L135.4121,30.1881 L135.1141,30.1881 L134.2651,32.2281 C133.9241,32.9941 133.6271,33.1641 133.2441,33.1641 C132.9461,33.1641 132.7331,32.9941 132.7331,32.7381 C132.7331,32.5681 132.8611,32.3981 133.0741,32.3981 C133.2441,32.3981 133.3711,32.5261 133.3711,32.6961" id="Fill-160" fill="#FFFFFF"></path>
                        <polygon id="Fill-161" fill="#999999" points="135.8369 13.3096 135.8369 21.4296 134.8169 21.4296 134.8169 17.6456 130.3529 17.6456 130.3529 21.4296 129.3749 21.4296 129.3749 13.3096 130.3529 13.3096 130.3529 16.7106 134.8169 16.7106 134.8169 13.3096"></polygon>
                        <path d="M147.0186,17.3484 C147.0186,15.4774 145.7006,14.0754 143.9566,14.0754 C142.2996,14.0754 140.8966,15.5204 140.8966,17.3484 C140.8966,19.2194 142.2566,20.6224 143.9566,20.6224 C145.6586,20.6224 147.0186,19.1764 147.0186,17.3484 M148.0396,17.3484 C148.0396,19.7294 146.2526,21.5994 143.9996,21.5994 C141.7896,21.5994 139.9606,19.7294 139.9606,17.3484 C139.9606,14.9674 141.7476,13.1394 143.9996,13.1394 C146.2526,13.1394 148.0396,14.9254 148.0396,17.3484" id="Fill-162" fill="#999999"></path>
                        <polygon id="Fill-163" fill="#999999" points="154.458 14.2874 154.458 21.4724 153.48 21.4724 153.48 14.2874 150.93 14.2874 150.93 13.3094 157.052 13.3094 157.052 14.2454 154.458 14.2454"></polygon>
                        <polygon id="Fill-164" fill="#999999" points="166.7021 13.3096 166.7021 14.2446 161.8981 14.2446 161.8981 16.7106 166.2341 16.7106 166.2341 17.6456 161.8981 17.6456 161.8981 20.4516 166.7021 20.4516 166.7021 21.4296 160.8781 21.4296 160.8781 13.3096"></polygon>
                        <polygon id="Fill-165" fill="#999999" points="176.0557 21.4722 170.8687 21.4722 170.8687 13.3092 171.8467 13.3092 171.8467 20.4942 176.0127 20.4942 176.0127 21.4722"></polygon>
                        <path d="M182.4326,21.5999 C180.5616,21.5999 179.3286,20.4949 179.3286,18.8789 L180.3496,18.8789 C180.3496,19.9849 181.1996,20.6649 182.4326,20.6649 C183.8356,20.6649 184.5156,20.0689 184.5156,19.1769 C184.5156,18.4959 184.2176,18.0289 182.4326,17.7309 C180.6476,17.4329 179.5836,16.8379 179.5836,15.4779 C179.5836,14.0749 180.6896,13.1819 182.4326,13.1819 C184.2176,13.1819 185.3236,14.1599 185.3236,15.7329 L184.3026,15.7329 C184.3026,14.7979 183.6646,14.1599 182.4326,14.1599 C181.1996,14.1599 180.6046,14.7129 180.6046,15.4779 C180.6046,16.2009 180.9876,16.5409 182.6456,16.8379 C184.4306,17.1789 185.5366,17.6889 185.5366,19.2189 C185.4936,20.7499 184.2606,21.5999 182.4326,21.5999" id="Fill-166" fill="#999999"></path>
                        <path d="M84.9482,13.6922 C82.4822,13.6922 80.1862,14.9672 78.8262,16.8812 C77.9752,14.9672 76.1052,13.6502 73.8942,13.6502 L73.8942,19.0912 L73.8942,34.7792 L79.2942,34.7792 L79.2942,24.3632 C79.2942,20.8342 80.7812,19.0492 84.0552,19.0492 L86.4782,19.0492 L86.4782,13.6922 L84.9482,13.6922 Z" id="Fill-167" fill="#FFFFFF"></path>
                        <path d="M116.834,24.1932 C116.834,27.6372 114.41,30.2732 111.435,30.2732 C108.458,30.2732 106.035,27.5522 106.035,24.1932 C106.035,20.9202 108.458,18.2412 111.435,18.2412 C114.41,18.2412 116.834,20.8342 116.834,24.1932 M122.275,24.2352 C122.275,18.0282 117.769,13.2672 112.242,13.2672 L112.157,13.2672 L112.029,13.2672 C109.648,13.2672 106.971,14.2452 105.228,16.2862 C104.249,14.7552 102.592,13.7352 100.636,13.7352 L100.636,40.2632 L106.077,40.2632 L106.077,32.8232 C107.693,34.3962 109.861,35.2892 112.242,35.2892 C117.769,35.2472 122.275,30.4852 122.275,24.2352" id="Fill-168" fill="#FFFFFF"></path>
                        <path d="M64.499,25.8514 L64.499,19.0494 L64.499,18.4964 L64.499,18.4544 L64.499,13.7774 L64.499,13.7344 L64.499,8.3354 L59.143,8.3354 L59.143,13.7344 L59.143,19.0494 L59.143,25.8084 C59.143,31.5054 62.373,35.2044 68.495,34.5664 L68.495,29.7204 C65.859,29.8474 64.499,28.7424 64.499,25.8514" id="Fill-169" fill="#FFFFFF"></path>
                        <polygon id="Fill-170" fill="#FFFFFF" points="59.143 24.364 64.499 24.364 64.499 8.336 59.143 8.336"></polygon>
                        <path d="M59.1426,24.3633 L59.1426,19.0063 C62.0756,19.0063 64.4986,21.3873 64.4986,24.3633 L59.1426,24.3633 Z" id="Fill-171" fill="#FFFFFF"></path>
                        <path d="M69.8555,19.0064 L64.4995,19.0064 C64.4995,16.0734 66.8795,13.6494 69.8555,13.6494 L69.8555,19.0064 Z" id="Fill-172" fill="#FFFFFF"></path>
                        <path d="M53.8281,19.0064 C59.6941,19.0064 64.4991,14.2454 64.4991,8.3354 L59.1421,8.3354 C59.0991,11.2694 56.7621,13.6074 53.8281,13.6494" id="Fill-173" fill="#FFFFFF"></path>
                        <polyline id="Fill-174" fill="#FFFFFF" points="53.8281 13.6497 69.8551 13.6497 69.8551 19.0067 53.8281 19.0067"></polyline>
                        <polygon id="Fill-175" fill="#FFFFFF" points="90.433 34.779 95.832 34.779 95.832 13.735 90.433 13.735"></polygon>
                    </g>
                </g>
            </g>
        </g>
    </g>
</svg>