<svg xmlns="http://www.w3.org/2000/svg" xmlns:xlink="http://www.w3.org/1999/xlink" width="58" height="58" viewBox="0 0 58 58">
    <defs>
        <circle id="a" cx="28" cy="28" r="28"/>
    </defs>
    <g fill="none" fill-rule="evenodd" transform="translate(1 1)">
        <mask id="b" fill="#fff">
            <use xlink:href="#a"/>
        </mask>
        <use fill="#E9FFF2" stroke="#0C893D" stroke-width=".5" xlink:href="#a"/>
        <g mask="url(#b)">
            <path fill="#8CDBAB" d="M40.387 61.432l-7.006-5.46v-.522h1.138l7.678 5.982h-1.81M13.902 61.432l7.678-5.982h1.138v.522l-7.007 5.46h-1.809M11.66 56.3v-.85h1.09l-1.09.85M11.66 59.034l4.601-3.584h1.81l-6.412 4.994v-1.41M43.347 55.45h1.093v.85l-1.093-.85M39.838 55.45l4.602 3.584v1.41l-6.412-4.994h1.81M29.13 44.577h14.217v-2.663H29.129zM40.932 38.508H32.6a.261.261 0 0 0-.26.262c0 .144.116.262.26.262h9.425v2.358h-9.164v-.96a.262.262 0 0 0-.26-.263h-1.26V39.6a.261.261 0 0 0-.26-.262h-1.605v-.567a.261.261 0 0 0-.26-.262h-.14v-2.45h11.856v2.45M38.65 32.843h-6.327a.261.261 0 0 0-.26.262.26.26 0 0 0 .26.262h7.36v2.166h-7.126v-.879a.262.262 0 0 0-.26-.262H31.14v-.512a.261.261 0 0 0-.26-.262H29.4v-.513a.262.262 0 0 0-.26-.262h-.17v-2.038h9.68v2.038M37.081 27.965h-5.374a.261.261 0 0 0-.26.262c0 .145.116.262.26.262h6.136v1.792h-5.876v-.72a.26.26 0 0 0-.26-.262h-.961v-.405a.261.261 0 0 0-.26-.262h-1.239v-.405a.261.261 0 0 0-.26-.262h-.182v-1.4h8.276v1.4M30.796 24.301a.26.26 0 0 0-.26.262.26.26 0 0 0 .26.262h5.602v1.216h-5.341v-.476a.261.261 0 0 0-.26-.262h-.656v-.24a.262.262 0 0 0-.26-.261h-.866v-.239a.26.26 0 0 0-.26-.262h-.026V23.2h7.108v1.102h-5.04M30.371 21.205a.261.261 0 0 0-.26.262c0 .145.116.262.26.262h5.033v.946h-4.772v-.362a.262.262 0 0 0-.26-.262h-.516v-.16a.26.26 0 0 0-.26-.262h-.69v-.162a.261.261 0 0 0-.26-.262h-.002v-.775h6.298v.775h-4.57M21.59 19.255h4.63a.26.26 0 0 0 .26-.262.26.26 0 0 0-.26-.262h-3.844v-2.943h4.071a1.17 1.17 0 0 0-.067.84c.3 1.014 1.582 1.188 1.637 1.196l.032.001h.001l.032-.001c.055-.008 1.337-.182 1.637-1.197a1.17 1.17 0 0 0-.068-.84h4.07v2.944h-3.842a.26.26 0 0 0-.26.262.26.26 0 0 0 .26.262h4.63v.65h-4.344v-.236a.262.262 0 0 0-.26-.262h-.36v-.076a.261.261 0 0 0-.26-.262h-.5v-.076a.26.26 0 0 0-.26-.262h-.952a.26.26 0 0 0-.26.262v.076h-.5a.261.261 0 0 0-.26.262v.076h-.359a.261.261 0 0 0-.26.262v.237H21.59v-.65M20.695 21.73h5.033c.144 0 .26-.118.26-.263a.261.261 0 0 0-.26-.262h-4.571v-.775h6.298v.775h-.001a.261.261 0 0 0-.26.262v.162h-.691a.26.26 0 0 0-.26.262v.16h-.515a.261.261 0 0 0-.26.262v.362h-4.773v-.946M19.701 24.825h5.602a.26.26 0 0 0 .26-.262.26.26 0 0 0-.26-.262h-5.041V23.2h7.108v1.102h-.026a.26.26 0 0 0-.26.262v.239h-.866a.261.261 0 0 0-.26.262v.239h-.655a.261.261 0 0 0-.26.262v.476H19.7v-1.216M18.256 28.489h6.136c.144 0 .26-.117.26-.262a.261.261 0 0 0-.26-.262h-5.374v-1.4h8.276v1.4h-.184a.261.261 0 0 0-.26.262v.405H25.61a.261.261 0 0 0-.26.262v.405h-.96a.26.26 0 0 0-.26.262v.72h-5.875V28.49M16.416 33.367h7.36a.26.26 0 0 0 .26-.262.261.261 0 0 0-.26-.262H17.45v-2.038h9.68v2.038h-.17a.261.261 0 0 0-.261.262v.513h-1.48a.261.261 0 0 0-.26.262v.512h-1.157a.261.261 0 0 0-.26.262v.88h-7.126v-2.167M14.074 39.032h9.424c.144 0 .26-.118.26-.262a.261.261 0 0 0-.26-.262h-8.331v-2.45h11.856v2.45h-.142a.261.261 0 0 0-.26.262v.567h-1.605a.261.261 0 0 0-.26.262v.568h-1.258a.261.261 0 0 0-.26.262v.96h-9.164v-2.357M12.752 44.577h14.216v-2.663H12.752zM11.66 46.324h32.78V45.1H11.66zM23.238 61.432h.378v-13.23h-.378zM32.514 61.432h.377v-13.23h-.377z"/>
            <path fill="#0C893D" d="M12.492 47.896h1.257c.144 0 .26-.118.26-.262a.261.261 0 0 0-.26-.262h-1.257a.261.261 0 0 0-.26.262c0 .144.116.262.26.262M13.122 48.201a.261.261 0 0 0-.26.262v5.808c0 .144.116.262.26.262.142 0 .26-.118.26-.262v-5.808a.262.262 0 0 0-.26-.262M14.45 49.25h1.258c.144 0 .26-.118.26-.263a.261.261 0 0 0-.26-.262H14.45a.262.262 0 0 0 0 .524M15.08 49.555a.261.261 0 0 0-.26.262v4.454c0 .144.116.262.26.262.144 0 .26-.118.26-.262v-4.454a.261.261 0 0 0-.26-.262M18.67 49.25h1.257c.144 0 .26-.118.26-.263a.261.261 0 0 0-.26-.262h-1.258a.261.261 0 0 0-.26.262c0 .145.116.262.26.262M19.299 49.555a.261.261 0 0 0-.26.262v4.454c0 .144.116.262.26.262.144 0 .26-.118.26-.262v-4.454a.261.261 0 0 0-.26-.262M16.56 47.896h1.257c.144 0 .26-.118.26-.262a.261.261 0 0 0-.26-.262H16.56a.261.261 0 0 0-.26.262c0 .144.116.262.26.262M17.19 48.201a.261.261 0 0 0-.26.262v5.808c0 .144.115.262.26.262.143 0 .26-.118.26-.262v-5.808a.261.261 0 0 0-.26-.262M20.628 47.896h1.257c.144 0 .26-.118.26-.262a.261.261 0 0 0-.26-.262h-1.257a.262.262 0 0 0 0 .524M21.257 48.201a.261.261 0 0 0-.26.262v5.808c0 .144.116.262.26.262.144 0 .26-.118.26-.262v-5.808a.261.261 0 0 0-.26-.262M23.16 14.122a.21.21 0 0 1 .208.21.21.21 0 0 1-.208.21.21.21 0 0 1-.208-.21.21.21 0 0 1 .208-.21zm0 .945c.403 0 .729-.33.729-.735a.732.732 0 0 0-.729-.734.732.732 0 0 0-.728.734c0 .405.326.735.728.735z"/>
            <path fill="#0C893D" d="M24.66 14.122a.21.21 0 0 1 .209.21.21.21 0 0 1-.208.21.21.21 0 0 1 0-.42zm0 .945c.401 0 .73-.33.73-.735a.733.733 0 0 0-.73-.734.733.733 0 0 0 0 1.469zM26.16 14.122a.21.21 0 0 1 0 .42.21.21 0 0 1-.209-.21.21.21 0 0 1 .208-.21zm0 .945c.402 0 .73-.33.73-.735a.733.733 0 0 0-.73-.734.732.732 0 0 0-.73.734c0 .405.327.735.73.735zM28.049 13.372c.144 0 .26-.118.26-.262v-1.834a.26.26 0 0 0-.26-.262.262.262 0 0 0-.26.262v1.834c0 .144.117.262.26.262M16.402 36.456a.262.262 0 0 0-.26.262v1.048c0 .144.118.262.26.262.144 0 .26-.118.26-.262v-1.048a.261.261 0 0 0-.26-.262M17.97 36.456a.261.261 0 0 0-.26.262v1.048c0 .144.116.262.26.262.144 0 .26-.118.26-.262v-1.048a.261.261 0 0 0-.26-.262M19.536 36.456a.261.261 0 0 0-.26.262v1.048c0 .144.116.262.26.262.144 0 .26-.118.26-.262v-1.048a.261.261 0 0 0-.26-.262M21.105 36.456a.261.261 0 0 0-.26.262v1.048c0 .144.116.262.26.262.144 0 .26-.118.26-.262v-1.048a.261.261 0 0 0-.26-.262M22.671 36.456a.261.261 0 0 0-.26.262v1.048c0 .144.116.262.26.262.144 0 .26-.118.26-.262v-1.048a.261.261 0 0 0-.26-.262M24.24 38.028c.141 0 .26-.118.26-.262v-1.048a.262.262 0 0 0-.26-.262.261.261 0 0 0-.261.262v1.048c0 .144.116.262.26.262M25.806 38.028c.144 0 .26-.118.26-.262v-1.048a.261.261 0 0 0-.26-.262.261.261 0 0 0-.26.262v1.048c0 .144.116.262.26.262M18.38 31.213a.261.261 0 0 0-.26.262v.699a.26.26 0 0 0 .26.262.26.26 0 0 0 .26-.262v-.699a.261.261 0 0 0-.26-.262M19.948 31.213a.261.261 0 0 0-.26.262v.699a.26.26 0 0 0 .26.262.26.26 0 0 0 .26-.262v-.699a.261.261 0 0 0-.26-.262M21.514 31.213a.261.261 0 0 0-.26.262v.699a.26.26 0 0 0 .26.262.26.26 0 0 0 .26-.262v-.699a.261.261 0 0 0-.26-.262M23.082 31.213a.261.261 0 0 0-.26.262v.699a.26.26 0 0 0 .26.262c.142 0 .26-.117.26-.262v-.699a.262.262 0 0 0-.26-.262M24.649 32.436a.26.26 0 0 0 .26-.262v-.699a.261.261 0 0 0-.26-.262.261.261 0 0 0-.26.262v.699a.26.26 0 0 0 .26.262M26.215 32.436a.26.26 0 0 0 .26-.262v-.699a.261.261 0 0 0-.26-.262.261.261 0 0 0-.26.262v.699a.26.26 0 0 0 .26.262M19.928 26.85a.261.261 0 0 0-.26.261v.308c0 .144.116.261.26.261.144 0 .26-.117.26-.261v-.308a.261.261 0 0 0-.26-.262M21.495 26.85a.261.261 0 0 0-.26.261v.308c0 .144.116.261.26.261.144 0 .26-.117.26-.261v-.308a.261.261 0 0 0-.26-.262M23.063 26.85a.261.261 0 0 0-.26.261v.308c0 .144.116.261.26.261.144 0 .26-.117.26-.261v-.308a.261.261 0 0 0-.26-.262M24.89 27.419v-.308a.261.261 0 0 0-.26-.262.261.261 0 0 0-.26.262v.308c0 .144.116.261.26.261.143 0 .26-.117.26-.261M26.196 27.68c.144 0 .26-.117.26-.261v-.308a.261.261 0 0 0-.26-.262.262.262 0 0 0-.26.262v.308c0 .144.118.261.26.261M21.43 23.47a.26.26 0 0 0-.26.263v.035c0 .145.117.262.26.262.145 0 .26-.117.26-.262v-.035a.26.26 0 0 0-.26-.262M22.999 23.47a.26.26 0 0 0-.26.263v.035c0 .145.116.262.26.262.142 0 .26-.117.26-.262v-.035a.262.262 0 0 0-.26-.262M24.565 23.47a.26.26 0 0 0-.26.263v.035c0 .145.116.262.26.262.144 0 .26-.117.26-.262v-.035a.26.26 0 0 0-.26-.262M26.132 24.03c.144 0 .26-.117.26-.262v-.035a.26.26 0 0 0-.26-.262.262.262 0 0 0-.26.262v.035c0 .145.117.262.26.262M21.887 20.538a.262.262 0 0 0-.26.262v.035c0 .145.118.262.26.262.144 0 .26-.117.26-.262V20.8a.26.26 0 0 0-.26-.262M23.455 20.538a.26.26 0 0 0-.26.262v.035c0 .145.116.262.26.262.144 0 .26-.117.26-.262V20.8a.26.26 0 0 0-.26-.262M25.022 20.538a.26.26 0 0 0-.26.262v.035c0 .145.116.262.26.262.144 0 .26-.117.26-.262V20.8a.26.26 0 0 0-.26-.262M26.59 21.097c.144 0 .26-.117.26-.262V20.8a.26.26 0 0 0-.26-.262.26.26 0 0 0-.26.262v.035c0 .145.116.262.26.262M13.758 42.263a.261.261 0 0 0-.26.262v1.44c0 .146.116.263.26.263.144 0 .26-.117.26-.262v-1.441a.261.261 0 0 0-.26-.262M15.325 42.263a.262.262 0 0 0-.26.262v1.44c0 .146.117.263.26.263.144 0 .26-.117.26-.262v-1.441a.261.261 0 0 0-.26-.262M16.893 42.263a.261.261 0 0 0-.26.262v1.44c0 .146.116.263.26.263.144 0 .26-.117.26-.262v-1.441a.261.261 0 0 0-.26-.262M18.46 42.263a.261.261 0 0 0-.261.262v1.44c0 .146.116.263.26.263.144 0 .26-.117.26-.262v-1.441a.261.261 0 0 0-.26-.262M20.027 42.263a.261.261 0 0 0-.26.262v1.44c0 .146.116.263.26.263.144 0 .26-.117.26-.262v-1.441a.261.261 0 0 0-.26-.262M21.594 42.263a.261.261 0 0 0-.26.262v1.44c0 .146.116.263.26.263.144 0 .26-.117.26-.262v-1.441a.261.261 0 0 0-.26-.262M23.16 42.263a.262.262 0 0 0-.26.262v1.44c0 .146.118.263.26.263.144 0 .26-.117.26-.262v-1.441a.261.261 0 0 0-.26-.262M24.673 44.228c.144 0 .26-.117.26-.262v-1.441a.261.261 0 0 0-.26-.262.261.261 0 0 0-.26.262v1.44c0 .146.116.263.26.263M26.24 44.228c.143 0 .26-.117.26-.262v-1.441a.261.261 0 0 0-.26-.262.262.262 0 0 0-.26.262v1.44c0 .146.117.263.26.263"/>
            <path fill="#0C893D" d="M43.047 61.432l-7.678-5.982h1.81l7.26 5.657v.325h-1.392zm-10.533 0h.347v-13.23h-.347v13.23zm-9.276 0h.347v-13.23h-.347v13.23zm-11.579-.325l7.262-5.657h1.809l-7.678 5.982H11.66v-.325zm0-14.783h32.78V45.1H11.66v1.223zm1.093-1.747h14.216v-2.663H12.752v2.663zm1.322-5.545h9.424c.144 0 .26-.118.26-.262a.261.261 0 0 0-.26-.262h-8.331v-2.45h11.856v2.45h-.142a.261.261 0 0 0-.26.262v.567h-1.605a.261.261 0 0 0-.26.262v.568h-1.258a.261.261 0 0 0-.26.262v.96h-9.164v-2.357zm2.342-5.665h7.36a.26.26 0 0 0 .26-.262.261.261 0 0 0-.26-.262H17.45v-2.038h9.68v2.038h-.17a.261.261 0 0 0-.261.262v.513h-1.48a.261.261 0 0 0-.26.262v.512h-1.157a.261.261 0 0 0-.26.262v.88h-7.126v-2.167zm1.84-4.878h6.136c.144 0 .26-.117.26-.262a.261.261 0 0 0-.26-.262h-5.374v-1.4h8.276v1.4h-.184a.261.261 0 0 0-.26.262v.405H25.61a.261.261 0 0 0-.26.262v.405h-.96a.26.26 0 0 0-.26.262v.72h-5.875V28.49zm1.445-3.664h5.602a.26.26 0 0 0 .26-.262.26.26 0 0 0-.26-.262h-5.041V23.2h7.108v1.102h-.026a.26.26 0 0 0-.26.262v.239h-.866a.261.261 0 0 0-.26.262v.239h-.655a.261.261 0 0 0-.26.262v.476H19.7v-1.216zm.994-3.096h5.033c.144 0 .26-.117.26-.262a.261.261 0 0 0-.26-.262h-4.571v-.775h6.298v.775h-.001a.261.261 0 0 0-.26.262v.162h-.691a.26.26 0 0 0-.26.262v.16h-.515a.261.261 0 0 0-.26.262v.362h-4.773v-.946zm.895-2.474h4.63a.26.26 0 0 0 .26-.262.26.26 0 0 0-.26-.262h-3.844v-2.943h4.071a1.17 1.17 0 0 0-.067.84c.3 1.014 1.582 1.188 1.637 1.196l.032.001h.001l.032-.001c.055-.008 1.337-.182 1.637-1.197a1.17 1.17 0 0 0-.068-.84h4.07v2.944h-3.842a.26.26 0 0 0-.26.262.26.26 0 0 0 .26.262h4.63v.65h-4.344v-.236a.262.262 0 0 0-.26-.262h-.36v-.076a.261.261 0 0 0-.26-.262h-.5v-.076a.26.26 0 0 0-.26-.262h-.952a.26.26 0 0 0-.26.262v.076h-.5a.261.261 0 0 0-.26.262v.076h-.359a.261.261 0 0 0-.26.262v.237H21.59v-.65zM20.924 16c.004-.577.238-1.213.743-1.574-.186.674.036 1.048.189 1.215v2.046c-.685-.336-.935-1.087-.932-1.687zm7.125-1.579c.203.307.409.568.596.806.453.57.684.884.574 1.251-.182.617-.999.79-1.17.82-.17-.03-.99-.203-1.17-.82-.109-.367.122-.682.573-1.251.189-.238.395-.5.597-.806zM35.175 16c.003.6-.247 1.351-.934 1.687V15.64c.155-.167.377-.54.191-1.215.505.361.74.997.743 1.574zm-4.804 5.205a.261.261 0 0 0-.26.262c0 .145.116.262.26.262h5.033v.946h-4.772v-.362a.262.262 0 0 0-.26-.262h-.516v-.16a.26.26 0 0 0-.26-.262h-.69v-.162a.261.261 0 0 0-.26-.262h-.002v-.775h6.298v.775h-4.57zm.425 3.096a.26.26 0 0 0-.26.262.26.26 0 0 0 .26.262h5.602v1.216h-5.341v-.476a.261.261 0 0 0-.26-.262h-.656v-.24a.262.262 0 0 0-.26-.261h-.866v-.239a.26.26 0 0 0-.26-.262h-.026V23.2h7.108v1.102h-5.04zm6.285 3.664h-5.374a.261.261 0 0 0-.26.262c0 .145.116.262.26.262h6.136v1.792h-5.876v-.72a.26.26 0 0 0-.26-.262h-.961v-.405a.261.261 0 0 0-.26-.262h-1.239v-.405a.261.261 0 0 0-.26-.262h-.182v-1.4h8.276v1.4zm1.568 4.878h-6.326a.261.261 0 0 0-.26.262.26.26 0 0 0 .26.262h7.36v2.166h-7.126v-.879a.262.262 0 0 0-.26-.262H31.14v-.512a.261.261 0 0 0-.26-.262H29.4v-.513a.262.262 0 0 0-.26-.262h-.17v-2.038h9.68v2.038zm2.283 5.665H32.6a.261.261 0 0 0-.26.262c0 .144.116.262.26.262h9.425v2.358h-9.164v-.96a.262.262 0 0 0-.26-.263h-1.26V39.6a.261.261 0 0 0-.26-.262h-1.605v-.567a.261.261 0 0 0-.26-.262h-.14v-2.45h11.856v2.45zm-13.79 1.091v-.567h1.814v.567c0 .145.118.262.26.262h1.605v.568c0 .145.118.262.26.262h1.26v.699h-8.582v-.699h1.257c.144 0 .26-.117.26-.262v-.568h1.605c.144 0 .26-.117.26-.262zm.402-1.091h1.011v-2.45h-1.011v2.45zm-.325-4.628v-.513h1.66v.513c0 .144.117.262.26.262h1.48v.512c0 .145.117.262.26.262h1.158v.617h-7.975v-.617h1.157c.144 0 .26-.117.26-.262v-.512h1.48c.144 0 .26-.118.26-.262zm.43-1.037h.8v-2.038h-.8v2.038zm-.279-3.95v-.404h1.357v.405c0 .144.118.262.26.262h1.239v.405c0 .144.118.262.26.262h.96v.458h-6.794v-.458h.96c.143 0 .26-.118.26-.262v-.405h1.238c.144 0 .26-.118.26-.262zm.444-.928h.47v-1.4h-.47v1.4zm-.21-2.901v-.239h.89v.239a.26.26 0 0 0 .26.262h.866v.239c0 .144.116.262.26.262h.656v.214h-4.973v-.214h.655c.144 0 .26-.118.26-.262v-.24h.866a.26.26 0 0 0 .26-.261zm.287-.763h.317V23.2h-.317v1.102zm-.177-2.41v-.162h.671v.162c0 .144.116.262.26.262h.69v.16a.26.26 0 0 0 .26.262h.516v.1h-4.123v-.1h.515a.26.26 0 0 0 .26-.262v-.16h.69c.145 0 .26-.118.26-.262zm.262-.686h.147v-.775h-.147v.775zm-.143-1.874v-.076h.432v.076c0 .145.117.262.26.262h.5v.076c0 .105.06.195.148.237h-2.247a.263.263 0 0 0 .148-.237v-.076h.5c.143 0 .26-.117.26-.262zm.216 25.246h-.56v-2.663h1.12v2.663h-.56zm1.08 0h14.218v-2.663H29.129v2.663zM39.838 55.45l4.602 3.584v1.41l-6.412-4.994h1.81zm3.509 0h1.093v.85l-1.093-.85zm-.85 0l1.943 1.513v1.409l-3.752-2.922h1.809zm-9.116-.524H44.44v-8.078H33.38v8.078zm0 5.853l.838.653h-.838v-.653zm-21.722-1.745l4.602-3.584h1.81l-6.412 4.994v-1.41zm0-2.734v-.85h1.091l-1.09.85zm0 .663l1.943-1.513h1.81l-3.753 2.922v-1.41zm11.059-9.024v6.987H11.659v-8.078h11.059v1.091zm0 12.84v.653h-.838l.838-.653zm-8.816.653l7.678-5.982h1.138v.522l-7.007 5.46h-1.809zm2.66 0l6.156-4.798v1.41l-4.347 3.388h-1.81zm2.659 0l3.497-2.725v1.409l-1.688 1.316h-1.81zm8.828-13.755h-4.81v-.83h9.622v.83h-4.812zm7.02 13.755l-1.688-1.316v-1.41l3.497 2.726h-1.81zm2.66 0l-4.348-3.388v-1.41l6.156 4.798h-1.809zm2.658 0l-7.006-5.46v-.522h1.138l7.678 5.982h-1.81zM44.7 44.577h-.833v-2.925a.262.262 0 0 0-.26-.262h-1.062v-2.62a.261.261 0 0 0-.26-.262h-.832v-2.713a.261.261 0 0 0-.26-.262h-.99v-2.428a.261.261 0 0 0-.26-.262h-.773v-2.3a.26.26 0 0 0-.26-.262h-.547v-2.054a.261.261 0 0 0-.26-.262h-.501v-1.662a.26.26 0 0 0-.26-.262h-.424v-1.478a.26.26 0 0 0-.26-.262h-.3v-1.364a.261.261 0 0 0-.26-.262h-.174v-1.208a.261.261 0 0 0-.26-.262h-.201v-1.037a.262.262 0 0 0-.26-.262h-.174v-.913a.262.262 0 0 0-.26-.262h-.528v-.478c.896-.317 1.46-1.18 1.454-2.256-.005-.959-.529-2.05-1.686-2.327a.262.262 0 0 0-.29.377c.403.77.248 1.106.162 1.217h-4.547c-.087-.12-.182-.24-.281-.364-.248-.313-.53-.667-.777-1.105-.004-.005-.007-.008-.009-.013l-.017-.023c-.005-.007-.012-.013-.018-.019l-.017-.017-.024-.017-.012-.009a.185.185 0 0 0-.035-.015c-.007-.002-.012-.006-.02-.007l-.027-.007-.022-.003-.026-.001h-.025l-.026.005-.022.005a.336.336 0 0 0-.049.02l-.007.003-.012.01-.024.016-.018.017a.131.131 0 0 0-.017.019.158.158 0 0 0-.017.023c-.002.005-.005.008-.009.013-.248.438-.529.792-.777 1.105-.099.124-.194.245-.281.364h-4.547c-.086-.11-.243-.446.162-1.217a.262.262 0 0 0-.29-.377c-1.157.277-1.681 1.368-1.686 2.327-.005 1.076.558 1.94 1.452 2.256v.478h-.526a.26.26 0 0 0-.26.262v.913h-.174a.261.261 0 0 0-.26.262v1.037h-.201a.261.261 0 0 0-.26.262v1.208H20a.261.261 0 0 0-.26.262v1.364h-.3a.26.26 0 0 0-.26.262v1.478h-.423a.26.26 0 0 0-.26.262v1.662h-.502a.261.261 0 0 0-.26.262v2.054h-.547a.26.26 0 0 0-.26.262v2.3h-.773a.261.261 0 0 0-.26.262v2.428h-.99a.261.261 0 0 0-.26.262v2.713h-.832a.261.261 0 0 0-.26.262v2.62h-1.062a.261.261 0 0 0-.26.262v2.925h-.833a.261.261 0 0 0-.26.262v16.855c0 .144.116.262.26.262h12.446c.144 0 .26-.118.26-.262V48.2h7.888v13.493c0 .144.116.262.26.262H44.7c.142 0 .26-.118.26-.262V44.839a.262.262 0 0 0-.26-.262z"/>
            <path fill="#0C893D" d="M43.607 47.372h-1.258a.261.261 0 0 0-.26.262c0 .144.116.262.26.262h1.258a.262.262 0 0 0 0-.524M42.977 48.201a.261.261 0 0 0-.26.262v5.808c0 .144.116.262.26.262.144 0 .26-.118.26-.262v-5.808a.261.261 0 0 0-.26-.262M41.647 48.725h-1.258a.262.262 0 0 0 0 .524h1.258c.144 0 .26-.117.26-.262a.261.261 0 0 0-.26-.262M41.019 49.555a.261.261 0 0 0-.26.262v4.454c0 .144.116.262.26.262.144 0 .26-.118.26-.262v-4.454a.261.261 0 0 0-.26-.262M37.43 48.725h-1.258a.261.261 0 0 0-.26.262c0 .145.116.262.26.262h1.258c.144 0 .26-.117.26-.262a.261.261 0 0 0-.26-.262M36.8 49.555a.261.261 0 0 0-.26.262v4.454c0 .144.116.262.26.262.144 0 .26-.118.26-.262v-4.454a.261.261 0 0 0-.26-.262M39.54 47.372h-1.258a.261.261 0 0 0-.26.262c0 .144.116.262.26.262h1.257a.262.262 0 0 0 0-.524M38.91 48.201a.261.261 0 0 0-.26.262v5.808c0 .144.116.262.26.262.143 0 .26-.118.26-.262v-5.808a.261.261 0 0 0-.26-.262M35.47 47.372h-1.258a.262.262 0 0 0 0 .524h1.258c.144 0 .26-.118.26-.262a.261.261 0 0 0-.26-.262M34.842 48.201a.261.261 0 0 0-.26.262v5.808c0 .144.116.262.26.262.144 0 .26-.118.26-.262v-5.808a.261.261 0 0 0-.26-.262M32.939 14.543a.209.209 0 0 1-.208-.21c0-.117.091-.211.208-.211a.21.21 0 0 1 .208.21.21.21 0 0 1-.208.21zm0-.945a.732.732 0 0 0-.729.734c0 .405.326.735.729.735.402 0 .728-.33.728-.735a.732.732 0 0 0-.728-.734zM31.438 14.122a.21.21 0 0 1 0 .42.21.21 0 0 1-.208-.21.21.21 0 0 1 .208-.21zm0 .945c.403 0 .73-.33.73-.735a.733.733 0 0 0-.73-.734.732.732 0 0 0-.728.734c0 .405.326.735.728.735zM29.94 14.122a.21.21 0 0 1 .208.21.21.21 0 0 1-.209.21.21.21 0 0 1 0-.42zm0 .945c.4 0 .728-.33.728-.735a.733.733 0 0 0-.729-.734.733.733 0 0 0 0 1.469zM39.695 36.456a.262.262 0 0 0-.26.262v1.048c0 .144.118.262.26.262.144 0 .26-.118.26-.262v-1.048a.261.261 0 0 0-.26-.262M38.129 36.456a.261.261 0 0 0-.26.262v1.048c0 .144.116.262.26.262.144 0 .26-.118.26-.262v-1.048a.261.261 0 0 0-.26-.262M36.562 36.456a.261.261 0 0 0-.26.262v1.048c0 .144.116.262.26.262.143 0 .26-.118.26-.262v-1.048a.262.262 0 0 0-.26-.262M34.994 36.456a.261.261 0 0 0-.26.262v1.048c0 .144.116.262.26.262.144 0 .26-.118.26-.262v-1.048a.261.261 0 0 0-.26-.262M33.428 36.456a.261.261 0 0 0-.26.262v1.048c0 .144.116.262.26.262.144 0 .26-.118.26-.262v-1.048a.261.261 0 0 0-.26-.262M31.86 36.456a.261.261 0 0 0-.26.262v1.048c0 .144.116.262.26.262.144 0 .26-.118.26-.262v-1.048a.261.261 0 0 0-.26-.262M30.293 36.456a.261.261 0 0 0-.26.262v1.048c0 .144.116.262.26.262.144 0 .26-.118.26-.262v-1.048a.261.261 0 0 0-.26-.262M37.72 31.213a.261.261 0 0 0-.26.262v.699a.26.26 0 0 0 .26.262c.142 0 .26-.117.26-.262v-.699a.262.262 0 0 0-.26-.262M36.151 31.213a.261.261 0 0 0-.26.262v.699a.26.26 0 0 0 .26.262.26.26 0 0 0 .26-.262v-.699a.261.261 0 0 0-.26-.262M34.585 31.213a.261.261 0 0 0-.26.262v.699a.26.26 0 0 0 .26.262.26.26 0 0 0 .26-.262v-.699a.261.261 0 0 0-.26-.262M33.017 31.213a.261.261 0 0 0-.26.262v.699a.26.26 0 0 0 .26.262.26.26 0 0 0 .26-.262v-.699a.261.261 0 0 0-.26-.262M31.45 31.213a.261.261 0 0 0-.26.262v.699a.26.26 0 0 0 .26.262.26.26 0 0 0 .26-.262v-.699a.261.261 0 0 0-.26-.262M29.882 31.213a.262.262 0 0 0-.26.262v.699c0 .145.118.262.26.262a.26.26 0 0 0 .26-.262v-.699a.261.261 0 0 0-.26-.262M36.17 26.85a.261.261 0 0 0-.26.261v.308c0 .144.116.261.26.261.144 0 .26-.117.26-.261v-.308a.261.261 0 0 0-.26-.262M34.604 26.85a.261.261 0 0 0-.26.261v.308c0 .144.116.261.26.261.142 0 .26-.117.26-.261v-.308a.262.262 0 0 0-.26-.262M33.036 26.85a.262.262 0 0 0-.26.261v.308c0 .144.118.261.26.261.144 0 .26-.117.26-.261v-.308a.261.261 0 0 0-.26-.262M31.47 26.85a.261.261 0 0 0-.26.261v.308c0 .144.115.261.26.261.143 0 .26-.117.26-.261v-.308a.261.261 0 0 0-.26-.262M29.901 26.85a.261.261 0 0 0-.26.261v.308c0 .144.116.261.26.261.144 0 .26-.117.26-.261v-.308a.261.261 0 0 0-.26-.262M34.668 23.47a.26.26 0 0 0-.26.263v.035c0 .145.116.262.26.262.144 0 .26-.117.26-.262v-.035a.26.26 0 0 0-.26-.262M33.1 23.47a.26.26 0 0 0-.26.263v.035c0 .145.116.262.26.262.144 0 .26-.117.26-.262v-.035a.26.26 0 0 0-.26-.262M31.534 23.47a.26.26 0 0 0-.26.263v.035c0 .145.116.262.26.262.144 0 .26-.117.26-.262v-.035a.26.26 0 0 0-.26-.262M29.965 23.47a.262.262 0 0 0-.26.263v.035c0 .145.118.262.26.262.144 0 .26-.117.26-.262v-.035a.26.26 0 0 0-.26-.262M34.21 20.538a.262.262 0 0 0-.26.262v.035c0 .145.118.262.26.262.144 0 .26-.117.26-.262V20.8a.26.26 0 0 0-.26-.262M32.644 20.538a.26.26 0 0 0-.26.262v.035c0 .145.116.262.26.262.144 0 .26-.117.26-.262V20.8a.26.26 0 0 0-.26-.262M31.077 20.538a.26.26 0 0 0-.26.262v.035c0 .145.116.262.26.262.143 0 .26-.117.26-.262V20.8a.262.262 0 0 0-.26-.262M29.51 20.538a.26.26 0 0 0-.261.262v.035c0 .145.116.262.26.262.144 0 .26-.117.26-.262V20.8a.26.26 0 0 0-.26-.262M42.08 42.525v1.44c0 .146.117.263.26.263.145 0 .26-.117.26-.262v-1.441a.261.261 0 0 0-.26-.262.261.261 0 0 0-.26.262M40.773 42.263a.262.262 0 0 0-.26.262v1.44c0 .146.117.263.26.263.144 0 .26-.117.26-.262v-1.441a.261.261 0 0 0-.26-.262M39.206 42.263a.261.261 0 0 0-.26.262v1.44c0 .146.116.263.26.263.144 0 .26-.117.26-.262v-1.441a.261.261 0 0 0-.26-.262M37.64 42.263a.261.261 0 0 0-.26.262v1.44c0 .146.116.263.26.263.142 0 .26-.117.26-.262v-1.441a.262.262 0 0 0-.26-.262M36.072 42.263a.262.262 0 0 0-.26.262v1.44c0 .146.117.263.26.263.144 0 .26-.117.26-.262v-1.441a.261.261 0 0 0-.26-.262M34.505 42.263a.261.261 0 0 0-.26.262v1.44c0 .146.116.263.26.263.144 0 .26-.117.26-.262v-1.441a.261.261 0 0 0-.26-.262M32.937 42.263a.261.261 0 0 0-.26.262v1.44c0 .146.116.263.26.263.144 0 .26-.117.26-.262v-1.441a.261.261 0 0 0-.26-.262M31.426 42.263a.261.261 0 0 0-.26.262v1.44c0 .146.116.263.26.263.144 0 .26-.117.26-.262v-1.441a.261.261 0 0 0-.26-.262M29.858 42.263a.262.262 0 0 0-.26.262v1.44c0 .146.118.263.26.263.144 0 .26-.117.26-.262v-1.441a.261.261 0 0 0-.26-.262"/>
            <path fill="#8CDBAB" d="M23.16 14.122a.21.21 0 0 1 .208.21.21.21 0 0 1-.208.21.21.21 0 0 1-.208-.21.21.21 0 0 1 .208-.21M24.66 14.122a.21.21 0 0 1 .209.21.21.21 0 0 1-.208.21.21.21 0 0 1 0-.42M26.16 14.122a.21.21 0 0 1 0 .42.21.21 0 0 1-.209-.21.21.21 0 0 1 .208-.21M29.94 14.122a.21.21 0 0 1 .208.21.21.21 0 0 1-.209.21.21.21 0 0 1 0-.42M31.438 14.122a.21.21 0 0 1 0 .42.21.21 0 0 1-.208-.21.21.21 0 0 1 .208-.21M32.939 14.122a.21.21 0 0 1 .208.21.21.21 0 0 1-.208.21.21.21 0 0 1 0-.42"/>
        </g>
    </g>
</svg>
