<svg xmlns="http://www.w3.org/2000/svg" xmlns:xlink="http://www.w3.org/1999/xlink" width="57" height="58" viewBox="0 0 57 58">
    <defs>
        <circle id="a" cx="28" cy="28" r="28"/>
    </defs>
    <g fill="none" fill-rule="evenodd" transform="translate(.667 1)">
        <mask id="b" fill="#fff">
            <use xlink:href="#a"/>
        </mask>
        <use fill="#E9FFF2" stroke="#0C893D" stroke-width=".5" xlink:href="#a"/>
        <g mask="url(#b)">
            <path fill="#8CDBAB" d="M41.753 31.813h.768V26.78h-.768v5.033zm-2.238 0h.769V26.78h-.769v5.033zm-6.046 0h1.308V26.78h-1.308v5.033zm-11.71 0h1.307V26.78H21.76v5.033zm-5.507 0h.768V26.78h-.768v5.033zm-2.237 0h.768V26.78h-.768v5.033zM45.719 21v5.15h.065c.162 0 .294.135.294.3 0 .166-.132.3-.294.3h-1.601a.297.297 0 0 1-.294-.3c0-.165.132-.3.294-.3h.065v-1.266c0-2.141-2.903-2.81-3.247-2.882-.32.068-2.883.661-3.212 2.486v1.662h.065c.162 0 .294.135.294.3 0 .166-.132.3-.294.3h-1.601a.297.297 0 0 1-.294-.3c0-.165.132-.3.294-.3h.065v-1.74c0-1.406-1.898-1.87-2.195-1.934-.295.065-2.195.533-2.195 1.935v1.74h.065c.162 0 .294.134.294.3 0 .165-.132.3-.294.3h-1.601a.297.297 0 0 1-.294-.3c0-.166.132-.3.294-.3h.065v-1.866c-.11-1.308-1.901-1.747-2.189-1.809-.286.063-2.08.505-2.19 1.81v1.864h.066c.162 0 .294.135.294.3 0 .166-.132.3-.294.3h-1.601a.297.297 0 0 1-.295-.3c0-.165.132-.3.295-.3h.065v-1.74c0-1.406-1.898-1.87-2.195-1.934-.296.065-2.196.533-2.196 1.935v1.74h.066c.162 0 .294.134.294.3 0 .165-.132.3-.294.3h-1.601a.297.297 0 0 1-.295-.3c0-.166.132-.3.295-.3h.065v-1.664c-.33-1.828-2.89-2.418-3.212-2.485-.343.072-3.248.745-3.248 2.882v1.266h.066c.162 0 .294.135.294.3 0 .166-.132.3-.294.3h-1.601a.297.297 0 0 1-.295-.3c0-.165.132-.3.295-.3h.065V21H9.706v13.717h1.11V33.45h-.064a.297.297 0 0 1-.295-.3c0-.165.132-.3.295-.3h1.6c.163 0 .295.135.295.3 0 .166-.132.3-.294.3h-.066v1.267h6.46V33.45h-.065a.297.297 0 0 1-.295-.3c0-.165.132-.3.295-.3h1.6c.163 0 .295.135.295.3 0 .166-.132.3-.294.3h-.066v1.267h4.39V33.45h-.064a.297.297 0 0 1-.295-.3c0-.165.132-.3.295-.3h1.6c.163 0 .295.135.295.3 0 .166-.132.3-.294.3h-.066v1.267h4.38V33.45h-.066a.297.297 0 0 1-.294-.3c0-.165.132-.3.294-.3h1.601c.162 0 .294.135.294.3 0 .166-.132.3-.294.3h-.065v1.267h4.39V33.45h-.065a.297.297 0 0 1-.294-.3c0-.165.132-.3.294-.3h1.601c.162 0 .294.135.294.3 0 .166-.132.3-.294.3h-.065v1.267h6.46V33.45h-.066a.297.297 0 0 1-.294-.3c0-.165.132-.3.294-.3h1.601c.162 0 .294.135.294.3 0 .166-.132.3-.294.3h-.065v1.267h1.111V21h-1.111zM41.753 47.213h.768V42.18h-.768v5.033zm-2.238 0h.769V42.18h-.769v5.033zm-6.046 0h1.308V42.18h-1.308v5.033zm-11.71 0h1.307V42.18H21.76v5.033zm-5.507 0h.768V42.18h-.768v5.033zm-2.237 0h.768V42.18h-.768v5.033zM45.719 36.4v5.15h.065c.162 0 .294.135.294.3 0 .166-.132.3-.294.3h-1.601a.297.297 0 0 1-.294-.3c0-.165.132-.3.294-.3h.065v-1.266c0-2.141-2.903-2.81-3.247-2.882-.32.068-2.883.661-3.212 2.486v1.662h.065c.162 0 .294.135.294.3 0 .166-.132.3-.294.3h-1.601a.297.297 0 0 1-.294-.3c0-.165.132-.3.294-.3h.065v-1.74c0-1.406-1.898-1.87-2.195-1.934-.295.065-2.195.533-2.195 1.935v1.74h.065c.162 0 .294.134.294.3 0 .165-.132.3-.294.3h-1.601a.297.297 0 0 1-.294-.3c0-.166.132-.3.294-.3h.065v-1.866c-.11-1.308-1.901-1.747-2.189-1.809-.286.063-2.08.505-2.19 1.81v1.864h.066c.162 0 .294.135.294.3 0 .166-.132.3-.294.3h-1.601a.297.297 0 0 1-.295-.3c0-.165.132-.3.295-.3h.065v-1.74c0-1.406-1.898-1.87-2.195-1.934-.296.065-2.196.533-2.196 1.935v1.74h.066c.162 0 .294.134.294.3 0 .165-.132.3-.294.3h-1.601a.297.297 0 0 1-.295-.3c0-.166.132-.3.295-.3h.065v-1.664c-.33-1.828-2.89-2.418-3.212-2.485-.343.072-3.248.745-3.248 2.882v1.266h.066c.162 0 .294.135.294.3 0 .166-.132.3-.294.3h-1.601a.297.297 0 0 1-.295-.3c0-.165.132-.3.295-.3h.065V36.4H9.706v13.717h1.11V48.85h-.064a.297.297 0 0 1-.295-.3c0-.165.132-.3.295-.3h1.6c.163 0 .295.135.295.3 0 .166-.132.3-.294.3h-.066v1.267h6.46V48.85h-.065a.297.297 0 0 1-.295-.3c0-.165.132-.3.295-.3h1.6c.163 0 .295.135.295.3 0 .166-.132.3-.294.3h-.066v1.267h4.39V48.85h-.064a.297.297 0 0 1-.295-.3c0-.165.132-.3.295-.3h1.6c.163 0 .295.135.295.3 0 .166-.132.3-.294.3h-.066v1.267h4.38V48.85h-.066a.297.297 0 0 1-.294-.3c0-.165.132-.3.294-.3h1.601c.162 0 .294.135.294.3 0 .166-.132.3-.294.3h-.065v1.267h4.39V48.85h-.065a.297.297 0 0 1-.294-.3c0-.165.132-.3.294-.3h1.601c.162 0 .294.135.294.3 0 .166-.132.3-.294.3h-.065v1.267h6.46V48.85h-.066a.297.297 0 0 1-.294-.3c0-.165.132-.3.294-.3h1.601c.162 0 .294.135.294.3 0 .166-.132.3-.294.3h-.065v1.267h1.111V36.4h-1.111zM45.065 15.6a.66.66 0 0 1 .654.667.66.66 0 0 1-.654.666.66.66 0 0 1-.653-.666.66.66 0 0 1 .653-.667M37.745 19.333h6.46V18.4h-6.46zM37.026 15.6a.66.66 0 0 1 .654.667.66.66 0 0 1-.654.666.66.66 0 0 1-.653-.666.66.66 0 0 1 .653-.667M31.863 19.333h4.39V18.4h-4.39zM31.144 15.6a.66.66 0 0 1 .653.667.66.66 0 0 1-.653.666.66.66 0 0 1-.654-.666.66.66 0 0 1 .654-.667M25.98 19.333h4.38V18.4h-4.38zM25.261 15.6a.66.66 0 0 1 .654.667.66.66 0 0 1-.654.666.66.66 0 0 1-.653-.666.66.66 0 0 1 .653-.667M20.294 19.333h4.39V18.4h-4.39zM19.379 15.6a.66.66 0 0 1 .654.667.66.66 0 0 1-.654.666.66.66 0 0 1-.654-.666.66.66 0 0 1 .654-.667M12.255 19.333h6.46V18.4h-6.46zM11.536 15.6a.66.66 0 0 1 .653.667.66.66 0 0 1-.653.666.66.66 0 0 1-.654-.666.66.66 0 0 1 .654-.667M9.706 56.4H46.83v-4.6H9.706z"/>
            <path fill="#0C893D" d="M17.647 56h20.98a.297.297 0 0 0 .295-.3c0-.166-.132-.3-.295-.3h-20.98a.297.297 0 0 0-.294.3c0 .166.132.3.294.3M18.627 55h19.325a.297.297 0 0 0 .294-.3c0-.166-.131-.3-.294-.3H18.627a.297.297 0 0 0-.294.3c0 .166.132.3.294.3M19.412 53.8h17.51a.297.297 0 0 0 .295-.3c0-.166-.132-.3-.294-.3H19.412a.297.297 0 0 0-.294.3c0 .166.131.3.294.3M20.392 52.8h15.649a.297.297 0 0 0 .294-.3c0-.166-.132-.3-.294-.3H20.392a.297.297 0 0 0-.294.3c0 .166.132.3.294.3M21.765 39.954h.25v.254c0 .166.13.3.293.3a.297.297 0 0 0 .294-.3v-.254h.25a.297.297 0 0 0 .293-.3c0-.165-.131-.3-.294-.3h-.249V39.1c0-.166-.131-.3-.294-.3a.297.297 0 0 0-.294.3v.254h-.25a.297.297 0 0 0-.293.3c0 .166.131.3.294.3M14.902 39.954h.25v.254c0 .166.131.3.293.3a.297.297 0 0 0 .295-.3v-.254h.249a.297.297 0 0 0 .294-.3c0-.165-.132-.3-.294-.3h-.25V39.1c0-.166-.131-.3-.294-.3a.297.297 0 0 0-.294.3v.254h-.249a.297.297 0 0 0-.294.3c0 .166.132.3.294.3M21.667 47.233h1.307V42.2h-1.307v5.033zm-.294.6h1.895a.297.297 0 0 0 .294-.3V41.9c0-.166-.131-.3-.294-.3h-1.895a.297.297 0 0 0-.295.3v5.633c0 .166.132.3.295.3zM14.02 47.233h.768V42.2h-.768v5.033zm-.295.6h1.357a.297.297 0 0 0 .294-.3V41.9c0-.166-.132-.3-.294-.3h-1.357a.297.297 0 0 0-.294.3v5.633c0 .166.132.3.294.3zM16.176 47.233h.769V42.2h-.769v5.033zm-.588-5.333v5.633c0 .166.132.3.294.3h1.357a.297.297 0 0 0 .294-.3V41.9c0-.166-.132-.3-.294-.3h-1.357a.297.297 0 0 0-.294.3zM25.294 47.7a.297.297 0 0 0 .294-.3v-4.7c0-.166-.132-.3-.294-.3a.297.297 0 0 0-.294.3v4.7c0 .166.132.3.294.3M19.412 47.7a.297.297 0 0 0 .294-.3v-4.7c0-.166-.132-.3-.294-.3a.297.297 0 0 0-.294.3v4.7c0 .166.131.3.294.3M11.569 47.7a.297.297 0 0 0 .294-.3v-4.7c0-.166-.132-.3-.294-.3a.297.297 0 0 0-.294.3v4.7c0 .166.131.3.294.3M21.176 49.6h2.5a.297.297 0 0 0 .295-.3c0-.166-.132-.3-.295-.3h-2.5a.297.297 0 0 0-.294.3c0 .166.132.3.294.3M13.333 49.6H17.5a.297.297 0 0 0 .294-.3c0-.166-.132-.3-.294-.3h-4.167a.297.297 0 0 0-.294.3c0 .166.132.3.294.3M33.53 39.954h.248v.254c0 .166.132.3.295.3a.297.297 0 0 0 .294-.3v-.254h.25a.297.297 0 0 0 .293-.3c0-.165-.132-.3-.294-.3h-.25V39.1c0-.166-.131-.3-.293-.3a.297.297 0 0 0-.295.3v.254h-.249a.297.297 0 0 0-.294.3c0 .166.132.3.294.3M27.647 39.954h.25v.254c0 .166.131.3.293.3a.297.297 0 0 0 .295-.3v-.254h.249a.297.297 0 0 0 .294-.3c0-.165-.132-.3-.294-.3h-.25V39.1c0-.166-.131-.3-.294-.3a.297.297 0 0 0-.294.3v.254h-.249a.297.297 0 0 0-.294.3c0 .166.132.3.294.3M40.392 39.954h.25v.254c0 .166.13.3.293.3a.297.297 0 0 0 .294-.3v-.254h.25a.297.297 0 0 0 .294-.3c0-.165-.132-.3-.294-.3h-.25V39.1c0-.166-.131-.3-.294-.3a.297.297 0 0 0-.294.3v.254h-.249a.297.297 0 0 0-.294.3c0 .166.132.3.294.3M33.431 47.233h1.308V42.2H33.43v5.033zm-.294.6h1.896a.297.297 0 0 0 .294-.3V41.9c0-.166-.132-.3-.294-.3h-1.896a.297.297 0 0 0-.294.3v5.633c0 .166.132.3.294.3zM41.667 47.233h.768V42.2h-.768v5.033zm-.589-5.333v5.633c0 .166.132.3.295.3h1.356a.297.297 0 0 0 .294-.3V41.9c0-.166-.131-.3-.294-.3h-1.356a.297.297 0 0 0-.295.3zM39.51 47.233h.768V42.2h-.768v5.033zm-.294.6h1.356a.297.297 0 0 0 .294-.3V41.9c0-.166-.131-.3-.294-.3h-1.356a.297.297 0 0 0-.294.3v5.633c0 .166.131.3.294.3zM31.176 47.7a.297.297 0 0 0 .295-.3v-4.7c0-.166-.132-.3-.295-.3a.297.297 0 0 0-.294.3v4.7c0 .166.132.3.294.3M37.059 47.7a.297.297 0 0 0 .294-.3v-4.7c0-.166-.132-.3-.294-.3a.297.297 0 0 0-.294.3v4.7c0 .166.131.3.294.3M44.902 47.7a.297.297 0 0 0 .294-.3v-4.7c0-.166-.132-.3-.294-.3a.297.297 0 0 0-.294.3v4.7c0 .166.132.3.294.3M32.941 49.6h2.5a.297.297 0 0 0 .294-.3c0-.166-.131-.3-.294-.3h-2.5a.297.297 0 0 0-.294.3c0 .166.132.3.294.3M39.02 49.6h4.166a.297.297 0 0 0 .294-.3c0-.166-.131-.3-.294-.3H39.02a.297.297 0 0 0-.295.3c0 .166.132.3.295.3"/>
            <path fill="#0C893D" d="M46.977 20.366H9.56l-.343-.466H47.32l-.343.466zM11.405 34.683h.294v-1.266h-.294v1.266zm7.93 0h.294v-1.266h-.294v1.266zm5.861 0h.294v-1.266h-.294v1.266zm5.85 0h.294v-1.266h-.294v1.266zm5.86 0h.295v-1.266h-.294v1.266zm7.93 0h.295v-1.266h-.294v1.266zm0-8.566h.295v-5.15h-.294v5.15zm-7.047-3.033v-2.118h6.46v2.165c-.32-.416-.764-.783-1.33-1.09a6.895 6.895 0 0 0-1.849-.67.285.285 0 0 0-.068-.003.28.28 0 0 0-.07.003 6.895 6.895 0 0 0-1.849.67c-.545.295-.978.646-1.294 1.043zM37.2 24.99v1.128h-.294v-5.15h.294v3.435a2.852 2.852 0 0 0-.036.448c0 .05.014.098.036.14zm-5.273-2.066v-1.957h4.39v1.957c-.776-.82-2.054-1.065-2.131-1.079a.275.275 0 0 0-.064-.004.277.277 0 0 0-.064.004c-.077.014-1.355.259-2.131 1.08zm-.882 1.313v-3.27h.294v5.15h-.294v-1.68a.302.302 0 0 0 .005-.059c0-.048-.003-.095-.005-.141zm-4.968-1.32v-1.95h4.38v1.95c-.778-.815-2.05-1.058-2.126-1.072a.276.276 0 0 0-.064-.004.277.277 0 0 0-.064.004c-.077.014-1.349.257-2.126 1.073zm-.588 1.52v1.68h-.294v-5.15h.294v3.27a2.217 2.217 0 0 0-.005.141c0 .02.002.04.005.058zm-5.273-1.513v-1.957h4.39v1.957c-.775-.82-2.053-1.065-2.13-1.079a.277.277 0 0 0-.064-.004.278.278 0 0 0-.064.004c-.077.014-1.355.259-2.132 1.08zm-.882 1.48v-3.437h.294v5.15h-.294V24.99a.298.298 0 0 0 .035-.139c0-.153-.012-.302-.035-.448zm-7.048-1.272v-2.165h6.46v2.118c-.316-.397-.75-.748-1.294-1.044a6.895 6.895 0 0 0-1.849-.669.285.285 0 0 0-.068-.003.28.28 0 0 0-.07.003 6.895 6.895 0 0 0-1.849.67c-.566.307-1.01.674-1.33 1.09zm-.882 2.986h.294v-5.15h-.294v5.15zm-.653.6h1.6a.297.297 0 0 0 .295-.3c0-.166-.132-.3-.294-.3h-.066V24.85c0-2.136 2.905-2.81 3.248-2.881.322.067 2.882.656 3.212 2.485v1.663h-.065a.297.297 0 0 0-.295.3c0 .165.132.3.295.3h1.6a.297.297 0 0 0 .295-.3c0-.166-.132-.3-.294-.3h-.066v-1.74c0-1.402 1.9-1.87 2.196-1.934.297.064 2.195.528 2.195 1.934v1.74h-.065a.297.297 0 0 0-.295.3c0 .165.132.3.295.3h1.6a.297.297 0 0 0 .295-.3c0-.166-.132-.3-.294-.3h-.066v-1.865c.11-1.305 1.904-1.747 2.19-1.81.288.063 2.08.501 2.19 1.81v1.865h-.066a.297.297 0 0 0-.294.3c0 .165.132.3.294.3h1.601a.297.297 0 0 0 .294-.3c0-.166-.131-.3-.294-.3h-.065v-1.74c0-1.402 1.9-1.87 2.195-1.934.297.064 2.195.528 2.195 1.934v1.74h-.065a.297.297 0 0 0-.294.3c0 .165.132.3.294.3h1.601a.297.297 0 0 0 .294-.3c0-.166-.131-.3-.294-.3h-.065v-1.662c.33-1.825 2.892-2.419 3.212-2.486.344.071 3.247.74 3.247 2.881v1.267h-.065a.297.297 0 0 0-.294.3c0 .165.132.3.294.3h1.601a.297.297 0 0 0 .294-.3c0-.166-.131-.3-.294-.3h-.065v-5.15h1.111v13.716h-1.111v-1.266h.065a.297.297 0 0 0 .294-.3c0-.166-.131-.3-.294-.3h-1.601a.297.297 0 0 0-.294.3c0 .165.132.3.294.3h.065v1.266h-6.46v-1.266h.066a.297.297 0 0 0 .294-.3c0-.166-.131-.3-.294-.3h-1.601a.297.297 0 0 0-.294.3c0 .165.132.3.294.3h.065v1.266h-4.39v-1.266h.065a.297.297 0 0 0 .294-.3c0-.166-.131-.3-.294-.3h-1.601a.297.297 0 0 0-.294.3c0 .165.132.3.294.3h.065v1.266h-4.379v-1.266h.066a.297.297 0 0 0 .294-.3c0-.166-.132-.3-.294-.3h-1.601a.297.297 0 0 0-.295.3c0 .165.132.3.295.3h.065v1.266h-4.39v-1.266h.065a.297.297 0 0 0 .294-.3c0-.166-.132-.3-.294-.3h-1.601a.297.297 0 0 0-.295.3c0 .165.132.3.295.3h.065v1.266h-6.46v-1.266h.066a.297.297 0 0 0 .294-.3c0-.166-.132-.3-.294-.3h-1.601a.297.297 0 0 0-.295.3c0 .165.132.3.295.3h.065v1.266H9.706V20.966h1.11v5.15h-.064a.297.297 0 0 0-.295.3c0 .166.132.3.295.3zm36.225 9.033H9.56l-.343-.467H47.32l-.343.467zM11.405 50.067h.294V48.8h-.294v1.267zm7.93 0h.294V48.8h-.294v1.267zm5.861 0h.294V48.8h-.294v1.267zm5.85 0h.294V48.8h-.294v1.267zm5.86 0h.295V48.8h-.294v1.267zm7.93 0h.295V48.8h-.294v1.267zm0-8.567h.295v-5.15h-.294v5.15zm-7.047-3.032V36.35h6.46v2.164c-.32-.416-.764-.783-1.33-1.09a6.895 6.895 0 0 0-1.849-.67.283.283 0 0 0-.069-.003.282.282 0 0 0-.07.004 6.895 6.895 0 0 0-1.848.669c-.545.296-.978.647-1.294 1.044zm-.588 1.905V41.5h-.294v-5.15h.294v3.436a2.852 2.852 0 0 0-.036.447c0 .051.014.098.036.14zm-5.273-2.066V36.35h4.39v1.957c-.776-.82-2.054-1.066-2.131-1.08-.021-.003-.042-.004-.063-.003a.284.284 0 0 0-.065.003c-.077.014-1.355.26-2.131 1.08zm-.882 1.312v-3.27h.294V41.5h-.294v-1.681a.302.302 0 0 0 .005-.058c0-.049-.003-.095-.005-.142zM26.078 38.3v-1.95h4.38v1.95c-.778-.815-2.05-1.059-2.126-1.073-.021-.003-.043-.004-.063-.003a.284.284 0 0 0-.065.003c-.077.014-1.349.258-2.126 1.073zm-.588 1.519V41.5h-.294v-5.15h.294v3.27a2.217 2.217 0 0 0-.005.14c0 .02.002.04.005.059zm-5.273-1.512V36.35h4.39v1.957c-.775-.82-2.053-1.066-2.13-1.08a.28.28 0 0 0-.063-.003.286.286 0 0 0-.065.003c-.077.014-1.355.26-2.132 1.08zm-.882 1.479V36.35h.294v5.15h-.294v-1.127a.298.298 0 0 0 .035-.14c0-.152-.012-.302-.035-.447zm-7.048-1.272V36.35h6.46v2.118c-.316-.397-.75-.748-1.294-1.044a6.895 6.895 0 0 0-1.849-.67.285.285 0 0 0-.069-.003.28.28 0 0 0-.07.004 6.895 6.895 0 0 0-1.848.669c-.566.307-1.01.674-1.33 1.09zm-.882 2.986h.294v-5.15h-.294v5.15zm-.653.6h1.6a.297.297 0 0 0 .295-.3c0-.166-.132-.3-.294-.3h-.066v-1.267c0-2.136 2.905-2.81 3.248-2.88.322.066 2.882.656 3.212 2.484V41.5h-.065a.297.297 0 0 0-.295.3c0 .166.132.3.295.3h1.6a.297.297 0 0 0 .295-.3c0-.166-.132-.3-.294-.3h-.066v-1.74c0-1.401 1.9-1.87 2.196-1.934.297.064 2.195.528 2.195 1.935V41.5h-.065a.297.297 0 0 0-.295.3c0 .166.132.3.295.3h1.6a.297.297 0 0 0 .295-.3c0-.166-.132-.3-.294-.3h-.066v-1.865c.11-1.304 1.904-1.747 2.19-1.809.288.062 2.08.5 2.19 1.809V41.5h-.066a.297.297 0 0 0-.294.3c0 .166.132.3.294.3h1.601a.297.297 0 0 0 .294-.3c0-.166-.131-.3-.294-.3h-.065v-1.74c0-1.401 1.9-1.87 2.195-1.934.297.064 2.195.528 2.195 1.935V41.5h-.065a.297.297 0 0 0-.294.3c0 .166.132.3.294.3h1.601a.297.297 0 0 0 .294-.3c0-.166-.131-.3-.294-.3h-.065v-1.662c.33-1.825 2.892-2.419 3.212-2.486.344.072 3.247.74 3.247 2.881V41.5h-.065a.297.297 0 0 0-.294.3c0 .166.132.3.294.3h1.601a.297.297 0 0 0 .294-.3c0-.166-.131-.3-.294-.3h-.065v-5.15h1.111v13.717h-1.111V48.8h.065a.297.297 0 0 0 .294-.3c0-.166-.131-.3-.294-.3h-1.601a.297.297 0 0 0-.294.3c0 .166.132.3.294.3h.065v1.267h-6.46V48.8h.066a.297.297 0 0 0 .294-.3c0-.166-.131-.3-.294-.3h-1.601a.297.297 0 0 0-.294.3c0 .166.132.3.294.3h.065v1.267h-4.39V48.8h.065a.297.297 0 0 0 .294-.3c0-.166-.131-.3-.294-.3h-1.601a.297.297 0 0 0-.294.3c0 .166.132.3.294.3h.065v1.267h-4.379V48.8h.066a.297.297 0 0 0 .294-.3c0-.166-.132-.3-.294-.3h-1.601a.297.297 0 0 0-.295.3c0 .166.132.3.295.3h.065v1.267h-4.39V48.8h.065a.297.297 0 0 0 .294-.3c0-.166-.132-.3-.294-.3h-1.601a.297.297 0 0 0-.295.3c0 .166.132.3.295.3h.065v1.267h-6.46V48.8h.066a.297.297 0 0 0 .294-.3c0-.166-.132-.3-.294-.3h-1.601a.297.297 0 0 0-.295.3c0 .166.132.3.295.3h.065v1.267H9.706V36.35h1.11v5.15h-.064a.297.297 0 0 0-.295.3c0 .166.132.3.295.3zm36.225 9.033H9.56l-.343-.466H47.32l-.343.466zm-37.271 5.2H46.83v-4.6H9.706v4.6zm1.7-37.033h.293v-1.767h-.294V19.3zm.146-3.7a.66.66 0 0 1 .654.667.66.66 0 0 1-.654.666.66.66 0 0 1-.653-.666.66.66 0 0 1 .653-.667zm.735 3.7h6.46v-.933h-6.46v.933zm7.048 0h.294v-1.767h-.294V19.3zm.147-3.7a.66.66 0 0 1 .654.667.66.66 0 0 1-.654.666.66.66 0 0 1-.653-.666.66.66 0 0 1 .653-.667zm.735 3.7h4.39v-.933h-4.39v.933zm4.98 0h.293v-1.767h-.294V19.3zm.146-3.7a.66.66 0 0 1 .654.667.66.66 0 0 1-.654.666.66.66 0 0 1-.653-.666.66.66 0 0 1 .653-.667zm.735 3.7h4.38v-.933h-4.38v.933zm4.968 0h.294v-1.767h-.294V19.3zm.147-3.7a.66.66 0 0 1 .653.667.66.66 0 0 1-.653.666.66.66 0 0 1-.654-.666.66.66 0 0 1 .654-.667zm.735 3.7h4.39v-.933h-4.39v.933zm5.273-1.231v1.23h-.294v-1.766h.294v.536zm-.147-2.469a.66.66 0 0 1 .653.667.66.66 0 0 1-.653.666.66.66 0 0 1-.654-.666.66.66 0 0 1 .654-.667zm.735 3.7h6.46v-.933h-6.46v.933zm7.048 0h.294v-1.767h-.294V19.3zm.147-3.7a.66.66 0 0 1 .653.667.66.66 0 0 1-.653.666.66.66 0 0 1-.654-.666.66.66 0 0 1 .654-.667zm3.188 3.866a.294.294 0 0 0-.264-.166h-2.19v-2.015c.307-.23.507-.6.507-1.018 0-.699-.557-1.267-1.241-1.267-.685 0-1.242.568-1.242 1.267 0 .417.2.787.506 1.018v.482h-6.46v-.482c.307-.23.507-.6.507-1.018 0-.699-.557-1.267-1.241-1.267-.685 0-1.242.568-1.242 1.267 0 .417.2.787.506 1.018v.482h-4.39v-.482c.306-.23.506-.6.506-1.018 0-.699-.557-1.267-1.241-1.267-.685 0-1.242.568-1.242 1.267 0 .417.2.787.506 1.018v.482h-4.379v-.482c.307-.23.507-.6.507-1.018 0-.699-.557-1.267-1.242-1.267-.685 0-1.242.568-1.242 1.267 0 .417.2.787.507 1.018v.482h-4.39v-.482c.306-.23.506-.6.506-1.018 0-.699-.557-1.267-1.242-1.267-.685 0-1.242.568-1.242 1.267 0 .417.2.787.507 1.018v.482h-6.46v-.482c.307-.23.507-.6.507-1.018 0-.699-.557-1.267-1.242-1.267-.685 0-1.242.568-1.242 1.267 0 .417.2.787.507 1.018V19.3h-2.19a.294.294 0 0 0-.263.166.305.305 0 0 0 .028.314l.726.987v13.916h-.49a.294.294 0 0 0-.264.166.305.305 0 0 0 .028.314l.726.987v13.917h-.49a.294.294 0 0 0-.264.165.305.305 0 0 0 .028.315l.726.986v5.1c0 .166.131.3.294.3h37.712a.297.297 0 0 0 .294-.3v-5.1l.726-.986a.305.305 0 0 0 .028-.315.294.294 0 0 0-.264-.165h-.49V36.15l.726-.987a.305.305 0 0 0 .028-.314.294.294 0 0 0-.264-.166h-.49V20.767l.726-.987a.305.305 0 0 0 .028-.314z"/>
            <path fill="#0C893D" d="M21.765 24.554h.25v.254c0 .166.13.3.293.3a.297.297 0 0 0 .294-.3v-.254h.25a.297.297 0 0 0 .293-.3c0-.165-.131-.3-.294-.3h-.249V23.7c0-.166-.131-.3-.294-.3a.297.297 0 0 0-.294.3v.254h-.25a.297.297 0 0 0-.293.3c0 .166.131.3.294.3M14.902 24.554h.25v.254c0 .166.131.3.293.3a.297.297 0 0 0 .295-.3v-.254h.249a.297.297 0 0 0 .294-.3c0-.165-.132-.3-.294-.3h-.25V23.7c0-.166-.131-.3-.294-.3a.297.297 0 0 0-.294.3v.254h-.249a.297.297 0 0 0-.294.3c0 .166.132.3.294.3M21.667 31.833h1.307V26.8h-1.307v5.033zm-.294.6h1.895a.297.297 0 0 0 .294-.3V26.5c0-.166-.131-.3-.294-.3h-1.895a.297.297 0 0 0-.295.3v5.633c0 .166.132.3.295.3zM14.02 31.833h.768V26.8h-.768v5.033zm-.295.6h1.357a.297.297 0 0 0 .294-.3V26.5c0-.166-.132-.3-.294-.3h-1.357a.297.297 0 0 0-.294.3v5.633c0 .166.132.3.294.3zM16.176 31.833h.769V26.8h-.769v5.033zm-.588-5.333v5.633c0 .166.132.3.294.3h1.357a.297.297 0 0 0 .294-.3V26.5c0-.166-.132-.3-.294-.3h-1.357a.297.297 0 0 0-.294.3zM25.294 32.5a.297.297 0 0 0 .294-.3v-4.7c0-.166-.132-.3-.294-.3a.297.297 0 0 0-.294.3v4.7c0 .166.132.3.294.3M19.412 32.5a.297.297 0 0 0 .294-.3v-4.7c0-.166-.132-.3-.294-.3a.297.297 0 0 0-.294.3v4.7c0 .166.131.3.294.3M11.569 32.5a.297.297 0 0 0 .294-.3v-4.7c0-.166-.132-.3-.294-.3a.297.297 0 0 0-.294.3v4.7c0 .166.131.3.294.3M21.176 34.2h2.5a.297.297 0 0 0 .295-.3c0-.166-.132-.3-.295-.3h-2.5a.297.297 0 0 0-.294.3c0 .166.132.3.294.3M13.333 34.2H17.5a.297.297 0 0 0 .294-.3c0-.166-.132-.3-.294-.3h-4.167a.297.297 0 0 0-.294.3c0 .166.132.3.294.3M33.53 24.554h.248v.254c0 .166.132.3.295.3a.297.297 0 0 0 .294-.3v-.254h.25a.297.297 0 0 0 .293-.3c0-.165-.132-.3-.294-.3h-.25V23.7c0-.166-.131-.3-.293-.3a.297.297 0 0 0-.295.3v.254h-.249a.297.297 0 0 0-.294.3c0 .166.132.3.294.3M27.647 24.554h.25v.254c0 .166.131.3.293.3a.297.297 0 0 0 .295-.3v-.254h.249a.297.297 0 0 0 .294-.3c0-.165-.132-.3-.294-.3h-.25V23.7c0-.166-.131-.3-.294-.3a.297.297 0 0 0-.294.3v.254h-.249a.297.297 0 0 0-.294.3c0 .166.132.3.294.3M40.392 24.554h.25v.254c0 .166.13.3.293.3a.297.297 0 0 0 .294-.3v-.254h.25a.297.297 0 0 0 .294-.3c0-.165-.132-.3-.294-.3h-.25V23.7c0-.166-.131-.3-.294-.3a.297.297 0 0 0-.294.3v.254h-.249a.297.297 0 0 0-.294.3c0 .166.132.3.294.3M33.431 31.833h1.308V26.8H33.43v5.033zm-.294.6h1.896a.297.297 0 0 0 .294-.3V26.5c0-.166-.132-.3-.294-.3h-1.896a.297.297 0 0 0-.294.3v5.633c0 .166.132.3.294.3zM41.667 31.833h.768V26.8h-.768v5.033zm-.589-5.333v5.633c0 .166.132.3.295.3h1.356a.297.297 0 0 0 .294-.3V26.5c0-.166-.131-.3-.294-.3h-1.356a.297.297 0 0 0-.295.3zM39.51 31.833h.768V26.8h-.768v5.033zm-.294.6h1.356a.297.297 0 0 0 .294-.3V26.5c0-.166-.131-.3-.294-.3h-1.356a.297.297 0 0 0-.294.3v5.633c0 .166.131.3.294.3zM31.176 32.5a.297.297 0 0 0 .295-.3v-4.7c0-.166-.132-.3-.295-.3a.297.297 0 0 0-.294.3v4.7c0 .166.132.3.294.3M37.059 32.5a.297.297 0 0 0 .294-.3v-4.7c0-.166-.132-.3-.294-.3a.297.297 0 0 0-.294.3v4.7c0 .166.131.3.294.3M44.902 32.5a.297.297 0 0 0 .294-.3v-4.7c0-.166-.132-.3-.294-.3a.297.297 0 0 0-.294.3v4.7c0 .166.132.3.294.3M32.941 34.2h2.5a.297.297 0 0 0 .294-.3c0-.166-.131-.3-.294-.3h-2.5a.297.297 0 0 0-.294.3c0 .166.132.3.294.3M39.02 34.2h4.166a.297.297 0 0 0 .294-.3c0-.166-.131-.3-.294-.3H39.02a.297.297 0 0 0-.295.3c0 .166.132.3.295.3"/>
        </g>
    </g>
</svg>
