<?xml version="1.0" encoding="utf-8"?>
<!-- Generator: Adobe Illustrator 24.1.3, SVG Export Plug-In . SVG Version: 6.00 Build 0)  -->
<svg version="1.1" id="Layer_1" xmlns="http://www.w3.org/2000/svg" xmlns:xlink="http://www.w3.org/1999/xlink" x="0px" y="0px"
	 viewBox="0 0 46.3 49.8" style="enable-background:new 0 0 46.3 49.8;" xml:space="preserve">
<style type="text/css">
	.st0{fill:#008E57;}
	.st1{fill:#FFFFFF;}
	.st2{fill:#087A49;}
</style>
<g>
	<g>
		<path class="st0" d="M23.2,48.3c25-6.9,21.6-39.6,21.6-39.6L23.2,1.5L1.6,8.7C1.6,8.7-1.8,41.4,23.2,48.3z"/>
	</g>
	<g>
		<path class="st1" d="M23.2,49.1L23,49C-2.3,42,0.8,9,0.8,8.7l0.1-0.5l22.3-7.4l22.3,7.4l0,0.5C45.5,9,48.7,42,23.4,49L23.2,49.1z
			 M2.3,9.3c-0.3,4-1.4,31.9,20.9,38.2c22.3-6.3,21.2-34.2,20.9-38.2l-20.9-7L2.3,9.3z"/>
	</g>
	<g>
		<path class="st1" d="M23.2,44.9C44.5,39,41.6,11.1,41.6,11.1L23.2,5L4.8,11.1C4.8,11.1,1.9,39,23.2,44.9z"/>
	</g>
	<g>
		<g>
			<path class="st0" d="M12.5,15.1c3.8-2.6,9-1.7,11.6,2s1.7,8.8-2.1,11.4L12.5,15.1z"/>
		</g>
		<g>
			<path class="st0" d="M33.8,30.5c-3.8,2.6-9,1.7-11.6-2c-2.6-3.7-1.7-8.8,2.1-11.4L33.8,30.5z"/>
		</g>
		<g>
			<path class="st0" d="M15.3,33.2c-2.6-3.7-1.7-8.8,2.1-11.4c3.8-2.6,9-1.7,11.6,2L15.3,33.2z"/>
		</g>
		<g>
			<path class="st2" d="M17.3,21.8c0,0,1.8,2.9,3.5,3.9c1.8,1,4.4,0.6,4.4,0.6l3.7-2.6L17.3,21.8z"/>
		</g>
		<g>
			<path class="st0" d="M31,12.4c2.6,3.7,1.7,8.8-2.1,11.4s-9,1.7-11.6-2L31,12.4z"/>
		</g>
		<g>
			<path class="st2" d="M17.3,21.8l5.7-6c0,0,0.4,0.4,0.6,0.7c0.2,0.3,0.5,0.6,0.5,0.6L17.3,21.8z"/>
		</g>
		<g>
			<path class="st2" d="M29,23.8l-5.7,6c0,0-0.4-0.4-0.6-0.6c-0.2-0.2-0.5-0.7-0.5-0.7L29,23.8z"/>
		</g>
		<g>
			<ellipse class="st1" cx="23.2" cy="22.1" rx="1.1" ry="1.1"/>
		</g>
	</g>
</g>
</svg>
